<svg width="130" height="130" viewBox="0 0 130 130" fill="none" xmlns="http://www.w3.org/2000/svg">
<path d="M111.43 91.2493C110.006 83.1066 107.066 75.3035 102.763 68.2455C99.8042 63.0331 97.2537 58.5388 96.4861 50.3178C96.3567 48.8973 96.5168 47.4653 96.9566 46.1083L98.4671 41.5026C99.9673 36.9023 99.9689 31.9446 98.4715 27.3434C96.9741 22.7422 94.0551 18.735 90.1347 15.8988L78.8061 7.69022C74.9006 4.83304 70.1871 3.29297 65.348 3.29297C60.509 3.29297 55.7955 4.83304 51.8899 7.69022L40.5861 15.8988C36.6658 18.735 33.7467 22.7422 32.2493 27.3434C30.7519 31.9446 30.7535 36.9023 32.2537 41.5026L33.7395 46.1083C34.1893 47.4631 34.3537 48.8964 34.2223 50.3178C33.4299 58.5388 30.9537 63.0331 27.9576 68.2331C23.6466 75.2917 20.7063 83.1003 19.2909 91.2493C17.6885 99.2111 17.1556 107.351 17.7061 115.454C17.9414 118.401 18.7833 120.406 20.269 121.409C22.1757 122.784 24.788 122.363 26.8557 121.855C32.4395 120.456 36.7604 121.855 42.0842 123.65C49.1758 126.255 56.6551 127.649 64.209 127.773H66.4747C74.0327 127.65 81.5162 126.256 88.6118 123.65C94.0099 121.867 98.269 120.456 103.84 121.855C105.896 122.363 108.52 122.784 110.427 121.409C111.913 120.345 112.755 118.401 112.99 115.454C113.549 107.352 113.024 99.2122 111.43 91.2493ZM111.777 115.355C111.566 117.918 110.898 119.565 109.734 120.406C108.57 121.248 106.837 121.323 104.162 120.654C98.2442 119.168 93.8242 120.654 88.2404 122.474C81.2602 125.04 73.8981 126.413 66.4623 126.535H64.2461C56.8145 126.412 49.4565 125.039 42.4804 122.474C38.5061 121.162 35.0518 119.998 31.3376 119.998C29.7167 120.002 28.1027 120.21 26.5337 120.617C23.8595 121.285 22.1385 121.211 20.9623 120.369C19.7861 119.527 19.1299 117.893 18.9195 115.318C18.3784 107.323 18.903 99.2916 20.4795 91.435C21.8757 83.4258 24.7698 75.7517 29.0099 68.815C32.0309 63.4788 34.6309 58.9102 35.4357 50.4045C35.5705 48.8124 35.3896 47.2094 34.9033 45.6874L33.4299 41.1312C32.006 36.7804 32 32.0898 33.4129 27.7354C34.8258 23.381 37.5847 19.5875 41.2918 16.9017L52.608 8.66832C56.3084 5.9713 60.7691 4.51817 65.348 4.51817C69.9269 4.51817 74.3877 5.9713 78.088 8.66832L89.3918 16.8769C93.0975 19.564 95.8552 23.3576 97.2679 27.7115C98.6807 32.0655 98.6757 36.7554 97.2537 41.1064L95.7556 45.6997C95.2702 47.2262 95.0894 48.8331 95.2233 50.4293C96.028 58.9102 98.6404 63.5159 101.661 68.8397C105.892 75.7854 108.786 83.4618 110.192 91.4721C111.767 99.3288 112.292 107.36 111.752 115.355H111.777Z" fill="#333333"/>
<path d="M84.2778 39.2099C85.0468 36.8488 85.0463 34.3046 84.2765 31.9438C83.5066 29.583 82.0071 27.5275 79.994 26.0737L72.2559 20.4528C70.2511 18.986 67.8314 18.1953 65.3473 18.1953C62.8632 18.1953 60.4436 18.986 58.4388 20.4528L50.7626 26.0737C48.7495 27.5275 47.25 29.583 46.4801 31.9438C45.7102 34.3046 45.7097 36.8488 46.4788 39.2099L49.3759 48.2851C50.1333 50.6458 51.6202 52.7052 53.6226 54.167C55.625 55.6287 58.0396 56.4174 60.5188 56.4194H70.0892C72.567 56.4117 74.9789 55.6208 76.9802 54.1599C78.9815 52.699 80.4697 50.6427 81.2321 48.2851L84.1911 39.1851L84.2778 39.2099ZM83.0397 38.8385L80.0807 47.9261C79.4006 50.0436 78.065 51.89 76.2667 53.1986C74.4685 54.5072 72.3008 55.2102 70.0768 55.2061H60.5559C58.3351 55.2104 56.1705 54.5086 54.3745 53.2023C52.5786 51.896 51.2444 50.0526 50.5645 47.9385L47.6054 38.8385C46.9157 36.7247 46.9132 34.4468 47.5983 32.3315C48.2834 30.2162 49.6208 28.3723 51.4188 27.0642L59.1568 21.4432C60.9542 20.1311 63.122 19.4241 65.3473 19.4241C67.5727 19.4241 69.7404 20.1311 71.5378 21.4432L79.2388 27.0642C81.0433 28.3674 82.3881 30.2091 83.08 32.3248C83.7718 34.4404 83.7751 36.7209 83.0892 38.8385H83.0397Z" fill="#333333"/>
<path d="M45.8103 69.0969C39.898 74.0406 36.0939 81.0532 35.1737 88.705C34.2535 96.3567 36.2864 104.071 40.8579 110.276C41.1271 110.659 41.4849 110.972 41.9009 111.188C42.317 111.403 42.7789 111.515 43.2475 111.514C43.796 111.512 44.3358 111.376 44.8198 111.118C45.4679 110.778 45.9685 110.212 46.2265 109.527C46.4844 108.842 46.4817 108.086 46.2189 107.404C41.5884 95.4807 42.4055 83.3597 48.6208 71.375C48.8225 71.0036 48.8847 70.5722 48.7962 70.159C48.7076 69.7457 48.4741 69.3778 48.1379 69.1216C47.8109 68.8528 47.4018 68.7038 46.9785 68.6993C46.5552 68.6948 46.143 68.8351 45.8103 69.0969ZM47.5808 70.7559C41.1798 83.075 40.3503 95.5178 45.1046 107.8C45.2383 108.212 45.2237 108.658 45.0633 109.06C44.9029 109.463 44.6067 109.797 44.2261 110.004C43.8455 110.211 43.4044 110.279 42.9792 110.195C42.554 110.111 42.1715 109.882 41.8979 109.545C37.5058 103.6 35.5461 96.2027 36.4179 88.8621C37.2898 81.5215 40.9276 74.7895 46.5903 70.0378C46.7003 69.9424 46.8409 69.8896 46.9865 69.8892C47.1358 69.8899 47.2802 69.9424 47.3951 70.0378C47.5152 70.108 47.604 70.2215 47.6431 70.355C47.6823 70.4885 47.6688 70.632 47.6055 70.7559H47.5808Z" fill="#333333"/>
<path d="M85.1342 69.3367C84.8075 69.059 84.3947 68.9028 83.966 68.8949C83.5372 68.8869 83.1189 69.0275 82.782 69.2929C82.4452 69.5583 82.2106 69.9321 82.118 70.3508C82.0254 70.7695 82.0806 71.2074 82.2742 71.5901C88.0561 83.1786 88.9723 94.9281 85.0228 106.504C84.7775 107.207 84.8012 107.975 85.0894 108.661C85.3775 109.347 85.9095 109.902 86.5828 110.219C87.0298 110.438 87.521 110.552 88.019 110.553C88.5123 110.556 88.9984 110.434 89.4315 110.198C89.8647 109.962 90.2307 109.62 90.4952 109.203C94.6417 103.056 96.3865 95.5995 95.3983 88.2503C94.41 80.9011 90.7575 74.1706 85.1342 69.3367ZM89.4799 108.547C89.2274 108.92 88.848 109.188 88.4124 109.302C87.9768 109.416 87.5146 109.368 87.1119 109.167C86.7092 108.965 86.3933 108.624 86.2231 108.208C86.0529 107.791 86.0399 107.326 86.1866 106.901C90.2599 95.0024 89.319 82.931 83.3885 70.9958C83.3161 70.8694 83.2937 70.7203 83.3257 70.5782C83.3578 70.4361 83.4421 70.3112 83.5618 70.2281C83.6691 70.1363 83.8045 70.0839 83.9457 70.0796C84.0896 70.0816 84.2271 70.1393 84.3295 70.2405C89.7283 74.88 93.2355 81.3406 94.185 88.3955C95.1344 95.4504 93.4601 102.608 89.4799 108.51V108.547Z" fill="#333333"/>
<path d="M65.3473 76.7656C62.2864 76.7656 59.2942 77.6733 56.7492 79.3738C54.2041 81.0744 52.2205 83.4914 51.0492 86.3193C49.8778 89.1472 49.5713 92.259 50.1685 95.2611C50.7656 98.2632 52.2396 101.021 54.404 103.185C56.5684 105.35 59.3259 106.823 62.328 107.421C65.3301 108.018 68.4419 107.711 71.2698 106.54C74.0977 105.369 76.5147 103.385 78.2153 100.84C79.9158 98.2949 80.8235 95.3027 80.8235 92.2418C80.8202 88.1383 79.1886 84.2038 76.287 81.3021C73.3853 78.4005 69.4508 76.7689 65.3473 76.7656ZM65.3473 106.48C62.5313 106.48 59.7785 105.645 57.437 104.08C55.0956 102.516 53.2707 100.292 52.193 97.6905C51.1154 95.0888 50.8334 92.226 51.3828 89.4641C51.9322 86.7022 53.2882 84.1652 55.2794 82.174C57.2707 80.1827 59.8077 78.8267 62.5696 78.2773C65.3315 77.7279 68.1943 78.0099 70.796 79.0875C73.3976 80.1652 75.6213 81.9901 77.1858 84.3315C78.7503 86.673 79.5854 89.4258 79.5854 92.2418C79.5821 96.017 78.081 99.6366 75.4115 102.306C72.7421 104.976 69.1225 106.477 65.3473 106.48Z" fill="#333333"/>
<path d="M65.3475 78.0039C62.5314 78.0039 59.7787 78.839 57.4372 80.4035C55.0958 81.968 53.2708 84.1917 52.1932 86.7933C51.1155 89.395 50.8336 92.2578 51.383 95.0197C51.9323 97.7816 53.2884 100.319 55.2796 102.31C57.2709 104.301 59.8078 105.657 62.5698 106.207C65.3317 106.756 68.1945 106.474 70.7962 105.396C73.3978 104.319 75.6215 102.494 77.186 100.152C78.7505 97.8108 79.5856 95.058 79.5856 92.242C79.5823 88.4668 78.0812 84.8472 75.4117 82.1778C72.7423 79.5083 69.1226 78.0072 65.3475 78.0039ZM65.3475 100.29C63.7558 100.29 62.1999 99.8176 60.8765 98.9334C59.553 98.0491 58.5216 96.7922 57.9124 95.3217C57.3033 93.8512 57.144 92.2331 57.4545 90.672C57.765 89.1109 58.5315 87.677 59.657 86.5515C60.7824 85.426 62.2164 84.6595 63.7775 84.349C65.3386 84.0385 66.9567 84.1979 68.4272 84.807C69.8977 85.4161 71.1545 86.4476 72.0388 87.771C72.9231 89.0944 73.3951 90.6503 73.3951 92.242C73.3951 94.3764 72.5472 96.4233 71.038 97.9325C69.5288 99.4417 67.4818 100.29 65.3475 100.29Z" fill="#2452CC"/>
<path d="M65.3484 84.1914C63.7567 84.1914 62.2008 84.6634 60.8774 85.5477C59.554 86.432 58.5225 87.6888 57.9134 89.1593C57.3043 90.6298 57.1449 92.248 57.4554 93.809C57.7659 95.3701 58.5324 96.8041 59.6579 97.9295C60.7834 99.055 62.2173 99.8215 63.7784 100.132C65.3395 100.443 66.9576 100.283 68.4281 99.6741C69.8986 99.065 71.1555 98.0335 72.0398 96.71C72.924 95.3866 73.396 93.8307 73.396 92.239C73.3927 90.1057 72.5438 88.0606 71.0353 86.5521C69.5268 85.0436 67.4818 84.1947 65.3484 84.1914ZM65.3484 99.0485C64.0016 99.0485 62.6851 98.6492 61.5652 97.9009C60.4454 97.1527 59.5726 96.0892 59.0572 94.8449C58.5418 93.6006 58.407 92.2315 58.6697 90.9106C58.9325 89.5896 59.581 88.3763 60.5333 87.424C61.4857 86.4716 62.699 85.8231 64.0199 85.5603C65.3409 85.2976 66.71 85.4324 67.9543 85.9478C69.1986 86.4632 70.2621 87.336 71.0103 88.4559C71.7586 89.5757 72.1579 90.8922 72.1579 92.239C72.1579 93.1333 71.9818 94.0187 71.6396 94.8449C71.2974 95.6711 70.7958 96.4218 70.1635 97.0541C69.5311 97.6864 68.7805 98.188 67.9543 98.5302C67.1281 98.8724 66.2426 99.0485 65.3484 99.0485Z" fill="#333333"/>
</svg>
