<svg width="130" height="130" viewBox="0 0 130 130" fill="none" xmlns="http://www.w3.org/2000/svg">
<path d="M119.726 8.66726C114.569 3.52462 107.583 0.636719 100.3 0.636719C93.0172 0.636719 86.0314 3.52462 80.8744 8.66726C79.3392 10.2025 75.7735 13.7806 61.7211 39.6196L59.4306 37.3787C58.6968 36.6503 57.7638 36.1554 56.7492 35.9564C55.7346 35.7573 54.6838 35.8631 53.7292 36.2603C52.7746 36.6575 51.9589 37.3284 51.385 38.1884C50.811 39.0484 50.5045 40.059 50.504 41.093C50.5101 41.6192 50.5978 42.1413 50.764 42.6406C50.2647 42.4742 49.7426 42.3865 49.2164 42.3806C48.5292 42.379 47.8484 42.5129 47.2131 42.7747C46.5778 43.0366 46.0004 43.4212 45.5139 43.9065C45.0274 44.3918 44.6414 44.9684 44.3781 45.6031C44.1148 46.2378 43.9792 46.9182 43.9792 47.6054C43.9831 48.1318 44.0708 48.6542 44.2392 49.153C43.7379 48.9964 43.2167 48.913 42.6916 48.9054C41.655 48.8999 40.6402 49.203 39.7764 49.7759C38.9125 50.3489 38.2386 51.1658 37.8404 52.1229C37.4422 53.0799 37.3376 54.1338 37.5401 55.1505C37.7425 56.1671 38.2428 57.1005 38.9773 57.832L41.2306 60.0977C15.3916 74.1501 11.8135 77.7158 10.2783 79.2387C5.20635 84.4073 2.38018 91.3693 2.41437 98.6107C2.44856 105.852 5.34034 112.787 10.4608 117.908C15.5813 123.028 22.5163 125.92 29.7577 125.954C36.9991 125.988 43.9611 123.162 49.1297 118.09L48.6964 117.62L49.1297 118.053C50.3678 116.815 52.9925 114.19 61.5973 99.1101C61.2506 110.476 64.9278 120.158 72.5544 127.809C73.0412 128.299 73.6199 128.687 74.2573 128.953C74.8948 129.218 75.5783 129.354 76.2687 129.354C76.9591 129.354 77.6427 129.218 78.2801 128.953C78.9176 128.687 79.4963 128.299 79.983 127.809C80.9629 126.821 81.5127 125.486 81.5127 124.095C81.5127 122.703 80.9629 121.368 79.983 120.381C72.6287 112.952 70.4249 103.258 73.223 90.6663C73.5643 90.7442 73.9129 90.7857 74.263 90.7901C75.6498 90.7868 76.9788 90.2336 77.9582 89.2518C78.9377 88.27 79.4878 86.9398 79.4878 85.553C79.4765 85.0646 79.3931 84.5807 79.2402 84.1168C79.7409 84.2774 80.2621 84.3649 80.7878 84.3768C81.4755 84.3768 82.1565 84.2413 82.7919 83.9781C83.4273 83.7149 84.0047 83.3292 84.491 82.8429C84.9773 82.3565 85.3631 81.7792 85.6263 81.1438C85.8895 80.5084 86.0249 79.8274 86.0249 79.1396C86.0211 78.6132 85.9333 78.0908 85.7649 77.592C86.2656 77.7526 86.7868 77.8402 87.3125 77.852C88.349 77.854 89.3628 77.5483 90.2254 76.9737C91.0881 76.3992 91.7609 75.5816 92.1586 74.6244C92.5563 73.6673 92.661 72.6136 92.4596 71.5969C92.2581 70.5802 91.7595 69.6461 91.0268 68.913L88.7735 66.6596C114.65 52.6073 118.228 49.0292 119.726 47.5063C124.868 42.3514 127.755 35.3677 127.755 28.0868C127.755 20.8059 124.868 13.8221 119.726 8.66726ZM70.2021 48.1501C79.7849 30.3463 86.2973 19.513 88.9963 16.7892C91.991 13.7928 96.0533 12.1089 100.29 12.1077C104.526 12.1066 108.589 13.7883 111.585 16.783C114.582 19.7776 116.266 23.8399 116.267 28.0762C116.268 32.3125 114.586 36.3757 111.592 39.372C108.88 42.0958 98.0468 48.5835 80.243 58.1911L77.6059 55.5539L82.7563 46.553C101.105 36.4377 104.658 33.4911 105.24 32.9834C106.479 31.67 107.157 29.9259 107.132 28.1209C107.106 26.3158 106.379 24.5916 105.104 23.3135C103.829 22.0354 102.107 21.3038 100.302 21.2739C98.4968 21.2439 96.751 21.9179 95.4344 23.153C94.9392 23.6854 91.9554 27.2758 81.8154 45.7606L76.764 54.6254L75.2906 53.152L70.2021 48.1501ZM83.883 44.4358C93.3421 27.3501 96.0287 24.2425 96.264 23.9577C97.3405 22.913 98.7878 22.3385 100.288 22.3606C101.807 22.3659 103.262 22.9711 104.336 24.0444C104.866 24.5738 105.286 25.2033 105.571 25.8961C105.855 26.589 106 27.3315 105.995 28.0806C106.001 28.8251 105.858 29.5632 105.575 30.2519C105.293 30.9406 104.876 31.5661 104.349 32.092C104.002 32.3768 100.969 35.0387 83.8954 44.4854L83.883 44.4358ZM48.2878 117.223C43.3623 122.149 36.682 124.916 29.7163 124.916C22.7507 124.916 16.0704 122.149 11.1449 117.223C6.21947 112.298 3.45238 105.618 3.45238 98.652C3.45238 91.6864 6.21947 85.006 11.1449 80.0806C12.643 78.5825 16.0973 75.1282 42.1716 60.9644L48.8325 67.6377L47.3344 68.4425L45.923 69.2101L44.1154 70.2006L42.7783 70.9311L41.0821 71.8596L39.844 72.5654L38.3211 73.4196L37.083 74.1377L35.7087 74.9053L34.4706 75.6111L33.2325 76.3168L31.9944 77.0101L30.8925 77.6539L29.7411 78.3225L28.7383 78.9168L27.6611 79.5606L26.7697 80.1053L25.7668 80.712L24.9868 81.1949L24.0459 81.7892L23.3649 82.2225L22.523 82.7673L21.904 83.1882L21.1735 83.6711L20.604 84.0673L19.9973 84.4882L19.5144 84.8596L19.0192 85.2311L18.5487 85.6149L18.2144 85.8873C17.9932 86.0692 17.7824 86.2635 17.583 86.4692C14.3577 89.6983 12.5461 94.0757 12.5461 98.6396C12.5461 103.204 14.3577 107.581 17.583 110.81C18.004 111.219 18.4373 111.602 18.883 111.974L19.0811 112.122C19.4649 112.432 19.8735 112.729 20.3192 113.002C23.347 114.996 26.9279 115.983 30.5501 115.821C34.1723 115.658 37.6505 114.355 40.4878 112.098L40.6611 111.962C41.0962 111.598 41.5096 111.209 41.8992 110.798L42.4811 110.166L42.6421 109.956C42.803 109.77 42.964 109.584 43.1373 109.362L43.3725 109.04L43.8802 108.371C43.9679 108.23 44.063 108.094 44.1649 107.962L44.6973 107.195L45.0563 106.675L45.6011 105.845C45.7373 105.647 45.8735 105.412 46.0097 105.202L46.5916 104.31L47.0497 103.629L47.6687 102.639L48.164 101.809L48.8202 100.744L49.3649 99.8282L50.0459 98.6644C50.244 98.3425 50.4421 97.9958 50.6402 97.6492L51.3583 96.4111L52.0021 95.3339L52.7573 94.0215L53.4383 92.7834L54.2306 91.3844L54.9611 90.072L55.7906 88.5863L56.5583 87.1996L57.4249 85.6149L58.1925 84.1911C58.5144 83.5968 58.8363 82.953 59.1583 82.3958C59.4059 81.9625 59.6535 81.5044 59.8887 81.0463C60.124 80.5882 60.4459 80.0311 60.7306 79.4987L64.0611 82.8292L67.3916 86.1596L66.4383 87.9053L66.1535 88.413L64.9154 90.6911C64.8749 90.7802 64.8294 90.867 64.7792 90.9511L61.8325 96.2501C52.2497 113.224 49.4516 116.022 48.2878 117.223ZM58.1925 81.7396L57.5611 82.8911L56.4963 84.8349L55.8402 86.073L54.8868 87.8063C54.664 88.2025 54.4411 88.5863 54.2306 89.0444L53.2402 90.5425L52.6211 91.6196L51.7668 93.1425L51.1725 94.1949C50.9002 94.653 50.6402 95.1234 50.3802 95.5568L49.7611 96.6463C49.5259 97.0301 49.2906 97.4387 49.0802 97.8101L48.4611 98.8377L47.8421 99.8901C47.6563 100.212 47.4706 100.497 47.2849 100.806C47.0992 101.116 46.8763 101.475 46.6906 101.797L46.1706 102.626L45.6259 103.518L45.0935 104.335L44.6354 105.053C44.4621 105.313 44.3135 105.548 44.1402 105.783C43.9668 106.019 43.8678 106.217 43.7316 106.402C43.5954 106.588 43.4344 106.836 43.2859 107.046C43.1373 107.257 43.0383 107.418 42.9144 107.579C42.7906 107.74 42.6173 107.987 42.4687 108.173C42.3808 108.306 42.2858 108.434 42.184 108.557L41.763 109.089L41.5402 109.362C41.3421 109.597 41.1563 109.795 40.983 109.968C37.9675 112.867 33.9352 114.467 29.7525 114.425C25.5699 114.382 21.5708 112.701 18.6147 109.742C15.6586 106.782 13.9814 102.781 13.9436 98.5985C13.9058 94.4159 15.5104 90.3853 18.4125 87.373C18.5859 87.1996 18.784 87.0263 19.0192 86.8158C19.2544 86.6053 19.2049 86.6796 19.2792 86.6053L19.8116 86.172L20.1954 85.8873L20.8021 85.4292L21.3592 85.0453L21.9659 84.6244C22.1887 84.4634 22.4487 84.3025 22.6963 84.1415L23.3278 83.7206L24.1944 83.1634L24.863 82.7301L25.8659 82.1111L26.5716 81.6654L27.6983 80.9844L28.4783 80.4768L29.7163 79.7711L30.6078 79.2511L31.8459 78.533L32.8116 78.0006L34.0497 77.2825L35.2135 76.6139L36.4516 75.8958L37.8011 75.1282L39.0392 74.4473L40.5992 73.5806L41.763 72.9492C42.3573 72.6149 43.0011 72.2806 43.583 71.9463L44.5487 71.4139L46.7278 70.1758L47.483 69.7673L49.7116 68.5292L52.4478 71.2654L47.2478 80.2292C28.8868 90.3815 25.3335 93.2663 24.764 93.7615C23.4505 95.0602 22.7068 96.8275 22.6963 98.6745C22.6859 100.522 23.4096 102.297 24.7083 103.611C26.0069 104.924 27.7742 105.668 29.6212 105.678C31.4683 105.689 33.2438 104.965 34.5573 103.666C35.0525 103.134 38.0364 99.5434 48.1763 81.0587L53.3516 72.293L54.7259 73.6549L59.6783 78.6692L59.1706 79.6225L58.1925 81.7396ZM46.2078 82.2596C36.6497 99.3701 33.9754 102.453 33.703 102.762C32.6182 103.765 31.187 104.308 29.7103 104.277C28.2336 104.246 26.8264 103.644 25.7844 102.597C24.7424 101.55 24.1468 100.14 24.1227 98.6634C24.0987 97.1866 24.6481 95.7579 25.6554 94.6777C26.0021 94.3806 29.0106 91.7187 46.1211 82.2596H46.2078ZM79.0916 121.334C79.4825 121.702 79.7952 122.145 80.0111 122.637C80.2269 123.129 80.3416 123.659 80.3481 124.196C80.3546 124.733 80.2529 125.266 80.0491 125.763C79.8452 126.26 79.5434 126.71 79.1616 127.088C78.7797 127.466 78.3258 127.762 77.8267 127.961C77.3277 128.159 76.7938 128.255 76.2569 128.243C75.72 128.23 75.1911 128.11 74.7018 127.889C74.2124 127.667 73.7727 127.35 73.4087 126.955C65.5097 118.982 61.9935 108.817 62.9592 96.733C63.863 95.1482 64.7173 93.6006 65.5592 92.0777L65.7449 91.7434C66.5621 90.2701 67.3544 88.8215 68.1344 87.373L68.283 87.1006L70.5735 89.3663C70.7625 89.5593 70.9698 89.7334 71.1925 89.8863L71.3535 89.9977C71.5705 90.1462 71.7981 90.2786 72.0344 90.3939C69.0754 103.443 71.3906 113.571 79.0916 121.334ZM78.2373 85.6644C78.2296 86.4513 77.9906 87.2186 77.5501 87.8707C77.1096 88.5228 76.487 89.0309 75.7598 89.3318C75.0327 89.6327 74.2331 89.713 73.4606 89.5629C72.6881 89.4127 71.9769 89.0386 71.4154 88.4873L67.9859 85.0577L60.7925 77.8644L50.8878 67.9596L50.504 67.5634L49.9716 67.0434L42.4068 59.4292L39.9306 56.953C39.2256 56.194 38.8425 55.1911 38.8621 54.1554C38.8817 53.1196 39.3025 52.1319 40.0358 51.4002C40.7691 50.6685 41.7577 50.25 42.7935 50.2326C43.8293 50.2153 44.8313 50.6005 45.5887 51.3073L77.0735 82.8415C77.4446 83.2117 77.7385 83.6518 77.9383 84.1364C78.138 84.6209 78.2397 85.1403 78.2373 85.6644ZM84.7621 79.1396C84.7644 79.6637 84.6628 80.1831 84.463 80.6677C84.2632 81.1522 83.9693 81.5923 83.5982 81.9625C82.836 82.6898 81.8228 83.0956 80.7692 83.0956C79.7156 83.0956 78.7024 82.6898 77.9402 81.9625L46.4059 50.4282C45.7008 49.6693 45.3177 48.6663 45.3373 47.6306C45.357 46.5949 45.7777 45.6072 46.511 44.8755C47.2443 44.1438 48.233 43.7252 49.2687 43.7078C50.3045 43.6905 51.3066 44.0758 52.064 44.7825L83.5982 76.3168C83.9693 76.6869 84.2632 77.127 84.463 77.6116C84.6628 78.0961 84.7644 78.6155 84.7621 79.1396ZM91.2868 72.6149C91.2892 73.139 91.1876 73.6584 90.9878 74.1429C90.788 74.6275 90.4941 75.0676 90.123 75.4377C89.3607 76.1651 88.3476 76.5709 87.294 76.5709C86.2403 76.5709 85.2272 76.1651 84.4649 75.4377L52.9306 43.9034C52.2256 43.1445 51.8425 42.1416 51.8621 41.1059C51.8817 40.0701 52.3025 39.0824 53.0358 38.3507C53.7691 37.619 54.7577 37.2004 55.7935 37.1831C56.8293 37.1657 57.8313 37.551 58.5887 38.2577L61.0649 40.7339L74.3125 53.9815L79.983 59.6396L87.5602 67.2168L90.0363 69.693C90.4352 70.0673 90.7522 70.5202 90.9674 71.023C91.1826 71.5259 91.2914 72.0679 91.2868 72.6149ZM118.859 46.6273C117.361 48.1254 113.907 51.5796 87.8325 65.7434L81.1716 59.0825C99.0497 49.4006 109.648 43.0615 112.471 40.2511C115.698 37.0233 117.512 32.6454 117.512 28.0806C117.512 23.5158 115.698 19.1379 112.471 15.9101C109.243 12.6823 104.865 10.8689 100.3 10.8689C95.7353 10.8689 91.3575 12.6823 88.1297 15.9101C85.3068 18.7206 78.9678 29.2692 69.3354 47.2215L62.6744 40.5606C76.764 14.5358 80.2554 11.032 81.7163 9.53392C86.6418 4.60848 93.3221 1.84139 100.288 1.84139C107.253 1.84139 113.934 4.60848 118.859 9.53392C123.785 14.4594 126.552 21.1397 126.552 28.1054C126.552 35.071 123.785 41.7513 118.859 46.6768V46.6273Z" fill="#333333"/>
<rect x="42.4766" y="47.8091" width="9.27831" height="54.032" rx="4.63916" transform="rotate(-45.2734 42.4766 47.8091)" fill="#2452CC" stroke="#333333"/>
</svg>
