<svg width="130" height="130" viewBox="0 0 130 130" fill="none" xmlns="http://www.w3.org/2000/svg">
<path d="M104.558 41.8348C94.8511 20.8615 81.2815 6.38815 68.2444 3.11958C56.1606 0.0738611 46.3054 0.544337 40.5111 4.43196C33.2682 9.31005 29.4301 15.7234 29.0958 23.5234C28.192 44.8681 28.192 86.6662 29.0958 107.714C29.5415 118.052 36.7844 128.761 51.9758 129.356H53.3625C59.0732 129.245 64.695 127.92 69.8545 125.469C75.0139 123.019 79.5929 119.499 83.2873 115.142C85.4137 112.739 86.6544 109.681 86.8034 106.476C86.8579 104.693 86.5938 102.916 86.0235 101.226C85.8024 100.545 85.4629 99.9078 85.0206 99.3443C84.8199 99.1004 84.596 98.8764 84.352 98.6758L94.0587 73.9139C94.9033 71.7398 95.2583 69.4064 95.0987 67.0796L94.9625 65.1358C96.3845 65.3196 97.8289 65.2143 99.2092 64.8262C101.315 64.3032 103.205 63.1377 104.619 61.4915C106.032 59.8454 106.898 57.8001 107.096 55.6396C107.521 50.8928 106.643 46.1201 104.558 41.8348ZM94.0958 53.151C94.0728 52.8226 93.9204 52.5169 93.6719 52.3009C93.4235 52.085 93.0994 51.9766 92.7711 51.9996C92.4427 52.0226 92.1369 52.1751 91.921 52.4235C91.705 52.6719 91.5967 52.996 91.6196 53.3243V53.7824C91.521 53.7705 91.4212 53.7705 91.3225 53.7824C91.1069 53.8228 90.9021 53.9075 90.721 54.0311C90.5398 54.1547 90.3863 54.3145 90.2701 54.5005C89.8918 55.2045 89.6166 55.9592 89.453 56.7415L89.3663 57.051C89.3663 57.051 88.7473 59.4158 88.4996 60.5301C88.1654 62.0158 90.0844 63.2539 91.892 64.2443C92.052 64.3367 92.2174 64.4194 92.3873 64.492L92.5854 67.352C92.7289 69.3127 92.4284 71.2806 91.7063 73.1091L82.0739 97.8091C80.9001 97.6533 79.7101 97.9354 78.7311 98.6015C76.8773 100.015 75.3277 101.788 74.1749 103.814C72.8381 106.095 71.0722 108.097 68.9749 109.707C66.6473 111.366 58.5625 112.58 52.1615 110.859C49.6234 110.165 47.8777 108.382 46.8253 105.275C46.558 104.477 46.4241 103.64 46.4292 102.799V25.6158C46.4261 25.0149 46.5453 24.4197 46.7794 23.8663C47.0135 23.313 47.3577 22.813 47.7911 22.3967C51.072 19.3015 54.0558 17.8405 56.9282 17.952C71.2777 18.4843 81.0958 32.8091 89.5768 48.0996C89.7176 48.3525 89.9346 48.5545 90.1969 48.6767C90.4593 48.799 90.7535 48.8353 91.0377 48.7805C91.9869 48.5186 92.9935 48.5532 93.9225 48.8796C94.5566 49.0602 95.1336 49.4012 95.5977 49.8696C96.0617 50.338 96.3973 50.9181 96.572 51.5539C96.9187 52.792 96.993 54.711 96.2254 55.1815C95.897 55.3112 95.5434 55.3642 95.1915 55.3363C94.8395 55.3084 94.4987 55.2004 94.1949 55.0205L94.0958 53.151ZM92.3254 63.0558C90.0844 61.7434 89.6758 61.0872 89.7501 60.7653C89.9977 59.6634 90.6044 57.3358 90.6044 57.3358L90.6911 57.0262C90.8245 56.3628 91.0495 55.7211 91.3596 55.1196C91.3846 55.0771 91.4186 55.0406 91.4592 55.0128C91.4999 54.9849 91.5462 54.9665 91.5949 54.9586C91.6437 54.947 91.6946 54.947 91.7434 54.9586L92.3254 63.0558ZM105.858 55.6272C105.701 57.5457 104.942 59.3659 103.691 60.8285C102.439 62.2912 100.758 63.3218 98.8873 63.7739C97.5781 64.1382 96.2062 64.2184 94.8634 64.0091L94.3187 56.3577C94.7305 56.5283 95.1749 56.6057 95.6202 56.5843C96.0654 56.5629 96.5004 56.4432 96.8939 56.2339C98.4539 55.2681 98.132 52.5196 97.7854 51.1948C97.5534 50.3547 97.1075 49.5891 96.4912 48.9728C95.8749 48.3565 95.1093 47.9106 94.2692 47.6786C93.144 47.2885 91.9277 47.2453 90.7777 47.5548C90.7533 47.558 90.7284 47.5538 90.7064 47.5428C90.6843 47.5318 90.666 47.5144 90.6539 47.4929C81.9996 31.8434 71.9339 17.3329 56.953 16.7139C53.7587 16.5901 50.4406 18.1624 46.9244 21.4929C46.3689 22.0264 45.9268 22.6665 45.6247 23.375C45.3226 24.0834 45.1667 24.8456 45.1663 25.6158V102.761C45.1547 103.742 45.3096 104.718 45.6244 105.646C46.8625 109.088 48.893 111.242 51.8149 112.022C58.7853 113.904 67.1673 112.468 69.6682 110.698C71.8955 109.018 73.768 106.914 75.1777 104.507C76.2488 102.622 77.6839 100.968 79.3996 99.6415C80.0447 99.2074 80.8151 98.9984 81.5911 99.0472L79.3254 104.817C79.265 104.968 79.2351 105.13 79.2374 105.292C79.2396 105.455 79.2739 105.616 79.3383 105.765C79.4027 105.915 79.4959 106.05 79.6126 106.164C79.7294 106.277 79.8674 106.366 80.0187 106.426C80.1669 106.471 80.3223 106.488 80.4768 106.476C80.7247 106.476 80.9671 106.402 81.1724 106.263C81.3777 106.124 81.5365 105.926 81.6282 105.696L83.8568 100.025C83.9247 100.081 83.987 100.143 84.0425 100.211C84.3956 100.658 84.6641 101.166 84.8349 101.709C85.369 103.24 85.6167 104.856 85.5654 106.476C85.4136 109.385 84.2787 112.157 82.3463 114.338C74.4968 123.45 63.1434 128.576 52.0006 128.142C37.6139 127.523 30.7425 117.458 30.3339 107.714C29.4301 86.5672 29.4301 44.8929 30.3339 23.5234C30.6434 16.1691 34.2958 10.0777 41.2044 5.4472C46.7015 1.73291 56.1977 1.33672 67.9473 4.28339C80.613 7.50243 93.8854 21.7158 103.443 42.3548C105.453 46.4772 106.289 51.0736 105.858 55.6396V55.6272Z" fill="#333333"/>
<path d="M39.6183 40.2383H35.904C35.4115 40.2383 34.9391 40.4339 34.5908 40.7822C34.2425 41.1305 34.0469 41.6029 34.0469 42.0954V96.5716C34.0469 97.0642 34.2425 97.5365 34.5908 97.8848C34.9391 98.2331 35.4115 98.4288 35.904 98.4288H39.6183C40.1108 98.4288 40.5832 98.2331 40.9315 97.8848C41.2798 97.5365 41.4754 97.0642 41.4754 96.5716V42.0954C41.4754 41.6029 41.2798 41.1305 40.9315 40.7822C40.5832 40.4339 40.1108 40.2383 39.6183 40.2383ZM40.2374 96.5716C40.2342 96.7348 40.1679 96.8904 40.0525 97.0058C39.9371 97.1213 39.7815 97.1875 39.6183 97.1907H35.904C35.7408 97.1875 35.5852 97.1213 35.4698 97.0058C35.3544 96.8904 35.2881 96.7348 35.285 96.5716V42.0954C35.2881 41.9322 35.3544 41.7766 35.4698 41.6612C35.5852 41.5458 35.7408 41.4795 35.904 41.4764H39.6183C39.7815 41.4795 39.9371 41.5458 40.0525 41.6612C40.1679 41.7766 40.2342 41.9322 40.2374 42.0954V96.5716Z" fill="#333333"/>
<path d="M39.6185 41.4766H35.9042C35.5623 41.4766 35.2852 41.7537 35.2852 42.0956V96.5718C35.2852 96.9137 35.5623 97.1908 35.9042 97.1908H39.6185C39.9604 97.1908 40.2375 96.9137 40.2375 96.5718V42.0956C40.2375 41.7537 39.9604 41.4766 39.6185 41.4766Z" fill="#2452CC"/>
<path d="M79.2379 112.667C80.6055 112.667 81.7141 111.559 81.7141 110.191C81.7141 108.823 80.6055 107.715 79.2379 107.715C77.8703 107.715 76.7617 108.823 76.7617 110.191C76.7617 111.559 77.8703 112.667 79.2379 112.667Z" fill="#333333"/>
</svg>
