<svg width="130" height="130" viewBox="0 0 130 130" fill="none" xmlns="http://www.w3.org/2000/svg">
<path d="M125.594 40.9814C125.591 40.8563 125.551 40.7349 125.478 40.6332C125.405 40.5316 125.303 40.4544 125.185 40.4118C125.07 40.3696 124.945 40.3623 124.826 40.391C124.707 40.4196 124.599 40.4829 124.516 40.5728L123.278 41.9347C123.278 41.7118 123.278 41.489 123.278 41.2661C123.086 36.92 122.619 32.5903 121.879 28.3033C121.885 28.2664 121.885 28.2288 121.879 28.1919C121.289 24.6843 120.139 21.2943 118.475 18.1509C117.473 16.3087 116.186 14.6371 114.661 13.1985C109.672 8.66709 101.934 4.95281 91.6202 2.47661C78.1126 -0.791957 64.3821 0.755663 53.9326 2.47661C38.2707 5.05185 24.8374 15.8357 19.7364 29.9252C15.725 41.0185 11.825 49.5242 5.85737 55.0957C5.37613 55.5522 5.0866 56.1747 5.04751 56.8369C5.00842 57.4991 5.22271 58.1514 5.64689 58.6614C13.5088 68.1699 26.3107 75.2023 40.784 78.0004C42.0221 78.2357 43.2602 78.4214 44.4983 78.5452L62.364 95.4699C61.7579 96.9646 61.7591 98.6367 62.3672 100.131C62.9754 101.624 64.1425 102.822 65.6202 103.468L64.3821 110.426L63.4783 110.265C63.2384 110.221 62.992 110.224 62.7534 110.275C62.5148 110.327 62.2887 110.425 62.0884 110.564C61.888 110.704 61.7173 110.881 61.5861 111.087C61.4549 111.293 61.3658 111.523 61.324 111.763L58.6993 126.447C58.6529 126.688 58.655 126.936 58.7055 127.176C58.756 127.416 58.8539 127.643 58.9934 127.845C59.1329 128.047 59.3112 128.219 59.518 128.351C59.7247 128.483 59.9557 128.572 60.1974 128.614L64.2583 129.344H64.5926C65.0299 129.345 65.4535 129.191 65.7887 128.911C66.1239 128.63 66.3492 128.24 66.425 127.809L69.0498 113.125C69.1326 112.64 69.0205 112.141 68.7376 111.737C68.4548 111.334 68.0241 111.058 67.5393 110.971L66.8583 110.859L68.0964 104C69.7382 104 71.3128 103.348 72.4737 102.187C73.6347 101.026 74.2869 99.4518 74.2869 97.8099C74.2811 97.4278 74.2438 97.0469 74.1755 96.6709L93.8488 86.4566C94.084 86.6423 94.2945 86.8404 94.505 87.0261C95.1594 87.7517 95.9546 88.3366 96.8421 88.7453C97.7297 89.1539 98.6911 89.3778 99.6678 89.4033C100.267 89.3978 100.864 89.3356 101.451 89.2176C105.663 88.3791 109.731 86.9275 113.522 84.909C117.831 82.5938 121.755 79.3623 123.328 75.1157C126.287 67.1299 125.618 42.0957 125.594 40.9814ZM117.88 19.8099C118.016 20.0699 118.14 20.3423 118.252 20.6147C118.363 20.8871 118.512 21.1842 118.623 21.469C118.735 21.7538 118.821 21.9395 118.908 22.1747C118.995 22.4099 119.143 22.8185 119.255 23.1528C119.366 23.4871 119.527 23.9699 119.651 24.3909C119.775 24.8119 119.898 25.2452 120.01 25.629C120.002 25.6574 120.002 25.6872 120.01 25.7157C120.109 26.1366 120.22 26.5576 120.307 26.9538C120.394 27.3499 120.48 27.709 120.555 28.1052L115.875 34.0109L110.922 28.2414L117.756 19.5747C117.811 19.6456 117.852 19.7251 117.88 19.8099ZM67.3783 112.209C67.4589 112.222 67.5358 112.252 67.6041 112.297C67.6723 112.342 67.7304 112.4 67.7745 112.469C67.8227 112.534 67.8574 112.608 67.8765 112.687C67.8957 112.765 67.8989 112.847 67.8859 112.927L65.2488 127.623C65.2364 127.703 65.2081 127.779 65.1656 127.847C65.123 127.915 65.0671 127.974 65.0012 128.019C64.8636 128.113 64.6945 128.149 64.5307 128.119L60.4697 127.388C60.3882 127.377 60.3098 127.35 60.2395 127.307C60.1692 127.264 60.1084 127.208 60.0612 127.14C59.9731 127 59.938 126.834 59.9621 126.67L62.5869 111.986C62.617 111.822 62.7107 111.677 62.8476 111.582C62.9844 111.487 63.1533 111.45 63.3174 111.479L67.3783 112.209ZM68.0964 101.524C67.3618 101.524 66.6437 101.306 66.0329 100.898C65.4221 100.49 64.946 99.91 64.6649 99.2313C64.3837 98.5526 64.3102 97.8058 64.4535 97.0853C64.5968 96.3648 64.9506 95.703 65.47 95.1835C65.9895 94.6641 66.6513 94.3103 67.3718 94.167C68.0923 94.0237 68.8391 94.0973 69.5178 94.3784C70.1965 94.6595 70.7766 95.1356 71.1847 95.7464C71.5929 96.3572 71.8107 97.0753 71.8107 97.8099C71.8107 98.795 71.4194 99.7398 70.7228 100.436C70.0263 101.133 69.0815 101.524 68.0964 101.524ZM73.2345 94.368C72.7275 93.6139 72.0606 92.9807 71.2813 92.5134C70.502 92.046 69.6293 91.7559 68.7253 91.6637C67.8213 91.5715 66.908 91.6795 66.0504 91.98C65.1928 92.2805 64.4119 92.7661 63.7631 93.4023L48.2869 78.7928C52.1759 78.8375 56.0646 78.6805 59.9374 78.3223C62.7231 78.1118 65.6078 77.9014 68.7031 77.8023C76.2059 77.5795 83.684 79.8947 91.5088 84.8471L73.2345 94.368ZM94.2821 84.4633L94.0221 84.5623C93.8824 84.6246 93.7374 84.6743 93.5888 84.7109C93.3412 84.5499 93.0936 84.3766 92.8459 84.2404C84.9221 79.0899 77.3698 76.589 69.8421 76.589H68.7402C65.6326 76.688 62.7355 76.8985 59.9374 77.109H59.7393L57.8945 77.2452C54.2722 77.568 50.6325 77.6507 46.9993 77.4928C46.6031 77.4928 46.2193 77.4928 45.7612 77.4185C44.7955 77.3442 43.8545 77.2328 42.9259 77.0966C42.2697 77.0099 41.6878 76.8985 40.9821 76.7747C27.0288 74.088 14.165 67.0185 6.61261 57.869C6.38623 57.6073 6.269 57.2687 6.28513 56.9231C6.30126 56.5775 6.44951 56.2513 6.69927 56.0119C12.8897 50.2795 16.8269 41.6128 20.9002 30.3461C21.1148 29.7601 21.3377 29.1906 21.5688 28.6376C21.8164 28.0433 22.0764 27.4614 22.3612 26.8919C28.1059 14.9319 40.2145 5.99281 54.1307 3.71471C64.4688 1.99376 78.0012 0.458519 91.3231 3.71471C101.426 6.1909 108.954 9.65757 113.782 14.1271C115.113 15.3737 116.248 16.8136 117.15 18.3985L109.659 27.9195C109.567 28.0307 109.516 28.1709 109.516 28.3157C109.516 28.4604 109.567 28.6006 109.659 28.7119L115.441 35.4471C115.5 35.5139 115.572 35.5673 115.653 35.6036C115.735 35.6399 115.823 35.6583 115.912 35.6576C116.003 35.6581 116.093 35.637 116.175 35.5961C116.257 35.5553 116.328 35.4957 116.382 35.4223L120.864 29.7147C121.449 33.5508 121.833 37.4148 122.015 41.2909C122.015 41.9099 122.015 42.529 122.09 43.1976L119.44 46.1195C119.333 46.2428 119.276 46.4018 119.279 46.5652C119.416 53.3816 118.764 60.191 117.335 66.8576C116.94 68.0889 116.272 69.2148 115.379 70.1509L114.785 70.8071C113.657 71.9667 112.453 73.0503 111.182 74.0509C111.034 74.1747 110.885 74.2985 110.724 74.4099C108.811 75.9085 106.823 77.3094 104.769 78.6071C104.257 78.9372 103.749 79.2591 103.246 79.5728C102.008 80.3033 100.918 80.9842 99.8536 81.5909L99.3955 81.8509L98.7145 82.2347L97.8602 82.7052L97.6869 82.7918L97.2907 83.0023C96.6345 83.349 96.0526 83.6585 95.5202 83.8938L95.2231 84.0423L94.6783 84.2899L94.2821 84.4633ZM122.176 74.7318C119.217 82.6928 107.183 86.9147 101.24 88.0414C98.1574 88.6233 96.9193 87.5337 95.3469 86.1347L94.7278 85.6023L94.8888 85.528L95.3593 85.3176L96.164 84.9461C100.213 82.9528 116.964 73.6052 118.549 67.1176C119.975 60.4503 120.635 53.6422 120.517 46.8252L123.179 43.8909L124.417 42.5661C124.492 48.2861 124.64 68.0957 122.164 74.6947L122.176 74.7318Z" fill="#1D1E20"/>
<path d="M57.8589 77.232C54.2366 77.5547 50.5969 77.6375 46.9636 77.4796C46.5674 77.4796 46.1836 77.4796 45.7255 77.4053C44.7598 77.331 43.8189 77.2196 42.8903 77.0834C42.2341 76.9967 41.6522 76.8853 40.9465 76.7615C27.0303 74.0872 14.1665 67.0177 6.6141 57.8681C6.38773 57.6065 6.2705 57.2679 6.28662 56.9223C6.30275 56.5767 6.45101 56.2504 6.70077 56.011C12.8912 50.2786 16.8284 41.612 20.9017 30.3453C21.1163 29.7593 21.3392 29.1897 21.5703 28.6367C23.4467 34.8335 26.0788 40.7756 29.4074 46.3291L24.1579 43.4815C23.9055 43.3502 23.6252 43.2816 23.3408 43.2816C23.0563 43.2816 22.776 43.3502 22.5236 43.4815C22.2713 43.6113 22.0534 43.799 21.8877 44.0293C21.722 44.2595 21.6132 44.5258 21.5703 44.8062L19.8122 57.1501C19.7433 57.6127 19.8268 58.0852 20.0502 58.4962C20.2735 58.9072 20.6246 59.2343 21.0503 59.4281L22.7341 60.1462C23.0749 60.2911 23.441 60.3668 23.8112 60.3691C24.2996 60.3691 24.7791 60.2397 25.2011 59.9939C25.6231 59.7481 25.9723 59.3948 26.2132 58.9701L31.0789 50.4148C31.2367 50.144 31.3418 49.8457 31.3884 49.5358C32.7627 51.6281 34.2484 53.7081 35.8208 55.7262L32.9608 59.2053C32.7172 59.504 32.5468 59.8553 32.4629 60.2315C32.3791 60.6076 32.3842 60.9981 32.4779 61.372L33.0598 63.5758C33.2025 64.095 33.5105 64.5536 33.9373 64.882C34.364 65.2104 34.8861 65.3908 35.4246 65.3958C35.7846 65.3975 36.1403 65.3171 36.4646 65.1605L41.7389 62.6843C46.6943 67.9774 52.0867 72.8438 57.8589 77.232Z" fill="#2452CC"/>
<path d="M122.163 74.695C119.204 82.6559 107.17 86.8778 101.227 88.0045C98.1444 88.5864 96.9063 87.4969 95.3339 86.0978L94.7148 85.5655L94.8758 85.4912L95.3463 85.2807L96.151 84.9093C100.212 82.9531 116.963 73.6054 118.548 67.1178C119.974 60.4506 120.634 53.6424 120.517 46.8255L123.179 43.8912L124.417 42.5664C124.491 48.2864 124.64 68.0959 122.163 74.695Z" fill="#2452CC"/>
<path d="M31.3516 48.2862C31.2549 47.9359 31.0875 47.609 30.8597 47.3258C30.6318 47.0426 30.3484 46.809 30.0269 46.6396L29.4078 46.3053L24.1583 43.4577C23.9059 43.3264 23.6256 43.2578 23.3412 43.2578C23.0567 43.2578 22.7764 43.3264 22.524 43.4577C22.2717 43.5874 22.0538 43.7752 21.8881 44.0054C21.7224 44.2357 21.6136 44.502 21.5707 44.7824L19.8126 57.151C19.7437 57.6137 19.8272 58.0862 20.0505 58.4972C20.2739 58.9081 20.625 59.2353 21.0507 59.4291L22.7345 60.1472C23.0753 60.292 23.4414 60.3678 23.8116 60.37C24.2999 60.3701 24.7795 60.2406 25.2015 59.9948C25.6234 59.7491 25.9727 59.3958 26.2135 58.971L31.0793 50.4158C31.4366 49.7699 31.5255 49.0095 31.3269 48.2986L31.3516 48.2862ZM30.0269 49.7843L25.1612 58.3519C24.9777 58.6778 24.6799 58.9239 24.3254 59.0429C23.9709 59.1618 23.5849 59.145 23.2421 58.9958L21.5583 58.2777C21.3836 58.193 21.2403 58.0551 21.1491 57.8837C21.0578 57.7124 21.0234 57.5165 21.0507 57.3243L22.8459 44.9434C22.8574 44.8591 22.8893 44.7789 22.9389 44.7098C22.9886 44.6407 23.0544 44.5849 23.1307 44.5472C23.195 44.5245 23.2632 44.515 23.3313 44.5192C23.3994 44.5235 23.4659 44.5414 23.5269 44.5719L29.3954 47.7539C29.573 47.8459 29.7296 47.9737 29.8553 48.1293C29.981 48.2848 30.0731 48.4647 30.1259 48.6577C30.1872 48.8465 30.2099 49.0456 30.1929 49.2434C30.1759 49.4412 30.1195 49.6335 30.0269 49.8091V49.7843Z" fill="#1D1E20"/>
<path d="M30.7059 35.5958L36.3764 38.8273C36.652 38.9829 36.9636 39.064 37.2802 39.0625C37.5882 39.0625 37.8916 38.9868 38.1636 38.8422C38.4356 38.6976 38.6679 38.4884 38.8402 38.233L42.864 32.1911C43.0317 31.96 43.1328 31.6872 43.1563 31.4026C43.1797 31.118 43.1245 30.8325 42.9968 30.577C42.8691 30.3216 42.6737 30.1061 42.432 29.9541C42.1903 29.8021 41.9114 29.7193 41.6259 29.7149H37.144C36.6129 29.7124 36.091 29.8536 35.6335 30.1234L30.6811 33.0206C30.4646 33.1483 30.2839 33.3289 30.1562 33.5454C30.0284 33.7619 29.9577 34.0074 29.9507 34.2587C29.9386 34.5299 30.003 34.7991 30.1365 35.0356C30.27 35.272 30.4673 35.4661 30.7059 35.5958ZM31.3126 34.0977L36.2649 31.2006C36.5326 31.0457 36.8348 30.9605 37.144 30.953H41.5516C41.6094 30.9505 41.6667 30.9643 41.717 30.9928C41.7673 31.0212 41.8087 31.0632 41.8364 31.1139C41.8668 31.1666 41.8828 31.2264 41.8828 31.2873C41.8828 31.3481 41.8668 31.4079 41.8364 31.4606L37.8002 37.552C37.7121 37.6796 37.5801 37.7703 37.4294 37.8069C37.2787 37.8434 37.1198 37.8232 36.983 37.7501L31.3126 34.5187C31.2763 34.4964 31.246 34.4656 31.2244 34.4289C31.2028 34.3922 31.1906 34.3507 31.1888 34.3082C31.1881 34.2652 31.1994 34.2228 31.2212 34.1856C31.243 34.1485 31.2746 34.1181 31.3126 34.0977Z" fill="#1D1E20"/>
<path d="M46.3302 56.3962L40.8578 52.9667C40.3527 52.6592 39.7542 52.5425 39.1706 52.6379C38.587 52.7333 38.0568 53.0344 37.6759 53.4867L36.6235 54.7248L35.9054 55.7153L33.0454 59.1943C32.8019 59.493 32.6314 59.8444 32.5476 60.2205C32.4637 60.5967 32.4689 60.9872 32.5625 61.361L33.1444 63.5648C33.2871 64.084 33.5952 64.5426 34.0219 64.871C34.4486 65.1994 34.9708 65.3798 35.5092 65.3848C35.8693 65.3866 36.225 65.3061 36.5492 65.1496L41.8235 62.6734L43.0616 62.1162L46.0702 60.6677C46.4703 60.4876 46.8129 60.2003 47.0598 59.8375C47.3067 59.4748 47.4484 59.0507 47.4692 58.6124C47.5002 58.1742 47.4104 57.7358 47.2095 57.3451C47.0087 56.9543 46.7045 56.6261 46.3302 56.3962ZM45.5502 59.5534L42.0959 61.2L40.9321 61.7448L35.9797 64.0724C35.8196 64.1408 35.647 64.1747 35.4729 64.1718C35.2989 64.1689 35.1274 64.1294 34.9697 64.0558C34.812 63.9822 34.6716 63.8762 34.5576 63.7446C34.4436 63.6131 34.3587 63.459 34.3082 63.2924L33.7263 61.0762C33.6817 60.8926 33.6797 60.7011 33.7204 60.5166C33.7612 60.332 33.8437 60.1592 33.9616 60.0115L36.6483 56.7305L37.453 55.7524L38.6911 54.2667C38.8823 54.0472 39.1447 53.902 39.4322 53.8567C39.7198 53.8114 40.0141 53.8689 40.2635 54.0191L45.7111 57.4486C45.897 57.5595 46.0479 57.7205 46.1464 57.9132C46.2449 58.1059 46.2872 58.3225 46.2682 58.5381C46.2487 58.7557 46.172 58.9641 46.0459 59.1424C45.9198 59.3207 45.7488 59.4625 45.5502 59.5534Z" fill="#1D1E20"/>
<path d="M69.7076 69.0113L63.7771 62.4122C63.3946 61.9789 62.8646 61.7034 62.2902 61.6394C61.7157 61.5753 61.138 61.7272 60.6695 62.0656L51.7676 68.3303C51.5053 68.5153 51.2932 68.7627 51.1505 69.0502C51.0079 69.3377 50.9391 69.6562 50.9504 69.977C50.968 70.2484 51.0395 70.5136 51.1609 70.757C51.3554 71.0703 51.6246 71.3305 51.9444 71.5142C52.2642 71.6978 52.6246 71.7993 52.9933 71.8094H68.4571C68.7791 71.8047 69.0931 71.7079 69.3617 71.5302C69.6304 71.3526 69.8424 71.1016 69.9728 70.8071C70.1031 70.5125 70.1462 70.1868 70.097 69.8685C70.0478 69.5502 69.9084 69.2527 69.6952 69.0113H69.7076ZM68.8533 70.2494C68.821 70.3275 68.7659 70.394 68.6952 70.4404C68.6246 70.4868 68.5416 70.5108 68.4571 70.5094H52.9066C52.7625 70.5125 52.6214 70.4682 52.505 70.3831C52.3887 70.2981 52.3036 70.1771 52.2628 70.0389C52.2136 69.9034 52.2113 69.7554 52.2562 69.6185C52.3011 69.4816 52.3906 69.3637 52.5104 69.2836L61.4123 63.1427C61.5964 63.0113 61.8176 62.9419 62.0438 62.9446C62.1956 62.9443 62.3458 62.9762 62.4845 63.0381C62.6232 63.0999 62.7473 63.1905 62.8485 63.3036L68.779 69.9027C68.8256 69.9586 68.857 70.0256 68.87 70.0972C68.883 70.1688 68.8773 70.2426 68.8533 70.3113V70.2494Z" fill="#1D1E20"/>
<path d="M88.7711 56.0352C88.8621 55.5392 88.8379 55.029 88.7005 54.5439C88.5632 54.0588 88.3162 53.6117 87.9788 53.2371L85.1807 50.0923C84.6543 49.4978 83.944 49.0968 83.163 48.9531C82.3821 48.8095 81.5755 48.9316 80.8721 49.2999L75.2264 52.2342C74.8333 52.4357 74.493 52.7266 74.2328 53.0836C73.9726 53.4405 73.7998 53.8535 73.7283 54.2894C73.7156 54.4543 73.7156 54.6199 73.7283 54.7847C73.7235 55.5074 73.9986 56.204 74.4959 56.7285L77.7769 60.1952C78.3615 60.808 79.1307 61.2124 79.967 61.3465C80.8032 61.4807 81.6604 61.3372 82.4073 60.938L87.1121 58.3875C87.5487 58.1466 87.9249 57.8097 88.2122 57.4022C88.4996 56.9947 88.6907 56.5273 88.7711 56.0352ZM87.533 55.8247C87.477 56.1342 87.3522 56.4273 87.1679 56.6822C86.9837 56.9372 86.7446 57.1476 86.4683 57.298L81.7635 59.8485C81.2567 60.1225 80.6736 60.2213 80.1048 60.1295C79.5361 60.0377 79.0136 59.7604 78.6188 59.3409L75.3378 55.8742C75.1666 55.6885 75.0416 55.465 74.9727 55.222C74.9039 54.9789 74.8932 54.7231 74.9416 54.4752C74.9826 54.2277 75.0813 53.9934 75.2298 53.7912C75.3782 53.589 75.5721 53.4246 75.7959 53.3114L81.4416 50.3771C81.9026 50.1358 82.4311 50.0559 82.9427 50.1501C83.4544 50.2444 83.9198 50.5074 84.2645 50.8971L87.0626 54.0418C87.2755 54.2816 87.4308 54.5669 87.5166 54.8759C87.6025 55.1849 87.6165 55.5094 87.5578 55.8247H87.533Z" fill="#1D1E20"/>
<path d="M64.5818 47.4456C64.8482 47.602 65.152 47.6833 65.4609 47.6808C65.794 47.681 66.1203 47.5865 66.4018 47.4084L76.4304 40.8589C76.707 40.6784 76.9433 40.4426 77.1242 40.1662C77.3051 39.8898 77.4267 39.5789 77.4814 39.2532C77.5361 38.9274 77.5226 38.5938 77.4419 38.2735C77.3611 37.9532 77.2149 37.6532 77.0123 37.3923L74.1028 33.678C73.8088 33.2999 73.396 33.0319 72.931 32.9173C72.4659 32.8027 71.9759 32.8483 71.5399 33.0465L65.6218 35.7208C65.2651 35.8973 64.9622 36.166 64.7444 36.4991C64.5267 36.8322 64.4022 37.2176 64.3837 37.6151L63.7275 45.8113C63.7032 46.1363 63.7703 46.4616 63.9213 46.7505C64.0723 47.0393 64.3011 47.2801 64.5818 47.4456ZM65.5475 37.7018C65.5627 37.5181 65.6271 37.3418 65.7338 37.1915C65.8405 37.0412 65.9858 36.9224 66.1542 36.8475L72.0475 34.1732C72.1628 34.1154 72.2901 34.0857 72.419 34.0865C72.5553 34.0865 72.6898 34.1178 72.8121 34.1779C72.9344 34.238 73.0414 34.3253 73.1247 34.4332L76.0342 38.1475C76.2232 38.4083 76.3032 38.7325 76.2571 39.0513C76.2312 39.2078 76.1727 39.357 76.0852 39.4893C75.9977 39.6216 75.8833 39.7339 75.7494 39.8189L65.7209 46.3561C65.6441 46.4036 65.5558 46.4292 65.4655 46.4302C65.3752 46.4311 65.2863 46.4073 65.2086 46.3614C65.1308 46.3155 65.067 46.2493 65.0242 46.1697C64.9814 46.0902 64.9611 46.0005 64.9656 45.9103L65.5475 37.7018Z" fill="#1D1E20"/>
<path d="M80.9592 34.3571C81.117 34.7179 81.3483 35.0418 81.6382 35.3082C81.9281 35.5747 82.2703 35.7778 82.643 35.9047C82.9278 35.9931 83.224 36.039 83.5221 36.0409C84.0029 36.0376 84.4754 35.9142 84.8964 35.6819L91.0869 32.1781C91.6302 31.8706 92.0844 31.4273 92.4048 30.8914C92.7253 30.3556 92.901 29.7457 92.9147 29.1215C92.9284 28.4974 92.7797 27.8803 92.4832 27.3309C92.1866 26.7815 91.7524 26.3186 91.223 25.9876L88.7469 24.4771C87.8157 23.8989 86.7275 23.6252 85.6336 23.694C84.5397 23.7628 83.4944 24.1706 82.643 24.8609L79.783 27.1885C79.3441 27.5486 79.0351 28.0425 78.9032 28.5947C78.7713 29.1469 78.8237 29.7271 79.0526 30.2466L80.9592 34.3571ZM80.625 28.1666L83.4973 25.839C84.1938 25.2613 85.0686 24.942 85.9735 24.9352C86.726 24.935 87.4636 25.1451 88.103 25.5419L90.5792 27.0523C90.9263 27.2695 91.211 27.5731 91.4056 27.9333C91.6001 28.2935 91.6978 28.6981 91.689 29.1074C91.6803 29.5167 91.5654 29.9168 91.3557 30.2684C91.146 30.62 90.8486 30.9111 90.4926 31.1133L84.3021 34.6171C84.115 34.7209 83.9087 34.7854 83.6958 34.8067C83.4829 34.828 83.2679 34.8056 83.064 34.7409C82.8583 34.6745 82.6692 34.5651 82.5091 34.4199C82.349 34.2748 82.2216 34.0972 82.1354 33.899L80.2535 29.7142C80.1324 29.446 80.1032 29.1454 80.1703 28.8588C80.2375 28.5723 80.3973 28.316 80.625 28.1295V28.1666Z" fill="#1D1E20"/>
<path d="M92.9826 45.1788L95.6692 48.6703C95.9548 49.0576 96.3281 49.3717 96.7585 49.5869C97.189 49.8021 97.6642 49.9123 98.1454 49.9084C98.7091 49.913 99.2627 49.7585 99.7426 49.4626L106.478 45.315C106.87 45.0769 107.208 44.7581 107.468 44.3798C107.728 44.0015 107.905 43.5723 107.987 43.1206C108.069 42.6688 108.054 42.2049 107.943 41.7593C107.832 41.3138 107.628 40.8968 107.344 40.536L104.311 36.6855C104.052 36.3554 103.728 36.0811 103.36 35.879C102.992 35.6769 102.587 35.5511 102.169 35.5093C101.755 35.4605 101.334 35.4968 100.934 35.6161C100.534 35.7353 100.162 35.9349 99.8416 36.2026L93.4407 41.5141C93.1694 41.7307 92.9436 41.9988 92.7761 42.3029C92.6087 42.6071 92.503 42.9413 92.465 43.2864C92.4271 43.6315 92.4576 43.9806 92.5549 44.3139C92.6522 44.6472 92.8144 44.9579 93.0321 45.2284L92.9826 45.1788ZM94.2207 42.4674L100.584 37.1436C100.78 36.9826 101.005 36.8623 101.248 36.79C101.491 36.7176 101.745 36.6946 101.997 36.7223C102.248 36.75 102.492 36.8279 102.713 36.9513C102.934 37.0747 103.128 37.2411 103.284 37.4407L106.317 41.2912C106.493 41.5139 106.619 41.7716 106.687 42.047C106.756 42.3224 106.765 42.6093 106.713 42.8884C106.662 43.1677 106.553 43.4332 106.393 43.6678C106.233 43.9024 106.026 44.1008 105.784 44.2503L99.0492 48.3607C98.6634 48.5921 98.2063 48.6745 97.764 48.5924C97.3216 48.5103 96.9245 48.2694 96.6473 47.915L93.9607 44.4236C93.7373 44.1331 93.6345 43.7677 93.6737 43.4033C93.7129 43.0389 93.8911 42.7037 94.1712 42.4674H94.2207Z" fill="#1D1E20"/>
<path d="M87.5586 69.5924C87.5586 69.6667 87.5586 69.7409 87.5586 69.8152C87.5632 70.6889 87.9047 71.5271 88.5119 72.1552L91.6195 75.3C92.1061 75.8054 92.7511 76.129 93.4471 76.2169C94.1432 76.3047 94.8484 76.1515 95.4453 75.7828L110.439 66.5343C111.084 66.1325 111.63 65.5894 112.035 64.9461C112.441 64.3027 112.695 63.5758 112.779 62.82L113.794 53.2371C113.862 52.6932 113.765 52.1414 113.517 51.6527C113.269 51.1639 112.88 50.7605 112.401 50.4943C111.922 50.2281 111.374 50.1113 110.828 50.1588C110.282 50.2063 109.763 50.416 109.337 50.7609L88.8214 67.1781C88.4549 67.4708 88.1534 67.8367 87.936 68.2523C87.7186 68.668 87.59 69.1243 87.5586 69.5924ZM89.5891 68.0943L110.117 51.7762C110.348 51.5859 110.631 51.4698 110.929 51.4433C111.228 51.4168 111.527 51.4811 111.788 51.6276C112.049 51.7716 112.263 51.9892 112.401 52.2533C112.54 52.5175 112.598 52.8165 112.568 53.1133L111.54 62.6962C111.481 63.2612 111.293 63.805 110.99 64.2858C110.687 64.7666 110.278 65.1715 109.795 65.4695L94.7395 74.7181C94.3811 74.9414 93.9569 75.0349 93.5377 74.9831C93.1186 74.9313 92.73 74.7372 92.4367 74.4333L89.391 71.2886C89.1838 71.0775 89.0237 70.8249 88.9213 70.5475C88.8188 70.2701 88.7764 69.9741 88.7967 69.679C88.8073 69.3735 88.8835 69.0738 89.0202 68.8003C89.157 68.5269 89.351 68.2861 89.5891 68.0943Z" fill="#1D1E20"/>
<path d="M36.647 54.7615L35.9041 55.7148C34.3318 53.6843 32.8461 51.6043 31.4718 49.5243C31.5564 49.1131 31.5351 48.687 31.4099 48.2862C31.3132 47.9359 31.1457 47.609 30.9179 47.3258C30.6901 47.0426 30.4066 46.8091 30.0851 46.6396L29.466 46.3053C26.1374 40.7518 23.5053 34.8097 21.6289 28.6129C21.8765 28.0186 22.1365 27.4367 22.4213 26.8672C25.3046 37.0017 30.1367 46.4767 36.647 54.7615Z" fill="#1D1E20"/>
<path d="M59.7017 77.0968L57.857 77.233C52.0939 72.8477 46.7098 67.9855 41.7617 62.6978L42.9998 62.1406C45.476 64.8149 48.1627 67.4149 51.0474 69.9778C51.065 70.2492 51.1365 70.5144 51.2579 70.7578C51.4524 71.0711 51.7216 71.3313 52.0414 71.5149C52.3612 71.6986 52.7216 71.8 53.0903 71.8102H53.1522C55.1951 73.593 57.3989 75.3635 59.7017 77.0968Z" fill="#1D1E20"/>
</svg>
