<svg width="128" height="128" viewBox="0 0 128 128" fill="none" xmlns="http://www.w3.org/2000/svg">
<path d="M65.5867 64.606H63.3924C59.3696 64.606 56.0781 61.3146 56.0781 57.2918V47.1737C56.0781 43.1508 59.3696 39.8594 63.3924 39.8594H65.5867C69.6096 39.8594 72.901 43.1508 72.901 47.1737V57.2918C72.901 61.3146 69.7315 64.606 65.5867 64.606ZM63.3924 41.0784C59.9791 41.0784 57.2972 43.7603 57.2972 47.1737V57.2918C57.2972 60.7051 59.9791 63.387 63.3924 63.387H65.5867C69 63.387 71.6819 60.7051 71.6819 57.2918V47.2956C71.6819 43.8822 69 41.2003 65.5867 41.2003L63.3924 41.0784Z" fill="#333333"/>
<path d="M64.4874 96.4246C63.756 96.4246 62.9027 96.1808 62.2932 95.815L47.6646 87.2817C45.5922 86.0627 44.8608 83.2588 46.0798 81.1865C46.9332 79.8455 48.396 78.9922 49.8589 78.9922H79.116C81.5541 78.9922 83.5046 80.9427 83.5046 83.5027C83.5046 85.0874 82.6513 86.5503 81.3103 87.2817L66.6817 95.815C66.0722 96.1808 65.2189 96.4246 64.4874 96.4246ZM49.8589 80.2112C48.0303 80.2112 46.5674 81.6741 46.5674 83.3808C46.5674 84.4779 47.177 85.575 48.1522 86.1846L62.7808 94.7179C63.756 95.3274 64.9751 95.3274 66.0722 94.7179L80.7008 86.1846C82.2855 85.3312 82.7732 83.2588 81.9198 81.796C81.3103 80.8208 80.3351 80.2112 79.116 80.2112H49.8589Z" fill="#333333"/>
<path d="M44.8597 66.3112H39.8616C39.1302 66.3112 38.5207 66.0674 38.0331 65.5797L37.7892 65.3359C37.1797 64.7264 36.9359 63.995 37.0578 63.1416C37.1797 62.2883 37.7892 61.5569 38.5207 61.1912C40.2273 60.3378 41.5683 58.9969 42.4216 57.2902C42.7873 56.5588 43.5188 55.9493 44.3721 55.8274C45.2254 55.7054 45.9569 55.9493 46.5664 56.5588L46.6883 56.6807C47.1759 57.1683 47.4197 57.7778 47.4197 58.5093V63.8731C47.4197 65.0921 46.2007 66.1893 44.8597 66.3112ZM44.7378 56.8026H44.494C44.0064 56.9245 43.6407 57.1683 43.3969 57.6559C42.4216 59.6064 40.8369 61.1912 39.0083 62.1664C38.6426 62.4102 38.2769 62.7759 38.2769 63.2635C38.155 63.6293 38.3988 64.1169 38.6426 64.3607L38.8864 64.6045C39.1302 64.8483 39.4959 64.9702 39.8616 64.9702H44.8597C45.5912 64.9702 46.2007 64.3607 46.2007 63.6293V58.2654C46.2007 57.8997 46.0788 57.534 45.835 57.2902H45.5912C45.3473 56.9245 45.1035 56.8026 44.7378 56.8026Z" fill="#333333"/>
<path d="M24.5022 51.1947C23.8927 51.1947 23.1613 50.9509 22.6736 50.4633L22.5517 50.3414C22.0641 49.8538 21.8203 49.2443 21.8203 48.5128V43.2709C21.8203 41.8081 22.9175 40.7109 24.3803 40.7109H29.6222C30.3536 40.7109 30.9632 40.9547 31.4508 41.4424L31.5727 41.5643C32.1822 42.1738 32.426 43.0271 32.3041 43.8805C32.1822 44.7338 31.5727 45.4652 30.8413 45.8309C29.1346 46.6843 27.7936 48.0252 26.9403 49.7319C26.4527 50.5852 25.4775 51.1947 24.5022 51.1947ZM24.3803 41.93C23.6489 41.93 23.0394 42.5395 23.0394 43.2709V48.5128C23.0394 48.8786 23.1613 49.2443 23.4051 49.4881L23.527 49.61C23.7708 49.9757 24.2584 50.0976 24.746 49.9757C25.2336 49.8538 25.5994 49.61 25.8432 49.1224C26.8184 47.1719 28.4032 45.5871 30.3536 44.6119C30.8413 44.3681 31.0851 44.0024 31.207 43.5147C31.3289 43.0271 31.207 42.6614 30.8413 42.2957L30.7194 42.1738C30.4756 41.93 30.1098 41.8081 29.7441 41.8081L24.3803 41.93Z" fill="#333333"/>
<path d="M29.3784 66.3159H24.3803C22.9175 66.3159 21.8203 65.2187 21.8203 63.7559V58.3921C21.8203 57.6606 22.0641 57.0511 22.5517 56.5635L22.6736 56.4416C23.2832 55.8321 24.1365 55.5883 24.8679 55.7102C25.7213 55.8321 26.4527 56.4416 26.8184 57.173C27.6717 58.8797 29.0127 60.2206 30.7194 61.074C31.4508 61.4397 32.0603 62.1711 32.1822 63.0244C32.3041 63.8778 32.0603 64.6092 31.4508 65.2187L31.207 65.4625C30.7194 66.0721 30.1098 66.3159 29.3784 66.3159ZM24.5022 56.8073C24.1365 56.8073 23.7708 56.9292 23.527 57.173L23.4051 57.2949C23.1613 57.5387 23.0394 57.9044 23.0394 58.2702V63.634C23.0394 64.3654 23.6489 64.9749 24.3803 64.9749H29.3784C29.7441 64.9749 30.1098 64.853 30.3536 64.6092L30.5975 64.3654C30.9632 64.1216 31.0851 63.634 30.9632 63.2683C30.8413 62.7806 30.5975 62.4149 30.2317 62.1711C28.2813 61.1959 26.6965 59.6111 25.8432 57.6606C25.5994 57.173 25.2336 56.9292 24.746 56.8073H24.5022Z" fill="#333333"/>
<path d="M44.6175 51.1947C43.5204 51.1947 42.6671 50.5852 42.1794 49.7319C41.3261 48.0252 39.9852 46.5624 38.2785 45.8309C37.5471 45.4652 37.0594 44.7338 36.8156 43.8805C36.6937 43.0271 36.9375 42.2957 37.5471 41.6862L37.669 41.4424C38.1566 40.9547 38.7661 40.7109 39.4975 40.7109H44.7394C46.2023 40.7109 47.2994 41.8081 47.2994 43.2709V48.5128C47.2994 49.2443 47.0556 49.8538 46.568 50.3414L46.4461 50.4633C45.9585 50.9509 45.349 51.1947 44.6175 51.1947ZM39.4975 41.93C39.1318 41.93 38.7661 42.0519 38.5223 42.2957L38.4004 42.4176C38.0347 42.6614 37.9128 43.149 38.0347 43.6366C38.1566 44.1243 38.4004 44.49 38.888 44.7338C40.8385 45.709 42.4232 47.2938 43.3985 49.2443C43.6423 49.61 44.008 49.9757 44.4956 50.0976C44.8613 50.2195 45.349 49.9757 45.7147 49.7319L45.8366 49.61C46.0804 49.3662 46.2023 49.0005 46.2023 48.6347V43.3928C46.2023 42.6614 45.5928 42.0519 44.8613 41.93C44.8613 41.93 44.8613 41.93 44.7394 41.93H39.4975Z" fill="#333333"/>
<path d="M34.5002 57.6583H34.3783L33.4031 57.4145C31.8183 56.9269 30.5993 55.464 30.3555 53.7574C30.3555 53.5136 30.3555 53.3917 30.3555 53.2698V52.7821C30.5993 50.9536 32.0621 49.3688 33.8907 49.125H34.0126C34.3783 49.125 34.744 49.125 35.1098 49.125C37.0602 49.3688 38.5231 50.8317 38.7669 52.7821C38.7669 52.904 38.7669 53.1479 38.7669 53.3917V53.8793C38.5231 55.8298 37.0602 57.2926 35.1098 57.5364L34.5002 57.6583ZM34.5002 56.4393H34.9879C36.3288 56.3174 37.4259 55.2202 37.5478 53.8793V53.5136C37.5478 53.3917 37.5478 53.3917 37.5478 53.1479C37.4259 51.8069 36.3288 50.7098 34.9879 50.5879C34.744 50.5879 34.5002 50.5879 34.1345 50.5879C32.7936 50.7098 31.6964 51.8069 31.4526 53.2698V53.6355C31.4526 53.7574 31.4526 53.7574 31.4526 53.8793C31.5745 55.0983 32.4279 56.0736 33.525 56.4393H34.5002Z" fill="#333333"/>
<path d="M105.082 66.194H100.084C99.3529 66.194 98.7433 65.9502 98.2557 65.4625L98.0119 65.2187C97.4024 64.6092 97.1586 63.8778 97.2805 63.0244C97.4024 62.1711 98.0119 61.4397 98.7433 61.074C100.45 60.2206 101.791 58.8797 102.644 57.173C103.01 56.4416 103.741 55.8321 104.595 55.7102C105.448 55.5883 106.18 55.8321 106.789 56.4416L106.911 56.5635C107.399 57.0511 107.642 57.6606 107.642 58.3921V63.7559C107.642 65.0968 106.545 66.194 105.082 66.194ZM104.96 56.8073H104.717C104.229 56.9292 103.863 57.173 103.62 57.6606C102.644 59.6111 101.06 61.1959 99.231 62.1711C98.8652 62.4149 98.4995 62.7806 98.3776 63.2683C98.2557 63.634 98.4995 64.1216 98.7433 64.3654L98.9871 64.6092C99.2309 64.853 99.5967 64.9749 99.9624 64.9749H104.96C105.692 64.9749 106.301 64.3654 106.301 63.634V58.2702C106.301 57.9044 106.18 57.5387 105.936 57.2949H105.814C105.692 56.9292 105.326 56.8073 104.96 56.8073Z" fill="#333333"/>
<path d="M84.7241 51.1947C84.1145 51.1947 83.3831 50.9509 83.0174 50.4633L82.8955 50.3414C82.4079 49.8538 82.1641 49.2443 82.1641 48.5128V43.2709C82.1641 41.8081 83.2612 40.7109 84.7241 40.7109H89.966C90.6974 40.7109 91.3069 40.9547 91.7945 41.4424L91.9164 41.5643C92.526 42.1738 92.7698 43.0271 92.6479 43.8805C92.526 44.7338 91.9164 45.4652 91.185 45.8309C89.4783 46.6843 88.1374 48.0252 87.2841 49.7319C86.6745 50.7071 85.6993 51.3166 84.7241 51.1947ZM84.6022 41.8081C83.8707 41.8081 83.2612 42.4176 83.2612 43.149V48.3909C83.2612 48.7566 83.3831 49.1224 83.6269 49.3662L83.7488 49.4881C83.9926 49.8538 84.4802 49.9757 84.846 49.8538C85.3336 49.7319 85.6993 49.4881 85.9431 49.0005C86.9183 47.05 88.5031 45.4652 90.4536 44.49C90.9412 44.2462 91.185 43.8805 91.3069 43.3928C91.4288 43.0271 91.185 42.5395 90.9412 42.2957L90.8193 42.1738C90.5755 41.93 90.2098 41.8081 89.8441 41.8081H84.6022Z" fill="#333333"/>
<path d="M89.6011 66.1909H84.603C83.1401 66.1909 82.043 65.0937 82.043 63.6309V58.2671C82.043 57.5356 82.2868 56.9261 82.7744 56.4385L82.8963 56.3166C83.5058 55.7071 84.3592 55.4633 85.0906 55.5852C85.9439 55.7071 86.6753 56.3166 87.0411 57.048C87.8944 58.7547 89.2353 60.0956 90.942 60.949C91.6734 61.3147 92.283 62.0461 92.4049 62.8994C92.5268 63.7528 92.283 64.4842 91.6734 65.0937L91.4296 65.4595C90.942 65.9471 90.3325 66.1909 89.6011 66.1909ZM84.7249 56.8042C84.3592 56.8042 83.9934 56.9261 83.7496 57.1699V57.2918C83.5058 57.5356 83.3839 57.9014 83.3839 58.2671V63.6309C83.3839 64.3623 83.9934 64.9718 84.7249 64.9718H89.723C90.0887 64.9718 90.4544 64.8499 90.6982 64.6061L90.942 64.3623C91.3077 64.1185 91.4296 63.6309 91.3077 63.2652C91.1858 62.7775 90.942 62.4118 90.4544 62.168C88.5039 61.1928 86.9192 59.608 86.0658 57.6575C85.822 57.1699 85.4563 56.9261 84.9687 56.8042H84.7249Z" fill="#333333"/>
<path d="M104.961 51.1947C103.864 51.1947 103.011 50.5852 102.523 49.7319C101.67 48.0252 100.329 46.5624 98.6222 45.8309C97.8908 45.4652 97.2813 44.7338 97.1594 43.8805C97.0375 43.0271 97.2813 42.2957 97.8908 41.6862L98.0127 41.4424C98.5003 40.9547 99.1099 40.7109 99.8413 40.7109H105.083C106.546 40.7109 107.643 41.8081 107.643 43.2709V48.5128C107.643 49.2443 107.399 49.8538 106.912 50.3414L106.79 50.4633C106.18 50.9509 105.571 51.1947 104.961 51.1947ZM99.7194 41.8081C99.3537 41.8081 98.988 41.93 98.7441 42.1738L98.6222 42.2957C98.2565 42.5395 98.1346 43.0271 98.2565 43.5147C98.3784 44.0024 98.6222 44.3681 99.1099 44.6119C101.06 45.5871 102.645 47.1719 103.62 49.1224C103.864 49.4881 104.23 49.8538 104.717 49.9757C105.083 50.0976 105.571 49.8538 105.815 49.61L105.937 49.4881C106.18 49.2443 106.302 48.8786 106.302 48.5128V43.2709C106.302 42.5395 105.693 41.93 104.961 41.93H99.7194V41.8081Z" fill="#333333"/>
<path d="M94.719 57.6583L93.6218 57.4145C92.0371 56.9269 90.818 55.464 90.5742 53.7574C90.5742 53.5136 90.5742 53.3917 90.5742 53.2698V52.7821C90.818 50.9536 92.2809 49.3688 94.1094 49.125H94.2314C94.5971 49.125 94.9628 49.125 95.3285 49.125C97.279 49.3688 98.7418 50.8317 98.9856 52.7821C98.9856 52.904 98.9856 53.1479 98.9856 53.3917V53.8793C98.7418 55.8298 97.279 57.2926 95.3285 57.5364L94.719 57.6583ZM94.719 56.4393H95.2066C96.5475 56.3174 97.6447 55.2202 97.7666 53.8793V53.5136C97.7666 53.3917 97.7666 53.3917 97.7666 53.1479C97.6447 51.8069 96.5475 50.7098 95.2066 50.5879C94.9628 50.5879 94.719 50.5879 94.3533 50.5879C93.0123 50.7098 91.9152 51.8069 91.6714 53.2698V53.6355C91.6714 53.7574 91.6714 53.7574 91.6714 53.8793C91.7933 55.0983 92.6466 56.0736 93.8656 56.3174L94.719 56.4393Z" fill="#333333"/>
<path d="M127.757 60.8269C127.878 60.705 127.878 60.3393 127.878 60.2174C127.757 59.9736 127.513 59.8516 127.391 59.8516H115.81C116.297 58.145 116.419 56.3164 116.541 54.4878C116.541 49.9774 115.322 45.5888 112.884 41.6878L112.762 41.444H112.518C108.983 40.1031 106.179 37.4212 104.717 33.8859L104.595 33.6421L104.473 33.5202C98.3775 29.985 91.0632 29.3755 84.4803 31.6916L84.1146 31.9355V32.3012C83.5051 35.2269 80.9451 37.4212 77.8975 37.4212C76.4346 37.4212 74.9718 36.9335 73.7527 35.9583L73.6308 35.8364C67.9013 33.6421 61.6841 33.6421 55.9546 35.8364H55.8327L55.7108 35.9583C54.4918 37.2993 52.7851 38.0307 50.9565 38.0307C47.6651 38.0307 44.8613 35.4707 44.6175 32.1793V31.8135L44.1299 31.6916C37.547 29.4974 30.2327 30.3507 24.2594 33.8859L24.1375 34.0078L23.8937 34.1297C22.4308 37.4212 19.7489 39.9812 16.4575 41.3221L16.3356 41.444L16.2137 41.5659C13.7756 45.4669 12.4346 49.8555 12.4346 54.4878C12.4346 54.7316 12.4346 55.0974 12.4346 55.4631C12.4346 55.9507 12.5565 56.5602 12.5565 57.1697C12.5565 57.7793 12.6784 58.3888 12.8003 58.9983L12.9222 59.9736H0.731755C0.487946 59.9736 0.244136 60.0955 0.244136 60.3393C0.122231 60.5831 0.122231 60.8269 0.366041 60.9488C1.58509 62.1678 1.58509 64.1183 0.366041 65.3374C0.244136 65.4593 0.244136 65.825 0.244136 65.9469C0.366041 66.1907 0.60985 66.3126 0.731755 66.3126H15.1165C21.8213 82.8916 41.0822 102.64 63.5127 103.372H64.6098H65.8289C75.8251 103.006 86.7965 98.0078 96.5489 89.2307C103.741 82.8916 109.593 74.9678 113.616 66.1907H127.269C127.635 66.1907 127.878 65.9469 127.878 65.5812C127.878 65.4593 127.878 65.3374 127.757 65.2155C126.537 63.9964 126.537 62.0459 127.757 60.8269ZM1.8289 65.0936C2.56033 63.8745 2.56033 62.2897 1.8289 61.0707H13.4099C13.7756 62.4116 14.1413 63.7526 14.6289 65.0936H1.8289ZM113.859 62.2897V62.4116C108.496 78.5031 87.6499 101.299 65.707 102.153C64.9756 102.153 64.366 102.153 63.3908 102.153C39.0098 101.421 18.4079 77.284 14.3851 60.2174C14.3851 59.9736 14.2632 59.8516 14.2632 59.6078L14.0194 58.6326C13.8975 58.0231 13.7756 57.4135 13.7756 56.9259C13.6537 56.4383 13.6537 55.8288 13.6537 55.3412C13.6537 54.8536 13.6537 54.7316 13.6537 54.3659C13.6537 50.0993 14.8727 45.9545 17.067 42.2974C20.4803 40.8345 23.2841 38.1526 24.8689 34.7393C30.4765 31.4478 37.0594 30.7164 43.2765 32.6669C43.7641 36.4459 47.0556 39.1278 50.8346 39.2497C52.907 39.2497 54.9794 38.3964 56.3203 36.8116C61.6841 34.7393 67.5356 34.7393 72.8994 36.8116C74.2403 37.9088 75.947 38.5183 77.6537 38.5183C81.067 38.5183 84.1146 36.0802 84.9679 32.7888C91.1851 30.7164 97.8899 31.3259 103.497 34.6174C105.082 38.1526 108.008 41.0783 111.665 42.5412C113.859 46.0764 115.078 50.2212 115.078 54.4878C115.2 57.0478 114.713 59.7297 113.859 62.2897ZM126.172 65.0936H114.103C114.347 64.3621 114.713 63.6307 114.957 62.8993V62.7774C115.2 62.1678 115.322 61.6802 115.444 61.1926H126.172C125.44 62.2897 125.44 63.7526 126.172 65.0936Z" fill="#333333"/>
<path d="M126.17 65.0924H114.102C114.345 64.3609 114.711 63.6295 114.955 62.8981V62.7762C115.199 62.1666 115.321 61.679 115.443 61.1914H126.17C125.439 62.2885 125.439 63.7514 126.17 65.0924Z" fill="#2452CC"/>
<path d="M1.82812 65.0932C2.55955 63.8741 2.55955 62.2894 1.82812 61.0703H13.4091C13.7748 62.4113 14.1405 63.7522 14.6281 65.0932H1.82812Z" fill="#2452CC"/>
</svg>
