<svg width="130" height="130" viewBox="0 0 130 130" fill="none" xmlns="http://www.w3.org/2000/svg">
<path d="M127.872 7.30495C126.613 6.16573 124.976 5.53475 123.278 5.53447C111.269 5.29924 50.2307 4.18495 28.4402 5.53447C27.5638 5.6119 26.7203 5.90586 25.9855 6.38993C25.2507 6.87401 24.6478 7.53304 24.2307 8.30781C23.0669 10.2516 21.8783 14.7335 20.6031 19.4507C19.2288 24.6011 17.6688 30.445 16.2202 32.3764C13.8926 35.4716 11.0574 37.0811 8.06119 38.7773C6.2994 39.7178 4.60345 40.7768 2.985 41.9469C2.46585 42.3462 2.07292 42.8869 1.85332 43.5039C1.63371 44.121 1.59677 44.7883 1.7469 45.4259C1.92028 46.1422 2.34951 46.7704 2.95379 47.1922C3.55807 47.6141 4.29571 47.8005 5.02785 47.7164C5.44364 47.7163 5.85838 47.6748 6.26595 47.5926C12.345 46.4783 18.1021 43.7792 23.6736 40.9192C31.2012 97.3888 45.8107 122.572 71.1917 122.572C80.8117 122.572 88.525 118.857 94.2945 111.577C106.675 95.7916 107.802 64.2202 97.5755 22.6573C99.4945 22.2983 101.636 21.9392 103.939 21.5678C110.559 20.6287 117.116 19.2933 123.575 17.5688C124.798 17.2408 125.926 16.6309 126.87 15.788C127.814 14.9452 128.547 13.8928 129.011 12.7154C129.42 11.8095 129.53 10.7968 129.326 9.824C129.121 8.85121 128.612 7.9689 127.872 7.30495ZM93.3164 110.81C90.7339 114.2 87.3786 116.924 83.5301 118.754C79.6815 120.585 75.4512 121.469 71.1917 121.334C46.5412 121.334 32.2536 96.3611 24.8745 40.3745L26.8307 39.3592L28.7002 38.3811C34.9774 89.8983 48.9431 117.037 69.1612 117.037C69.6441 117.037 70.1269 117.037 70.6098 117.037C79.2021 116.493 85.9374 113.051 90.6298 106.786C101.042 92.8573 101.612 64.963 92.3383 23.9326C93.6554 23.4982 94.9995 23.1508 96.3621 22.8926C106.477 64.1088 105.437 95.3335 93.3164 110.81ZM91.1869 24.403C100.324 64.9507 99.8536 92.4116 89.6393 106.006C85.1698 111.961 78.744 115.254 70.5726 115.762C44.944 117.359 34.3212 74.3602 29.9012 37.7621L32.5012 36.4249C34.6403 35.2358 37.1169 34.7998 39.5336 35.1869C42.505 35.7688 47.346 37.143 51.605 38.344C54.0812 39.0373 56.3717 39.6935 58.0802 40.1269C62.7231 41.3649 71.9717 41.3649 75.8593 38.8888C78.3355 37.5269 79.9945 35.2488 81.7898 32.8469C84.1917 29.7145 86.6679 26.3964 91.1869 24.403ZM127.847 12.2945C127.451 13.2897 126.827 14.178 126.025 14.8877C125.223 15.5974 124.265 16.1087 123.229 16.3802C116.816 18.0822 110.309 19.4092 103.741 20.3545C98.5288 21.1964 94.0345 21.9145 91.3602 22.9421C85.9993 25.0345 83.2012 28.8107 80.725 32.1411C79.0164 34.444 77.3945 36.6107 75.1536 37.8611C71.8355 40.0402 63.2307 40.3373 58.3031 39.0249C56.6193 38.5916 54.304 37.9354 51.865 37.2421C47.5812 36.004 42.7279 34.6545 39.7069 34.0602C37.0336 33.5868 34.2787 34.0227 31.8821 35.2983C29.9755 36.2392 28.0936 37.2297 26.2117 38.2078C19.4517 41.7488 13.0755 45.0916 6.04309 46.3916C5.04023 46.5773 3.29452 46.664 2.94785 45.1535C2.86216 44.7586 2.88863 44.3475 3.02428 43.9669C3.15993 43.5862 3.39934 43.251 3.71547 42.9992C5.29581 41.8625 6.95028 40.8326 8.66785 39.9164C11.7879 38.1459 14.7345 36.4869 17.2107 33.1811C18.8079 31.0516 20.3307 25.3564 21.804 19.8345C23.0421 15.3773 24.2183 10.784 25.2955 8.98876C25.6037 8.39027 26.0558 7.8778 26.6113 7.49743C27.1667 7.11706 27.808 6.88073 28.4774 6.80971C50.2555 5.42305 111.219 6.53733 123.216 6.80971C124.588 6.80994 125.911 7.31704 126.931 8.23352C127.501 8.72114 127.898 9.38 128.063 10.1118C128.228 10.8437 128.152 11.6093 127.847 12.2945Z" fill="#333333"/>
<path d="M29 37.5L24 40L25 47L27 59L30 72L33.5 85L39 98.5L45 108L51 114.5L55.5 118L64 121L70 122L77 121.5L82 120L87 117.5L92.5 113L97.5 105L100 99L102 91.5L103.5 81L104 72.5L103.5 61.5L103 54.5L101.5 44.5L99.5 33.5L97 22L91.5 23.5L94 34L96.5 48L98 63V77L97 90L93.5 101L88 109L83 113L76.5 115.5L70.5 116.5L64.5 116L58.5 113.5L54 110.5L50.5 106.5L47 101.5L42 92L38 82L35 70L33 60L31.5 52L30.5 46L29 37.5Z" fill="#2452CC" stroke="#333333"/>
</svg>
