<svg width="130" height="130" viewBox="0 0 130 130" fill="none" xmlns="http://www.w3.org/2000/svg">
<g clip-path="url(#clip0_3826_18111)">
<path d="M129.999 50.3765L126.929 39.5308V11.1413C126.942 11.0717 126.942 11.0004 126.929 10.9308C126.895 10.8682 126.853 10.81 126.805 10.7575L126.719 10.6708C126.686 10.6641 126.652 10.6641 126.619 10.6708C126.587 10.6604 126.553 10.6604 126.52 10.6708C86.5854 5.82848 46.2116 5.82848 6.27663 10.6708C6.26502 10.6653 6.25234 10.6625 6.23949 10.6625C6.22664 10.6625 6.21395 10.6653 6.20235 10.6708H6.11568V10.7327C6.08097 10.757 6.05494 10.7917 6.04139 10.8318C6.04139 10.8318 6.04139 10.8318 6.04139 10.9061C5.94879 10.8971 5.85555 10.9144 5.77234 10.956C5.68913 10.9977 5.61933 11.0619 5.57092 11.1413V16.7127H4.95187C4.13096 16.7127 3.34367 17.0388 2.7632 17.6193C2.18274 18.1998 1.85663 18.9871 1.85663 19.808V25.9984C1.85663 26.8193 2.18274 27.6066 2.7632 28.1871C3.34367 28.7676 4.13096 29.0937 4.95187 29.0937H5.57092V39.4689L0.68044 49.2499C0.611197 49.3981 0.602186 49.5674 0.655303 49.7221C0.708421 49.8769 0.819522 50.0049 0.965202 50.0794C1.05503 50.0981 1.14775 50.0981 1.23758 50.0794C1.3536 50.0796 1.46736 50.0472 1.56587 49.9859C1.66438 49.9247 1.74368 49.8369 1.79473 49.7327L5.95473 41.4003C6.77187 44.3965 9.14901 50.1537 15.3023 50.1537C15.7161 50.1529 16.1295 50.1281 16.5404 50.0794C24.5509 49.1508 26.8785 39.7908 27.2871 37.8222C30.0481 37.5746 32.8214 37.3642 35.5947 37.1661L22.4709 99.8384C22.4651 99.8629 22.4651 99.8883 22.4709 99.9127L20.7376 100.284C16.1938 101.101 11.0557 102.03 6.01663 103.466C5.89763 103.5 5.79156 103.569 5.71211 103.664C5.63266 103.759 5.58348 103.875 5.57092 103.998V117.617C5.56208 117.742 5.59507 117.865 5.66463 117.968C5.7342 118.072 5.83632 118.149 5.95473 118.187C14.032 121.349 22.637 122.945 31.3109 122.892C39.7506 122.989 48.1242 121.394 55.9366 118.199C56.0356 118.161 56.1229 118.097 56.1902 118.014C56.2574 117.932 56.3023 117.834 56.3204 117.729C56.3204 117.729 58.6357 101.163 56.3204 92.7194C54.886 88.7475 53.2326 84.858 51.3681 81.0689L54.29 63.1413H78.1852L80.8842 79.9422C78.9822 83.8205 77.2958 87.8008 75.8328 91.8651C73.5176 100.321 75.8328 116.887 75.8328 116.887C75.854 116.989 75.9001 117.084 75.9671 117.164C76.0341 117.244 76.1198 117.306 76.2166 117.345C84.0228 120.546 92.3937 122.142 100.83 122.037C109.503 122.096 118.108 120.504 126.186 117.345C126.304 117.301 126.406 117.222 126.477 117.117C126.548 117.013 126.585 116.889 126.582 116.763V103.144C126.582 103.009 126.536 102.877 126.454 102.77C126.371 102.662 126.255 102.585 126.124 102.55C121.098 101.126 115.947 100.197 111.416 99.3803L109.856 99.0461L96.4347 37.1413C98.6261 37.2775 100.793 37.4384 102.972 37.6241C103.12 40.0261 104.321 51.2432 112.976 51.2432C119.575 51.2432 124.341 44.1737 126.099 41.128L128.761 50.7603C128.797 50.8912 128.874 51.0069 128.981 51.0897C129.089 51.1724 129.22 51.2177 129.356 51.2184H129.517C129.608 51.2024 129.694 51.1666 129.77 51.1134C129.846 51.0602 129.909 50.991 129.955 50.9106C130.001 50.8303 130.029 50.7408 130.037 50.6485C130.045 50.5562 130.032 50.4633 129.999 50.3765ZM123.239 11.3889L105.151 16.7127H71.1033C71.1033 15.3993 70.5815 14.1396 69.6528 13.2109C68.724 12.2821 67.4644 11.7603 66.1509 11.7603C64.8375 11.7603 63.5778 12.2821 62.6491 13.2109C61.7203 14.1396 61.1985 15.3993 61.1985 16.7127H57.4842V15.4746C57.4842 14.8179 57.2234 14.1881 56.759 13.7237C56.2946 13.2593 55.6648 12.9984 55.0081 12.9984H38.9128C38.2561 12.9984 37.6263 13.2593 37.1619 13.7237C36.6975 14.1881 36.4366 14.8179 36.4366 15.4746V16.7127H30.8528L29.2185 16.3042V14.5337C29.2185 13.8769 28.9577 13.2471 28.4933 12.7827C28.0289 12.3184 27.3991 12.0575 26.7423 12.0575C26.0856 12.0575 25.4558 12.3184 24.9914 12.7827C24.527 13.2471 24.2662 13.8769 24.2662 14.5337V15.0537L9.60711 11.3394C47.3624 7.02116 85.4879 7.03777 123.239 11.3889ZM69.8776 17.0222V45.1765C67.4353 44.5973 64.8913 44.5973 62.449 45.1765V17.0222C62.4368 16.9194 62.4368 16.8155 62.449 16.7127C62.449 15.7276 62.8403 14.7829 63.5369 14.0863C64.2335 13.3898 65.1782 12.9984 66.1633 12.9984C67.1484 12.9984 68.0931 13.3898 68.7897 14.0863C69.4863 14.7829 69.8776 15.7276 69.8776 16.7127C69.8898 16.8155 69.8898 16.9194 69.8776 17.0222ZM44.5709 16.7127H37.7614V15.4746C37.7614 15.1463 37.8918 14.8313 38.124 14.5992C38.3562 14.367 38.6711 14.2365 38.9995 14.2365H55.0947C55.4231 14.2365 55.738 14.367 55.9702 14.5992C56.2024 14.8313 56.3328 15.1463 56.3328 15.4746V16.7127H50.7614C50.5972 16.7127 50.4398 16.7779 50.3237 16.894C50.2076 17.0101 50.1423 17.1676 50.1423 17.3318V19.1889H45.19V17.3318C45.19 17.1676 45.1247 17.0101 45.0086 16.894C44.8926 16.7779 44.7351 16.7127 44.5709 16.7127ZM43.9519 17.9508V27.8556H37.7614V17.9508H43.9519ZM44.5709 29.0937C44.7351 29.0937 44.8926 29.0285 45.0086 28.9124C45.1247 28.7963 45.19 28.6388 45.19 28.4746V26.6175H50.1423V28.4746C50.1423 28.6388 50.2076 28.7963 50.3237 28.9124C50.4398 29.0285 50.5972 29.0937 50.7614 29.0937H56.3328V30.3318C56.3328 30.6601 56.2024 30.975 55.9702 31.2072C55.738 31.4394 55.4231 31.5699 55.0947 31.5699H38.9995C38.6711 31.5699 38.3562 31.4394 38.124 31.2072C37.8918 30.975 37.7614 30.6601 37.7614 30.3318V29.0937H44.5709ZM51.3804 27.8556V17.9508H61.2109V27.8556H51.3804ZM36.5233 17.9508V27.8556H31.3976V17.9508H36.5233ZM25.5042 27.8556V17.9508H30.1595V27.8556H25.5042ZM27.9804 29.0937V31.5699C27.9804 31.8982 27.85 32.2131 27.6178 32.4453C27.3856 32.6775 27.0707 32.808 26.7423 32.808C26.414 32.808 26.0991 32.6775 25.8669 32.4453C25.6347 32.2131 25.5042 31.8982 25.5042 31.5699V29.0937H27.9804ZM25.5042 16.7127V14.5337C25.5042 14.2053 25.6347 13.8904 25.8669 13.6582C26.0991 13.426 26.414 13.2956 26.7423 13.2956C27.0707 13.2956 27.3856 13.426 27.6178 13.6582C27.85 13.8904 27.9804 14.2053 27.9804 14.5337V16.7127H25.5042ZM6.80901 11.9337L24.2662 16.3289V16.7127H6.80901V11.9337ZM4.95187 27.8556C4.45932 27.8556 3.98695 27.6599 3.63867 27.3116C3.29039 26.9634 3.09473 26.491 3.09473 25.9984V19.808C3.09473 19.3154 3.29039 18.843 3.63867 18.4948C3.98695 18.1465 4.45932 17.9508 4.95187 17.9508H24.2662V27.8556H4.95187ZM6.80901 29.0937H24.2662V30.7527L6.80901 38.6518V29.0937ZM16.3919 48.9032C9.30996 49.7327 7.34139 42.3661 6.90806 40.1499C13.2471 39.3245 19.6027 38.6064 25.9747 37.9956C25.43 40.348 23.09 48.1356 16.3919 48.9032ZM10.2757 38.4537L24.3281 32.0899C24.397 32.7466 24.724 33.349 25.2372 33.7646C25.7503 34.1803 26.4075 34.375 27.0642 34.3061C27.721 34.2371 28.3234 33.9101 28.739 33.3969C29.1546 32.8838 29.3494 32.2266 29.2804 31.5699V29.8613L30.9519 29.0937H36.5233V30.3318C36.5233 30.9885 36.7842 31.6183 37.2486 32.0827C37.7129 32.5471 38.3428 32.808 38.9995 32.808H55.0947C55.7514 32.808 56.3813 32.5471 56.8457 32.0827C57.31 31.6183 57.5709 30.9885 57.5709 30.3318V29.0937H61.2109V34.9746C55.2185 35.0407 49.2303 35.2264 43.2462 35.5318L41.129 35.6432L38.3804 35.8041L35.9042 35.9651C27.3201 36.5511 18.7773 37.3807 10.2757 38.4537ZM38.17 37.067L40.8566 36.9061L27.3242 98.9718L25.0833 99.4175L38.17 37.067ZM6.80901 104.469C11.6376 103.119 16.5776 102.228 20.9481 101.448L22.9414 101.089L24.7614 100.755C25.7642 100.569 26.7423 100.371 27.6957 100.173L29.7138 99.7146C32.6897 99.1256 35.5419 98.0283 38.1452 96.4708C40.8259 94.6024 43.2092 92.3401 45.2147 89.7603L45.4252 90.1318C45.8214 90.8499 46.2052 91.5803 46.5642 92.3232L46.7252 92.6327C45.9084 94.1651 44.8414 95.5502 43.5681 96.7308C41.1376 98.8002 38.4592 100.559 35.5947 101.968C34.3566 102.624 33.1185 103.206 31.7566 103.937C29.2804 105.175 26.7052 106.413 24.1547 107.552L21.8147 108.641H21.7281L19.4871 109.706L18.9176 109.978L17.1842 110.808L16.3547 111.217C15.8842 111.464 15.389 111.699 14.9185 111.935L14.0519 112.38L12.7271 113.061L11.8233 113.544L10.5852 114.2L9.70615 114.708L8.59187 115.339L7.7252 115.872L6.82139 116.429L6.80901 104.469ZM47.3195 93.9946C48.3347 96.1737 49.3376 98.6127 50.3033 101.275H50.1671C46.0938 102.055 40.7204 103.07 35.05 103.602C35.4214 103.417 35.7928 103.231 36.1395 103.033C39.0953 101.573 41.8605 99.7564 44.3728 97.6222C45.5171 96.5542 46.5087 95.3335 47.3195 93.9946ZM7.52711 117.518L8.36901 116.998L9.24806 116.379L10.3252 115.773L11.229 115.253L12.3928 114.621L13.309 114.138C13.7423 113.903 14.1881 113.68 14.6338 113.457L15.4757 113.024L16.9985 112.269L17.7166 111.91L19.4747 111.068L20.0071 110.808L24.65 108.629L28.1166 107.007L28.4509 106.846L29.5404 106.326L30.3452 105.942L31.2242 105.521L32.1528 105.063C38.285 104.61 44.381 103.759 50.4023 102.513H50.7242C50.9471 103.181 51.17 103.862 51.4052 104.543C51.5414 104.977 51.69 105.397 51.8261 105.781C52.1604 106.809 52.47 107.849 52.7795 108.914C52.7795 109.124 52.9157 109.322 52.9652 109.533C53.3366 110.771 53.6957 112.108 54.0423 113.445C54.1538 113.854 54.2528 114.287 54.3519 114.683C54.5747 115.525 54.7852 116.367 54.9833 117.234C41.1909 123.053 22.3471 123.127 7.52711 117.481V117.518ZM55.2062 93.0413C56.9271 99.1203 56.2957 109.285 55.5776 114.448C55.5776 114.225 55.4661 114.002 55.4042 113.767L55.0328 112.393C54.81 111.563 54.5871 110.734 54.3642 109.917C54.2281 109.458 54.1042 109 53.9681 108.555C53.7204 107.713 53.4728 106.896 53.2128 106.078C53.1014 105.707 52.99 105.323 52.8661 104.952C52.4947 103.788 52.1109 102.637 51.7147 101.522C50.6245 98.4055 49.3639 95.3511 47.9385 92.3727C47.629 91.7041 47.2947 91.048 46.9481 90.3918C46.849 90.1937 46.7376 89.9956 46.6261 89.8099C46.3909 89.3765 46.1804 88.9927 45.9328 88.5718L49.0652 83.0127L50.0928 81.1803C50.3281 81.6632 50.6252 82.2699 50.9471 82.9508C52.6152 86.204 54.0388 89.5768 55.2062 93.0413ZM50.2785 60.6651C50.2761 61.1582 50.4209 61.6408 50.6944 62.051C50.9679 62.4613 51.3577 62.7806 51.8138 62.968L48.9538 80.7718C47.9014 82.728 45.8957 86.4175 44.8804 88.0518C44.7339 88.2995 44.5683 88.5354 44.3852 88.7575C42.4239 91.3205 40.0766 93.5634 37.4271 95.406C35.1305 96.7888 32.6201 97.7804 29.9985 98.3403L43.3328 36.7699C49.2592 36.4645 55.202 36.2788 61.1614 36.2127V45.5356C57.9869 46.5927 55.2265 48.6238 53.2727 51.34C51.3189 54.0562 50.2712 57.3192 50.2785 60.6651ZM77.0957 60.6651H55.2309C55.2313 58.4817 55.8862 56.3485 57.111 54.5409C58.3359 52.7334 60.0745 51.3346 62.1023 50.5251C62.5037 50.3535 62.9176 50.2128 63.3404 50.1041C65.1897 49.6087 67.1369 49.6087 68.9862 50.1041C69.409 50.2128 69.8229 50.3535 70.2242 50.5251C72.2521 51.3346 73.9907 52.7334 75.2156 54.5409C76.4404 56.3485 77.0953 58.4817 77.0957 60.6651ZM80.649 62.8565C81.0624 62.6569 81.4122 62.3462 81.6593 61.9592C81.9063 61.5722 82.0409 61.1242 82.048 60.6651C82.0441 57.3194 80.9856 54.0602 79.0229 51.3507C77.0603 48.6412 74.2934 46.6194 71.1157 45.5727V36.2127C77.1328 36.287 83.1458 36.481 89.1547 36.7946L102.638 97.6346C99.848 97.0712 97.1734 96.0416 94.7262 94.5889C92.0774 92.7307 89.7305 90.4757 87.7681 87.9032C87.5947 87.6803 87.4338 87.4451 87.2728 87.1975C86.3442 85.687 84.5614 82.4308 83.4719 80.4127L80.649 62.8565ZM76.7614 112.925L76.5757 113.606C75.87 108.431 75.2385 98.2784 76.9595 92.1994C78.1429 88.6953 79.5787 85.2816 81.2557 81.9851L82.0604 80.326L83.2985 82.4432L86.2823 87.7175C86.0223 88.1632 85.8242 88.5346 85.589 88.9556L85.2547 89.5375C84.9081 90.206 84.5738 90.8622 84.2642 91.5184C82.8365 94.5058 81.5718 97.5684 80.4757 100.693C80.0919 101.807 79.7081 102.946 79.3242 104.122C79.2128 104.481 79.1014 104.865 78.9776 105.237C78.73 106.054 78.47 106.883 78.2223 107.713L77.8385 109.062C77.6033 109.879 77.3804 110.697 77.1576 111.538C76.9842 111.997 76.8604 112.455 76.7614 112.925ZM87.7928 96.8299C90.2963 98.9732 93.0581 100.795 96.0138 102.253L97.1157 102.822C91.4328 102.29 86.0719 101.262 81.9862 100.482H81.8623C82.8281 97.8203 83.8185 95.3813 84.8338 93.2022C85.6446 94.53 86.6364 95.7384 87.7804 96.7927L87.7928 96.8299ZM77.1576 116.379L77.789 113.903C77.9004 113.482 77.9995 113.061 78.1109 112.665C78.4576 111.34 78.8042 110.028 79.1757 108.753L79.3614 108.146C79.6709 107.081 79.9928 106.029 80.3147 105.001L80.7481 103.763C80.9709 103.082 81.1938 102.401 81.429 101.745L81.7509 101.807C87.7723 103.06 93.868 103.924 100 104.395L100.917 104.84L101.808 105.274L102.613 105.657L103.702 106.177L104.037 106.326L107.503 107.96L112.146 110.139L112.679 110.399L114.437 111.241L115.142 111.427L116.665 112.182L117.519 112.616L118.844 113.297L119.748 113.779C120.144 113.99 120.54 114.2 120.986 114.423C121.432 114.646 121.593 114.757 121.89 114.931L122.955 115.55C123.264 115.723 123.549 115.909 123.834 116.082L124.676 116.602C109.794 122.273 90.9623 122.198 77.1576 116.379ZM109.682 100.284L111.193 100.557C115.563 101.349 120.503 102.24 125.344 103.577V115.575L124.44 115.03L123.574 114.497L122.459 113.854L121.568 113.346L120.33 112.69L119.439 112.207L118.101 111.526L117.235 111.08L115.799 110.375L114.969 109.966L113.248 109.137L112.666 108.951L110.413 107.886H110.339L107.986 106.784C105.51 105.546 102.811 104.308 100.397 103.181C99.0471 102.426 97.809 101.77 96.5709 101.114C93.71 99.7105 91.0356 97.9553 88.61 95.8889C87.3299 94.7083 86.2546 93.3235 85.4281 91.7908C85.4281 91.6794 85.5271 91.5803 85.589 91.4689C85.9481 90.7384 86.3319 90.008 86.7281 89.2775C86.8023 89.166 86.8642 89.0422 86.9385 88.9184C88.968 91.5033 91.3814 93.7622 94.0947 95.6165C96.8398 97.2444 99.8482 98.3799 102.984 98.9718C103.727 99.1451 104.495 99.3184 105.275 99.467L107.54 99.9251L109.682 100.284ZM107.206 98.5632L105.312 98.1794L91.6928 36.8937L93.8223 37.0175L107.206 98.5632ZM96.15 35.9651L93.8842 35.8289L91.4081 35.668C90.69 35.668 89.9719 35.5813 89.2538 35.5565C83.2119 35.2346 77.1658 35.0407 71.1157 34.9746V29.0937H104.47C104.875 29.0919 105.275 29.1897 105.634 29.3784L122.967 38.5651C114.036 37.4261 105.097 36.5594 96.15 35.9651ZM112.988 50.1413C105.559 50.1413 104.408 40.348 104.222 37.8222C111.255 38.4165 118.271 39.1842 125.27 40.1251C123.958 42.5765 119.265 50.1413 112.988 50.1413ZM125.666 38.5899L105.931 28.1403C105.567 27.9664 105.17 27.8694 104.767 27.8556H71.1157V17.9508H105.238H105.411L125.666 11.9708V38.5899Z" fill="#333333"/>
<path d="M123.238 11.3891L105.149 16.7129H71.1017C71.1017 15.3995 70.5799 14.1398 69.6511 13.2111C68.7224 12.2823 67.4627 11.7605 66.1493 11.7605C64.8358 11.7605 63.5762 12.2823 62.6474 13.2111C61.7187 14.1398 61.1969 15.3995 61.1969 16.7129H57.4826V15.4748C57.4826 14.8181 57.2217 14.1883 56.7574 13.7239C56.293 13.2595 55.6631 12.9986 55.0064 12.9986H38.9112C38.2545 12.9986 37.6246 13.2595 37.1603 13.7239C36.6959 14.1883 36.435 14.8181 36.435 15.4748V16.7129H30.8512L29.2169 16.3043V14.5339C29.2169 13.8771 28.956 13.2473 28.4916 12.7829C28.0273 12.3186 27.3974 12.0577 26.7407 12.0577C26.084 12.0577 25.4542 12.3186 24.9898 12.7829C24.5254 13.2473 24.2645 13.8771 24.2645 14.5339V15.0539L9.60547 11.3396C47.3608 7.02135 85.4863 7.03796 123.238 11.3891Z" fill="#2452CC"/>
<path d="M61.2106 29.0938V34.9747C55.2182 35.0407 49.23 35.2264 43.2458 35.5318L41.1287 35.6433L38.3801 35.8042L35.9039 35.9652C27.3446 36.543 18.8141 37.3684 10.3125 38.4414L24.3649 32.0776C24.4338 32.7343 24.7609 33.3367 25.274 33.7523C25.7871 34.168 26.4443 34.3627 27.1011 34.2938C27.7578 34.2248 28.3602 33.8978 28.7759 33.3846C29.1915 32.8715 29.3862 32.2143 29.3173 31.5576V29.8614L30.9515 29.0938H36.523V30.3318C36.523 30.9886 36.7839 31.6184 37.2482 32.0828C37.7126 32.5472 38.3424 32.808 38.9992 32.808H55.0944C55.7511 32.808 56.381 32.5472 56.8453 32.0828C57.3097 31.6184 57.5706 30.9886 57.5706 30.3318V29.0938H61.2106Z" fill="#2452CC"/>
<path d="M122.981 38.5652C114.042 37.4262 105.099 36.5595 96.1515 35.9652L93.8858 35.829L91.4096 35.6681C90.6915 35.6681 89.9734 35.5814 89.2553 35.5566C83.2134 35.2347 77.1673 35.0408 71.1172 34.9747V29.0938H104.471C104.877 29.092 105.277 29.1898 105.635 29.3785L122.981 38.5652Z" fill="#2452CC"/>
<path d="M124.612 116.628C109.755 122.274 90.961 122.199 77.1562 116.405L77.7877 113.904C77.8991 113.483 77.9982 113.062 78.1096 112.666C78.4563 111.341 78.8029 110.029 79.1743 108.754L79.3601 108.147C79.6696 107.082 79.9915 106.03 80.3134 105.002L80.7467 103.764C80.9696 103.083 81.1924 102.402 81.4277 101.746L81.7496 101.808C87.771 103.061 93.8667 103.925 99.9991 104.396L100.915 104.841L101.807 105.275L102.611 105.658L103.701 106.178L104.035 106.327L107.502 107.961L112.145 110.14L112.677 110.4L114.435 111.242L115.141 111.428L116.664 112.183L117.518 112.617L118.843 113.298L119.747 113.78C120.143 113.991 120.539 114.201 120.985 114.424C121.431 114.647 121.591 114.758 121.889 114.932L122.953 115.551C123.263 115.724 123.548 115.91 123.832 116.083L124.612 116.628Z" fill="#2452CC"/>
<path d="M54.9835 117.257C41.1912 123.052 22.3473 123.126 7.52734 117.48L8.36925 116.96L9.2483 116.378L10.3254 115.772L11.2292 115.252L12.3931 114.62L13.3092 114.137C13.7426 113.902 14.1883 113.679 14.634 113.456L15.4759 113.023L16.9988 112.268L17.7169 111.909L19.475 111.067L20.0073 110.807L24.6502 108.628L28.1169 107.006L28.4512 106.845L29.5407 106.325L30.3454 105.941L31.2245 105.52L32.1531 105.062C38.2852 104.609 44.3813 103.758 50.4026 102.512H50.7245C50.9473 103.18 51.1702 103.861 51.4054 104.542C51.5416 104.976 51.6902 105.396 51.8264 105.78C52.1607 106.808 52.4702 107.848 52.7797 108.913C52.7797 109.123 52.9159 109.321 52.9654 109.532C53.3369 110.77 53.6959 112.107 54.0426 113.444C54.154 113.853 54.2531 114.286 54.3521 114.682C54.575 115.549 54.7854 116.378 54.9835 117.257Z" fill="#2452CC"/>
</g>
<defs>
<clipPath id="clip0_3826_18111">
<rect width="130" height="130" fill="white"/>
</clipPath>
</defs>
</svg>
