<svg width="130" height="130" viewBox="0 0 130 130" fill="none" xmlns="http://www.w3.org/2000/svg">
<path d="M100.546 86.6662H102.13C103.608 86.6662 105.025 86.0792 106.07 85.0344C107.115 83.9895 107.702 82.5724 107.702 81.0948C107.702 79.6171 107.115 78.2 106.07 77.1552C105.025 76.1103 103.608 75.5233 102.13 75.5233H99.6543V71.19C99.6544 71.0942 99.6288 71.0001 99.58 70.9176V70.8557C99.5315 70.7783 99.4684 70.711 99.3942 70.6576C99.3293 70.62 99.2579 70.5949 99.1838 70.5833C95.8409 69.9767 92.4238 69.1967 89.1304 68.4414C82.2219 66.8567 75.1276 65.2471 68.0952 65.0738V59.1805C69.2161 58.61 70.1568 57.7398 70.8125 56.6665C71.4683 55.5933 71.8134 54.3591 71.8095 53.1014V48.6071C71.8095 48.443 71.7443 48.2855 71.6282 48.1694C71.5121 48.0533 71.3546 47.9881 71.1904 47.9881H68.4543L75.7095 32.7719C78.1212 31.9475 80.4276 30.8421 82.5809 29.4786C87.1807 26.5923 90.9842 22.5998 93.6443 17.8657C96.3044 13.1315 97.7364 7.80649 97.8095 2.37667C97.8095 2.21571 97.8095 2.04238 97.8095 1.86905C97.8095 1.70487 97.7443 1.54741 97.6282 1.43131C97.5121 1.31522 97.3546 1.25 97.1904 1.25H77.3809C77.2167 1.25 77.0593 1.31522 76.9432 1.43131C76.8271 1.54741 76.7619 1.70487 76.7619 1.86905C76.8127 3.42686 76.5498 4.97899 75.9888 6.43315C75.4277 7.88732 74.58 9.21382 73.496 10.3338C72.412 11.4537 71.1139 12.3443 69.6788 12.9525C68.2437 13.5607 66.701 13.8741 65.1423 13.8741C63.5837 13.8741 62.041 13.5607 60.6059 12.9525C59.1708 12.3443 57.8727 11.4537 56.7887 10.3338C55.7047 9.21382 54.857 7.88732 54.2959 6.43315C53.7349 4.97899 53.472 3.42686 53.5228 1.86905C53.5228 1.70487 53.4576 1.54741 53.3415 1.43131C53.2254 1.31522 53.068 1.25 52.9038 1.25H33.0943C32.9301 1.25 32.7726 1.31522 32.6565 1.43131C32.5404 1.54741 32.4752 1.70487 32.4752 1.86905C32.4752 2.05476 32.4752 2.2281 32.4752 2.38905C32.5571 7.72876 33.949 12.9667 36.5288 17.6426C39.1085 22.3185 42.7971 26.2893 47.2704 29.2062L47.3571 29.2681C49.5129 30.6721 51.8279 31.815 54.2533 32.6729L61.5457 47.9881H58.859C58.6948 47.9881 58.5374 48.0533 58.4213 48.1694C58.3052 48.2855 58.24 48.443 58.24 48.6071V53.1014C58.2479 54.3501 58.5985 55.5727 59.2534 56.6359C59.9084 57.6991 60.8426 58.5621 61.9543 59.1309V65.0738C54.9219 65.2471 47.8276 66.8567 40.9066 68.4414C37.6133 69.1967 34.1962 69.9767 30.8533 70.5833C30.7791 70.5949 30.7078 70.62 30.6428 70.6576C30.5687 70.711 30.5056 70.7783 30.4571 70.8557V70.9176C30.4083 71.0001 30.3826 71.0942 30.3828 71.19V90.9995C30.3822 91.0993 30.4078 91.1975 30.4571 91.2843V91.3586C30.4824 91.3946 30.5114 91.4278 30.5438 91.4576H30.6057C30.6629 91.4686 30.7218 91.4686 30.779 91.4576H30.94C35.6571 90.9128 40.3743 90.5043 45.0543 90.2195L38.2571 115.6C35.9238 116.174 33.622 116.868 31.3609 117.68C31.2413 117.724 31.1379 117.803 31.0648 117.907C30.9917 118.011 30.9524 118.135 30.9523 118.262V128.167C30.9545 128.272 30.9844 128.375 31.039 128.464C31.1011 128.543 31.1765 128.61 31.2619 128.662H31.3362H31.46C35.8733 129.26 40.3169 129.607 44.7695 129.702C50.1923 129.702 55.1076 128.848 57.9676 125.988C58.0271 125.933 58.0743 125.866 58.1063 125.791C58.1383 125.716 58.1543 125.636 58.1533 125.555V111.428H71.8095V125.666C71.8081 125.767 71.8324 125.866 71.8801 125.955C71.9277 126.044 71.9972 126.119 72.0819 126.174C75.7962 128.65 80.7485 129.888 87.4962 129.888C91.7567 129.83 96.007 129.454 100.211 128.761C100.357 128.74 100.49 128.667 100.585 128.556C100.681 128.444 100.733 128.302 100.731 128.155V118.25C100.73 118.13 100.695 118.012 100.629 117.911C100.563 117.81 100.47 117.73 100.36 117.68C96.9169 116.302 93.3009 115.402 89.6133 115.006L82.8285 90.1576C88.2514 90.4919 93.6495 90.9748 98.9238 91.6186H99.0476C99.1465 91.613 99.2433 91.5878 99.3324 91.5443C99.3324 91.5443 99.3324 91.4824 99.419 91.4452V91.3709C99.4683 91.2842 99.4939 91.186 99.4933 91.0862V87.5452L105.238 93.0424C105.294 93.1016 105.361 93.1488 105.435 93.1811C105.51 93.2133 105.59 93.23 105.671 93.23C105.753 93.23 105.833 93.2133 105.907 93.1811C105.982 93.1488 106.049 93.1016 106.105 93.0424C106.164 92.9868 106.211 92.9197 106.243 92.8451C106.276 92.7706 106.292 92.6903 106.292 92.609C106.292 92.5278 106.276 92.4475 106.243 92.3729C106.211 92.2984 106.164 92.2313 106.105 92.1757L100.546 86.6662ZM88.8333 69.6424C91.5819 70.2738 94.4171 70.8805 97.2276 71.4624L89.6133 75.5233H76.9352L68.0952 69.1595V66.2995C74.9914 66.4729 82.0238 68.0948 88.8333 69.6424ZM65.0495 59.9109C65.6606 59.912 66.2688 59.8287 66.8571 59.6633V69.469C66.8571 69.9616 66.6614 70.434 66.3132 70.7822C65.9649 71.1305 65.4925 71.3262 65 71.3262C64.5074 71.3262 64.035 71.1305 63.6868 70.7822C63.3385 70.434 63.1428 69.9616 63.1428 69.469V59.6386C63.7627 59.8173 64.4044 59.909 65.0495 59.9109ZM63.1428 58.3138V51.7024H66.8571V58.351C65.6606 58.8047 64.3393 58.8047 63.1428 58.351V58.3138ZM65.619 72.5148C66.1502 72.4337 66.6496 72.2102 67.0638 71.8679C67.478 71.5256 67.7917 71.0774 67.9714 70.571L74.8181 75.5233H65.619V72.5148ZM70.5714 53.1014C70.5785 54.0221 70.3557 54.93 69.9233 55.7429C69.491 56.5558 68.8626 57.2479 68.0952 57.7567V51.7024H70.5714V53.1014ZM67.5257 47.0471C67.4147 46.9073 67.2903 46.7788 67.1543 46.6633C66.9867 46.5296 66.8087 46.4095 66.6219 46.3043L66.4485 46.23C66.3083 46.1655 66.1635 46.1117 66.0152 46.069C66.0152 46.069 66.0152 46.069 65.9162 46.069L82.5809 10.4986L83.72 8.09667C83.8524 7.84765 84.0734 7.65736 84.3393 7.56337C84.6052 7.46939 84.8967 7.47855 85.1562 7.58905C85.4094 7.71314 85.6047 7.93061 85.7009 8.19571C85.8052 8.46239 85.8052 8.75856 85.7009 9.02524V9.1119L85.1066 10.35L67.5257 47.0471ZM64.5295 47.1957C64.6861 47.1829 64.8434 47.1829 65 47.1957C65.4957 47.1842 65.979 47.3511 66.3619 47.6662C66.4776 47.7711 66.5776 47.892 66.659 48.0252H63.3409C63.4008 47.9382 63.4715 47.8591 63.5514 47.79L63.6257 47.7157C63.7295 47.6246 63.8463 47.5495 63.9723 47.4929H64.0343L64.3809 47.369L64.5295 47.1957ZM59.8371 34.0967C61.5887 34.3853 63.361 34.5302 65.1362 34.53C66.7947 34.5267 68.4505 34.3942 70.0885 34.1338L65 45.0786L59.8371 34.0967ZM86.8647 7.78714C86.7573 7.49631 86.5923 7.23017 86.3796 7.00465C86.1668 6.77914 85.9107 6.59891 85.6266 6.47476C85.4914 6.40156 85.345 6.35135 85.1933 6.32619C85.016 6.27638 84.8327 6.25138 84.6485 6.2519C84.5416 6.23994 84.4336 6.23994 84.3266 6.2519C83.9189 6.31084 83.5342 6.47753 83.2123 6.73476L83.0885 6.83381L82.9523 7.08143C82.8586 7.18852 82.7756 7.30464 82.7047 7.42809V7.50238C82.7146 6.84565 82.9849 6.21974 83.4562 5.76233C83.9276 5.30492 84.5613 5.05348 85.2181 5.06333C85.8748 5.07318 86.5007 5.34351 86.9581 5.81486C87.4155 6.2862 87.667 6.91994 87.6571 7.57667C87.6544 8.22627 87.3965 8.84878 86.939 9.31V9.19857C86.945 9.10788 86.945 9.01688 86.939 8.92619C86.945 8.86857 86.945 8.81048 86.939 8.75286C86.939 8.75286 86.939 8.75286 86.939 8.65381V8.46809C86.9451 8.2388 86.9202 8.00973 86.8647 7.78714ZM81.9247 28.4757C80.2155 29.5522 78.408 30.4642 76.5266 31.1995L85.5028 12.2319H85.9114H86.2209C86.5745 12.2714 86.9299 12.2921 87.2857 12.2938C87.6995 12.2952 88.1131 12.2704 88.5238 12.2195H88.8828L89.7247 12.0586L90.0962 11.9595C90.399 11.8834 90.6967 11.7883 90.9876 11.6748L91.2104 11.6005C91.5621 11.469 91.9053 11.316 92.2381 11.1424C92.3205 11.1044 92.3993 11.0588 92.4733 11.0062L93.2409 10.5357L93.5257 10.3252C93.7609 10.1519 93.9838 9.96619 94.2066 9.78048L94.4295 9.59476C94.7142 9.32238 94.9866 9.05 95.2466 8.75286C95.4943 8.4681 95.7171 8.17095 95.94 7.86143C95.94 7.86143 95.94 7.86143 95.94 7.77476C95.153 12.0036 93.5022 16.0246 91.0907 19.5865C88.6792 23.1484 85.5588 26.1745 81.9247 28.4757ZM96.5714 2.47571V2.88429C96.5714 3.03286 96.5714 3.16905 96.5714 3.30524C96.5714 3.44143 96.5714 3.61476 96.4723 3.77571C96.3733 3.93667 96.4723 4.0481 96.3857 4.18429C96.299 4.32048 96.299 4.48143 96.2619 4.63C96.2247 4.77857 96.1752 4.90238 96.1257 5.03857L95.9647 5.44714C95.9647 5.57095 95.8533 5.70714 95.7914 5.84333L95.4819 6.19L95.3333 6.61095L95.0981 6.97L94.8628 7.32905L94.5904 7.66333L94.3181 7.99762C94.2254 8.10677 94.1262 8.21013 94.0209 8.30714L93.6619 8.66619C93.5603 8.76355 93.4528 8.85452 93.34 8.93857C93.2342 9.04 93.1226 9.13509 93.0057 9.22333L92.659 9.47095L92.3123 9.71857C92.1885 9.80524 92.0523 9.86714 91.9285 9.94143L91.619 10.1024C91.4828 10.1767 91.3343 10.2262 91.1981 10.2881L90.8266 10.4614L90.3809 10.6224L89.9971 10.7586L89.4895 10.8824L89.1428 10.969L88.5485 11.0557H88.2514C87.9463 11.0746 87.6403 11.0746 87.3352 11.0557C86.9782 11.1058 86.6185 11.1347 86.2581 11.1424C86.9817 10.9095 87.6164 10.4603 88.0766 9.85525C88.5368 9.25022 88.8003 8.51856 88.8315 7.75905C88.8627 6.99953 88.6601 6.24873 88.2511 5.60801C87.842 4.96728 87.2462 4.46748 86.5442 4.17609C85.8421 3.88469 85.0675 3.81573 84.325 3.97851C83.5824 4.14129 82.9077 4.52798 82.3919 5.08636C81.8761 5.64475 81.5441 6.34795 81.4406 7.10103C81.3371 7.85411 81.4672 8.62081 81.8133 9.29762L81.5904 9.14905L81.2562 8.86428L80.7485 8.39381L80.4762 8.09667L80.0181 7.53952C79.9369 7.44579 79.8625 7.3465 79.7952 7.24238C79.6114 6.99905 79.4459 6.74248 79.3 6.47476L79.2133 6.33857C79.0317 6.02075 78.8744 5.68965 78.7428 5.3481C78.7428 5.26143 78.7428 5.15 78.6438 5.06333C78.5447 4.97667 78.4704 4.56809 78.3962 4.32048C78.3219 4.07286 78.3343 4.06048 78.3095 3.92429C78.2847 3.7881 78.2104 3.46619 78.1733 3.24333C78.1362 3.02048 78.1733 2.95857 78.1733 2.81C78.1733 2.66143 78.1733 2.58714 78.1733 2.47571H96.5714ZM52.8295 5.58333C53.6323 8.22173 55.2618 10.5323 57.4777 12.1741C59.6935 13.816 62.3783 14.7023 65.1362 14.7023C67.894 14.7023 70.5788 13.816 72.7947 12.1741C75.0105 10.5323 76.64 8.22173 77.4428 5.58333V5.65762C77.6122 6.10953 77.815 6.54821 78.0495 6.97C78.0495 7.04429 78.1485 7.10619 78.1857 7.18048C78.3838 7.51476 78.6066 7.84905 78.8419 8.17095L79.1638 8.55476C79.3742 8.80238 79.5847 9.03762 79.8076 9.26048L80.2162 9.64429C80.4485 9.85574 80.6923 10.0541 80.9466 10.2386L81.1943 10.449L70.7323 32.7348C66.91 33.4405 62.9908 33.4405 59.1685 32.7348L54.86 23.5852L57.4476 22.3471C57.5211 22.3117 57.5864 22.2616 57.6397 22.1998C57.6929 22.138 57.7329 22.066 57.7571 21.9881C57.7906 21.9142 57.808 21.834 57.808 21.7529C57.808 21.6717 57.7906 21.5915 57.7571 21.5176L56.6676 19.3014C56.6319 19.2282 56.5822 19.1627 56.5211 19.1087C56.4601 19.0547 56.389 19.0133 56.312 18.9868C56.2349 18.9604 56.1534 18.9494 56.072 18.9545C55.9907 18.9596 55.9112 18.9807 55.8381 19.0167L53.3619 20.2548V20.1681L48.8181 10.6224L49.0781 10.4119C49.3485 10.2235 49.6089 10.021 49.8581 9.80524L50.2666 9.43381C50.5188 9.19026 50.7585 8.93406 50.9847 8.66619L51.2943 8.30714C51.6067 7.91697 51.8882 7.50302 52.1362 7.06905V6.99476C52.3666 6.59651 52.5693 6.18283 52.7428 5.75667C52.7671 5.69671 52.7961 5.63876 52.8295 5.58333ZM44.8809 10.1519V10.0652L44.4476 9.18619C44.3675 9.02386 44.3211 8.84695 44.3114 8.66619C44.3099 8.45143 44.3713 8.24093 44.4878 8.06056C44.6044 7.88019 44.7712 7.73782 44.9676 7.65095C45.1033 7.58746 45.2511 7.55369 45.4009 7.5519C45.6171 7.55116 45.8289 7.61263 46.0112 7.72898C46.1934 7.84533 46.3383 8.01165 46.4285 8.20809L46.8866 9.28524L47.1714 9.91667L47.3819 10.4862L52.1238 20.6014L50.279 21.5052L50.019 20.9481L45.4381 11.3281L44.8809 10.1519ZM43.0857 8.91381C42.8178 8.61458 42.6266 8.25466 42.5288 7.8651C42.431 7.47554 42.4294 7.06803 42.5242 6.67772C42.619 6.28741 42.8073 5.92601 43.0729 5.6247C43.3384 5.32339 43.6733 5.0912 44.0487 4.94817C44.424 4.80514 44.8285 4.75556 45.2272 4.8037C45.626 4.85183 46.007 4.99625 46.3375 5.22449C46.6681 5.45273 46.9381 5.75794 47.1243 6.1138C47.3106 6.46966 47.4075 6.86549 47.4066 7.26714V7.42809L47.2952 7.27952L47.0476 7.05667L46.9114 6.93286C46.854 6.87277 46.7871 6.82257 46.7133 6.78429L46.5523 6.68524L46.3295 6.57381L46.1562 6.49952H45.9209H45.7476H45.4752C45.4217 6.49339 45.3677 6.49339 45.3142 6.49952H45.0047H44.8685C44.7202 6.53155 44.5752 6.57714 44.4352 6.63571C44.0447 6.81796 43.7115 7.10344 43.4715 7.46129C43.2315 7.81914 43.0938 8.23578 43.0733 8.66619C43.0685 8.76541 43.0727 8.86486 43.0857 8.96333V8.91381ZM55.8381 20.3167L56.3828 21.4186L53.8076 22.6567L51.7523 23.6719L48.6076 25.2195L48.0628 24.1052L55.8381 20.3167ZM34.0476 4.22143C33.9857 3.99857 33.9362 3.77571 33.8866 3.55286C33.8371 3.33 33.8866 3.36714 33.8866 3.28048C33.8866 3.19381 33.8866 2.88429 33.8866 2.69857V2.38905H52.4581C52.4581 2.50048 52.4581 2.62429 52.4581 2.73571C52.4581 2.84714 52.4581 3.04524 52.4581 3.19381C52.4204 3.4314 52.3708 3.66693 52.3095 3.89952C52.2878 4.03307 52.2589 4.16533 52.2228 4.29571C52.1492 4.55582 52.0624 4.81203 51.9628 5.06333C51.9311 5.16434 51.8939 5.26354 51.8514 5.36048C51.7156 5.7023 51.5542 6.0334 51.3685 6.35095L51.2447 6.56143C51.0962 6.80905 50.9352 7.05667 50.7619 7.2919L50.5019 7.60143C50.3553 7.79165 50.1983 7.97352 50.0314 8.14619C49.9323 8.24524 49.8209 8.34429 49.7219 8.45571L49.1895 8.91381L48.8428 9.19857L48.2857 9.43381L48.1371 9.09952C48.4379 8.55286 48.5995 7.94056 48.6076 7.31667C48.6111 6.63048 48.4245 5.95673 48.0684 5.37015C47.7123 4.78357 47.2007 4.3071 46.5903 3.99359C45.9799 3.68008 45.2946 3.54179 44.6104 3.59406C43.9262 3.64633 43.2699 3.88711 42.7142 4.2897C42.1585 4.69229 41.7252 5.24094 41.4624 5.8748C41.1995 6.50866 41.1174 7.20294 41.2251 7.88063C41.3328 8.55832 41.6262 9.19292 42.0726 9.71404C42.5191 10.2352 43.1011 10.6224 43.7543 10.8329L43.8781 11.0929C43.5685 11.0929 43.2466 11.0929 42.9371 11.0929H42.8381C41.0096 11.054 39.2327 10.4797 37.7274 9.44097C36.2221 8.40224 35.0546 6.94476 34.3695 5.24905V5.17476C34.2739 4.93167 34.1913 4.6837 34.1219 4.4319C34.0934 4.39294 34.0686 4.35151 34.0476 4.30809V4.22143ZM48.0876 28.2776C48.0606 28.2425 48.027 28.213 47.9885 28.191C44.4424 25.8842 41.3992 22.8843 39.0418 19.3716C36.6843 15.8589 35.0614 11.9058 34.2704 7.75L34.3447 7.84905C34.5911 8.20098 34.8555 8.53985 35.1371 8.86428C35.169 8.88997 35.1981 8.91903 35.2238 8.95095C35.5129 9.288 35.823 9.60642 36.1523 9.90428H36.2266C37.7185 11.1544 39.5265 11.9684 41.4514 12.2567C41.9553 12.3353 42.4643 12.3766 42.9742 12.3805C43.4299 12.3778 43.8849 12.3447 44.3362 12.2814H44.5714L48.6819 20.9481L49.3133 22.2481L47.0104 23.3748C46.9372 23.4104 46.8717 23.4602 46.8177 23.5212C46.7637 23.5822 46.7223 23.6533 46.6958 23.7304C46.6694 23.8075 46.6584 23.889 46.6635 23.9703C46.6686 24.0516 46.6898 24.1311 46.7257 24.2043L47.8152 26.4329C47.8506 26.5063 47.9008 26.5717 47.9625 26.625C48.0243 26.6782 48.0964 26.7182 48.1743 26.7424C48.2398 26.7542 48.3068 26.7542 48.3723 26.7424C48.4616 26.7349 48.5493 26.7141 48.6323 26.6805L50.8981 25.5662L53.5104 31.0633C51.6173 30.3117 49.8012 29.3788 48.0876 28.2776ZM55.2562 31.9176C55.2429 31.8805 55.2218 31.8467 55.1943 31.8186L55.0704 31.5338L52 25.0214L52.2476 24.8976L53.8323 24.13L58.1904 33.5395L64.059 46.0443C64.059 46.0443 64.059 46.0443 63.9723 46.0443C63.696 46.1189 63.4329 46.2358 63.1923 46.391H63.0933C62.8706 46.5339 62.6703 46.7092 62.499 46.9109L55.2562 31.9176ZM59.4781 49.2509H70.6209V50.489H59.4285L59.4781 49.2509ZM59.4781 53.1262V51.7024H61.9543V57.6948C61.1895 57.1943 60.5593 56.5138 60.1189 55.7129C59.6785 54.912 59.4415 54.0153 59.4285 53.1014L59.4781 53.1262ZM62.0285 70.571C62.2094 71.0767 62.5234 71.5242 62.9374 71.8663C63.3515 72.2084 63.8502 72.4325 64.3809 72.5148V75.5233H55.0952L62.0285 70.571ZM49.3628 79.8567V76.7614H56.9523V79.8567H49.3628ZM56.9523 82.3328V85.4281H49.3628V82.3328H56.9523ZM41.1666 69.6424C47.9762 68.0948 55.0085 66.4729 61.9047 66.2995V69.1595L52.9657 75.5233H40.3866L32.7723 71.4624C35.5828 70.9052 38.3809 70.2738 41.1666 69.6424ZM31.5714 72.2176L39.9409 76.6871C40.0327 76.735 40.1345 76.7605 40.2381 76.7614H48.1247V85.4281H40.2381C40.1345 85.4291 40.0327 85.4545 39.9409 85.5024L31.5714 89.9719V72.2176ZM34.0476 90.0586L40.3866 86.6662H61.9047V88.4243C52.8047 88.5233 43.4447 89.1424 34.0228 90.0586H34.0476ZM46.4285 90.2567L47.5181 90.1824L40.9314 115.031L39.619 115.303L46.4285 90.2567ZM32.1904 118.696C40.6095 115.749 47.9514 114.796 54.5504 115.799C46.3895 117.822 38.7622 121.585 32.1904 126.83V118.696ZM56.9523 125.406C52.359 129.715 41.959 128.749 33.1066 127.721C40.0739 122.193 48.2414 118.376 56.9523 116.579V125.406ZM56.9523 99.5795V115.006C52.1223 113.987 47.1411 113.907 42.2809 114.771L48.8428 90.1205C53.2381 89.8728 57.6085 89.7119 61.9047 89.6624V92.2871C60.8771 93.1167 56.9523 96.4719 56.9523 99.5795ZM58.1904 110.19C58.1904 108.384 58.9079 106.652 60.1849 105.375C61.4619 104.098 63.194 103.38 65 103.38C66.806 103.38 68.538 104.098 69.815 105.375C71.0921 106.652 71.8095 108.384 71.8095 110.19H58.1904ZM71.8095 106.476C71.0889 105.319 70.0857 104.365 68.8943 103.704C67.7029 103.042 66.3627 102.695 65 102.695C63.6373 102.695 62.297 103.042 61.1057 103.704C59.9143 104.365 58.911 105.319 58.1904 106.476V99.5424C58.1904 97.6233 60.3695 95.2586 61.9047 93.8719V98.4281C61.9047 99.249 62.2308 100.036 62.8113 100.617C63.3918 101.197 64.1791 101.523 65 101.523C65.8209 101.523 66.6082 101.197 67.1886 100.617C67.7691 100.036 68.0952 99.249 68.0952 98.4281V93.909C69.6304 95.2833 71.8095 97.6233 71.8095 99.5795V106.476ZM63.1428 98.4281V83.5709C63.1428 83.0784 63.3385 82.606 63.6868 82.2577C64.035 81.9095 64.5074 81.7138 65 81.7138C65.4905 81.7202 65.9592 81.9179 66.3061 82.2648C66.653 82.6117 66.8507 83.0804 66.8571 83.5709V98.4281C66.8571 98.9206 66.6614 99.393 66.3132 99.7413C65.9649 100.09 65.4925 100.285 65 100.285C64.5074 100.285 64.035 100.09 63.6868 99.7413C63.3385 99.393 63.1428 98.9206 63.1428 98.4281ZM68.0952 92.2376V89.65C71.8095 89.65 75.5238 89.7986 79.139 89.9843L85.7009 114.635C81.4799 114.339 77.2397 114.481 73.0476 115.056V99.5795C73.0476 96.4719 69.1228 93.1167 68.0952 92.2871V92.2376ZM73.0476 125.282V116.554C82.4943 118.708 89.6876 122.36 98.3419 127.796C86.4685 129.43 78.1733 128.625 73.0476 125.332V125.282ZM99.4933 118.621V127.003C91.2971 121.816 84.4257 118.213 75.8581 115.86C85.1562 115.142 94.4171 116.554 99.4933 118.671V118.621ZM88.2762 114.858L87.0381 114.734L80.4762 90.0462H81.5533L88.2762 114.858ZM68.0952 88.3995V86.6662H89.6133L95.94 90.0462C86.6919 89.0302 77.3985 88.4807 68.0952 88.3995ZM98.4285 89.9719L90.059 85.5024C89.9672 85.4545 89.8654 85.4291 89.7619 85.4281H68.0952V83.5709C68.0919 82.751 67.7648 81.9657 67.185 81.3859C66.6053 80.8061 65.8199 80.479 65 80.4757C64.1791 80.4757 63.3918 80.8018 62.8113 81.3823C62.2308 81.9627 61.9047 82.75 61.9047 83.5709V85.4281H58.1904V76.7614H89.7619C89.8654 76.7605 89.9672 76.735 90.059 76.6871L98.4285 72.2176V89.9719ZM99.6666 76.7614H102.143C103.292 76.7614 104.394 77.218 105.207 78.0306C106.02 78.8433 106.476 79.9455 106.476 81.0948C106.476 82.244 106.02 83.3462 105.207 84.1589C104.394 84.9715 103.292 85.4281 102.143 85.4281H99.6666V76.7614Z" fill="#333333"/>
<path d="M53.4724 31.0633C51.592 30.3096 49.7885 29.3767 48.0867 28.2776C48.0597 28.2425 48.0261 28.213 47.9876 28.191C44.4415 25.8842 41.3983 22.8843 39.0408 19.3716C36.6834 15.8589 35.0605 11.9058 34.2695 7.75L34.3438 7.84905C34.5902 8.20098 34.8546 8.53985 35.1362 8.86429C35.1681 8.88997 35.1972 8.91903 35.2229 8.95095C35.512 9.288 35.8221 9.60642 36.1514 9.90429H36.2257C37.7176 11.1544 39.5256 11.9684 41.4505 12.2567C41.9544 12.3353 42.4634 12.3766 42.9733 12.3805C43.429 12.3778 43.884 12.3447 44.3352 12.2814H44.5705L48.681 20.9481L49.3124 22.2481L47.0095 23.3748C46.9363 23.4104 46.8708 23.4602 46.8168 23.5212C46.7628 23.5822 46.7214 23.6533 46.6949 23.7304C46.6685 23.8075 46.6575 23.889 46.6626 23.9703C46.6677 24.0516 46.6889 24.1311 46.7248 24.2043L47.8143 26.4329C47.8497 26.5063 47.8998 26.5717 47.9616 26.625C48.0234 26.6782 48.0955 26.7182 48.1733 26.7424C48.2388 26.7542 48.3059 26.7542 48.3714 26.7424C48.4607 26.7349 48.5484 26.7141 48.6314 26.6805L50.8972 25.5662L53.4724 31.0633Z" fill="#2452CC"/>
<path d="M96.015 7.75C95.2225 11.9894 93.5617 16.0191 91.137 19.5859C88.7123 23.1526 85.5761 26.1793 81.9254 28.4757C80.2162 29.5522 78.4087 30.4642 76.5273 31.1995L85.5035 12.2319H85.9121H86.2216C86.5752 12.2714 86.9306 12.2921 87.2864 12.2938C87.7002 12.2952 88.1138 12.2704 88.5245 12.2195H88.8835L89.7254 12.0586L90.0969 11.9595C90.3997 11.8834 90.6974 11.7883 90.9883 11.6748L91.2112 11.6005C91.5628 11.469 91.906 11.316 92.2388 11.1424C92.3212 11.1044 92.4 11.0588 92.474 11.0062L93.2416 10.5357L93.5264 10.3252C93.7616 10.1519 93.9845 9.96619 94.2073 9.78048L94.4302 9.59476C94.715 9.32238 94.9873 9.05 95.2473 8.75286C95.495 8.4681 95.7178 8.17095 95.9407 7.86143C95.9654 7.79952 96.0026 7.77476 96.015 7.75Z" fill="#2452CC"/>
<path d="M81.2297 10.4614L70.7678 32.7471C66.9455 33.4528 63.0263 33.4528 59.204 32.7471L54.8955 23.5976L57.4831 22.3595C57.5565 22.3241 57.6219 22.2739 57.6752 22.2122C57.7284 22.1504 57.7684 22.0783 57.7926 22.0004C57.8261 21.9265 57.8434 21.8463 57.8434 21.7652C57.8434 21.6841 57.8261 21.6038 57.7926 21.53L56.7031 19.3138C56.6674 19.2405 56.6176 19.175 56.5566 19.121C56.4956 19.067 56.4245 19.0256 56.3474 18.9991C56.2704 18.9727 56.1888 18.9617 56.1075 18.9668C56.0262 18.972 55.9467 18.9931 55.8736 19.029L53.3974 20.2671V20.1804L48.8164 10.6223L49.0764 10.4119C49.3469 10.2235 49.6073 10.021 49.8564 9.80519L50.265 9.43376C50.5172 9.19022 50.7569 8.93402 50.9831 8.66615L51.2926 8.3071C51.605 7.91693 51.8865 7.50297 52.1345 7.069V6.99472C52.365 6.59646 52.5677 6.18278 52.7412 5.75662C52.7391 5.71538 52.7391 5.67406 52.7412 5.63281C53.544 8.27121 55.1735 10.5817 57.3893 12.2236C59.6052 13.8655 62.29 14.7518 65.0478 14.7518C67.8057 14.7518 70.4905 13.8655 72.7063 12.2236C74.9222 10.5817 76.5517 8.27121 77.3545 5.63281V5.7071C77.5239 6.15901 77.7266 6.59769 77.9612 7.01948C77.9612 7.09376 78.0602 7.15567 78.0974 7.22996C78.2955 7.56424 78.5183 7.89853 78.7536 8.22043L79.0755 8.60424C79.2859 8.85186 79.4964 9.0871 79.7193 9.30995L80.1278 9.69376C80.3602 9.90522 80.604 10.1036 80.8583 10.2881L81.2297 10.4614Z" fill="#2452CC"/>
<path d="M97.2261 71.4636L89.6118 75.5246H76.9337L68.0938 69.1608V66.3008C74.9899 66.4741 82.0223 68.0836 88.8318 69.6436C91.6176 70.2751 94.4157 70.9065 97.2261 71.4636Z" fill="#2452CC"/>
<path d="M74.8162 75.5227H65.6172V72.5141C66.1484 72.4331 66.6477 72.2096 67.062 71.8673C67.4762 71.525 67.7899 71.0767 67.9696 70.5703L74.8162 75.5227Z" fill="#2452CC"/>
<path d="M64.3795 72.5141V75.5227H55.0938L62.0271 70.5703C62.2079 71.076 62.522 71.5236 62.936 71.8657C63.35 72.2078 63.8487 72.4318 64.3795 72.5141Z" fill="#2452CC"/>
<path d="M61.9058 66.3008V69.1608L52.9668 75.5246H40.3877L32.7734 71.4636C35.5839 70.9065 38.4192 70.2255 41.1677 69.6436C47.9772 68.096 55.0096 66.4741 61.9058 66.3008Z" fill="#2452CC"/>
<path d="M61.9053 86.668V88.4261C52.8053 88.5251 43.4453 89.0946 34.0234 90.0603L40.3872 86.668H61.9053Z" fill="#2452CC"/>
<path d="M95.9385 90.048C86.6904 89.032 77.3971 88.4824 68.0938 88.4013V86.668H89.6118L95.9385 90.048Z" fill="#2452CC"/>
<path d="M56.9512 116.527V125.404C52.3579 129.713 41.9579 128.747 33.1055 127.72C40.068 122.173 48.2359 118.339 56.9512 116.527Z" fill="#2452CC"/>
<path d="M98.3412 127.797C86.4678 129.431 78.1726 128.626 73.0469 125.32V116.555C82.4935 118.709 89.6869 122.361 98.3412 127.797Z" fill="#2452CC"/>
</svg>
