<svg width="147" height="22" viewBox="0 0 147 22" fill="none" xmlns="http://www.w3.org/2000/svg">
<path d="M7.75778 18.8738V5.20101H6.52928C5.40694 5.20101 4.55002 5.46643 3.95852 5.99726C3.38218 6.51293 3.09401 7.18785 3.09401 8.02202C3.09401 8.97752 3.29876 9.73586 3.70826 10.297C4.13293 10.843 4.76235 11.3966 5.59652 11.9578L6.98428 12.8905L2.98026 18.8738H0L3.59451 13.5275C2.56318 12.7844 1.76692 12.0109 1.20575 11.207C0.644586 10.4032 0.364001 9.39461 0.364001 8.18127C0.364001 6.6646 0.887254 5.43609 1.93376 4.49576C2.98026 3.54025 4.50452 3.0625 6.50653 3.0625H10.5105V18.8738H7.75778ZM60.8337 19.1013C59.0289 19.1013 57.6791 18.5856 56.7842 17.5543C55.9045 16.523 55.4647 15.0594 55.4647 13.1635C55.4647 12.299 55.5785 11.5028 55.806 10.7748C56.0335 10.0316 56.3596 9.40219 56.7842 8.88652C57.2241 8.35569 57.7701 7.94619 58.4222 7.65802C59.0896 7.35468 59.8555 7.20302 60.72 7.20302C61.3873 7.20302 61.9637 7.2561 62.449 7.36227C62.9495 7.46843 63.3438 7.59735 63.632 7.74902V10.0468C63.359 9.87994 62.9798 9.72069 62.4945 9.56903C62.0243 9.41736 61.5314 9.34152 61.0157 9.34152C60.1361 9.34152 59.4536 9.66003 58.9682 10.297C58.4981 10.934 58.263 11.8668 58.263 13.0953C58.263 14.2783 58.4753 15.2186 58.9 15.9163C59.3398 16.614 60.0375 16.9628 60.993 16.9628C61.5542 16.9628 62.0471 16.8946 62.4717 16.7581C62.9116 16.6216 63.2983 16.432 63.632 16.1893V18.3961C63.2983 18.6387 62.904 18.8131 62.449 18.9193C61.994 19.0406 61.4556 19.1013 60.8337 19.1013ZM43.9077 18.1003C43.5133 18.3733 42.9977 18.6084 42.3607 18.8056C41.7237 19.0027 40.9729 19.1013 40.1084 19.1013C38.3946 19.1013 37.0599 18.616 36.1044 17.6453C35.1641 16.6595 34.6939 15.1731 34.6939 13.1863C34.6939 12.3218 34.7925 11.5255 34.9896 10.7975C35.1868 10.0544 35.4826 9.42494 35.8769 8.90927C36.2864 8.37844 36.7945 7.96135 37.4011 7.65802C38.023 7.35468 38.7434 7.20302 39.5624 7.20302C40.9122 7.20302 41.9891 7.6201 42.7929 8.45427C43.6119 9.28844 44.0214 10.6989 44.0214 12.6858V14.119H37.4921C37.5528 15.0745 37.7955 15.7874 38.2201 16.2576C38.6448 16.7277 39.3501 16.9628 40.3359 16.9628C40.9881 16.9628 41.6402 16.8566 42.2924 16.6443C42.9446 16.432 43.483 16.1817 43.9077 15.8935V18.1003ZM19.1101 7.43052H21.8173V18.8738H19.1101V14.0963H15.4928V18.8738H12.7855V7.43052H15.4928V11.9578H19.1101V7.43052ZM34.0341 16.7353V21.4901H31.5316V18.8738H25.4573V21.4901H22.9548V16.7353H23.7966C24.0393 16.2651 24.2288 15.6964 24.3653 15.029C24.517 14.3617 24.6308 13.6565 24.7066 12.9133C24.7976 12.1701 24.8583 11.4118 24.8886 10.6383C24.9189 9.84961 24.9341 9.10644 24.9341 8.40877V7.43052H32.8284V16.7353H34.0341ZM52.5527 18.8738L48.5487 13.2545V18.8738H45.8414V7.43052H48.5487V12.7085L52.3707 7.43052H55.1007L51.2787 12.7085L55.624 18.8738H52.5527ZM39.5169 9.34152C38.8647 9.34152 38.3718 9.57661 38.0381 10.0468C37.7045 10.5169 37.5225 11.207 37.4921 12.117H41.2687V11.8895C41.2687 11.1767 41.1397 10.5776 40.8819 10.0923C40.6392 9.59177 40.1842 9.34152 39.5169 9.34152ZM30.1211 16.7353V9.56903H27.2546V9.91028C27.2546 10.3956 27.2394 10.9492 27.2091 11.571C27.1788 12.1777 27.1257 12.792 27.0499 13.4138C26.9892 14.0356 26.8906 14.6423 26.7541 15.2338C26.6328 15.8101 26.4811 16.3106 26.2991 16.7353H30.1211Z" fill="black"/>
<path d="M98.3103 19.1023C96.3689 19.1023 94.8371 18.397 93.7148 16.9865C92.5924 15.5608 92.0312 13.5588 92.0312 10.9805C92.0312 8.46279 92.5848 6.47595 93.692 5.01995C94.8143 3.56394 96.422 2.83594 98.515 2.83594C99.243 2.83594 99.8952 2.9421 100.472 3.15444C101.048 3.35161 101.518 3.57911 101.882 3.83694V6.0437C101.473 5.78587 100.987 5.5432 100.426 5.3157C99.8649 5.0882 99.2734 4.97445 98.6515 4.97445C97.3169 4.97445 96.3462 5.46737 95.7395 6.4532C95.1328 7.43904 94.8295 8.94813 94.8295 10.9805C94.8295 12.9521 95.1328 14.4461 95.7395 15.4622C96.3462 16.4632 97.2714 16.9637 98.515 16.9637C99.243 16.9637 99.8724 16.8576 100.403 16.6452C100.934 16.4177 101.427 16.1372 101.882 15.8035V18.0102C101.533 18.2529 101.063 18.4956 100.472 18.7383C99.88 18.9809 99.1596 19.1023 98.3103 19.1023Z" fill="black"/>
<path d="M103.595 7.43146H112.513V18.8748H109.805V9.56996H106.302V18.8748H103.595V7.43146Z" fill="black"/>
<path d="M113.882 16.5315C113.882 16.5315 113.935 16.5694 114.041 16.6452C114.147 16.7059 114.299 16.7362 114.496 16.7362C114.936 16.7362 115.224 16.5087 115.361 16.0537C115.497 15.5987 115.588 14.7646 115.634 13.5512L115.861 7.43146H123.619V18.8748H120.912V9.56996H118.159L118 13.665C117.939 15.5608 117.704 16.941 117.295 17.8055C116.885 18.67 116.104 19.1023 114.951 19.1023C114.633 19.1023 114.375 19.0643 114.178 18.9885C113.981 18.9127 113.882 18.8748 113.882 18.8748V16.5315Z" fill="black"/>
<path d="M125.9 7.43146H128.539V14.5067L132.725 7.43146H135.069V18.8748H132.43V11.7995L128.244 18.8748H125.9V7.43146Z" fill="black"/>
<path d="M145.737 9.56996H142.552V18.8748H139.845V9.56996H136.66V7.43146H145.737V9.56996Z" fill="black"/>
<g clip-path="url(#clip0_4039_53681)">
<path d="M79.5185 11.0491L86.8949 18.6027L86.7444 18.7398L86.6809 18.8C84.6154 20.6424 81.909 21.5999 79.1445 21.4663C76.3799 21.3327 73.7784 20.1187 71.9002 18.0858C70.022 16.0528 69.0174 13.3635 69.1027 10.5971C69.1879 7.83063 70.3563 5.20833 72.3561 3.2949C74.4122 1.41328 77.1269 0.417494 79.912 0.523266C82.6972 0.629039 85.3285 1.82785 87.236 3.86L79.5185 11.0491Z" fill="#01B94F"/>
<path d="M72.3612 3.29142C74.417 1.41144 77.1307 0.416967 79.9144 0.523361C82.6982 0.629756 85.328 1.82846 87.2343 3.85986C87.2343 3.85986 81.0985 9.60449 80.9748 9.7048C80.9748 9.7048 79.6005 10.9988 79.6105 11.0189C79.6206 11.039 86.8799 18.5725 86.8799 18.5725L86.7328 18.713L86.6693 18.7731C82.3357 22.5851 75.695 22.4112 71.7727 18.1713C69.8891 16.1145 68.8941 13.397 69.0044 10.6102C69.1146 7.82344 70.3211 5.193 72.3612 3.29142V3.29142Z" fill="url(#paint0_radial_4039_53681)"/>
<path d="M72.3637 3.28563C74.4212 1.40814 77.1349 0.415923 79.9182 0.523549C82.7014 0.631175 85.3305 1.82999 87.2368 3.86076C87.2368 3.86076 81.2648 9.47832 81.0207 9.67561C81.0207 9.67561 79.6832 10.9529 79.7066 10.9931C79.7568 11.1134 86.869 18.54 86.869 18.54L86.7219 18.6804L86.6584 18.7406C82.3348 22.5458 75.6908 22.3586 71.7819 18.132C69.9011 16.0809 68.9069 13.3698 69.0159 10.589C69.1249 7.80831 70.3282 5.18326 72.3637 3.28563V3.28563Z" fill="url(#paint1_radial_4039_53681)"/>
<path d="M72.3709 3.28471C74.4284 1.40968 77.141 0.419317 79.9226 0.527555C82.7043 0.635793 85.3317 1.83394 87.2373 3.86319C87.2373 3.86319 81.4358 9.35034 81.0613 9.64793C81.0613 9.64793 79.7706 10.9052 79.7941 10.9654C79.871 11.1459 86.8561 18.5123 86.8561 18.5123L86.7056 18.6527L86.6421 18.7096C82.332 22.5048 75.6912 22.3108 71.789 18.0943C69.9113 16.049 68.9186 13.344 69.0276 10.5696C69.1366 7.79518 70.3384 5.17644 72.3709 3.28471V3.28471Z" fill="url(#paint2_radial_4039_53681)"/>
<path d="M72.3731 3.28153C74.4309 1.40794 77.143 0.418795 79.9238 0.527651C82.7046 0.636508 85.3311 1.83463 87.2362 3.86335C87.2362 3.86335 81.6019 9.21341 81.1037 9.61801C81.1037 9.61801 79.8531 10.8586 79.8865 10.9388C79.9868 11.1796 86.8416 18.4824 86.8416 18.4824L86.6945 18.6195C86.6945 18.6195 86.6309 18.6763 86.6309 18.6797C82.3308 22.4615 75.6901 22.2542 71.7979 18.0544C69.9232 16.0153 68.9314 13.3172 69.0392 10.5494C69.147 7.78151 70.3455 5.16873 72.3731 3.28153V3.28153Z" fill="url(#paint3_radial_4039_53681)"/>
<path d="M72.3812 3.27126C74.4396 1.40056 77.1507 0.413847 79.9299 0.52394C82.7092 0.634033 85.3338 1.83211 87.2377 3.85977C87.2377 3.85977 81.7739 9.08944 81.1486 9.58432C81.1486 9.58432 79.9382 10.8048 79.9783 10.9051C80.1054 11.2061 86.8331 18.4454 86.8297 18.4487L86.6826 18.5858L86.6191 18.646C82.329 22.4111 75.6916 22.2004 71.8095 18.0107C69.938 15.9768 68.9476 13.2848 69.0547 10.523C69.1619 7.76119 70.3578 5.15405 72.3812 3.27126V3.27126Z" fill="url(#paint4_radial_4039_53681)"/>
<path d="M72.3852 3.26808C74.4438 1.39882 77.1545 0.413327 79.9329 0.524039C82.7113 0.63475 85.335 1.8328 87.2383 3.85993C87.2383 3.85993 81.9418 8.96255 81.1928 9.54436C81.1928 9.54436 80.0224 10.7448 80.0726 10.8652C80.2231 11.2263 86.8203 18.4021 86.8203 18.4021L86.6732 18.5726L86.6097 18.6294C82.3263 22.3678 75.6922 22.1504 71.8168 17.9707C69.9488 15.9426 68.9599 13.2573 69.0664 10.5021C69.1729 7.74682 70.3662 5.14588 72.3852 3.26808V3.26808Z" fill="url(#paint5_radial_4039_53681)"/>
<path d="M72.3906 3.2649C74.4495 1.39709 77.1596 0.412808 79.9373 0.524138C82.7149 0.635468 85.3376 1.83349 87.2404 3.8601C87.2404 3.8601 82.111 8.83565 81.2383 9.54453C81.2383 9.54453 80.1047 10.7249 80.1616 10.8653C80.3522 11.2699 86.809 18.3855 86.8057 18.3855L86.6585 18.5226L86.595 18.5828C82.325 22.3245 75.6909 22.0971 71.8255 17.9307C69.9601 15.9088 68.9721 13.23 69.078 10.4811C69.184 7.73213 70.3751 5.13725 72.3906 3.2649V3.2649Z" fill="url(#paint6_radial_4039_53681)"/>
<path d="M72.3951 3.26019C74.4547 1.39424 77.1646 0.41176 79.9414 0.524334C82.7183 0.636908 85.3398 1.83553 87.2415 3.86207C87.2415 3.86207 82.2793 8.70721 81.2829 9.49969C81.2829 9.49969 80.1895 10.6633 80.2564 10.8372C80.457 11.3187 86.7968 18.3707 86.7934 18.3707C86.7901 18.3707 86.6564 18.5012 86.6463 18.5078L86.5828 18.5647C82.3228 22.283 75.6888 22.0489 71.8334 17.906C69.9662 15.8891 68.9765 13.2132 69.0818 10.4668C69.1872 7.72031 70.379 5.12812 72.3951 3.26019V3.26019Z" fill="url(#paint7_radial_4039_53681)"/>
<path d="M72.4005 3.25538C74.4601 1.39189 77.1689 0.411254 79.9441 0.524438C82.7193 0.637623 85.3392 1.83558 87.2402 3.86061C87.2402 3.86061 82.4486 8.57868 81.325 9.46813C81.325 9.46813 80.2718 10.6117 80.3487 10.8056C80.5727 11.3473 86.7821 18.3358 86.7821 18.3392L86.635 18.4763L86.5714 18.5331C82.3215 22.2514 75.6874 22.0073 71.8588 17.8644C69.9938 15.8551 69.0032 13.1873 69.1048 10.4477C69.2063 7.70814 70.3918 5.12107 72.4005 3.25538V3.25538Z" fill="url(#paint8_radial_4039_53681)"/>
<path d="M72.4058 3.25221C74.4657 1.39016 77.174 0.410737 79.9484 0.52454C82.7228 0.638342 85.3417 1.83628 87.2422 3.86078C87.2422 3.86078 82.6177 8.44845 81.3571 9.43821C81.3571 9.43821 80.354 10.5651 80.4276 10.7757C80.6884 11.3676 86.774 18.2925 86.7707 18.2959L86.6236 18.4296C86.6236 18.4296 86.5667 18.4831 86.56 18.4898C82.3201 22.1947 75.6894 21.9406 71.8474 17.8211C70.9274 16.8278 70.2121 15.6631 69.7422 14.3934C69.2724 13.1237 69.0573 11.7738 69.1091 10.421C69.161 9.06813 69.4788 7.73873 70.0445 6.50871C70.6101 5.27868 71.4125 4.17212 72.4058 3.25221V3.25221Z" fill="url(#paint9_radial_4039_53681)"/>
<path d="M72.4128 3.24587C74.4732 1.3867 77.1805 0.409706 79.9533 0.524745C82.7261 0.639783 85.3432 1.83767 87.2425 3.86113C87.2425 3.86113 82.7886 8.32174 81.4143 9.40847C81.4143 9.40847 80.4412 10.5186 80.5349 10.746C80.809 11.4147 86.761 18.2728 86.761 18.2762L86.6138 18.4099L86.5503 18.4668C82.3171 22.1516 75.6897 21.8908 71.8611 17.7746C70.008 15.7747 69.025 13.1206 69.1285 10.396C69.232 7.67144 70.4133 5.09953 72.4128 3.24587V3.24587Z" fill="url(#paint10_radial_4039_53681)"/>
<path d="M72.4144 3.24301C74.4756 1.38506 77.183 0.409194 79.9556 0.524847C82.7281 0.6405 85.3448 1.83846 87.2441 3.86161C87.2441 3.86161 82.954 8.20853 81.456 9.3822C81.456 9.3822 80.5265 10.4689 80.6234 10.7197C80.9244 11.4319 86.7492 18.2399 86.7459 18.2399L86.5988 18.377L86.5352 18.4338C82.3154 22.112 75.688 21.8445 71.8694 17.7417C70.9523 16.7543 70.2389 15.5959 69.7699 14.3326C69.3009 13.0693 69.0855 11.7259 69.1361 10.3793C69.1868 9.03275 69.5024 7.70934 70.0649 6.48482C70.6274 5.2603 71.4258 4.1587 72.4144 3.24301V3.24301Z" fill="url(#paint11_radial_4039_53681)"/>
<path d="M72.424 3.23821C74.4852 1.38272 77.1914 0.408692 79.9624 0.524955C82.7333 0.641218 85.3484 1.83852 87.247 3.86016C87.247 3.86016 83.1274 8.06329 81.5024 9.35065C81.5024 9.35065 80.6129 10.4207 80.7199 10.6882C81.0543 11.4706 86.7387 18.2083 86.7387 18.2117L86.5916 18.3488C86.5916 18.3488 86.5348 18.3989 86.5314 18.4056C82.3183 22.0838 75.6942 21.7929 71.8823 17.7034C68.0704 13.614 68.261 7.01334 72.424 3.23821Z" fill="url(#paint12_radial_4039_53681)"/>
<path d="M72.4238 3.23352C74.4857 1.37989 77.1917 0.407655 79.9618 0.525161C82.732 0.642667 85.3459 1.84056 87.2434 3.86215C87.2434 3.86215 83.2911 7.93153 81.559 9.31586C81.559 9.31586 80.7063 10.3658 80.8234 10.6534C81.1745 11.496 86.7352 18.1702 86.7352 18.1735L86.588 18.3073L86.5245 18.3641C82.308 22.0189 75.6706 21.7347 71.8854 17.6553C68.1003 13.5758 68.2708 6.99862 72.4238 3.23352Z" fill="url(#paint13_radial_4039_53681)"/>
<path d="M72.4305 3.22873C74.4925 1.37755 77.1973 0.407155 79.9658 0.525271C82.7343 0.643387 85.3466 1.84063 87.2435 3.8607C87.2435 3.8607 83.4616 7.80637 81.5891 9.29101C81.5891 9.29101 80.7766 10.3242 80.9003 10.6285C81.2781 11.528 86.7051 18.1387 86.7051 18.142L86.558 18.2758L86.4944 18.3326C82.308 21.974 75.6706 21.6797 71.8922 17.6137C68.1137 13.5476 68.2842 6.98045 72.4305 3.22873Z" fill="url(#paint14_radial_4039_53681)"/>
<path d="M72.4362 3.22557C74.4985 1.37583 77.2028 0.406645 79.9705 0.525378C82.7382 0.644111 85.3496 1.84133 87.2459 3.86089C87.2459 3.86089 83.6312 7.67949 81.635 9.2611C81.635 9.2611 80.8626 10.2642 80.9963 10.5986C81.3976 11.5516 86.7075 18.1087 86.7075 18.1121L86.5637 18.2458L86.5002 18.3027C82.3071 21.9173 75.673 21.6298 71.9046 17.5704C68.1361 13.511 68.2966 6.96726 72.4362 3.22557Z" fill="url(#paint15_radial_4039_53681)"/>
<path d="M72.4414 3.21824C74.5051 1.37197 77.2088 0.405641 79.9752 0.525594C82.7416 0.645548 85.3515 1.84227 87.2476 3.86025C87.2476 3.86025 83.8002 7.53841 81.6903 9.23037C81.6903 9.23037 80.958 10.2335 81.0984 10.5679C81.5131 11.5911 86.7059 18.0747 86.6859 18.078L86.5388 18.2118C86.5192 18.2324 86.4979 18.2515 86.4752 18.2686C82.3055 21.8866 75.6715 21.5823 71.9131 17.533C68.1547 13.4837 68.3152 6.9499 72.4414 3.21824Z" fill="url(#paint16_radial_4039_53681)"/>
<path d="M72.446 3.21488C74.5121 1.37138 77.2175 0.409282 79.9837 0.534252C82.7499 0.659221 85.3574 1.86134 87.2489 3.88364C87.2489 3.88364 83.9687 7.42136 81.7216 9.21029C81.7216 9.21029 81.0295 10.1867 81.18 10.5478C81.6314 11.6345 86.6771 18.0579 86.6738 18.0613C86.6704 18.0646 86.5501 18.1783 86.5267 18.195L86.4665 18.2519C82.3035 21.8431 75.6727 21.5221 71.921 17.4928C68.1693 13.4636 68.3164 6.93317 72.446 3.21488Z" fill="url(#paint17_radial_4039_53681)"/>
<path d="M72.4523 3.21295C74.5178 1.37068 77.2218 0.409294 79.9866 0.534258C82.7515 0.659222 85.3578 1.86062 87.2486 3.88171C87.2486 3.88171 84.1389 7.3024 81.7648 9.18495C81.7648 9.18495 81.1127 10.1413 81.2699 10.5225C81.7481 11.6694 86.6668 18.0293 86.6601 18.0326L86.5163 18.1663L86.4528 18.2232C82.2998 21.801 75.6724 21.4734 71.9307 17.4541C68.189 13.4349 68.3328 6.91787 72.4523 3.21295Z" fill="url(#paint18_radial_4039_53681)"/>
<path d="M72.4561 3.19048C74.5217 1.35002 77.2248 0.389791 79.9886 0.514735C82.7524 0.63968 85.3578 1.8399 87.249 3.85923C87.249 3.85923 84.3064 7.15286 81.812 9.13238C81.812 9.13238 81.1967 10.0686 81.3639 10.4699C81.8655 11.677 86.6538 17.9767 86.6504 17.98L86.5033 18.1138L86.4398 18.1673C82.3002 21.7552 75.6728 21.4175 71.9378 17.4149C68.2028 13.4124 68.3466 6.89874 72.4561 3.19048Z" fill="url(#paint19_radial_4039_53681)"/>
<path d="M72.4609 3.19246C74.5258 1.35322 77.2277 0.393708 79.9901 0.518648C82.7525 0.643587 85.3567 1.84308 87.2471 3.86121C85.5847 5.74614 83.7817 7.50221 81.8536 9.1143C81.8536 9.1143 81.2785 10.0338 81.4557 10.4518C81.9806 11.7191 86.6385 17.9519 86.6352 17.9586L86.4914 18.089L86.4279 18.1459C82.295 21.7137 75.6709 21.3693 71.946 17.3768C68.221 13.3843 68.3547 6.87062 72.4609 3.19246Z" fill="url(#paint20_radial_4039_53681)"/>
<path d="M72.4646 3.19113C74.5299 1.3527 77.2316 0.393723 79.9937 0.518651C82.7559 0.643579 85.36 1.84253 87.2508 3.85989C85.6117 5.73968 83.8225 7.48307 81.9008 9.07285C81.9008 9.07285 81.3691 9.97233 81.5664 10.4104C82.1181 11.7479 86.649 17.9105 86.6423 17.9138L86.4985 18.0476L86.435 18.1044C82.2954 21.6655 75.6713 21.3144 71.953 17.3353C68.2348 13.3562 68.3685 6.8693 72.4646 3.19113Z" fill="url(#paint21_radial_4039_53681)"/>
<path d="M72.4734 3.19439C74.5386 1.35878 77.2387 0.401577 79.999 0.526477C82.7593 0.651377 85.3619 1.84852 87.2529 3.86315C85.6396 5.74428 83.8626 7.47869 81.943 9.04602C81.943 9.04602 81.4514 9.92877 81.642 10.3835C82.2172 11.7846 86.6176 17.9071 86.6142 17.9071C86.6109 17.9071 86.4972 18.0174 86.4671 18.0408L86.4069 18.0943C82.2941 21.6253 75.6734 21.2508 71.9651 17.2985C68.2569 13.3461 68.3806 6.87255 72.4734 3.19439Z" fill="url(#paint22_radial_4039_53681)"/>
<path d="M72.474 3.19277C74.5391 1.35817 77.2385 0.40159 79.9979 0.526482C82.7574 0.651373 85.3593 1.84788 87.2502 3.86152C85.663 5.74607 83.8995 7.47484 81.9838 9.02433C81.9838 9.02433 81.5323 9.88702 81.7296 10.3618C82.3349 11.8097 86.6049 17.8586 86.5982 17.862L86.4544 17.9924L86.3909 18.0492C82.288 21.5836 75.6707 21.2124 71.9725 17.2567C68.2743 13.301 68.3913 6.83749 72.474 3.19277Z" fill="url(#paint23_radial_4039_53681)"/>
<path d="M72.4772 3.19115C74.5421 1.35756 77.2407 0.401603 79.9994 0.526487C82.7581 0.65137 85.3593 1.84725 87.2501 3.8599C85.6899 5.74776 83.9385 7.46896 82.0237 8.99596C82.0237 8.99596 81.6124 9.83859 81.8198 10.3335C82.4484 11.8415 86.588 17.8235 86.5847 17.8302L86.4375 17.9606L86.374 18.0175C82.2879 21.5352 75.6705 21.1573 71.9924 17.215C68.3142 13.2727 68.4045 6.81915 72.4772 3.19115Z" fill="url(#paint24_radial_4039_53681)"/>
<path d="M72.4835 3.19182C74.548 1.36025 77.2452 0.405536 80.0022 0.530403C82.7593 0.655269 85.3591 1.84988 87.2496 3.86057C85.7187 5.74907 83.9827 7.46157 82.0734 8.96653C82.0734 8.96653 81.6989 9.79244 81.9163 10.304C82.585 11.8723 86.5976 17.7941 86.5742 17.8008L86.4304 17.9312L86.3669 17.9847C82.2841 21.4923 75.6701 21.1045 71.9919 17.1755C68.3138 13.2466 68.4141 6.8031 72.4835 3.19182Z" fill="url(#paint25_radial_4039_53681)"/>
<path d="M72.4894 3.1928C74.5542 1.36304 77.2504 0.40947 80.0064 0.534317C82.7624 0.659164 85.3614 1.85261 87.2522 3.86155C85.7521 5.75415 84.0287 7.45847 82.1195 8.93742C82.1195 8.93742 81.7852 9.74327 82.0092 10.2749C82.6779 11.9034 86.5701 17.7617 86.5634 17.765C86.5567 17.7684 86.4531 17.8687 86.4196 17.8954L86.3561 17.9523C82.2867 21.4499 75.6727 21.0553 71.9946 17.1364C68.3164 13.2175 68.4301 6.78737 72.4894 3.1928Z" fill="url(#paint26_radial_4039_53681)"/>
<path d="M72.4957 3.17426C74.5628 1.34803 77.2598 0.398585 80.015 0.527171C82.7703 0.655758 85.3671 1.85227 87.2551 3.86308C87.2551 3.86308 85.6568 6.13685 82.1625 8.90884C82.1625 8.90884 81.8683 9.69798 82.1024 10.2464C82.8046 11.9182 86.5563 17.7331 86.5529 17.7364L86.4058 17.8668L86.3456 17.9237C82.2829 21.4079 75.6723 21.0033 71.9941 17.0978C68.316 13.1922 68.4397 6.77217 72.4957 3.17426Z" fill="url(#paint27_radial_4039_53681)"/>
<path d="M72.4997 3.1644C74.5678 1.34083 77.2644 0.393684 80.0186 0.523499C82.7728 0.653314 85.3684 1.8499 87.2558 3.85991C87.2558 3.85991 85.828 5.99324 82.2067 8.87558C82.0718 9.31121 82.0718 9.77747 82.2067 10.2131C82.9356 11.9619 86.5536 17.6931 86.5536 17.6998L86.4098 17.8302L86.3463 17.8837C82.2803 21.3613 75.6729 20.95 72.0182 17.0578C68.3634 13.1657 68.4537 6.75562 72.4997 3.1644Z" fill="url(#paint28_radial_4039_53681)"/>
<path d="M72.5064 3.16227C74.5738 1.33954 77.2696 0.393169 80.0227 0.523615C82.7758 0.654062 85.37 1.85108 87.2558 3.86112C87.2558 3.86112 85.9952 5.86739 82.2402 8.83333C82.122 9.27325 82.1348 9.73808 82.2769 10.1708C83.0293 12.0032 86.5336 17.6743 86.5269 17.681L86.3831 17.8114L86.3229 17.8649C82.2803 21.319 75.673 20.9144 72.0249 17.0189C68.3768 13.1234 68.4671 6.74012 72.5064 3.16227Z" fill="url(#paint29_radial_4039_53681)"/>
<path d="M72.5069 3.15915C74.5746 1.33784 77.2699 0.392673 80.0222 0.523735C82.7745 0.654797 85.3678 1.8518 87.253 3.86134C87.253 3.86134 86.1629 5.75058 82.2908 8.82017C82.1977 9.2654 82.2266 9.72752 82.3744 10.1577C83.1535 12.0269 86.5207 17.6344 86.514 17.6411L86.3703 17.7681L86.3067 17.825C82.2741 21.2758 75.6702 20.8444 72.0321 16.979C68.3372 13.0601 68.4743 6.72362 72.5069 3.15915Z" fill="url(#paint30_radial_4039_53681)"/>
<path d="M72.5137 3.15159C74.5822 1.33394 77.2763 0.391697 80.0268 0.523979C82.7773 0.656261 85.3686 1.85271 87.2531 3.86048C87.2531 3.86048 86.3302 5.60927 82.3344 8.77584C82.2654 9.22582 82.3114 9.68593 82.4681 10.1134C83.2706 12.0427 86.5074 17.5901 86.5007 17.5934L86.357 17.7238L86.2934 17.7773C82.2809 21.2047 75.6769 20.7867 72.0389 16.9146C68.4008 13.0425 68.4878 6.70604 72.5137 3.15159Z" fill="url(#paint31_radial_4039_53681)"/>
<path d="M72.5182 3.14878C74.5875 1.33235 77.2817 0.391205 80.032 0.524099C82.7822 0.656993 85.3731 1.85352 87.2576 3.86101C87.2576 3.86101 86.5019 5.4794 82.3824 8.74627C82.3373 9.2001 82.3991 9.65818 82.5629 10.0838C83.3889 12.1001 86.4952 17.5705 86.4885 17.5872L86.3448 17.7176L86.2846 17.7711C82.272 21.1851 75.6714 20.7404 72.0501 16.9018C68.3719 13.0029 68.5023 6.68985 72.5182 3.14878Z" fill="url(#paint32_radial_4039_53681)"/>
<path d="M72.5248 3.14535C74.5938 1.33056 77.287 0.390709 80.0359 0.524222C82.7848 0.657736 85.3742 1.85416 87.2576 3.86092C87.2576 3.86092 86.669 5.36563 82.4258 8.72947C82.4068 9.18633 82.4843 9.64205 82.6532 10.067C83.5058 12.1301 86.4851 17.5504 86.4784 17.5704L86.3347 17.6975L86.2711 17.751C82.2686 21.1416 75.6713 20.6902 72.0567 16.8582C68.3886 12.9727 68.5123 6.67305 72.5248 3.14535Z" fill="url(#paint33_radial_4039_53681)"/>
<path d="M72.5268 3.13943C74.5968 1.32727 77.2896 0.389726 80.0374 0.524467C82.7853 0.659207 85.3734 1.8557 87.2562 3.86168C87.2562 3.86168 86.8382 5.23598 82.4679 8.70013C82.4751 9.16491 82.5692 9.62423 82.7454 10.0544C83.6248 12.1643 86.4704 17.521 86.4637 17.5277L86.3199 17.6548L86.2597 17.7083C82.2672 21.0989 75.67 20.6374 72.0654 16.8188C68.4039 12.9467 68.5243 6.65708 72.5268 3.13943Z" fill="url(#paint34_radial_4039_53681)"/>
<path d="M72.5369 3.13559C74.608 1.33056 77.2984 0.398995 80.0423 0.536811C82.7861 0.674628 85.3697 1.87108 87.2495 3.87456C87.2495 3.87456 86.9987 5.10842 82.5047 8.66955C82.5435 9.13585 82.6564 9.593 82.8391 10.0238C83.7452 12.1972 86.4637 17.4904 86.457 17.4971L86.3132 17.6242C86.2906 17.6402 86.2693 17.6581 86.2497 17.6777C82.2673 21.0549 75.6733 20.5801 72.0788 16.7782C68.424 12.9162 68.5377 6.64321 72.5369 3.13559Z" fill="url(#paint35_radial_4039_53681)"/>
<path d="M72.5393 3.13148C74.6105 1.32607 77.3013 0.394568 80.0455 0.533022C82.7896 0.671475 85.373 1.86908 87.252 3.8738C87.252 3.8738 87.1717 4.98059 82.5506 8.63869C82.6162 9.1055 82.7421 9.56183 82.9251 9.99627C83.8614 12.2199 86.4495 17.4563 86.4428 17.4629L86.299 17.59C86.2789 17.59 86.2555 17.6301 86.2354 17.6435C82.263 21.0107 75.6724 20.5325 72.0846 16.7373C68.4398 12.8886 68.5502 6.62573 72.5393 3.13148Z" fill="url(#paint36_radial_4039_53681)"/>
<path d="M72.5456 3.12588C74.6183 1.3229 77.3093 0.393598 80.0529 0.533274C82.7966 0.672951 85.3792 1.87073 87.2582 3.87489C87.2582 3.87489 87.3451 4.86465 82.6003 8.61303C82.6975 9.07758 82.8408 9.53125 83.0283 9.96726C83.9813 12.2611 86.4423 17.4272 86.4323 17.4339C86.4222 17.4406 86.3353 17.5242 86.2885 17.561L86.2283 17.6145C82.2659 20.975 75.672 20.4801 72.0941 16.6983C68.4528 12.8596 68.5631 6.6101 72.5456 3.12588Z" fill="url(#paint37_radial_4039_53681)"/>
<path d="M72.5492 3.12417C74.6224 1.32124 77.3141 0.392578 80.058 0.533516C82.8019 0.674453 85.3842 1.874 87.2618 3.87987C87.2618 3.87987 87.516 4.72585 82.6474 8.58458C82.7724 9.04722 82.9288 9.50079 83.1155 9.94215C84.0953 12.2828 86.4259 17.3988 86.4192 17.4055L86.2754 17.5326L86.2119 17.5861C82.2629 20.9165 75.6723 20.4283 72.1011 16.6632C68.4698 12.8312 68.5734 6.59502 72.5492 3.12417Z" fill="url(#paint38_radial_4039_53681)"/>
<path d="M72.5541 3.11877C74.6278 1.31625 77.3197 0.388172 80.0636 0.529733C82.8075 0.671295 85.3896 1.87146 87.2668 3.8778C87.2668 3.8778 87.6814 4.59337 82.6925 8.54238C82.6925 8.54238 82.8764 9.10414 83.2108 9.89996C84.2139 12.3142 86.4141 17.3566 86.4074 17.3633L86.2637 17.4903L86.2035 17.5405C82.2578 20.8809 75.6706 20.376 72.1094 16.621C68.4848 12.799 68.5851 6.57624 72.5541 3.11877Z" fill="url(#paint39_radial_4039_53681)"/>
<path d="M86.3923 17.3434C82.4868 20.8543 75.7357 20.3896 72.1177 16.5676C68.4997 12.7457 68.5967 6.53626 72.5591 3.09885C74.634 1.29797 77.3262 0.371565 80.0698 0.514362C82.8135 0.657158 85.395 1.85803 87.2717 3.86458C87.2717 3.86458 87.8636 4.45308 82.7443 8.50909C82.7342 8.52247 86.4057 17.3333 86.3923 17.3434Z" fill="url(#paint40_radial_4039_53681)"/>
<path d="M82.5882 8.63672C80.9865 9.95083 79.0171 11.499 76.7266 13.2344C78.4281 15.0745 80.407 16.6371 82.5916 17.8656C84.4674 18.8687 85.9353 19.056 86.6543 18.4206C87.3732 17.7853 87.2862 16.3207 86.4503 14.4081C85.4605 12.301 84.1585 10.3553 82.5882 8.63672V8.63672Z" fill="url(#paint41_linear_4039_53681)"/>
<path d="M82.7307 8.50391L81.9281 9.17266C83.3975 10.7879 84.6191 12.6123 85.5528 14.5863C86.372 16.4721 86.352 17.4184 86.0878 17.6558C85.8237 17.8933 84.6834 17.9534 82.8611 16.9871C80.8423 15.8423 79.0166 14.3866 77.4508 12.6736L76.5547 13.3424L76.7653 13.5463C80.5605 17.4686 84.6667 19.7022 86.4723 18.8897C86.5258 18.8629 86.5793 18.8362 86.6295 18.8061H86.6496C86.7194 18.7628 86.7854 18.7136 86.8468 18.659C86.9119 18.6001 86.9713 18.5352 87.0241 18.465C88.2044 16.9169 86.4122 12.7472 82.841 8.66106L82.7307 8.50391Z" fill="#84EEB1"/>
</g>
<defs>
<radialGradient id="paint0_radial_4039_53681" cx="0" cy="0" r="1" gradientUnits="userSpaceOnUse" gradientTransform="translate(82.1814 1.68828) rotate(-2.29061) scale(48.1387 35.6235)">
<stop stop-color="#03BA50"/>
<stop offset="0.8" stop-color="#01B64E"/>
</radialGradient>
<radialGradient id="paint1_radial_4039_53681" cx="0" cy="0" r="1" gradientUnits="userSpaceOnUse" gradientTransform="translate(82.1757 1.6853) rotate(-2.29061) scale(48.0383 35.5492)">
<stop stop-color="#04BC50"/>
<stop offset="0.8" stop-color="#01B34D"/>
</radialGradient>
<radialGradient id="paint2_radial_4039_53681" cx="0" cy="0" r="1" gradientUnits="userSpaceOnUse" gradientTransform="translate(82.1647 1.69675) rotate(-2.29061) scale(47.938 35.4749)">
<stop stop-color="#06BD51"/>
<stop offset="0.72" stop-color="#02B24C"/>
<stop offset="0.8" stop-color="#01B04B"/>
</radialGradient>
<radialGradient id="paint3_radial_4039_53681" cx="0" cy="0" r="1" gradientUnits="userSpaceOnUse" gradientTransform="translate(82.1455 1.71202) rotate(-2.29061) scale(47.8376 35.4006)">
<stop stop-color="#08BF52"/>
<stop offset="0.56" stop-color="#04B44D"/>
<stop offset="0.8" stop-color="#01AD4A"/>
</radialGradient>
<radialGradient id="paint4_radial_4039_53681" cx="0" cy="0" r="1" gradientUnits="userSpaceOnUse" gradientTransform="translate(82.129 1.72295) rotate(-2.29061) scale(47.7372 35.3263)">
<stop stop-color="#0AC053"/>
<stop offset="0.48" stop-color="#05B54E"/>
<stop offset="0.8" stop-color="#01AA49"/>
</radialGradient>
<radialGradient id="paint5_radial_4039_53681" cx="0" cy="0" r="1" gradientUnits="userSpaceOnUse" gradientTransform="translate(82.1086 1.75926) rotate(-1.71836) scale(47.6168 35.2476)">
<stop stop-color="#0BC253"/>
<stop offset="0.42" stop-color="#07B74E"/>
<stop offset="0.8" stop-color="#01A848"/>
</radialGradient>
<radialGradient id="paint6_radial_4039_53681" cx="0" cy="0" r="1" gradientUnits="userSpaceOnUse" gradientTransform="translate(82.0796 1.76856) rotate(-1.71836) scale(47.5165 35.1733)">
<stop stop-color="#0DC354"/>
<stop offset="0.37" stop-color="#08B84F"/>
<stop offset="0.8" stop-color="#01A546"/>
</radialGradient>
<radialGradient id="paint7_radial_4039_53681" cx="0" cy="0" r="1" gradientUnits="userSpaceOnUse" gradientTransform="translate(82.4339 1.77986) rotate(-1.71836) scale(47.416 35.0848)">
<stop stop-color="#0FC555"/>
<stop offset="0.33" stop-color="#0ABA50"/>
<stop offset="0.8" stop-color="#01A245"/>
</radialGradient>
<radialGradient id="paint8_radial_4039_53681" cx="0" cy="0" r="1" gradientUnits="userSpaceOnUse" gradientTransform="translate(82.3973 1.79535) rotate(-1.70136) scale(47.7884 35.0106)">
<stop stop-color="#11C656"/>
<stop offset="0.3" stop-color="#0CBB51"/>
<stop offset="0.8" stop-color="#019F44"/>
</radialGradient>
<radialGradient id="paint9_radial_4039_53681" cx="0" cy="0" r="1" gradientUnits="userSpaceOnUse" gradientTransform="translate(82.3876 1.81268) rotate(-1.70136) scale(47.6871 34.9363)">
<stop stop-color="#12C856"/>
<stop offset="0.28" stop-color="#0EBD51"/>
<stop offset="0.77" stop-color="#029E44"/>
<stop offset="0.8" stop-color="#019C43"/>
</radialGradient>
<radialGradient id="paint10_radial_4039_53681" cx="0" cy="0" r="1" gradientUnits="userSpaceOnUse" gradientTransform="translate(82.3761 1.8362) rotate(-1.70136) scale(47.5824 34.8596)">
<stop stop-color="#14C957"/>
<stop offset="0.26" stop-color="#0FBE52"/>
<stop offset="0.72" stop-color="#049F44"/>
<stop offset="0.8" stop-color="#019941"/>
</radialGradient>
<radialGradient id="paint11_radial_4039_53681" cx="0" cy="0" r="1" gradientUnits="userSpaceOnUse" gradientTransform="translate(82.3527 1.8651) rotate(-1.70136) scale(47.481 34.7853)">
<stop stop-color="#16CB58"/>
<stop offset="0.24" stop-color="#11C053"/>
<stop offset="0.66" stop-color="#06A145"/>
<stop offset="0.8" stop-color="#019640"/>
</radialGradient>
<radialGradient id="paint12_radial_4039_53681" cx="0" cy="0" r="1" gradientUnits="userSpaceOnUse" gradientTransform="translate(82.3305 1.89464) rotate(-1.70136) scale(47.3797 34.7111)">
<stop stop-color="#18CC59"/>
<stop offset="0.23" stop-color="#13C154"/>
<stop offset="0.62" stop-color="#07A246"/>
<stop offset="0.8" stop-color="#01933F"/>
</radialGradient>
<radialGradient id="paint13_radial_4039_53681" cx="0" cy="0" r="1" gradientUnits="userSpaceOnUse" gradientTransform="translate(82.3019 1.93366) rotate(-1.70136) scale(47.2749 34.6343)">
<stop stop-color="#19CD59"/>
<stop offset="0.21" stop-color="#15C254"/>
<stop offset="0.59" stop-color="#09A347"/>
<stop offset="0.8" stop-color="#01903E"/>
</radialGradient>
<radialGradient id="paint14_radial_4039_53681" cx="0" cy="0" r="1" gradientUnits="userSpaceOnUse" gradientTransform="translate(82.2702 1.9719) rotate(-1.70136) scale(47.1735 34.5601)">
<stop stop-color="#1BCF5A"/>
<stop offset="0.2" stop-color="#17C455"/>
<stop offset="0.56" stop-color="#0BA547"/>
<stop offset="0.8" stop-color="#018D3C"/>
</radialGradient>
<radialGradient id="paint15_radial_4039_53681" cx="0" cy="0" r="1" gradientUnits="userSpaceOnUse" gradientTransform="translate(82.2376 1.8268) rotate(-1.13442) scale(47.0607 34.485)">
<stop stop-color="#1DD05B"/>
<stop offset="0.19" stop-color="#18C556"/>
<stop offset="0.54" stop-color="#0CA648"/>
<stop offset="0.8" stop-color="#018B3B"/>
</radialGradient>
<radialGradient id="paint16_radial_4039_53681" cx="0" cy="0" r="1" gradientUnits="userSpaceOnUse" gradientTransform="translate(82.1977 1.85632) rotate(-1.13442) scale(46.9559 34.4083)">
<stop stop-color="#1ED25B"/>
<stop offset="0.18" stop-color="#1AC756"/>
<stop offset="0.51" stop-color="#0EA848"/>
<stop offset="0.8" stop-color="#01883A"/>
</radialGradient>
<radialGradient id="paint17_radial_4039_53681" cx="0" cy="0" r="1" gradientUnits="userSpaceOnUse" gradientTransform="translate(82.1607 1.88566) rotate(-1.13442) scale(46.8546 34.334)">
<stop stop-color="#20D35C"/>
<stop offset="0.18" stop-color="#1BC857"/>
<stop offset="0.49" stop-color="#0FA949"/>
<stop offset="0.8" stop-color="#018539"/>
</radialGradient>
<radialGradient id="paint18_radial_4039_53681" cx="0" cy="0" r="1" gradientUnits="userSpaceOnUse" gradientTransform="translate(82.1153 1.92827) rotate(-1.13442) scale(46.7533 34.2598)">
<stop stop-color="#22D55D"/>
<stop offset="0.17" stop-color="#1DCA58"/>
<stop offset="0.47" stop-color="#11AB4A"/>
<stop offset="0.8" stop-color="#018237"/>
</radialGradient>
<radialGradient id="paint19_radial_4039_53681" cx="0" cy="0" r="1" gradientUnits="userSpaceOnUse" gradientTransform="translate(82.064 1.96384) rotate(-1.13442) scale(46.6485 34.1831)">
<stop stop-color="#24D65E"/>
<stop offset="0.16" stop-color="#1FCB59"/>
<stop offset="0.45" stop-color="#13AC4B"/>
<stop offset="0.8" stop-color="#017F36"/>
</radialGradient>
<radialGradient id="paint20_radial_4039_53681" cx="0" cy="0" r="1" gradientUnits="userSpaceOnUse" gradientTransform="translate(82.0071 2.01223) rotate(-1.13442) scale(46.5472 34.1088)">
<stop stop-color="#25D85E"/>
<stop offset="0.15" stop-color="#20CD59"/>
<stop offset="0.43" stop-color="#14AE4B"/>
<stop offset="0.79" stop-color="#017D36"/>
<stop offset="0.8" stop-color="#007C35"/>
</radialGradient>
<radialGradient id="paint21_radial_4039_53681" cx="0" cy="0" r="1" gradientUnits="userSpaceOnUse" gradientTransform="translate(83.0196 2.06328) rotate(-1.13442) scale(46.4459 34.0254)">
<stop stop-color="#27D95F"/>
<stop offset="0.15" stop-color="#22CE5A"/>
<stop offset="0.42" stop-color="#16AF4C"/>
<stop offset="0.77" stop-color="#027E36"/>
<stop offset="0.8" stop-color="#007934"/>
</radialGradient>
<radialGradient id="paint22_radial_4039_53681" cx="0" cy="0" r="1" gradientUnits="userSpaceOnUse" gradientTransform="translate(82.6757 2.12056) rotate(-1.1233) scale(46.7998 33.9488)">
<stop stop-color="#29DB60"/>
<stop offset="0.14" stop-color="#24D05B"/>
<stop offset="0.4" stop-color="#18B14D"/>
<stop offset="0.74" stop-color="#048037"/>
<stop offset="0.8" stop-color="#007632"/>
</radialGradient>
<radialGradient id="paint23_radial_4039_53681" cx="0" cy="0" r="1" gradientUnits="userSpaceOnUse" gradientTransform="translate(82.6322 2.179) rotate(-1.1233) scale(46.6975 33.8745)">
<stop stop-color="#2BDC61"/>
<stop offset="0.14" stop-color="#26D15C"/>
<stop offset="0.39" stop-color="#1AB24E"/>
<stop offset="0.71" stop-color="#068138"/>
<stop offset="0.8" stop-color="#007331"/>
</radialGradient>
<radialGradient id="paint24_radial_4039_53681" cx="0" cy="0" r="1" gradientUnits="userSpaceOnUse" gradientTransform="translate(82.5912 2.24332) rotate(-1.1233) scale(46.5917 33.7978)">
<stop stop-color="#2CDE61"/>
<stop offset="0.13" stop-color="#27D35C"/>
<stop offset="0.37" stop-color="#1BB44E"/>
<stop offset="0.69" stop-color="#088339"/>
<stop offset="0.8" stop-color="#007030"/>
</radialGradient>
<radialGradient id="paint25_radial_4039_53681" cx="0" cy="0" r="1" gradientUnits="userSpaceOnUse" gradientTransform="translate(82.5465 1.90921) rotate(-0.561705) scale(46.4827 33.724)">
<stop stop-color="#2EDF62"/>
<stop offset="0.13" stop-color="#29D45D"/>
<stop offset="0.37" stop-color="#1DB54F"/>
<stop offset="0.67" stop-color="#098439"/>
<stop offset="0.8" stop-color="#006E2F"/>
</radialGradient>
<radialGradient id="paint26_radial_4039_53681" cx="0" cy="0" r="1" gradientUnits="userSpaceOnUse" gradientTransform="translate(82.4979 1.96252) rotate(-0.561705) scale(46.3804 33.6497)">
<stop stop-color="#30E163"/>
<stop offset="0.13" stop-color="#2BD65E"/>
<stop offset="0.35" stop-color="#1FB750"/>
<stop offset="0.65" stop-color="#0B8639"/>
<stop offset="0.8" stop-color="#006B2D"/>
</radialGradient>
<radialGradient id="paint27_radial_4039_53681" cx="0" cy="0" r="1" gradientUnits="userSpaceOnUse" gradientTransform="translate(82.4463 2.02222) rotate(-0.561706) scale(46.2746 33.573)">
<stop stop-color="#31E263"/>
<stop offset="0.12" stop-color="#2CD75E"/>
<stop offset="0.34" stop-color="#20B850"/>
<stop offset="0.63" stop-color="#0D873A"/>
<stop offset="0.8" stop-color="#00682C"/>
</radialGradient>
<radialGradient id="paint28_radial_4039_53681" cx="0" cy="0" r="1" gradientUnits="userSpaceOnUse" gradientTransform="translate(82.3891 2.07977) rotate(-0.561706) scale(46.1723 33.4988)">
<stop stop-color="#33E364"/>
<stop offset="0.12" stop-color="#2ED85F"/>
<stop offset="0.34" stop-color="#22B951"/>
<stop offset="0.62" stop-color="#0E883B"/>
<stop offset="0.8" stop-color="#00652B"/>
</radialGradient>
<radialGradient id="paint29_radial_4039_53681" cx="0" cy="0" r="1" gradientUnits="userSpaceOnUse" gradientTransform="translate(82.3277 2.14673) rotate(-0.561706) scale(46.0666 33.4221)">
<stop stop-color="#35E565"/>
<stop offset="0.12" stop-color="#30DA60"/>
<stop offset="0.33" stop-color="#24BB52"/>
<stop offset="0.6" stop-color="#108A3C"/>
<stop offset="0.8" stop-color="#00622A"/>
</radialGradient>
<radialGradient id="paint30_radial_4039_53681" cx="0" cy="0" r="1" gradientUnits="userSpaceOnUse" gradientTransform="translate(82.2635 2.21519) rotate(-0.561706) scale(45.9642 33.3478)">
<stop stop-color="#37E666"/>
<stop offset="0.11" stop-color="#32DB61"/>
<stop offset="0.32" stop-color="#26BC53"/>
<stop offset="0.59" stop-color="#128B3C"/>
<stop offset="0.8" stop-color="#005F28"/>
</radialGradient>
<radialGradient id="paint31_radial_4039_53681" cx="0" cy="0" r="1" gradientUnits="userSpaceOnUse" gradientTransform="translate(82.1953 2.2885) rotate(-0.561705) scale(45.8585 33.2711)">
<stop stop-color="#38E866"/>
<stop offset="0.11" stop-color="#33DD61"/>
<stop offset="0.31" stop-color="#27BE53"/>
<stop offset="0.57" stop-color="#148D3D"/>
<stop offset="0.8" stop-color="#005C27"/>
</radialGradient>
<radialGradient id="paint32_radial_4039_53681" cx="0" cy="0" r="1" gradientUnits="userSpaceOnUse" gradientTransform="translate(82.1249 2.36817) rotate(-0.561706) scale(45.7562 33.1969)">
<stop stop-color="#3AE967"/>
<stop offset="0.11" stop-color="#35DE62"/>
<stop offset="0.3" stop-color="#29BF54"/>
<stop offset="0.56" stop-color="#158E3E"/>
<stop offset="0.8" stop-color="#005926"/>
</radialGradient>
<radialGradient id="paint33_radial_4039_53681" cx="0" cy="0" r="1" gradientUnits="userSpaceOnUse" gradientTransform="translate(82.0532 2.44978) rotate(-0.561706) scale(45.6539 33.1227)">
<stop stop-color="#3CEB68"/>
<stop offset="0.11" stop-color="#37E063"/>
<stop offset="0.29" stop-color="#2BC155"/>
<stop offset="0.54" stop-color="#17903F"/>
<stop offset="0.8" stop-color="#005625"/>
</radialGradient>
<radialGradient id="paint34_radial_4039_53681" cx="0" cy="0" r="1" gradientUnits="userSpaceOnUse" gradientTransform="translate(81.9699 2.53815) rotate(-0.561705) scale(45.5481 33.0459)">
<stop stop-color="#3EEC69"/>
<stop offset="0.1" stop-color="#39E164"/>
<stop offset="0.29" stop-color="#2DC256"/>
<stop offset="0.53" stop-color="#19913F"/>
<stop offset="0.8" stop-color="#005323"/>
</radialGradient>
<radialGradient id="paint35_radial_4039_53681" cx="0" cy="0" r="1" gradientUnits="userSpaceOnUse" gradientTransform="translate(81.8915 2.01736) scale(45.4436 32.9689)">
<stop stop-color="#3FEE69"/>
<stop offset="0.1" stop-color="#3AE364"/>
<stop offset="0.28" stop-color="#2EC456"/>
<stop offset="0.52" stop-color="#1A9340"/>
<stop offset="0.8" stop-color="#005122"/>
</radialGradient>
<radialGradient id="paint36_radial_4039_53681" cx="0" cy="0" r="1" gradientUnits="userSpaceOnUse" gradientTransform="translate(82.9634 2.08975) scale(45.7824 32.8922)">
<stop stop-color="#41EF6A"/>
<stop offset="0.1" stop-color="#3CE465"/>
<stop offset="0.28" stop-color="#30C557"/>
<stop offset="0.51" stop-color="#1C9441"/>
<stop offset="0.79" stop-color="#015022"/>
<stop offset="0.8" stop-color="#004E21"/>
</radialGradient>
<radialGradient id="paint37_radial_4039_53681" cx="0" cy="0" r="1" gradientUnits="userSpaceOnUse" gradientTransform="translate(82.8968 2.16983) scale(45.6825 32.8204)">
<stop stop-color="#43F16B"/>
<stop offset="0.1" stop-color="#3EE666"/>
<stop offset="0.27" stop-color="#32C758"/>
<stop offset="0.5" stop-color="#1E9642"/>
<stop offset="0.77" stop-color="#035223"/>
<stop offset="0.8" stop-color="#004B20"/>
</radialGradient>
<radialGradient id="paint38_radial_4039_53681" cx="0" cy="0" r="1" gradientUnits="userSpaceOnUse" gradientTransform="translate(82.8344 2.25539) scale(45.5791 32.7462)">
<stop stop-color="#45F26C"/>
<stop offset="0.1" stop-color="#40E767"/>
<stop offset="0.27" stop-color="#34C859"/>
<stop offset="0.49" stop-color="#209742"/>
<stop offset="0.76" stop-color="#055323"/>
<stop offset="0.8" stop-color="#00481E"/>
</radialGradient>
<radialGradient id="paint39_radial_4039_53681" cx="0" cy="0" r="1" gradientUnits="userSpaceOnUse" gradientTransform="translate(82.7663 2.34307) scale(45.4724 32.6695)">
<stop stop-color="#46F46C"/>
<stop offset="0.09" stop-color="#41E967"/>
<stop offset="0.26" stop-color="#35CA59"/>
<stop offset="0.48" stop-color="#229943"/>
<stop offset="0.74" stop-color="#065524"/>
<stop offset="0.8" stop-color="#00451D"/>
</radialGradient>
<radialGradient id="paint40_radial_4039_53681" cx="0" cy="0" r="1" gradientUnits="userSpaceOnUse" gradientTransform="translate(82.705 2.43792) scale(45.3656 32.5928)">
<stop stop-color="#48F56D"/>
<stop offset="0.09" stop-color="#43EA68"/>
<stop offset="0.25" stop-color="#37CB5A"/>
<stop offset="0.47" stop-color="#239A44"/>
<stop offset="0.73" stop-color="#085625"/>
<stop offset="0.8" stop-color="#00421C"/>
</radialGradient>
<linearGradient id="paint41_linear_4039_53681" x1="83.4442" y1="25.8739" x2="79.532" y2="-2.18043" gradientUnits="userSpaceOnUse">
<stop offset="0.1" stop-color="#FF8475"/>
<stop offset="0.37" stop-color="#E84E43"/>
<stop offset="0.6" stop-color="#D6261F"/>
<stop offset="0.79" stop-color="#CC0E08"/>
<stop offset="0.9" stop-color="#C80500"/>
</linearGradient>
<clipPath id="clip0_4039_53681">
<rect width="21" height="21" fill="white" transform="translate(68.9844 0.5)"/>
</clipPath>
</defs>
</svg>
