<svg width="100" height="21" viewBox="0 0 100 21" fill="none" xmlns="http://www.w3.org/2000/svg">
<path d="M51.7243 18.6023C49.783 18.6023 48.2512 17.897 47.1288 16.4865C46.0065 15.0608 45.4453 13.0588 45.4453 10.4805C45.4453 7.96279 45.9989 5.97595 47.1061 4.51995C48.2284 3.06394 49.8361 2.33594 51.9291 2.33594C52.6571 2.33594 53.3093 2.4421 53.8856 2.65444C54.4619 2.85161 54.9321 3.07911 55.2961 3.33694V5.5437C54.8866 5.28587 54.4013 5.0432 53.8401 4.8157C53.2789 4.5882 52.6874 4.47445 52.0656 4.47445C50.7309 4.47445 49.7602 4.96737 49.1536 5.9532C48.5469 6.93904 48.2436 8.44813 48.2436 10.4805C48.2436 12.4521 48.5469 13.9461 49.1536 14.9622C49.7602 15.9632 50.6854 16.4637 51.9291 16.4637C52.6571 16.4637 53.2865 16.3576 53.8173 16.1452C54.3482 15.9177 54.8411 15.6372 55.2961 15.3035V17.5102C54.9473 17.7529 54.4771 17.9956 53.8856 18.2383C53.2941 18.4809 52.5737 18.6023 51.7243 18.6023Z" fill="black"/>
<path d="M57.0088 6.93146H65.9268V18.3748H63.2195V9.06996H59.716V18.3748H57.0088V6.93146Z" fill="black"/>
<path d="M67.2961 16.0315C67.2961 16.0315 67.3491 16.0694 67.4553 16.1452C67.5615 16.2059 67.7132 16.2362 67.9103 16.2362C68.3502 16.2362 68.6383 16.0087 68.7748 15.5537C68.9113 15.0987 69.0023 14.2646 69.0478 13.0512L69.2753 6.93146H77.0331V18.3748H74.3258V9.06996H71.5731L71.4138 13.165C71.3532 15.0608 71.1181 16.441 70.7086 17.3055C70.2991 18.17 69.518 18.6023 68.3653 18.6023C68.0468 18.6023 67.789 18.5643 67.5918 18.4885C67.3946 18.4127 67.2961 18.3748 67.2961 18.3748V16.0315Z" fill="black"/>
<path d="M79.3145 6.93146H81.9535V14.0067L86.1395 6.93146H88.4828V18.3748H85.8438V11.2995L81.6578 18.3748H79.3145V6.93146Z" fill="black"/>
<path d="M99.151 9.06996H95.966V18.3748H93.2587V9.06996H90.0737V6.93146H99.151V9.06996Z" fill="black"/>
<g clip-path="url(#clip0_5802_35756)">
<path d="M32.9287 10.5491L40.3051 18.1027L40.1546 18.2398L40.0911 18.3C38.0256 20.1424 35.3192 21.0999 32.5546 20.9663C29.7901 20.8327 27.1886 19.6187 25.3104 17.5858C23.4322 15.5528 22.4276 12.8635 22.5128 10.0971C22.5981 7.33063 23.7665 4.70833 25.7663 2.7949C27.8224 0.913278 30.5371 -0.082506 33.3222 0.0232663C36.1073 0.129039 38.7386 1.32785 40.6461 3.36L32.9287 10.5491Z" fill="#01B94F"/>
<path d="M25.7714 2.79142C27.8272 0.911443 30.5408 -0.0830329 33.3246 0.0233614C36.1084 0.129756 38.7382 1.32846 40.6445 3.35986C40.6445 3.35986 34.5087 9.10449 34.385 9.2048C34.385 9.2048 33.0107 10.4988 33.0207 10.5189C33.0307 10.539 40.2901 18.0725 40.2901 18.0725L40.143 18.213L40.0794 18.2731C35.7459 22.0851 29.1051 21.9112 25.1829 17.6713C23.2993 15.6145 22.3043 12.897 22.4145 10.1102C22.5247 7.32344 23.7312 4.693 25.7714 2.79142V2.79142Z" fill="url(#paint0_radial_5802_35756)"/>
<path d="M25.7739 2.78563C27.8313 0.908138 30.5451 -0.0840769 33.3283 0.0235492C36.1116 0.131175 38.7407 1.32999 40.647 3.36076C40.647 3.36076 34.675 8.97832 34.4309 9.17561C34.4309 9.17561 33.0934 10.4529 33.1168 10.4931C33.167 10.6134 40.2792 18.04 40.2792 18.04L40.1321 18.1804L40.0685 18.2406C35.745 22.0458 29.1009 21.8586 25.192 17.632C23.3113 15.5809 22.3171 12.8698 22.4261 10.089C22.535 7.30831 23.7383 4.68326 25.7739 2.78563V2.78563Z" fill="url(#paint1_radial_5802_35756)"/>
<path d="M25.781 2.78471C27.8386 0.909681 30.5511 -0.0806827 33.3328 0.0275549C36.1144 0.135793 38.7418 1.33394 40.6475 3.36319C40.6475 3.36319 34.846 8.85034 34.4715 9.14793C34.4715 9.14793 33.1808 10.4052 33.2042 10.4654C33.2811 10.6459 40.2663 18.0123 40.2663 18.0123L40.1158 18.1527L40.0523 18.2096C35.7421 22.0048 29.1014 21.8108 25.1992 17.5943C23.3215 15.549 22.3288 12.844 22.4378 10.0696C22.5468 7.29518 23.7486 4.67644 25.781 2.78471V2.78471Z" fill="url(#paint2_radial_5802_35756)"/>
<path d="M25.7832 2.78153C27.841 0.907941 30.5531 -0.0812048 33.334 0.0276515C36.1148 0.136508 38.7413 1.33463 40.6463 3.36335C40.6463 3.36335 35.0121 8.71341 34.5138 9.11801C34.5138 9.11801 33.2633 10.3586 33.2967 10.4388C33.397 10.6796 40.2518 17.9824 40.2518 17.9824L40.1046 18.1195C40.1046 18.1195 40.0411 18.1763 40.0411 18.1797C35.741 21.9615 29.1002 21.7542 25.2081 17.5544C23.3334 15.5153 22.3416 12.8172 22.4494 10.0494C22.5571 7.28151 23.7556 4.66873 25.7832 2.78153V2.78153Z" fill="url(#paint3_radial_5802_35756)"/>
<path d="M25.7914 2.77126C27.8497 0.900557 30.5609 -0.0861531 33.3401 0.0239402C36.1193 0.134033 38.7439 1.33211 40.6478 3.35977C40.6478 3.35977 35.1841 8.58944 34.5588 9.08432C34.5588 9.08432 33.3484 10.3048 33.3885 10.4051C33.5155 10.7061 40.2432 17.9454 40.2399 17.9487L40.0928 18.0858L40.0292 18.146C35.7392 21.9111 29.1017 21.7004 25.2196 17.5107C23.3481 15.4768 22.3578 12.7848 22.4649 10.023C22.572 7.26119 23.768 4.65405 25.7914 2.77126V2.77126Z" fill="url(#paint4_radial_5802_35756)"/>
<path d="M25.7954 2.76808C27.854 0.898821 30.5647 -0.0866731 33.3431 0.0240386C36.1215 0.13475 38.7452 1.3328 40.6485 3.35993C40.6485 3.35993 35.3519 8.46255 34.6029 9.04436C34.6029 9.04436 33.4326 10.2448 33.4828 10.3652C33.6332 10.7263 40.2305 17.9021 40.2305 17.9021L40.0834 18.0726L40.0199 18.1294C35.7365 21.8678 29.1024 21.6504 25.227 17.4707C23.3589 15.4426 22.37 12.7573 22.4765 10.0021C22.5831 7.24682 23.7763 4.64588 25.7954 2.76808V2.76808Z" fill="url(#paint5_radial_5802_35756)"/>
<path d="M25.8008 2.7649C27.8596 0.897085 30.5698 -0.0871923 33.3474 0.0241376C36.1251 0.135468 38.7478 1.33349 40.6505 3.3601C40.6505 3.3601 35.5212 8.33565 34.6484 9.04453C34.6484 9.04453 33.5149 10.2249 33.5717 10.3653C33.7623 10.7699 40.2192 17.8855 40.2158 17.8855L40.0687 18.0226L40.0052 18.0828C35.7352 21.8245 29.1011 21.5971 25.2357 17.4307C23.3702 15.4088 22.3823 12.73 22.4882 9.98107C22.5941 7.23213 23.7853 4.63725 25.8008 2.7649V2.7649Z" fill="url(#paint6_radial_5802_35756)"/>
<path d="M25.8053 2.76019C27.8648 0.894236 30.5748 -0.0882403 33.3516 0.0243336C36.1284 0.136908 38.75 1.33553 40.6517 3.36207C40.6517 3.36207 35.6895 8.20721 34.6931 8.99969C34.6931 8.99969 33.5996 10.1633 33.6665 10.3372C33.8671 10.8187 40.207 17.8707 40.2036 17.8707C40.2003 17.8707 40.0665 18.0012 40.0565 18.0078L39.993 18.0647C35.733 21.783 29.0989 21.5489 25.2435 17.406C23.3764 15.3891 22.3867 12.7132 22.492 9.96676C22.5973 7.22031 23.7891 4.62812 25.8053 2.76019V2.76019Z" fill="url(#paint7_radial_5802_35756)"/>
<path d="M25.8107 2.75538C27.8703 0.891886 30.579 -0.0887461 33.3542 0.0244384C36.1294 0.137623 38.7493 1.33558 40.6504 3.36061C40.6504 3.36061 35.8587 8.07868 34.7352 8.96813C34.7352 8.96813 33.6819 10.1117 33.7588 10.3056C33.9829 10.8473 40.1923 17.8358 40.1923 17.8392L40.0451 17.9763L39.9816 18.0331C35.7317 21.7514 29.0976 21.5073 25.269 17.3644C23.404 15.3551 22.4133 12.6873 22.5149 9.94771C22.6165 7.20814 23.802 4.62107 25.8107 2.75538V2.75538Z" fill="url(#paint8_radial_5802_35756)"/>
<path d="M25.816 2.75221C27.8758 0.890155 30.5841 -0.0892626 33.3585 0.0245399C36.1329 0.138342 38.7519 1.33628 40.6523 3.36078C40.6523 3.36078 36.0279 7.94845 34.7673 8.93821C34.7673 8.93821 33.7641 10.0651 33.8377 10.2757C34.0985 10.8676 40.1842 17.7925 40.1809 17.7959L40.0337 17.9296C40.0337 17.9296 39.9769 17.9831 39.9702 17.9898C35.7303 21.6947 29.0996 21.4406 25.2576 17.3211C24.3376 16.3278 23.6222 15.1631 23.1524 13.8934C22.6826 12.6237 22.4674 11.2738 22.5193 9.92099C22.5711 8.56813 22.889 7.23873 23.4546 6.00871C24.0203 4.77868 24.8227 3.67212 25.816 2.75221V2.75221Z" fill="url(#paint9_radial_5802_35756)"/>
<path d="M25.823 2.74587C27.8833 0.886697 30.5907 -0.0902936 33.3635 0.0247448C36.1363 0.139783 38.7534 1.33767 40.6526 3.36113C40.6526 3.36113 36.1987 7.82174 34.8244 8.90847C34.8244 8.90847 33.8514 10.0186 33.945 10.246C34.2192 10.9147 40.1711 17.7728 40.1711 17.7762L40.024 17.9099L39.9605 17.9668C35.7273 21.6516 29.0999 21.3908 25.2712 17.2746C23.4181 15.2747 22.4352 12.6206 22.5387 9.896C22.6421 7.17144 23.8235 4.59953 25.823 2.74587V2.74587Z" fill="url(#paint10_radial_5802_35756)"/>
<path d="M25.8246 2.74301C27.8858 0.885063 30.5932 -0.0908062 33.3657 0.024847C36.1383 0.1405 38.755 1.33846 40.6543 3.36161C40.6543 3.36161 36.3642 7.70853 34.8662 8.8822C34.8662 8.8822 33.9366 9.96893 34.0336 10.2197C34.3345 10.9319 40.1594 17.7399 40.1561 17.7399L40.0089 17.877L39.9454 17.9338C35.7256 21.612 29.0982 21.3445 25.2796 17.2417C24.3625 16.2543 23.649 15.0959 23.18 13.8326C22.711 12.5693 22.4957 11.2259 22.5463 9.87934C22.5969 8.53275 22.9125 7.20934 23.475 5.98482C24.0376 4.7603 24.836 3.6587 25.8246 2.74301V2.74301Z" fill="url(#paint11_radial_5802_35756)"/>
<path d="M25.8342 2.73821C27.8954 0.882721 30.6016 -0.091308 33.3725 0.0249552C36.1435 0.141218 38.7586 1.33852 40.6572 3.36016C40.6572 3.36016 36.5376 7.56329 34.9125 8.85065C34.9125 8.85065 34.0231 9.92066 34.1301 10.1882C34.4645 10.9706 40.1489 17.7083 40.1489 17.7117L40.0018 17.8488C40.0018 17.8488 39.9449 17.8989 39.9416 17.9056C35.7284 21.5838 29.1044 21.2929 25.2925 17.2034C21.4805 13.114 21.6711 6.51334 25.8342 2.73821Z" fill="url(#paint12_radial_5802_35756)"/>
<path d="M25.8339 2.73352C27.8959 0.879887 30.6018 -0.0923452 33.372 0.0251609C36.1421 0.142667 38.756 1.34056 40.6536 3.36215C40.6536 3.36215 36.7012 7.43153 34.9692 8.81586C34.9692 8.81586 34.1165 9.86581 34.2335 10.1534C34.5846 10.996 40.1453 17.6702 40.1453 17.6735L39.9982 17.8073L39.9347 17.8641C35.7182 21.5189 29.0808 21.2347 25.2956 17.1553C21.5104 13.0758 21.681 6.49862 25.8339 2.73352Z" fill="url(#paint13_radial_5802_35756)"/>
<path d="M25.8407 2.72873C27.9027 0.87755 30.6074 -0.0928446 33.376 0.0252711C36.1445 0.143387 38.7568 1.34063 40.6536 3.3607C40.6536 3.3607 36.8718 7.30637 34.9993 8.79101C34.9993 8.79101 34.1867 9.82424 34.3105 10.1285C34.6883 11.028 40.1153 17.6387 40.1153 17.642L39.9681 17.7758L39.9046 17.8326C35.7182 21.474 29.0808 21.1797 25.3023 17.1137C21.5238 13.0476 21.6944 6.48045 25.8407 2.72873Z" fill="url(#paint14_radial_5802_35756)"/>
<path d="M25.8464 2.72557C27.9087 0.87583 30.6129 -0.0933554 33.3807 0.0253777C36.1484 0.144111 38.7598 1.34133 40.656 3.36089C40.656 3.36089 37.0414 7.17949 35.0452 8.7611C35.0452 8.7611 34.2727 9.76423 34.4065 10.0986C34.8077 11.0516 40.1177 17.6087 40.1177 17.6121L39.9739 17.7458L39.9104 17.8027C35.7173 21.4173 29.0832 21.1298 25.3147 17.0704C21.5463 13.011 21.7068 6.46726 25.8464 2.72557Z" fill="url(#paint15_radial_5802_35756)"/>
<path d="M25.8515 2.71824C27.9152 0.871967 30.6189 -0.094359 33.3853 0.0255945C36.1518 0.145548 38.7617 1.34227 40.6578 3.36025C40.6578 3.36025 37.2104 7.03841 35.1004 8.73037C35.1004 8.73037 34.3682 9.7335 34.5086 10.0679C34.9232 11.0911 40.1161 17.5747 40.096 17.578L39.9489 17.7118C39.9294 17.7324 39.9081 17.7515 39.8854 17.7686C35.7157 21.3866 29.0816 21.0823 25.3232 17.033C21.5648 12.9837 21.7253 6.4499 25.8515 2.71824Z" fill="url(#paint16_radial_5802_35756)"/>
<path d="M25.8562 2.71488C27.9223 0.871383 30.6276 -0.0907176 33.3938 0.0342517C36.16 0.159221 38.7676 1.36134 40.6591 3.38364C40.6591 3.38364 37.3788 6.92136 35.1318 8.71029C35.1318 8.71029 34.4397 9.68667 34.5901 10.0478C35.0415 11.1345 40.0873 17.5579 40.084 17.5613C40.0806 17.5646 39.9602 17.6783 39.9368 17.695L39.8766 17.7519C35.7136 21.3431 29.0829 21.0221 25.3312 16.9928C21.5795 12.9636 21.7266 6.43317 25.8562 2.71488Z" fill="url(#paint17_radial_5802_35756)"/>
<path d="M25.8625 2.71295C27.9279 0.870676 30.632 -0.0907062 33.3968 0.034258C36.1616 0.159222 38.7679 1.36062 40.6587 3.38171C40.6587 3.38171 37.549 6.8024 35.1749 8.68495C35.1749 8.68495 34.5229 9.64127 34.6801 10.0225C35.1582 11.1694 40.0769 17.5293 40.0702 17.5326L39.9265 17.6663L39.8629 17.7232C35.7099 21.301 29.0826 20.9734 25.3409 16.9541C21.5992 12.9349 21.743 6.41787 25.8625 2.71295Z" fill="url(#paint18_radial_5802_35756)"/>
<path d="M25.8662 2.69048C27.9318 0.850017 30.635 -0.110209 33.3988 0.0147351C36.1625 0.13968 38.768 1.3399 40.6591 3.35923C40.6591 3.35923 37.7166 6.65286 35.2221 8.63238C35.2221 8.63238 34.6069 9.56864 34.7741 9.9699C35.2756 11.177 40.0639 17.4767 40.0606 17.48L39.9135 17.6138L39.8499 17.6673C35.7103 21.2552 29.0829 20.9175 25.3479 16.9149C21.6129 12.9124 21.7567 6.39874 25.8662 2.69048Z" fill="url(#paint19_radial_5802_35756)"/>
<path d="M25.8711 2.69246C27.9359 0.853217 30.6378 -0.106292 33.4002 0.0186477C36.1626 0.143587 38.7669 1.34308 40.6573 3.36121C38.9949 5.24614 37.1919 7.00221 35.2638 8.6143C35.2638 8.6143 34.6886 9.53384 34.8658 9.95181C35.3908 11.2191 40.0487 17.4519 40.0454 17.4586L39.9016 17.589L39.838 17.6459C35.7051 21.2137 29.0811 20.8693 25.3561 16.8768C21.6311 12.8843 21.7649 6.37062 25.8711 2.69246Z" fill="url(#paint20_radial_5802_35756)"/>
<path d="M25.8748 2.69113C27.9401 0.8527 30.6417 -0.106277 33.4039 0.0186511C36.1661 0.143579 38.7702 1.34253 40.661 3.35989C39.0219 5.23968 37.2327 6.98307 35.311 8.57285C35.311 8.57285 34.7793 9.47233 34.9766 9.91036C35.5283 11.2479 40.0591 17.4105 40.0524 17.4138L39.9087 17.5476L39.8451 17.6044C35.7055 21.1655 29.0815 20.8144 25.3632 16.8353C21.6449 12.8562 21.7787 6.3693 25.8748 2.69113Z" fill="url(#paint21_radial_5802_35756)"/>
<path d="M25.8835 2.69439C27.9488 0.858778 30.6489 -0.0984231 33.4092 0.0264768C36.1694 0.151377 38.772 1.34852 40.6631 3.36315C39.0497 5.24428 37.2728 6.97869 35.3531 8.54602C35.3531 8.54602 34.8616 9.42877 35.0522 9.88353C35.6273 11.2846 40.0278 17.4071 40.0244 17.4071C40.0211 17.4071 39.9074 17.5174 39.8773 17.5408L39.8171 17.5943C35.7042 21.1253 29.0835 20.7508 25.3753 16.7985C21.667 12.8461 21.7907 6.37255 25.8835 2.69439Z" fill="url(#paint22_radial_5802_35756)"/>
<path d="M25.8842 2.69277C27.9493 0.858169 30.6486 -0.0984099 33.4081 0.0264816C36.1676 0.151373 38.7695 1.34788 40.6604 3.36152C39.0731 5.24607 37.3096 6.97484 35.3939 8.52433C35.3939 8.52433 34.9425 9.38702 35.1398 9.86184C35.745 11.3097 40.015 17.3586 40.0083 17.362L39.8646 17.4924L39.801 17.5492C35.6982 21.0836 29.0809 20.7124 25.3826 16.7567C21.6844 12.801 21.8014 6.33749 25.8842 2.69277Z" fill="url(#paint23_radial_5802_35756)"/>
<path d="M25.8874 2.69115C27.9523 0.85756 30.6509 -0.0983968 33.4096 0.0264865C36.1682 0.15137 38.7694 1.34725 40.6602 3.3599C39.1001 5.24776 37.3486 6.96896 35.4339 8.49596C35.4339 8.49596 35.0226 9.33859 35.2299 9.83347C35.8586 11.3415 39.9982 17.3235 39.9948 17.3302L39.8477 17.4606L39.7842 17.5175C35.6981 21.0352 29.0807 20.6573 25.4025 16.715C21.7244 12.7727 21.8147 6.31915 25.8874 2.69115Z" fill="url(#paint24_radial_5802_35756)"/>
<path d="M25.8936 2.69182C27.9582 0.860248 30.6553 -0.0944642 33.4124 0.0304026C36.1694 0.155269 38.7693 1.34988 40.6598 3.36057C39.1289 5.24907 37.3928 6.96157 35.4836 8.46653C35.4836 8.46653 35.1091 9.29244 35.3264 9.80404C35.9952 11.3723 40.0077 17.2941 39.9843 17.3008L39.8406 17.4312L39.777 17.4847C35.6943 20.9923 29.0803 20.6045 25.4021 16.6755C21.7239 12.7466 21.8242 6.3031 25.8936 2.69182Z" fill="url(#paint25_radial_5802_35756)"/>
<path d="M25.8996 2.6928C27.9643 0.863035 30.6606 -0.09053 33.4166 0.0343172C36.1726 0.159164 38.7716 1.35261 40.6624 3.36155C39.1623 5.25415 37.4389 6.95847 35.5297 8.43742C35.5297 8.43742 35.1953 9.24327 35.4194 9.77493C36.0881 11.4034 39.9803 17.2617 39.9736 17.265C39.9669 17.2684 39.8632 17.3687 39.8298 17.3954L39.7663 17.4523C35.6969 20.9499 29.0829 20.5553 25.4047 16.6364C21.7265 12.7175 21.8402 6.28737 25.8996 2.6928Z" fill="url(#paint26_radial_5802_35756)"/>
<path d="M25.9058 2.67426C27.9729 0.848035 30.6699 -0.101415 33.4252 0.0271712C36.1804 0.155758 38.7773 1.35227 40.6653 3.36308C40.6653 3.36308 39.067 5.63685 35.5727 8.40884C35.5727 8.40884 35.2785 9.19798 35.5125 9.74636C36.2147 11.4182 39.9664 17.2331 39.9631 17.2364L39.816 17.3668L39.7558 17.4237C35.6931 20.9079 29.0824 20.5033 25.4043 16.5978C21.7261 12.6922 21.8498 6.27217 25.9058 2.67426Z" fill="url(#paint27_radial_5802_35756)"/>
<path d="M25.9099 2.6644C27.978 0.840826 30.6746 -0.106316 33.4288 0.0234989C36.183 0.153314 38.7786 1.3499 40.666 3.35991C40.666 3.35991 39.2382 5.49324 35.6169 8.37558C35.4819 8.81121 35.4819 9.27747 35.6169 9.7131C36.3458 11.4619 39.9638 17.1931 39.9638 17.1998L39.82 17.3302L39.7565 17.3837C35.6904 20.8613 29.0831 20.45 25.4283 16.5578C21.7736 12.6657 21.8639 6.25562 25.9099 2.6644Z" fill="url(#paint28_radial_5802_35756)"/>
<path d="M25.9166 2.66227C27.984 0.839539 30.6798 -0.106831 33.4329 0.0236155C36.186 0.154062 38.7802 1.35108 40.666 3.36112C40.666 3.36112 39.4054 5.36739 35.6503 8.33333C35.5322 8.77325 35.545 9.23808 35.6871 9.67084C36.4395 11.5032 39.9437 17.1743 39.9371 17.181L39.7933 17.3114L39.7331 17.3649C35.6904 20.819 29.0831 20.4144 25.4351 16.5189C21.787 12.6234 21.8773 6.24012 25.9166 2.66227Z" fill="url(#paint29_radial_5802_35756)"/>
<path d="M25.9171 2.65915C27.9848 0.837841 30.68 -0.107327 33.4324 0.0237348C36.1847 0.154797 38.7779 1.3518 40.6632 3.36134C40.6632 3.36134 39.5731 5.25058 35.701 8.32017C35.6079 8.7654 35.6368 9.22752 35.7846 9.65768C36.5637 11.5269 39.9309 17.1344 39.9242 17.1411L39.7804 17.2681L39.7169 17.325C35.6843 20.7758 29.0803 20.3444 25.4423 16.479C21.7474 12.5601 21.8845 6.22362 25.9171 2.65915Z" fill="url(#paint30_radial_5802_35756)"/>
<path d="M25.9238 2.65159C27.9923 0.833942 30.6865 -0.108303 33.437 0.0239792C36.1874 0.156261 38.7787 1.35271 40.6633 3.36048C40.6633 3.36048 39.7404 5.10927 35.7445 8.27584C35.6756 8.72582 35.7216 9.18593 35.8783 9.61335C36.6808 11.5427 39.9176 17.0901 39.9109 17.0934L39.7671 17.2238L39.7036 17.2773C35.691 20.7047 29.0871 20.2867 25.449 16.4146C21.811 12.5425 21.8979 6.20604 25.9238 2.65159Z" fill="url(#paint31_radial_5802_35756)"/>
<path d="M25.9284 2.64878C27.9977 0.832345 30.6919 -0.108795 33.4421 0.0240988C36.1923 0.156993 38.7833 1.35352 40.6678 3.36101C40.6678 3.36101 39.9121 4.9794 35.7925 8.24627C35.7474 8.7001 35.8093 9.15818 35.9731 9.58379C36.799 11.6001 39.9054 17.0705 39.8987 17.0872L39.7549 17.2176L39.6947 17.2711C35.6822 20.6851 29.0816 20.2404 25.4603 16.4018C21.7821 12.5029 21.9125 6.18985 25.9284 2.64878Z" fill="url(#paint32_radial_5802_35756)"/>
<path d="M25.935 2.64535C28.004 0.830556 30.6972 -0.109291 33.446 0.0242225C36.1949 0.157736 38.7844 1.35416 40.6677 3.36092C40.6677 3.36092 40.0792 4.86563 35.8359 8.22947C35.817 8.68633 35.8945 9.14205 36.0633 9.56699C36.916 11.6301 39.8953 17.0504 39.8886 17.0704L39.7448 17.1975L39.6813 17.251C35.6788 20.6416 29.0815 20.1902 25.4669 16.3582C21.7987 12.4727 21.9225 6.17305 25.935 2.64535Z" fill="url(#paint33_radial_5802_35756)"/>
<path d="M25.937 2.63943C28.007 0.827271 30.6997 -0.110274 33.4476 0.0244666C36.1954 0.159207 38.7836 1.3557 40.6663 3.36168C40.6663 3.36168 40.2484 4.73598 35.878 8.20013C35.8852 8.66491 35.9794 9.12423 36.1556 9.55437C37.035 11.6643 39.8805 17.021 39.8739 17.0277L39.7301 17.1548L39.6699 17.2083C35.6774 20.5989 29.0801 20.1374 25.4755 16.3188C21.8141 12.4467 21.9345 6.15708 25.937 2.63943Z" fill="url(#paint34_radial_5802_35756)"/>
<path d="M25.947 2.63559C28.0182 0.830556 30.7086 -0.101005 33.4524 0.0368113C36.1963 0.174628 38.7798 1.37108 40.6597 3.37456C40.6597 3.37456 40.4089 4.60842 35.9148 8.16955C35.9537 8.63585 36.0665 9.093 36.2492 9.52378C37.1554 11.6972 39.8739 16.9904 39.8672 16.9971L39.7234 17.1242C39.7008 17.1402 39.6795 17.1581 39.6599 17.1777C35.6774 20.5549 29.0835 20.0801 25.4889 16.2782C21.8342 12.4162 21.9479 6.14321 25.947 2.63559Z" fill="url(#paint35_radial_5802_35756)"/>
<path d="M25.9495 2.63148C28.0207 0.826069 30.7115 -0.105432 33.4556 0.0330219C36.1998 0.171475 38.7832 1.36908 40.6621 3.3738C40.6621 3.3738 40.5819 4.48059 35.9608 8.13869C36.0264 8.6055 36.1523 9.06183 36.3353 9.49627C37.2715 11.7199 39.8596 16.9563 39.8529 16.9629L39.7091 17.09C39.6891 17.09 39.6657 17.1301 39.6456 17.1435C35.6732 20.5107 29.0826 20.0325 25.4947 16.2373C21.85 12.3886 21.9603 6.12573 25.9495 2.63148Z" fill="url(#paint36_radial_5802_35756)"/>
<path d="M25.9557 2.62588C28.0285 0.8229 30.7194 -0.106402 33.4631 0.0332741C36.2067 0.172951 38.7894 1.37073 40.6684 3.37489C40.6684 3.37489 40.7553 4.36465 36.0105 8.11303C36.1076 8.57758 36.251 9.03125 36.4385 9.46726C37.3914 11.7611 39.8525 16.9272 39.8424 16.9339C39.8324 16.9406 39.7455 17.0242 39.6987 17.061L39.6385 17.1145C35.6761 20.475 29.0821 19.9801 25.5043 16.1983C21.8629 12.3596 21.9733 6.1101 25.9557 2.62588Z" fill="url(#paint37_radial_5802_35756)"/>
<path d="M25.9594 2.62417C28.0326 0.821239 30.7242 -0.107422 33.4681 0.0335157C36.2121 0.174453 38.7944 1.374 40.672 3.37987C40.672 3.37987 40.9261 4.22585 36.0576 8.08458C36.1826 8.54722 36.339 9.00079 36.5257 9.44215C37.5054 11.7828 39.836 16.8988 39.8294 16.9055L39.6856 17.0326L39.622 17.0861C35.673 20.4165 29.0824 19.9283 25.5113 16.1632C21.8799 12.3312 21.9836 6.09502 25.9594 2.62417Z" fill="url(#paint38_radial_5802_35756)"/>
<path d="M25.9643 2.61877C28.038 0.816252 30.7299 -0.111828 33.4738 0.0297332C36.2177 0.171295 38.7998 1.37146 40.677 3.3778C40.677 3.3778 41.0916 4.09337 36.1027 8.04238C36.1027 8.04238 36.2866 8.60414 36.621 9.39996C37.6241 11.8142 39.8243 16.8566 39.8176 16.8633L39.6738 16.9903L39.6136 17.0405C35.668 20.3809 29.0807 19.876 25.5196 16.121C21.8949 12.299 21.9952 6.07624 25.9643 2.61877Z" fill="url(#paint39_radial_5802_35756)"/>
<path d="M39.8025 16.8434C35.8969 20.3543 29.1458 19.8896 25.5279 16.0676C21.9099 12.2457 22.0069 6.03626 25.9693 2.59885C28.0441 0.797967 30.7363 -0.128435 33.48 0.0143619C36.2237 0.157158 38.8052 1.35803 40.6819 3.36458C40.6819 3.36458 41.2737 3.95308 36.1544 8.00909C36.1444 8.02247 39.8159 16.8333 39.8025 16.8434Z" fill="url(#paint40_radial_5802_35756)"/>
<path d="M35.9984 8.13672C34.3967 9.45083 32.4272 10.999 30.1367 12.7344C31.8383 14.5745 33.8172 16.1371 36.0017 17.3656C37.8776 18.3687 39.3455 18.556 40.0644 17.9206C40.7833 17.2853 40.6964 15.8207 39.8604 13.9081C38.8707 11.801 37.5687 9.85531 35.9984 8.13672V8.13672Z" fill="url(#paint41_linear_5802_35756)"/>
<path d="M36.1408 8.00391L35.3383 8.67266C36.8077 10.2879 38.0292 12.1123 38.963 14.0863C39.7822 15.9721 39.7621 16.9184 39.498 17.1558C39.2338 17.3933 38.0936 17.4534 36.2712 16.4871C34.2525 15.3423 32.4267 13.8866 30.861 12.1736L29.9648 12.8424L30.1755 13.0463C33.9707 16.9686 38.0769 19.2022 39.8825 18.3897C39.936 18.3629 39.9895 18.3362 40.0397 18.3061H40.0597C40.1296 18.2628 40.1956 18.2136 40.257 18.159C40.3221 18.1001 40.3814 18.0352 40.4342 17.965C41.6146 16.4169 39.8223 12.2472 36.2512 8.16106L36.1408 8.00391Z" fill="#84EEB1"/>
</g>
<g clip-path="url(#clip1_5802_35756)">
<path fill-rule="evenodd" clip-rule="evenodd" d="M21 0H0V21H21V0ZM14.1727 16.8109H11.979V5.91511H11C9.20522 5.91511 8.26249 6.82159 8.26249 8.16317C8.26249 9.68605 8.91515 10.3931 10.2567 11.2996L11.3626 12.0429L8.17184 16.8109H5.79688L8.66133 12.5505C7.01155 11.3721 6.08695 10.2299 6.08695 8.29007C6.08695 5.86072 7.77299 4.21094 10.9819 4.21094H14.1727V16.8109Z" fill="black"/>
</g>
<defs>
<radialGradient id="paint0_radial_5802_35756" cx="0" cy="0" r="1" gradientUnits="userSpaceOnUse" gradientTransform="translate(35.5916 1.18828) rotate(-2.29061) scale(48.1388 35.6235)">
<stop stop-color="#03BA50"/>
<stop offset="0.8" stop-color="#01B64E"/>
</radialGradient>
<radialGradient id="paint1_radial_5802_35756" cx="0" cy="0" r="1" gradientUnits="userSpaceOnUse" gradientTransform="translate(35.5858 1.1853) rotate(-2.29061) scale(48.0384 35.5492)">
<stop stop-color="#04BC50"/>
<stop offset="0.8" stop-color="#01B34D"/>
</radialGradient>
<radialGradient id="paint2_radial_5802_35756" cx="0" cy="0" r="1" gradientUnits="userSpaceOnUse" gradientTransform="translate(35.5749 1.19675) rotate(-2.29061) scale(47.938 35.4749)">
<stop stop-color="#06BD51"/>
<stop offset="0.72" stop-color="#02B24C"/>
<stop offset="0.8" stop-color="#01B04B"/>
</radialGradient>
<radialGradient id="paint3_radial_5802_35756" cx="0" cy="0" r="1" gradientUnits="userSpaceOnUse" gradientTransform="translate(35.5557 1.21202) rotate(-2.29061) scale(47.8376 35.4006)">
<stop stop-color="#08BF52"/>
<stop offset="0.56" stop-color="#04B44D"/>
<stop offset="0.8" stop-color="#01AD4A"/>
</radialGradient>
<radialGradient id="paint4_radial_5802_35756" cx="0" cy="0" r="1" gradientUnits="userSpaceOnUse" gradientTransform="translate(35.5392 1.22295) rotate(-2.29061) scale(47.7372 35.3263)">
<stop stop-color="#0AC053"/>
<stop offset="0.48" stop-color="#05B54E"/>
<stop offset="0.8" stop-color="#01AA49"/>
</radialGradient>
<radialGradient id="paint5_radial_5802_35756" cx="0" cy="0" r="1" gradientUnits="userSpaceOnUse" gradientTransform="translate(35.5188 1.25926) rotate(-1.71836) scale(47.6168 35.2476)">
<stop stop-color="#0BC253"/>
<stop offset="0.42" stop-color="#07B74E"/>
<stop offset="0.8" stop-color="#01A848"/>
</radialGradient>
<radialGradient id="paint6_radial_5802_35756" cx="0" cy="0" r="1" gradientUnits="userSpaceOnUse" gradientTransform="translate(35.4898 1.26856) rotate(-1.71836) scale(47.5165 35.1733)">
<stop stop-color="#0DC354"/>
<stop offset="0.37" stop-color="#08B84F"/>
<stop offset="0.8" stop-color="#01A546"/>
</radialGradient>
<radialGradient id="paint7_radial_5802_35756" cx="0" cy="0" r="1" gradientUnits="userSpaceOnUse" gradientTransform="translate(35.8441 1.27986) rotate(-1.71836) scale(47.4161 35.0848)">
<stop stop-color="#0FC555"/>
<stop offset="0.33" stop-color="#0ABA50"/>
<stop offset="0.8" stop-color="#01A245"/>
</radialGradient>
<radialGradient id="paint8_radial_5802_35756" cx="0" cy="0" r="1" gradientUnits="userSpaceOnUse" gradientTransform="translate(35.8075 1.29535) rotate(-1.70136) scale(47.7885 35.0106)">
<stop stop-color="#11C656"/>
<stop offset="0.3" stop-color="#0CBB51"/>
<stop offset="0.8" stop-color="#019F44"/>
</radialGradient>
<radialGradient id="paint9_radial_5802_35756" cx="0" cy="0" r="1" gradientUnits="userSpaceOnUse" gradientTransform="translate(35.7977 1.31268) rotate(-1.70135) scale(47.6871 34.9363)">
<stop stop-color="#12C856"/>
<stop offset="0.28" stop-color="#0EBD51"/>
<stop offset="0.77" stop-color="#029E44"/>
<stop offset="0.8" stop-color="#019C43"/>
</radialGradient>
<radialGradient id="paint10_radial_5802_35756" cx="0" cy="0" r="1" gradientUnits="userSpaceOnUse" gradientTransform="translate(35.7863 1.3362) rotate(-1.70135) scale(47.5824 34.8596)">
<stop stop-color="#14C957"/>
<stop offset="0.26" stop-color="#0FBE52"/>
<stop offset="0.72" stop-color="#049F44"/>
<stop offset="0.8" stop-color="#019941"/>
</radialGradient>
<radialGradient id="paint11_radial_5802_35756" cx="0" cy="0" r="1" gradientUnits="userSpaceOnUse" gradientTransform="translate(35.7629 1.3651) rotate(-1.70136) scale(47.481 34.7853)">
<stop stop-color="#16CB58"/>
<stop offset="0.24" stop-color="#11C053"/>
<stop offset="0.66" stop-color="#06A145"/>
<stop offset="0.8" stop-color="#019640"/>
</radialGradient>
<radialGradient id="paint12_radial_5802_35756" cx="0" cy="0" r="1" gradientUnits="userSpaceOnUse" gradientTransform="translate(35.7407 1.39464) rotate(-1.70135) scale(47.3797 34.7111)">
<stop stop-color="#18CC59"/>
<stop offset="0.23" stop-color="#13C154"/>
<stop offset="0.62" stop-color="#07A246"/>
<stop offset="0.8" stop-color="#01933F"/>
</radialGradient>
<radialGradient id="paint13_radial_5802_35756" cx="0" cy="0" r="1" gradientUnits="userSpaceOnUse" gradientTransform="translate(35.7121 1.43366) rotate(-1.70135) scale(47.2749 34.6343)">
<stop stop-color="#19CD59"/>
<stop offset="0.21" stop-color="#15C254"/>
<stop offset="0.59" stop-color="#09A347"/>
<stop offset="0.8" stop-color="#01903E"/>
</radialGradient>
<radialGradient id="paint14_radial_5802_35756" cx="0" cy="0" r="1" gradientUnits="userSpaceOnUse" gradientTransform="translate(35.6804 1.4719) rotate(-1.70135) scale(47.1736 34.5601)">
<stop stop-color="#1BCF5A"/>
<stop offset="0.2" stop-color="#17C455"/>
<stop offset="0.56" stop-color="#0BA547"/>
<stop offset="0.8" stop-color="#018D3C"/>
</radialGradient>
<radialGradient id="paint15_radial_5802_35756" cx="0" cy="0" r="1" gradientUnits="userSpaceOnUse" gradientTransform="translate(35.6478 1.3268) rotate(-1.13442) scale(47.0607 34.485)">
<stop stop-color="#1DD05B"/>
<stop offset="0.19" stop-color="#18C556"/>
<stop offset="0.54" stop-color="#0CA648"/>
<stop offset="0.8" stop-color="#018B3B"/>
</radialGradient>
<radialGradient id="paint16_radial_5802_35756" cx="0" cy="0" r="1" gradientUnits="userSpaceOnUse" gradientTransform="translate(35.6079 1.35632) rotate(-1.13442) scale(46.9559 34.4083)">
<stop stop-color="#1ED25B"/>
<stop offset="0.18" stop-color="#1AC756"/>
<stop offset="0.51" stop-color="#0EA848"/>
<stop offset="0.8" stop-color="#01883A"/>
</radialGradient>
<radialGradient id="paint17_radial_5802_35756" cx="0" cy="0" r="1" gradientUnits="userSpaceOnUse" gradientTransform="translate(35.5708 1.38566) rotate(-1.13442) scale(46.8546 34.334)">
<stop stop-color="#20D35C"/>
<stop offset="0.18" stop-color="#1BC857"/>
<stop offset="0.49" stop-color="#0FA949"/>
<stop offset="0.8" stop-color="#018539"/>
</radialGradient>
<radialGradient id="paint18_radial_5802_35756" cx="0" cy="0" r="1" gradientUnits="userSpaceOnUse" gradientTransform="translate(35.5255 1.42827) rotate(-1.13442) scale(46.7533 34.2598)">
<stop stop-color="#22D55D"/>
<stop offset="0.17" stop-color="#1DCA58"/>
<stop offset="0.47" stop-color="#11AB4A"/>
<stop offset="0.8" stop-color="#018237"/>
</radialGradient>
<radialGradient id="paint19_radial_5802_35756" cx="0" cy="0" r="1" gradientUnits="userSpaceOnUse" gradientTransform="translate(35.4742 1.46384) rotate(-1.13442) scale(46.6486 34.1831)">
<stop stop-color="#24D65E"/>
<stop offset="0.16" stop-color="#1FCB59"/>
<stop offset="0.45" stop-color="#13AC4B"/>
<stop offset="0.8" stop-color="#017F36"/>
</radialGradient>
<radialGradient id="paint20_radial_5802_35756" cx="0" cy="0" r="1" gradientUnits="userSpaceOnUse" gradientTransform="translate(35.4173 1.51223) rotate(-1.13442) scale(46.5472 34.1088)">
<stop stop-color="#25D85E"/>
<stop offset="0.15" stop-color="#20CD59"/>
<stop offset="0.43" stop-color="#14AE4B"/>
<stop offset="0.79" stop-color="#017D36"/>
<stop offset="0.8" stop-color="#007C35"/>
</radialGradient>
<radialGradient id="paint21_radial_5802_35756" cx="0" cy="0" r="1" gradientUnits="userSpaceOnUse" gradientTransform="translate(36.4298 1.56328) rotate(-1.13442) scale(46.4459 34.0254)">
<stop stop-color="#27D95F"/>
<stop offset="0.15" stop-color="#22CE5A"/>
<stop offset="0.42" stop-color="#16AF4C"/>
<stop offset="0.77" stop-color="#027E36"/>
<stop offset="0.8" stop-color="#007934"/>
</radialGradient>
<radialGradient id="paint22_radial_5802_35756" cx="0" cy="0" r="1" gradientUnits="userSpaceOnUse" gradientTransform="translate(36.0859 1.62056) rotate(-1.1233) scale(46.7999 33.9488)">
<stop stop-color="#29DB60"/>
<stop offset="0.14" stop-color="#24D05B"/>
<stop offset="0.4" stop-color="#18B14D"/>
<stop offset="0.74" stop-color="#048037"/>
<stop offset="0.8" stop-color="#007632"/>
</radialGradient>
<radialGradient id="paint23_radial_5802_35756" cx="0" cy="0" r="1" gradientUnits="userSpaceOnUse" gradientTransform="translate(36.0424 1.679) rotate(-1.1233) scale(46.6975 33.8745)">
<stop stop-color="#2BDC61"/>
<stop offset="0.14" stop-color="#26D15C"/>
<stop offset="0.39" stop-color="#1AB24E"/>
<stop offset="0.71" stop-color="#068138"/>
<stop offset="0.8" stop-color="#007331"/>
</radialGradient>
<radialGradient id="paint24_radial_5802_35756" cx="0" cy="0" r="1" gradientUnits="userSpaceOnUse" gradientTransform="translate(36.0014 1.74332) rotate(-1.1233) scale(46.5918 33.7978)">
<stop stop-color="#2CDE61"/>
<stop offset="0.13" stop-color="#27D35C"/>
<stop offset="0.37" stop-color="#1BB44E"/>
<stop offset="0.69" stop-color="#088339"/>
<stop offset="0.8" stop-color="#007030"/>
</radialGradient>
<radialGradient id="paint25_radial_5802_35756" cx="0" cy="0" r="1" gradientUnits="userSpaceOnUse" gradientTransform="translate(35.9566 1.40921) rotate(-0.561705) scale(46.4827 33.724)">
<stop stop-color="#2EDF62"/>
<stop offset="0.13" stop-color="#29D45D"/>
<stop offset="0.37" stop-color="#1DB54F"/>
<stop offset="0.67" stop-color="#098439"/>
<stop offset="0.8" stop-color="#006E2F"/>
</radialGradient>
<radialGradient id="paint26_radial_5802_35756" cx="0" cy="0" r="1" gradientUnits="userSpaceOnUse" gradientTransform="translate(35.9081 1.46252) rotate(-0.561705) scale(46.3804 33.6497)">
<stop stop-color="#30E163"/>
<stop offset="0.13" stop-color="#2BD65E"/>
<stop offset="0.35" stop-color="#1FB750"/>
<stop offset="0.65" stop-color="#0B8639"/>
<stop offset="0.8" stop-color="#006B2D"/>
</radialGradient>
<radialGradient id="paint27_radial_5802_35756" cx="0" cy="0" r="1" gradientUnits="userSpaceOnUse" gradientTransform="translate(35.8565 1.52222) rotate(-0.561706) scale(46.2746 33.573)">
<stop stop-color="#31E263"/>
<stop offset="0.12" stop-color="#2CD75E"/>
<stop offset="0.34" stop-color="#20B850"/>
<stop offset="0.63" stop-color="#0D873A"/>
<stop offset="0.8" stop-color="#00682C"/>
</radialGradient>
<radialGradient id="paint28_radial_5802_35756" cx="0" cy="0" r="1" gradientUnits="userSpaceOnUse" gradientTransform="translate(35.7992 1.57977) rotate(-0.561705) scale(46.1723 33.4988)">
<stop stop-color="#33E364"/>
<stop offset="0.12" stop-color="#2ED85F"/>
<stop offset="0.34" stop-color="#22B951"/>
<stop offset="0.62" stop-color="#0E883B"/>
<stop offset="0.8" stop-color="#00652B"/>
</radialGradient>
<radialGradient id="paint29_radial_5802_35756" cx="0" cy="0" r="1" gradientUnits="userSpaceOnUse" gradientTransform="translate(35.7379 1.64673) rotate(-0.561705) scale(46.0666 33.4221)">
<stop stop-color="#35E565"/>
<stop offset="0.12" stop-color="#30DA60"/>
<stop offset="0.33" stop-color="#24BB52"/>
<stop offset="0.6" stop-color="#108A3C"/>
<stop offset="0.8" stop-color="#00622A"/>
</radialGradient>
<radialGradient id="paint30_radial_5802_35756" cx="0" cy="0" r="1" gradientUnits="userSpaceOnUse" gradientTransform="translate(35.6737 1.71519) rotate(-0.561705) scale(45.9642 33.3478)">
<stop stop-color="#37E666"/>
<stop offset="0.11" stop-color="#32DB61"/>
<stop offset="0.32" stop-color="#26BC53"/>
<stop offset="0.59" stop-color="#128B3C"/>
<stop offset="0.8" stop-color="#005F28"/>
</radialGradient>
<radialGradient id="paint31_radial_5802_35756" cx="0" cy="0" r="1" gradientUnits="userSpaceOnUse" gradientTransform="translate(35.6055 1.7885) rotate(-0.561705) scale(45.8585 33.2711)">
<stop stop-color="#38E866"/>
<stop offset="0.11" stop-color="#33DD61"/>
<stop offset="0.31" stop-color="#27BE53"/>
<stop offset="0.57" stop-color="#148D3D"/>
<stop offset="0.8" stop-color="#005C27"/>
</radialGradient>
<radialGradient id="paint32_radial_5802_35756" cx="0" cy="0" r="1" gradientUnits="userSpaceOnUse" gradientTransform="translate(35.5351 1.86817) rotate(-0.561705) scale(45.7562 33.1969)">
<stop stop-color="#3AE967"/>
<stop offset="0.11" stop-color="#35DE62"/>
<stop offset="0.3" stop-color="#29BF54"/>
<stop offset="0.56" stop-color="#158E3E"/>
<stop offset="0.8" stop-color="#005926"/>
</radialGradient>
<radialGradient id="paint33_radial_5802_35756" cx="0" cy="0" r="1" gradientUnits="userSpaceOnUse" gradientTransform="translate(35.4634 1.94978) rotate(-0.561705) scale(45.6539 33.1227)">
<stop stop-color="#3CEB68"/>
<stop offset="0.11" stop-color="#37E063"/>
<stop offset="0.29" stop-color="#2BC155"/>
<stop offset="0.54" stop-color="#17903F"/>
<stop offset="0.8" stop-color="#005625"/>
</radialGradient>
<radialGradient id="paint34_radial_5802_35756" cx="0" cy="0" r="1" gradientUnits="userSpaceOnUse" gradientTransform="translate(35.3801 2.03815) rotate(-0.561705) scale(45.5481 33.0459)">
<stop stop-color="#3EEC69"/>
<stop offset="0.1" stop-color="#39E164"/>
<stop offset="0.29" stop-color="#2DC256"/>
<stop offset="0.53" stop-color="#19913F"/>
<stop offset="0.8" stop-color="#005323"/>
</radialGradient>
<radialGradient id="paint35_radial_5802_35756" cx="0" cy="0" r="1" gradientUnits="userSpaceOnUse" gradientTransform="translate(35.3016 1.51736) scale(45.4436 32.9689)">
<stop stop-color="#3FEE69"/>
<stop offset="0.1" stop-color="#3AE364"/>
<stop offset="0.28" stop-color="#2EC456"/>
<stop offset="0.52" stop-color="#1A9340"/>
<stop offset="0.8" stop-color="#005122"/>
</radialGradient>
<radialGradient id="paint36_radial_5802_35756" cx="0" cy="0" r="1" gradientUnits="userSpaceOnUse" gradientTransform="translate(36.3736 1.58975) scale(45.7824 32.8922)">
<stop stop-color="#41EF6A"/>
<stop offset="0.1" stop-color="#3CE465"/>
<stop offset="0.28" stop-color="#30C557"/>
<stop offset="0.51" stop-color="#1C9441"/>
<stop offset="0.79" stop-color="#015022"/>
<stop offset="0.8" stop-color="#004E21"/>
</radialGradient>
<radialGradient id="paint37_radial_5802_35756" cx="0" cy="0" r="1" gradientUnits="userSpaceOnUse" gradientTransform="translate(36.307 1.66983) scale(45.6825 32.8204)">
<stop stop-color="#43F16B"/>
<stop offset="0.1" stop-color="#3EE666"/>
<stop offset="0.27" stop-color="#32C758"/>
<stop offset="0.5" stop-color="#1E9642"/>
<stop offset="0.77" stop-color="#035223"/>
<stop offset="0.8" stop-color="#004B20"/>
</radialGradient>
<radialGradient id="paint38_radial_5802_35756" cx="0" cy="0" r="1" gradientUnits="userSpaceOnUse" gradientTransform="translate(36.2445 1.75539) scale(45.5791 32.7462)">
<stop stop-color="#45F26C"/>
<stop offset="0.1" stop-color="#40E767"/>
<stop offset="0.27" stop-color="#34C859"/>
<stop offset="0.49" stop-color="#209742"/>
<stop offset="0.76" stop-color="#055323"/>
<stop offset="0.8" stop-color="#00481E"/>
</radialGradient>
<radialGradient id="paint39_radial_5802_35756" cx="0" cy="0" r="1" gradientUnits="userSpaceOnUse" gradientTransform="translate(36.1765 1.84307) scale(45.4724 32.6695)">
<stop stop-color="#46F46C"/>
<stop offset="0.09" stop-color="#41E967"/>
<stop offset="0.26" stop-color="#35CA59"/>
<stop offset="0.48" stop-color="#229943"/>
<stop offset="0.74" stop-color="#065524"/>
<stop offset="0.8" stop-color="#00451D"/>
</radialGradient>
<radialGradient id="paint40_radial_5802_35756" cx="0" cy="0" r="1" gradientUnits="userSpaceOnUse" gradientTransform="translate(36.1151 1.93792) scale(45.3656 32.5928)">
<stop stop-color="#48F56D"/>
<stop offset="0.09" stop-color="#43EA68"/>
<stop offset="0.25" stop-color="#37CB5A"/>
<stop offset="0.47" stop-color="#239A44"/>
<stop offset="0.73" stop-color="#085625"/>
<stop offset="0.8" stop-color="#00421C"/>
</radialGradient>
<linearGradient id="paint41_linear_5802_35756" x1="36.8544" y1="25.3739" x2="32.9421" y2="-2.68043" gradientUnits="userSpaceOnUse">
<stop offset="0.1" stop-color="#FF8475"/>
<stop offset="0.37" stop-color="#E84E43"/>
<stop offset="0.6" stop-color="#D6261F"/>
<stop offset="0.79" stop-color="#CC0E08"/>
<stop offset="0.9" stop-color="#C80500"/>
</linearGradient>
<clipPath id="clip0_5802_35756">
<rect width="21" height="21" fill="white" transform="translate(22.3945)"/>
</clipPath>
<clipPath id="clip1_5802_35756">
<rect width="21" height="21" rx="10.5" fill="white"/>
</clipPath>
</defs>
</svg>
