<svg width="130" height="130" viewBox="0 0 130 130" fill="none" xmlns="http://www.w3.org/2000/svg">
<path d="M98.3043 22.6915C98.2417 21.7897 97.9743 20.9141 97.5222 20.1312C97.0702 19.3484 96.4455 18.679 95.6958 18.174C94.946 17.669 94.0909 17.3417 93.1956 17.217C92.3003 17.0923 91.3883 17.1735 90.5291 17.4543L64.7643 25.9972C63.9034 26.2928 63.1212 26.781 62.4775 27.4247C61.8339 28.0684 61.3456 28.8505 61.0501 29.7115C60.8259 30.3019 60.7004 30.9251 60.6786 31.5563L60.4063 39.0839C60.4061 39.6308 60.5431 40.169 60.8049 40.6492C61.0666 41.1294 61.4446 41.5362 61.9043 41.8324L86.6662 58.4724C87.2042 58.8346 87.8377 59.0285 88.4862 59.0296C88.9484 59.03 89.4049 58.9285 89.8234 58.7324L96.571 55.7115C97.9788 55.0875 99.0857 53.9361 99.6539 52.5048C100.018 51.6584 100.175 50.7374 100.112 49.8182L98.3043 22.6915ZM96.1253 54.4734L89.2291 57.5563C88.9155 57.6975 88.5709 57.7557 88.2283 57.7254C87.8858 57.695 87.5568 57.5771 87.2729 57.3829L62.5729 40.7182C62.2866 40.5247 62.0537 40.2622 61.8958 39.9549C61.7378 39.6476 61.6598 39.3055 61.6691 38.9601L61.9043 31.4201C61.9153 30.9468 62.0032 30.4785 62.1643 30.0334C62.4195 29.3769 62.8174 28.7854 63.3291 28.3015C63.8408 27.8176 64.4537 27.4534 65.1234 27.2353L90.8882 18.7543C91.5696 18.5204 92.2958 18.447 93.0103 18.5397C93.7248 18.6325 94.4082 18.889 95.0073 19.2892C95.6064 19.6894 96.105 20.2225 96.4643 20.847C96.8235 21.4715 97.0338 22.1705 97.0786 22.8896L98.8986 49.9543C98.9657 50.9028 98.7344 51.8485 98.237 52.6588C97.7397 53.4692 97.0013 54.1037 96.1253 54.4734Z" fill="#333333"/>
<path d="M110.957 52.7419L108.481 15.1534C108.365 13.4452 107.86 11.7861 107.005 10.303C106.15 8.81987 104.967 7.55196 103.546 6.5962C102.126 5.64044 100.505 5.02214 98.8093 4.78858C97.1132 4.55501 95.3862 4.71237 93.7602 5.24861L57.9793 17.0477C56.352 17.5911 54.8698 18.4978 53.6449 19.699C52.4201 20.9003 51.4847 22.3646 50.9097 23.981C50.5061 25.0814 50.2804 26.2391 50.2412 27.4105L49.5231 45.2391C49.5527 45.4278 49.5527 45.6199 49.5231 45.8086C49.4679 45.9638 49.3974 46.1131 49.3126 46.2543L45.2888 52.2343L41.2154 58.1896C41.0005 58.5014 40.7053 58.7495 40.3612 58.9077L24.0678 66.1505C21.9771 67.096 20.2236 68.6554 19.0405 70.6215C17.8573 72.5875 17.3005 74.8671 17.444 77.1572L19.9202 114.746C20.0337 116.455 20.537 118.115 21.3917 119.6C22.2464 121.084 23.4297 122.353 24.8509 123.309C26.2721 124.266 27.8933 124.884 29.5904 125.116C31.2874 125.349 33.0152 125.189 34.6412 124.651L70.4221 112.851C72.5971 112.125 74.4998 110.754 75.8774 108.921C77.2551 107.088 78.0426 104.879 78.1354 102.588L78.8412 84.8086C78.8601 84.433 78.9798 84.0695 79.1878 83.7562L83.1497 77.9991C83.1497 77.9991 83.1497 77.9991 83.224 77.9248L87.2478 71.9448C87.4628 71.6329 87.7579 71.3848 88.1021 71.2267L104.309 63.8848C106.945 62.6969 109.021 60.5368 110.103 57.8553C110.792 56.2436 111.085 54.4902 110.957 52.7419ZM78.2097 83.0753C77.8714 83.5786 77.6786 84.1656 77.6526 84.7715L76.9469 102.551C76.8678 104.59 76.169 106.557 74.9436 108.19C73.7182 109.822 72.0243 111.042 70.0878 111.688L34.3069 123.487C32.8599 123.964 31.323 124.104 29.8136 123.896C28.3042 123.688 26.8623 123.138 25.5982 122.287C24.3341 121.437 23.2814 120.308 22.5204 118.988C21.7595 117.668 21.3105 116.192 21.2078 114.671L18.7316 77.0829C18.598 75.0443 19.0909 73.0136 20.1443 71.2631C21.1976 69.5126 22.7611 68.1261 24.625 67.2896L40.8564 59.9972C41.4129 59.749 41.8889 59.3502 42.2307 58.8458L45.8088 53.46L81.8373 77.6896L78.2097 83.0753ZM108.952 57.3353C107.971 59.6809 106.14 61.5693 103.826 62.6219L87.6316 69.9638C87.0752 70.2121 86.5992 70.6109 86.2573 71.1153L82.5431 76.5753L46.6383 52.3705L50.2412 47.0467C50.4239 46.7911 50.562 46.5065 50.6497 46.2048C50.7601 45.8984 50.8227 45.5769 50.8354 45.2515L51.4669 27.4105C51.5406 25.3867 52.2328 23.4342 53.4504 21.8159C54.6679 20.1977 56.3523 18.9915 58.2764 18.36L94.0945 6.49908C95.5424 6.02155 97.0804 5.88169 98.5906 6.09023C100.101 6.29877 101.543 6.85016 102.808 7.7022C104.072 8.55423 105.125 9.6843 105.885 11.0059C106.645 12.3274 107.093 13.8054 107.194 15.3267L109.67 52.9153C109.771 54.4241 109.525 55.9361 108.952 57.3353Z" fill="#333333"/>
<path d="M45.8083 53.4609L42.1931 58.8466C41.8512 59.3511 41.3752 59.7499 40.8188 59.9981L24.575 67.2905C22.7111 68.127 21.1476 69.5135 20.0942 71.264C19.0409 73.0145 18.548 75.0452 18.6816 77.0838L21.1578 114.672C21.2605 116.193 21.7094 117.669 22.4704 118.989C23.2313 120.309 24.2841 121.438 25.5482 122.288C26.8123 123.139 28.2541 123.689 29.7635 123.897C31.273 124.105 32.8099 123.965 34.2569 123.488L70.0378 111.689C71.9743 111.043 73.6682 109.823 74.8936 108.191C76.119 106.558 76.8178 104.591 76.8969 102.551L77.6026 84.7724C77.6286 84.1665 77.8214 83.5795 78.1597 83.0762L81.7873 77.6905L45.8083 53.4609ZM67.6483 98.5276C67.6197 99.7406 67.2198 100.916 66.5025 101.894C65.7852 102.873 64.785 103.608 63.6369 104L37.8597 112.444C37.0036 112.727 36.0939 112.809 35.2008 112.685C34.3077 112.56 33.4552 112.232 32.7092 111.726C31.9547 111.225 31.3262 110.557 30.873 109.773C30.4198 108.989 30.1541 108.11 30.0969 107.207L28.2769 80.1419C28.1921 78.9246 28.4826 77.7106 29.1091 76.6635C29.7356 75.6164 30.668 74.7865 31.7807 74.2857L38.6645 71.2028C39.1723 70.9746 39.7299 70.8798 40.2846 70.9274C40.8393 70.9751 41.3726 71.1636 41.834 71.4752L66.5959 88.1152C67.0575 88.4229 67.432 88.8442 67.6836 89.3386C67.9351 89.833 68.0551 90.3838 68.0321 90.9381L67.6483 98.5276Z" fill="#FFA950"/>
<path d="M66.534 88.1647L41.7721 71.5247C41.3107 71.2131 40.7774 71.0245 40.2227 70.9768C39.668 70.9292 39.1104 71.024 38.6026 71.2523L31.7807 74.2856C30.6763 74.7835 29.7496 75.6056 29.1238 76.6428C28.4979 77.68 28.2025 78.8832 28.2769 80.0923L30.0969 107.157C30.2029 108.654 30.8702 110.056 31.9651 111.082C33.0601 112.108 34.502 112.683 36.0026 112.691C36.6335 112.691 37.2604 112.591 37.8597 112.394L63.6369 104C64.7865 103.619 65.7919 102.895 66.5179 101.925C67.2439 100.956 67.6557 99.7875 67.6978 98.577L67.9702 91.037C68.002 90.4746 67.8861 89.9137 67.6342 89.4098C67.3823 88.906 67.003 88.4767 66.534 88.1647ZM66.4597 98.478C66.4237 99.4333 66.0976 100.355 65.5247 101.12C64.9519 101.885 64.1595 102.458 63.2531 102.762L37.4759 111.268C36.7945 111.499 36.069 111.57 35.3555 111.476C34.642 111.382 33.9596 111.126 33.3612 110.726C32.7628 110.326 32.2644 109.794 31.9044 109.171C31.5445 108.548 31.3327 107.85 31.2855 107.132L29.515 80.0551C29.4676 79.11 29.7055 78.1725 30.1979 77.3644C30.6903 76.5563 31.4143 75.9149 32.2759 75.5237L39.1721 72.4408C39.4881 72.3008 39.8345 72.2433 40.1788 72.2736C40.523 72.3039 40.854 72.4211 41.1407 72.6142L65.8407 89.1427C66.1262 89.3332 66.3581 89.5936 66.5142 89.8993C66.6703 90.2049 66.7453 90.5455 66.7321 90.8885L66.4597 98.478Z" fill="#333333"/>
</svg>
