<svg width="130" height="130" viewBox="0 0 130 130" fill="none" xmlns="http://www.w3.org/2000/svg">
<path d="M101.859 63.3516C101.735 63.0916 101.599 62.8068 101.438 62.4973C100.039 58.1887 98.3301 49.7697 104.483 44.9287L104.892 44.5945L105.325 44.2973L105.449 44.223C106.864 43.0751 107.891 41.5189 108.39 39.7664C108.889 38.0138 108.836 36.1501 108.238 34.4288C107.64 32.7075 106.526 31.2124 105.048 30.147C103.57 29.0815 101.799 28.4975 99.9768 28.4745C95.4949 28.4745 93.6749 27.1373 92.3872 22.6059C92.3872 22.3583 92.3872 22.1106 92.313 21.8754V21.7392C91.6678 18.0785 89.6201 14.8137 86.6053 12.6392L73.9025 3.36588C71.4518 1.57961 68.4974 0.617188 65.4649 0.617188C62.4323 0.617188 59.4779 1.57961 57.0272 3.36588L44.3368 12.5897C41.5053 14.6296 39.5224 17.6392 38.7653 21.0459L38.691 21.3802H38.5549C37.2549 26.8525 35.4844 28.4745 30.6682 28.4745C28.8236 28.4731 27.0246 29.0479 25.5227 30.1188C24.0207 31.1896 22.8907 32.7028 22.2907 34.4471C21.6906 36.1914 21.6504 38.0795 22.1757 39.8477C22.701 41.616 23.7655 43.1759 25.2206 44.3097L25.3568 44.3964C25.5301 44.5078 25.691 44.6316 25.8644 44.7678C31.8444 49.2002 30.4577 57.3716 28.2539 63.463H28.3653C23.5765 73.6331 21.127 84.7469 21.1968 95.9878C21.1968 98.7735 22.1006 102.178 24.0691 103.503C24.5338 103.818 25.0715 104.008 25.6308 104.056C26.19 104.104 26.7522 104.007 27.2634 103.775C36.2891 100.185 43.2472 101.299 50.6263 102.537C55.3063 104.32 54.873 106.512 54.0806 110.486C53.508 112.855 53.2787 115.294 53.3996 117.729C53.3996 120.806 54.6219 123.756 56.7975 125.932C58.9731 128.107 61.9238 129.33 65.0006 129.33C68.0773 129.33 71.0281 128.107 73.2037 125.932C75.3793 123.756 76.6015 120.806 76.6015 117.729C76.725 115.341 76.5335 112.947 76.032 110.61C75.3139 106.561 74.9177 104.32 79.672 102.513C86.9891 101.274 93.9101 100.036 103.01 103.751C103.454 103.935 103.929 104.032 104.409 104.035C105.05 104.038 105.677 103.843 106.204 103.478C108.173 102.154 109.064 98.7487 109.077 95.963C109.139 84.6896 106.673 73.5456 101.859 63.3516ZM92.3872 25.8992C93.873 28.6354 96.1015 29.6135 99.9768 29.6135C101.564 29.6085 103.114 30.0989 104.409 31.0165C105.705 31.9341 106.682 33.2331 107.204 34.7323C107.726 36.2316 107.767 37.8563 107.321 39.38C106.876 40.9038 105.966 42.2505 104.719 43.2325L104.261 43.5545L103.976 43.7402C99.8406 46.8602 98.1939 51.9983 99.172 58.263C95.9158 52.5926 90.9634 44.9783 87.5091 41.9449L91.8549 28.5735C92.1161 27.7008 92.2943 26.8054 92.3872 25.8992ZM26.5949 43.7154C26.4053 43.5747 26.2068 43.4465 26.0006 43.3316H25.9139C24.6674 42.3502 23.758 41.0046 23.3122 39.4821C22.8665 37.9595 22.9066 36.3359 23.4271 34.8372C23.9475 33.3386 24.9223 32.0395 26.2158 31.121C27.5093 30.2024 29.057 29.7101 30.6434 29.7125C34.6672 29.7125 36.9701 28.5859 38.4682 25.4906C38.556 26.5709 38.7636 27.6381 39.0872 28.6725L43.3339 41.5735C39.6196 44.7059 34.2215 52.9764 30.8663 58.8078C32.2653 51.9983 30.8291 46.8602 26.5949 43.7154ZM74.8063 110.907C75.2941 113.146 75.4815 115.44 75.3634 117.729C75.3634 119.09 75.0954 120.437 74.5746 121.694C74.0538 122.952 73.2905 124.094 72.3282 125.056C71.3659 126.019 70.2235 126.782 68.9663 127.303C67.709 127.824 66.3614 128.092 65.0006 128.092C63.6397 128.092 62.2922 127.824 61.0349 127.303C59.7776 126.782 58.6352 126.019 57.6729 125.056C56.7106 124.094 55.9473 122.952 55.4265 121.694C54.9058 120.437 54.6377 119.09 54.6377 117.729C54.5233 115.39 54.7443 113.047 55.2939 110.771C55.8634 107.898 56.3463 105.459 54.5139 103.515L54.7739 103.59C58.0793 104.658 61.5397 105.169 65.013 105.1C68.5738 105.104 72.1156 104.582 75.5244 103.553L75.8463 103.466C73.8406 105.447 74.2863 107.96 74.8063 110.907ZM105.511 102.463C105.213 102.664 104.868 102.784 104.509 102.81C104.151 102.836 103.792 102.768 103.468 102.612C94.0215 98.8973 86.5806 100.135 79.3996 101.374C77.9672 101.627 76.5496 101.958 75.153 102.364C71.8637 103.353 68.4478 103.858 65.013 103.862C61.6535 103.923 58.3069 103.43 55.1082 102.401C53.7238 101.971 52.3137 101.627 50.8863 101.374C43.3339 100.135 36.1901 98.8973 26.8177 102.612C26.4917 102.767 26.1308 102.836 25.7704 102.81C25.41 102.784 25.0626 102.664 24.7625 102.463C23.252 101.448 22.4596 98.4268 22.4472 95.963C22.3817 84.8752 24.8017 73.9137 29.5291 63.884C31.4977 59.7735 39.6939 45.9687 44.3863 42.2792L44.733 42.0068L40.3006 28.2392C39.6108 26.1303 39.4702 23.8804 39.892 21.7021L39.9663 21.3925C40.6509 18.261 42.4673 15.4923 45.0672 13.6173L57.7577 4.36874C59.9949 2.73378 62.694 1.8526 65.4649 1.8526C68.2358 1.8526 70.9349 2.73378 73.172 4.36874L85.8625 13.6173C88.5935 15.5789 90.461 18.5199 91.0749 21.8259V21.9497H90.9387L91.1615 22.7792C91.3631 24.6083 91.1818 26.4593 90.6291 28.2145L86.0234 42.403L86.3577 42.663C90.5796 46.0925 97.6863 57.8792 100.286 63.0173C100.385 63.2897 100.46 63.5621 100.559 63.8345H100.67V63.9335C105.42 73.9412 107.87 84.8853 107.839 95.963C107.826 98.4268 107.034 101.448 105.511 102.463Z" fill="#333333"/>
<path d="M75.7966 103.465L75.4747 103.552C72.0818 104.576 68.557 105.098 65.0128 105.099C61.5395 105.168 58.0791 104.657 54.7737 103.589L54.4766 103.514C56.3089 105.458 55.8261 107.897 55.2566 110.77C54.707 113.046 54.486 115.389 54.6004 117.728C54.6004 120.476 55.6922 123.112 57.6356 125.055C59.579 126.999 62.2148 128.091 64.9632 128.091C67.7116 128.091 70.3475 126.999 72.2909 125.055C74.2343 123.112 75.3261 120.476 75.3261 117.728C75.4441 115.439 75.2568 113.145 74.7689 110.906C74.2861 107.959 73.8404 105.446 75.7966 103.465ZM65.0004 123.881C63.7907 123.881 62.6082 123.522 61.6024 122.85C60.5966 122.178 59.8127 121.223 59.3497 120.105C58.8868 118.988 58.7657 117.758 59.0017 116.572C59.2377 115.385 59.8202 114.295 60.6756 113.44C61.5309 112.585 62.6207 112.002 63.8072 111.766C64.9936 111.53 66.2234 111.651 67.3409 112.114C68.4585 112.577 69.4137 113.361 70.0858 114.367C70.7579 115.373 71.1166 116.555 71.1166 117.765C71.1166 119.387 70.4722 120.943 69.3252 122.09C68.1782 123.237 66.6225 123.881 65.0004 123.881Z" fill="#FFA950"/>
<path d="M39.1135 28.6233C38.7898 27.5889 38.5822 26.5217 38.4944 25.4414C36.9963 28.5366 34.6687 29.7128 30.6697 29.7128C29.0832 29.7104 27.5355 30.2027 26.2421 31.1213C24.9486 32.0398 23.9738 33.3389 23.4533 34.8375C22.9329 36.3362 22.8927 37.9598 23.3385 39.4824C23.7842 41.0049 24.6937 42.3505 25.9402 43.3319H26.0021C26.2005 43.4557 26.3907 43.5921 26.5716 43.7405C30.8306 46.8605 32.2668 51.9986 30.8678 58.8081C34.223 52.9766 39.6211 44.7062 43.3354 41.5738L39.1135 28.6233ZM30.6697 42.0195C29.7313 42.0195 28.814 41.7411 28.0339 41.2195C27.2539 40.6979 26.6461 39.9566 26.2876 39.0894C25.929 38.2222 25.8358 37.2681 26.0198 36.3479C26.2038 35.4278 26.6566 34.5829 27.321 33.9202C27.9855 33.2575 28.8315 32.8069 29.7522 32.6253C30.6728 32.4437 31.6267 32.5394 32.4929 32.9002C33.3592 33.261 34.0989 33.8707 34.6185 34.6522C35.138 35.4336 35.414 36.3516 35.4116 37.29C35.4116 37.9121 35.2888 38.5281 35.0504 39.1028C34.8119 39.6774 34.4625 40.1993 34.022 40.6386C33.5815 41.078 33.0586 41.4261 32.4834 41.663C31.9081 41.9 31.2918 42.0211 30.6697 42.0195Z" fill="#FFA950"/>
<path d="M99.9774 29.7143C96.1269 29.7143 93.8736 28.6867 92.3879 26C92.2852 26.9199 92.0945 27.8279 91.8184 28.7114L87.4727 42.0829C90.9269 45.1162 95.8793 52.7305 99.1355 58.401C98.1574 52.1362 99.8041 46.9981 103.939 43.8781L104.224 43.6924L104.682 43.3705C105.93 42.3885 106.839 41.0417 107.285 39.518C107.73 37.9942 107.689 36.3695 107.167 34.8703C106.645 33.371 105.668 32.0721 104.373 31.1545C103.077 30.2369 101.528 29.7464 99.9403 29.7514L99.9774 29.7143ZM99.9774 42.0952C99.0385 42.0977 98.12 41.8213 97.3383 41.3012C96.5566 40.7811 95.9469 40.0407 95.5865 39.1737C95.226 38.3067 95.1311 37.3523 95.3137 36.4313C95.4962 35.5103 95.9481 34.6642 96.612 34.0003C97.2759 33.3364 98.122 32.8845 99.043 32.702C99.964 32.5194 100.918 32.6143 101.785 32.9748C102.652 33.3352 103.393 33.9449 103.913 34.7266C104.433 35.5083 104.709 36.4268 104.707 37.3657C104.684 38.6061 104.176 39.7883 103.292 40.6585C102.408 41.5288 101.218 42.0179 99.9774 42.021V42.0952Z" fill="#FFA950"/>
<path d="M80.1431 18.0635L72.2811 12.3807C70.2596 11.0494 67.8922 10.3398 65.4716 10.3398C63.0511 10.3398 60.6836 11.0494 58.6621 12.3807L50.763 18.0635C49.2485 19.1624 48.1212 20.7129 47.5428 22.4924C46.9645 24.272 46.9649 26.189 47.544 27.9683L49.9211 35.2854C50.1813 36.0991 50.5171 36.8867 50.924 37.6378C52.1456 39.9313 53.9691 41.8485 56.1985 43.1835C58.4278 44.5185 60.9788 45.2208 63.5773 45.215H67.2916C69.8418 45.2192 72.3468 44.542 74.5475 43.2533C76.7482 41.9647 78.5646 40.1115 79.8088 37.8854C80.2788 37.0656 80.6606 36.1982 80.9478 35.2978L83.3373 27.9683C83.9151 26.1912 83.9174 24.2771 83.3439 22.4987C82.7703 20.7203 81.6502 19.1682 80.1431 18.0635ZM82.1735 27.5969L79.784 34.9264C79.5214 35.747 79.1771 36.5392 78.7564 37.2911C77.6167 39.3234 75.956 41.0152 73.9453 42.1925C71.9345 43.3698 69.6464 43.99 67.3164 43.9892H63.6021C61.2218 43.9997 58.8838 43.3608 56.8396 42.1413C54.7954 40.9218 53.1226 39.1679 52.0011 37.0683C51.6344 36.3837 51.3318 35.6667 51.0973 34.9264L48.7078 27.5969C48.2063 26.0657 48.2034 24.415 48.6995 22.8821C49.1957 21.3493 50.1652 20.0133 51.4688 19.0664L59.4297 13.3711C61.2399 12.1911 63.3541 11.5628 65.5149 11.5628C67.6758 11.5628 69.79 12.1911 71.6002 13.3711L79.4621 19.0664C80.7569 20.0198 81.7166 21.3587 82.2036 22.8911C82.6907 24.4235 82.6802 26.0708 82.1735 27.5969Z" fill="#333333"/>
<path d="M30.6677 32.5469C29.7298 32.5469 28.813 32.825 28.0332 33.346C27.2534 33.8671 26.6456 34.6077 26.2867 35.4741C25.9278 36.3406 25.8339 37.2941 26.0169 38.2139C26.1999 39.1337 26.6515 39.9787 27.3147 40.6418C27.9778 41.305 28.8228 41.7566 29.7426 41.9396C30.6624 42.1226 31.6159 42.0286 32.4823 41.6697C33.3488 41.3108 34.0894 40.7031 34.6104 39.9233C35.1315 39.1435 35.4096 38.2267 35.4096 37.2888C35.4112 36.6656 35.2897 36.0483 35.052 35.4722C34.8142 34.8962 34.465 34.3728 34.0244 33.9321C33.5837 33.4915 33.0603 33.1422 32.4843 32.9045C31.9082 32.6668 31.2909 32.5453 30.6677 32.5469ZM30.6677 40.7802C29.9742 40.7802 29.2963 40.5744 28.7198 40.1889C28.1433 39.8033 27.6943 39.2553 27.4294 38.6144C27.1646 37.9734 27.0959 37.2683 27.2321 36.5883C27.3683 35.9083 27.7033 35.284 28.1945 34.7945C28.6858 34.3049 29.3113 33.9722 29.9918 33.8384C30.6722 33.7046 31.3771 33.7758 32.0171 34.0429C32.6572 34.31 33.2035 34.761 33.587 35.3388C33.9705 35.9166 34.174 36.5953 34.1715 37.2888C34.1715 37.7483 34.0808 38.2034 33.9046 38.6278C33.7283 39.0522 33.47 39.4376 33.1445 39.762C32.819 40.0864 32.4326 40.3433 32.0076 40.518C31.5826 40.6927 31.1272 40.7819 30.6677 40.7802Z" fill="#333333"/>
<path d="M99.9769 32.5469C99.0386 32.5444 98.1205 32.8205 97.3391 33.34C96.5577 33.8596 95.948 34.5993 95.5872 35.4656C95.2264 36.3318 95.1307 37.2856 95.3123 38.2063C95.4938 39.1269 95.9445 39.973 96.6072 40.6374C97.2698 41.3018 98.1147 41.7547 99.0349 41.9387C99.9551 42.1226 100.909 42.0295 101.776 41.6709C102.644 41.3124 103.385 40.7046 103.906 39.9245C104.428 39.1445 104.706 38.2272 104.706 37.2888C104.706 36.0333 104.209 34.8291 103.322 33.9401C102.435 33.0512 101.232 32.5502 99.9769 32.5469ZM99.9769 40.7802C99.2829 40.7827 98.6038 40.5789 98.0257 40.1949C97.4476 39.8108 96.9966 39.2637 96.7299 38.623C96.4631 37.9823 96.3927 37.2767 96.5275 36.5959C96.6623 35.9151 96.9963 35.2896 97.487 34.7989C97.9778 34.3081 98.6032 33.9742 99.2841 33.8394C99.9649 33.7045 100.67 33.775 101.311 34.0417C101.952 34.3084 102.499 34.7594 102.883 35.3375C103.267 35.9156 103.471 36.5948 103.468 37.2888C103.465 38.2138 103.096 39.0999 102.442 39.754C101.788 40.4081 100.902 40.777 99.9769 40.7802Z" fill="#333333"/>
<path d="M64.999 111.66C63.7888 111.66 62.6058 112.019 61.5997 112.692C60.5937 113.364 59.8097 114.32 59.3472 115.439C58.8846 116.557 58.7642 117.787 59.0012 118.974C59.2382 120.161 59.822 121.251 60.6786 122.106C61.5352 122.96 62.6261 123.542 63.8134 123.777C65.0006 124.011 66.2308 123.888 67.3481 123.423C68.4655 122.959 69.4199 122.173 70.0904 121.165C70.761 120.158 71.1176 118.974 71.1152 117.764C71.1119 116.144 70.4661 114.591 69.3194 113.447C68.1728 112.303 66.619 111.66 64.999 111.66ZM64.999 122.642C64.0342 122.642 63.0911 122.356 62.2889 121.82C61.4867 121.284 60.8614 120.522 60.4922 119.631C60.123 118.739 60.0264 117.759 60.2146 116.812C60.4029 115.866 60.8674 114.997 61.5497 114.315C62.2319 113.632 63.1011 113.168 64.0473 112.98C64.9936 112.791 65.9744 112.888 66.8658 113.257C67.7571 113.626 68.519 114.252 69.055 115.054C69.591 115.856 69.8771 116.799 69.8771 117.764C69.8738 119.057 69.3588 120.296 68.4447 121.21C67.5306 122.124 66.2917 122.639 64.999 122.642Z" fill="#333333"/>
<path d="M64.8767 59.625C61.3604 59.625 57.923 60.6677 54.9992 62.6213C52.0755 64.5749 49.7967 67.3516 48.451 70.6003C47.1054 73.849 46.7533 77.4238 47.4393 80.8726C48.1253 84.3214 49.8186 87.4893 52.305 89.9757C54.7915 92.4622 57.9594 94.1555 61.4082 94.8415C64.857 95.5275 68.4318 95.1754 71.6805 93.8297C74.9292 92.4841 77.7059 90.2053 79.6595 87.2816C81.613 84.3578 82.6558 80.9204 82.6558 77.404C82.6525 72.6898 80.7783 68.1695 77.4448 64.836C74.1113 61.5025 69.591 59.6283 64.8767 59.625ZM64.8767 93.945C61.6052 93.945 58.4072 92.9749 55.6871 91.1573C52.9669 89.3398 50.8468 86.7565 49.5949 83.734C48.3429 80.7115 48.0154 77.3857 48.6536 74.1771C49.2918 70.9684 50.8672 68.0211 53.1805 65.7078C55.4938 63.3945 58.4411 61.8192 61.6497 61.1809C64.8584 60.5427 68.1842 60.8703 71.2067 62.1222C74.2291 63.3741 76.8125 65.4942 78.63 68.2144C80.4476 70.9345 81.4177 74.1326 81.4177 77.404C81.4144 81.79 79.6706 85.9953 76.5693 89.0966C73.468 92.198 69.2626 93.9417 64.8767 93.945Z" fill="#333333"/>
<path d="M64.8769 60.8633C61.6054 60.8633 58.4074 61.8334 55.6872 63.6509C52.9671 65.4685 50.847 68.0518 49.5951 71.0743C48.3431 74.0967 48.0155 77.4226 48.6538 80.6312C49.292 83.8398 50.8674 86.7872 53.1807 89.1005C55.494 91.4137 58.4413 92.9891 61.6499 93.6274C64.8586 94.2656 68.1844 93.938 71.2068 92.6861C74.2293 91.4341 76.8127 89.314 78.6302 86.5939C80.4477 83.8738 81.4179 80.6757 81.4179 77.4042C81.4146 73.0183 79.6708 68.813 76.5695 65.7116C73.4682 62.6103 69.2628 60.8666 64.8769 60.8633ZM65.1369 86.6652C63.3004 86.6652 61.5051 86.1206 59.978 85.1003C58.451 84.0799 57.2608 82.6297 56.558 80.933C55.8552 79.2362 55.6713 77.3692 56.0296 75.5679C56.3879 73.7667 57.2723 72.1121 58.5709 70.8135C59.8695 69.5148 61.5241 68.6305 63.3253 68.2722C65.1266 67.9139 66.9936 68.0978 68.6904 68.8006C70.3871 69.5034 71.8374 70.6936 72.8577 72.2206C73.878 73.7476 74.4226 75.5429 74.4226 77.3795C74.4226 79.8422 73.4443 82.2041 71.7029 83.9455C69.9615 85.6869 67.5996 86.6652 65.1369 86.6652Z" fill="#FFA950"/>
<path d="M42.3695 60.4437C38.0829 64.0469 35.3287 69.1467 34.6665 74.7071C34.0042 80.2676 35.4834 85.8716 38.8038 90.3808C39.0142 90.677 39.2928 90.9182 39.616 91.0841C39.9392 91.25 40.2976 91.3358 40.6609 91.3342C41.0932 91.3376 41.5192 91.2311 41.899 91.0246C42.4081 90.7634 42.8017 90.322 43.0031 89.7864C43.2045 89.2508 43.1993 88.6595 42.9885 88.1275C39.6209 79.5723 40.2028 70.8685 44.6723 62.2513C44.8346 61.9517 44.8852 61.6042 44.8149 61.2708C44.7445 60.9374 44.558 60.6398 44.2885 60.4313C44.0178 60.2084 43.6774 60.0876 43.3267 60.0899C42.9761 60.0921 42.6373 60.2173 42.3695 60.4437ZM41.2799 89.9846C41.0411 90.1414 40.7503 90.1981 40.4701 90.1425C40.1899 90.0869 39.9428 89.9235 39.7819 89.6875C36.6327 85.4239 35.2278 80.12 35.8535 74.8565C36.4792 69.5931 39.0885 64.7663 43.1495 61.3599C43.1736 61.3353 43.2025 61.3159 43.2345 61.3032C43.2665 61.2904 43.3008 61.2844 43.3352 61.2856C43.4133 61.289 43.4878 61.3196 43.5457 61.3723C43.5979 61.4054 43.6349 61.4577 43.6488 61.518C43.6627 61.5782 43.6523 61.6415 43.6199 61.6942C38.9647 70.6332 38.3828 79.6713 41.8247 88.5732C41.9344 88.8332 41.9389 89.1256 41.8372 89.3889C41.7356 89.6522 41.5359 89.8657 41.2799 89.9846Z" fill="#333333"/>
<path d="M87.906 60.4414C87.6367 60.2168 87.2971 60.0938 86.9465 60.0938C86.5958 60.0938 86.2562 60.2168 85.9869 60.4414C85.7175 60.6499 85.5309 60.9474 85.4606 61.2808C85.3903 61.6142 85.4408 61.9618 85.6031 62.2614C90.0727 70.928 90.6546 79.5947 87.3241 88.1499C87.1133 88.6819 87.1081 89.2733 87.3095 89.8089C87.5109 90.3444 87.9045 90.7858 88.4136 91.0471C88.7934 91.2535 89.2194 91.36 89.6517 91.3566C90.015 91.3582 90.3734 91.2725 90.6966 91.1066C91.0198 90.9406 91.2984 90.6994 91.5088 90.4033C94.8322 85.8878 96.3096 80.2754 95.6403 74.7089C94.9709 69.1424 92.2051 64.0402 87.906 60.4414ZM88.4508 88.5709C91.905 79.669 91.3107 70.6309 86.6679 61.6918C86.6355 61.6392 86.6251 61.5759 86.639 61.5157C86.6529 61.4554 86.69 61.4031 86.7422 61.3699C86.8 61.3173 86.8745 61.2866 86.9527 61.2833C87.018 61.2842 87.0803 61.3109 87.126 61.3576C91.187 64.764 93.7962 69.5907 94.422 74.8542C95.0477 80.1176 93.6428 85.4216 90.4936 89.6852C90.303 89.8532 90.0653 89.9585 89.8127 89.9868C89.5602 90.0151 89.3051 89.965 89.082 89.8434C88.8589 89.7217 88.6787 89.5343 88.5657 89.3067C88.4528 89.079 88.4127 88.8221 88.4508 88.5709Z" fill="#333333"/>
<path d="M65.1373 68.0938C63.3007 68.0938 61.5054 68.6383 59.9784 69.6587C58.4514 70.679 57.2612 72.1292 56.5584 73.826C55.8556 75.5227 55.6717 77.3898 56.03 79.191C56.3883 80.9923 57.2727 82.6468 58.5713 83.9455C59.8699 85.2441 61.5245 86.1285 63.3257 86.4868C65.127 86.845 66.994 86.6612 68.6908 85.9584C70.3875 85.2555 71.8377 84.0654 72.8581 82.5383C73.8784 81.0113 74.423 79.216 74.423 77.3795C74.4197 74.9177 73.4404 72.5578 71.6997 70.8171C69.959 69.0764 67.599 68.097 65.1373 68.0938ZM65.1373 85.4271C63.5456 85.4271 61.9897 84.9551 60.6663 84.0708C59.3428 83.1865 58.3114 81.9297 57.7022 80.4592C57.0931 78.9886 56.9338 77.3705 57.2443 75.8095C57.5548 74.2484 58.3213 72.8144 59.4468 71.6889C60.5722 70.5635 62.0062 69.797 63.5673 69.4865C65.1284 69.176 66.7465 69.3353 68.217 69.9444C69.6875 70.5535 70.9443 71.585 71.8286 72.9084C72.7129 74.2319 73.1849 75.7878 73.1849 77.3795C73.1816 79.5128 72.3327 81.5579 70.8242 83.0664C69.3157 84.5749 67.2706 85.4238 65.1373 85.4271Z" fill="#333333"/>
</svg>
