<svg width="130" height="130" viewBox="0 0 130 130" fill="none" xmlns="http://www.w3.org/2000/svg">
<path d="M104.643 30.149L103.244 27.3385L105.076 25.1347C105.185 25.0217 105.246 24.8708 105.246 24.7138C105.246 24.5568 105.185 24.4059 105.076 24.2928L84.7218 5.05281C84.0243 4.39758 83.1725 3.92913 82.2456 3.69091L74.557 1.77186C74.4062 1.73617 74.2475 1.75834 74.1123 1.83399C73.9771 1.90964 73.8751 2.03326 73.8266 2.18043L73.5294 3.05948L71.4247 2.31662C68.4225 1.22958 65.2575 0.660216 62.0647 0.632812C58.7094 0.830908 51.1075 1.75948 47.8761 3.109C46.0179 3.8588 44.3694 5.04841 43.0723 6.57567C42.9954 6.67521 42.952 6.79659 42.9485 6.92234L42.7751 11.8747H39.7418C39.5797 11.8747 39.4241 11.9382 39.3084 12.0516C39.1926 12.1651 39.126 12.3194 39.1228 12.4814L37.9961 51.63C37.9969 51.7948 38.0587 51.9536 38.1694 52.0757C38.2875 52.1942 38.4478 52.261 38.6151 52.2614H41.7104C43.9691 54.5329 45.4104 57.4895 45.8085 60.6681C46.2294 63.6147 45.8085 69.669 45.3628 76.6642C44.6075 87.8071 43.679 101.649 45.8332 108.855C46.9438 111.766 48.5806 114.448 50.6618 116.766L50.3523 117.336C50.3044 117.427 50.279 117.529 50.278 117.633C50.5003 119.787 51.3097 121.838 52.618 123.563C53.9618 125.402 55.6423 126.969 57.5704 128.181C58.8137 128.996 60.269 129.426 61.7551 129.419H67.9456C70.129 129.418 72.2289 128.581 73.8142 127.079L74.879 126.052L75.0151 125.916C78.76 122.557 82.1082 118.781 84.9942 114.661C89.3399 108.038 95.617 93.2671 98.477 85.43C103.541 72.1823 105.831 59.8014 106.351 42.6414V37.3919C106.346 34.8783 105.762 32.3998 104.643 30.149ZM74.817 3.12138L81.9608 4.95376C82.6738 5.14102 83.3291 5.50267 83.8675 6.00615L103.764 24.7633L102.043 26.8309L98.9847 30.5452L97.6228 29.1957L94.1932 25.7538C94.4779 24.9956 94.605 24.1874 94.5667 23.3784C94.5284 22.5695 94.3255 21.7769 93.9704 21.049C90.7266 15.2795 81.7132 8.19757 74.0742 5.34996L74.817 3.12138ZM39.2589 50.9738L40.3361 13.0633H49.7951C50.2037 13.0633 50.6123 13.0633 51.0332 13.1623C51.9453 13.2205 52.8247 13.5238 53.5787 14.0403C54.3327 14.5568 54.9333 15.2672 55.317 16.0966C55.6141 16.7396 55.8104 17.4244 55.899 18.1271V27.7719C53.658 29.01 53.658 30.4833 53.658 32.6252V41.5519C53.602 42.9456 53.2663 44.3138 52.6707 45.5751C52.0752 46.8364 51.232 47.965 50.1913 48.8938C48.699 50.2809 46.7316 51.0431 44.6942 51.0233L39.2589 50.9738ZM66.5837 21.2595C66.772 21.3875 66.9708 21.4993 67.178 21.5938L67.3761 21.6681C67.537 21.7306 67.7026 21.7803 67.8713 21.8166H68.0694H68.1809V28.4776C68.1835 28.9412 68.072 29.3983 67.856 29.8086C67.6401 30.2189 67.3264 30.5697 66.9428 30.83L54.9332 38.4938V32.5757C54.9332 30.3471 54.9332 29.6042 56.8399 28.6509C56.94 28.596 57.0237 28.5155 57.0825 28.4176C57.1412 28.3197 57.1729 28.2079 57.1742 28.0938V23.7357L65.0113 19.0433C65.0539 19.2077 65.1077 19.3691 65.1723 19.5261C65.2571 19.7395 65.3651 19.9429 65.4942 20.1328C65.5284 20.1916 65.57 20.2456 65.618 20.2938C65.7146 20.4341 65.8223 20.5666 65.9399 20.69L66.0761 20.8385C66.2285 21.0163 66.3986 21.1781 66.5837 21.3214V21.2595ZM66.0761 17.9661C66.0761 17.425 66.2366 16.896 66.5372 16.446C66.8379 15.996 67.2652 15.6453 67.7652 15.4382C68.2652 15.2311 68.8153 15.177 69.3461 15.2825C69.8769 15.3881 70.3644 15.6487 70.7471 16.0314C71.1297 16.414 71.3903 16.9016 71.4959 17.4323C71.6015 17.9631 71.5473 18.5133 71.3402 19.0132C71.1331 19.5132 70.7824 19.9405 70.3324 20.2412C69.8825 20.5419 69.3535 20.7023 68.8123 20.7023C68.0972 20.7025 67.4105 20.4228 66.8991 19.9229C66.3877 19.4231 66.0923 18.743 66.0761 18.0281V17.9661ZM56.1713 14.9452C55.9761 14.5952 55.7436 14.2672 55.478 13.9671L55.3418 13.8185C55.0574 13.5178 54.742 13.2481 54.4009 13.0138C54.0381 12.7807 53.6522 12.5857 53.2494 12.4319L53.0513 12.3823C52.6223 12.2205 52.1786 12.1002 51.7266 12.0233C51.6856 12.0161 51.6437 12.0161 51.6028 12.0233C51.5844 11.7925 51.5844 11.5607 51.6028 11.33C51.5912 10.5985 51.7876 9.8788 52.169 9.25459C52.5505 8.63037 53.1014 8.12732 53.7576 7.80394C54.4138 7.48057 55.1483 7.35018 55.8757 7.42793C56.6031 7.50569 57.2935 7.7884 57.8665 8.24317C58.4395 8.69795 58.8716 9.30608 59.1125 9.99682C59.3534 10.6876 59.3932 11.4325 59.2273 12.145C59.0614 12.8575 58.6966 13.5082 58.1753 14.0215C57.654 14.5347 56.9977 14.8894 56.2828 15.0442C56.2461 15.0199 56.203 15.007 56.159 15.0071L56.1713 14.9452ZM47.0466 108.459C44.9542 101.525 45.8828 87.7328 46.6132 76.7633C47.0961 69.6938 47.5047 63.5776 47.0589 60.4947C46.6579 57.4624 45.3945 54.609 43.419 52.2738H44.657C47.0098 52.2942 49.2801 51.4073 50.9961 49.7976C52.1634 48.7632 53.1079 47.5019 53.772 46.0907C54.4361 44.6795 54.8059 43.1478 54.859 41.589V39.9423L67.537 31.8576C68.1094 31.4966 68.5825 30.9983 68.9133 30.4081C69.2441 29.8178 69.4222 29.1542 69.4313 28.4776V21.9404C70.1642 21.8259 70.8502 21.508 71.4112 21.0229C71.9723 20.5377 72.3859 19.9048 72.605 19.1961C72.824 18.4875 72.8398 17.7315 72.6504 17.0144C72.461 16.2972 72.0741 15.6477 71.5337 15.1396C70.9933 14.6315 70.3211 14.2853 69.5937 14.1404C68.8662 13.9955 68.1127 14.0578 67.4189 14.3201C66.725 14.5823 66.1188 15.0341 65.6691 15.624C65.2194 16.2139 64.9443 16.9181 64.8751 17.6566L57.137 22.2871V17.9414C57.0485 17.3591 56.9034 16.7869 56.7037 16.2328C57.6201 15.9882 58.4498 15.4923 59.0993 14.8012C59.7488 14.1101 60.1922 13.2512 60.3795 12.3214C60.5669 11.3917 60.4906 10.4281 60.1594 9.53935C59.8282 8.65063 59.2552 7.87217 58.505 7.2918C57.7549 6.71143 56.8575 6.35225 55.9141 6.25479C54.9707 6.15733 54.0188 6.32547 53.1659 6.74024C52.3129 7.155 51.5929 7.79989 51.087 8.60213C50.5811 9.40436 50.3095 10.332 50.3028 11.2804C50.2905 11.4659 50.2905 11.6521 50.3028 11.8376C50.1294 11.8376 49.9561 11.8376 49.7704 11.8376H44.0132L44.1742 7.19472C45.3294 5.92147 46.7551 4.92308 48.3466 4.27281C51.417 3.03472 58.957 2.069 62.139 1.88329C65.1634 1.91698 68.1605 2.46113 71.0037 3.49281L73.1332 4.24805L72.7123 5.48615C72.6779 5.56231 72.6593 5.64465 72.6576 5.7282C72.6558 5.81174 72.6711 5.89478 72.7023 5.97229C72.7335 6.0498 72.7801 6.12018 72.8393 6.17919C72.8985 6.23821 72.969 6.28463 73.0466 6.31567C80.4751 8.87853 89.7485 16.0966 92.8561 21.6804C93.1403 22.2803 93.2877 22.9357 93.2877 23.5995C93.2877 24.2632 93.1403 24.9187 92.8561 25.5185C92.7743 25.6363 92.7368 25.7793 92.7504 25.9221C92.764 26.0649 92.8278 26.1983 92.9304 26.2985L96.3475 29.7157L94.7504 31.5728L90.1075 37.1442C89.8599 36.81 89.538 36.389 89.1418 35.9061C88.2467 34.7564 87.1313 33.7967 85.8609 33.0833C83.1003 31.7789 80.0523 31.2012 77.0059 31.4048C73.9595 31.6085 71.0156 32.5868 68.4532 34.2471C65.4818 36.389 60.938 42.3195 59.3161 45.6747C55.6018 53.4252 53.9428 71.4519 53.658 74.9804C53.237 80.4776 54.1904 91.4842 55.9361 96.5728C56.7927 99.0224 57.9665 101.349 59.4275 103.494C59.3676 103.513 59.3096 103.538 59.2542 103.568C59.0307 103.631 58.8149 103.718 58.6104 103.828L58.3504 103.964C58.0622 104.124 57.7923 104.315 57.5456 104.534L57.2361 104.819C57.1881 104.867 57.1465 104.921 57.1123 104.979L51.3428 115.54C49.4897 113.462 48.0336 111.062 47.0466 108.459ZM87.5447 58.489C90.2522 63.5393 91.3128 69.3098 90.578 74.9928C89.9713 79.2642 86.0589 88.3642 82.8894 94.8023C81.65 97.4749 80.064 99.9725 78.1723 102.231C76.8734 103.703 75.3221 104.932 73.5913 105.859C72.2264 106.758 70.5768 107.119 68.9609 106.874L68.3294 106.725C68.1341 106.522 67.9086 106.351 67.6609 106.218L62.6218 103.741C62.0739 103.486 61.4803 103.343 60.8761 103.32C59.2605 101.11 57.9874 98.6679 57.0999 96.0776C55.4037 91.1252 54.4751 80.4281 54.8961 75.03C55.6761 65.3728 57.5951 52.0261 60.4304 46.17C61.9656 43.0128 66.3856 37.2185 69.1713 35.2128C69.8438 34.7672 70.5519 34.3779 71.2885 34.049C73.4805 32.9986 75.8831 32.4617 78.3137 32.4788C80.7444 32.496 83.1391 33.0668 85.3161 34.1481C86.4273 34.7812 87.4066 35.6218 88.2009 36.6242C88.6785 37.1724 89.1249 37.7469 89.538 38.3452C90.8243 41.0624 91.5566 44.0086 91.6923 47.0119C91.7723 48.4226 91.5154 49.8321 90.9427 51.1238C90.37 52.4156 89.4981 53.5525 88.399 54.4404C87.7705 54.8818 87.3329 55.5451 87.1744 56.2965C87.0158 57.0478 87.1481 57.8314 87.5447 58.489ZM74.4332 124.182C74.4449 124.285 74.4449 124.389 74.4332 124.492C74.401 124.564 74.3637 124.635 74.3218 124.702C74.2739 124.813 74.2115 124.917 74.1361 125.012C74.0965 125.047 74.063 125.089 74.037 125.136L72.9847 126.151C71.6438 127.415 69.8752 128.127 68.0323 128.144H61.8418C60.5987 128.152 59.3821 127.785 58.3504 127.092C56.5586 125.977 54.9989 124.527 53.757 122.82C52.6483 121.316 51.9179 119.566 51.6275 117.719L58.1894 105.66L58.4247 105.45C59.0258 104.895 59.8106 104.582 60.6285 104.571C61.1507 104.568 61.6669 104.682 62.139 104.905L67.178 107.381C67.3353 107.453 67.4717 107.564 67.5742 107.703V107.778C67.6625 107.912 67.7216 108.064 67.7475 108.223C67.7849 108.39 67.7849 108.564 67.7475 108.731L67.2523 110.179C67.1161 110.179 66.9799 110.179 66.8437 110.254L66.3237 110.34L65.717 110.514L65.2342 110.687L64.677 110.984C64.526 111.055 64.3811 111.137 64.2437 111.232C64.0704 111.356 63.9094 111.492 63.7485 111.628C63.6192 111.724 63.4952 111.828 63.377 111.938C63.2228 112.089 63.0781 112.251 62.9437 112.42C62.8447 112.544 62.7332 112.656 62.6466 112.779C62.5152 112.97 62.3953 113.169 62.2875 113.374C62.2101 113.498 62.1398 113.626 62.077 113.758C61.9702 113.989 61.8832 114.229 61.817 114.476C61.817 114.599 61.718 114.711 61.6932 114.835C61.5933 115.211 61.5311 115.597 61.5075 115.986C61.5075 116.11 61.5075 116.246 61.5075 116.37C61.5075 118.012 62.1597 119.586 63.3207 120.747C64.4816 121.908 66.0562 122.56 67.698 122.56C67.9659 122.58 68.2349 122.58 68.5028 122.56C68.8863 122.506 69.2636 122.415 69.6294 122.288L69.9761 122.152C70.2113 122.053 70.4466 121.954 70.6818 121.83L71.0532 121.595C71.2539 121.47 71.4443 121.329 71.6228 121.174C71.7468 121.085 71.8629 120.986 71.9694 120.877L72.1799 120.691L74.0742 122.87C74.201 123.01 74.2979 123.174 74.359 123.353C74.359 123.353 74.359 123.477 74.359 123.551C74.3709 123.662 74.3709 123.774 74.359 123.885C74.4048 123.978 74.4301 124.079 74.4332 124.182ZM72.6751 116.457C72.6747 117.259 72.4792 118.049 72.1056 118.759C71.9774 118.996 71.8326 119.224 71.6723 119.44C71.2751 119.974 70.7744 120.423 70.2 120.759C69.6257 121.095 68.9895 121.312 68.3294 121.397C68.1191 121.409 67.9083 121.409 67.698 121.397C66.3845 121.397 65.1249 120.875 64.1961 119.946C63.2674 119.017 62.7456 117.758 62.7456 116.444C62.7402 116.354 62.7402 116.263 62.7456 116.172C62.7817 114.858 63.3381 113.613 64.2924 112.71C65.2467 111.807 66.5207 111.32 67.8342 111.356C69.1476 111.392 70.393 111.948 71.2962 112.902C72.1994 113.857 72.6865 115.131 72.6504 116.444L72.6751 116.457ZM105.113 42.6166C104.593 59.6157 102.34 71.8728 97.3132 84.9347C94.4656 92.8585 88.2628 107.431 83.9542 113.906C81.5329 117.398 78.7572 120.63 75.6713 123.551C75.6281 123.33 75.5617 123.114 75.4732 122.907L75.4113 122.771C75.3069 122.559 75.1781 122.359 75.0275 122.177L72.9599 119.824L73.0961 119.589L73.2818 119.242C73.3665 119.074 73.4409 118.9 73.5047 118.722C73.5575 118.61 73.603 118.494 73.6409 118.376C73.7028 118.178 73.7399 117.979 73.7894 117.769C73.839 117.559 73.7894 117.571 73.7894 117.459C73.8393 117.148 73.8641 116.834 73.8637 116.519C73.8629 116.103 73.8214 115.688 73.7399 115.28C73.7399 115.157 73.6656 115.033 73.6409 114.909C73.5755 114.653 73.497 114.401 73.4056 114.154C73.4056 114.018 73.2694 113.881 73.1951 113.745C73.1002 113.537 72.9927 113.334 72.8732 113.139L72.5761 112.755C72.4534 112.568 72.3124 112.394 72.1551 112.235L71.8085 111.876C71.6521 111.729 71.4867 111.593 71.3132 111.467C71.1779 111.365 71.0374 111.27 70.8923 111.182L70.3228 110.873L69.8523 110.675L69.2209 110.477C69.0548 110.426 68.8851 110.389 68.7132 110.365C68.6432 110.359 68.5728 110.359 68.5028 110.365L68.8618 109.263C68.9226 109.083 68.96 108.896 68.9732 108.706C68.9794 108.644 68.9794 108.582 68.9732 108.52C68.9794 108.426 68.9794 108.33 68.9732 108.236C70.78 108.408 72.5927 107.972 74.1237 106.998C76 106.008 77.6786 104.681 79.0761 103.085C81.0576 100.751 82.7227 98.166 84.0285 95.3966C87.3837 88.5128 91.197 79.5738 91.8285 75.1662C92.606 69.1978 91.4932 63.1359 88.6466 57.8328C88.4342 57.4525 88.3673 57.0079 88.4584 56.582C88.5495 56.156 88.7924 55.7777 89.1418 55.5176C90.4082 54.5165 91.4156 53.2259 92.0792 51.7543C92.7428 50.2827 93.0432 48.6733 92.9551 47.0614C92.8379 43.9988 92.1141 40.9899 90.8256 38.209L97.2513 30.4833L98.6132 31.8328C98.6656 31.8955 98.7341 31.9426 98.8113 31.969H98.9723H99.0466C99.1339 31.9643 99.2195 31.9421 99.2981 31.9038C99.3768 31.8656 99.447 31.812 99.5047 31.7461L102.377 28.2795L103.541 30.5947C104.587 32.707 105.126 35.0346 105.113 37.3919V42.6166Z" fill="#333333"/>
<path d="M74.4581 123.947C74.471 124.024 74.471 124.104 74.4581 124.182C74.4697 124.285 74.4697 124.388 74.4581 124.491C74.4258 124.564 74.3886 124.634 74.3466 124.702C74.2987 124.813 74.2363 124.917 74.1609 125.011C74.1213 125.047 74.0878 125.089 74.0619 125.135L73.0095 126.15C71.6686 127.415 69.9 128.127 68.0571 128.144H61.8666C60.6236 128.151 59.4069 127.785 58.3752 127.091C56.5834 125.976 55.0238 124.526 53.7819 122.82C52.6731 121.315 51.9427 119.565 51.6523 117.719L58.1895 105.66L58.4247 105.449C59.0259 104.895 59.8107 104.582 60.6285 104.57C61.1507 104.567 61.667 104.681 62.139 104.905L67.1781 107.381C67.3354 107.453 67.4718 107.563 67.5743 107.703V107.777C67.6626 107.912 67.7216 108.064 67.7476 108.223C67.7849 108.39 67.7849 108.563 67.7476 108.73L67.2523 110.179C67.1162 110.179 66.98 110.179 66.8438 110.253L66.3238 110.34L65.7171 110.513L65.2342 110.687L64.6771 110.984C64.5261 111.054 64.3811 111.137 64.2438 111.231C64.0704 111.355 63.9095 111.491 63.7485 111.628C63.6192 111.724 63.4952 111.827 63.3771 111.937C63.2229 112.089 63.0781 112.25 62.9438 112.42C62.8447 112.544 62.7333 112.655 62.6466 112.779C62.5152 112.97 62.3954 113.168 62.2876 113.373C62.2101 113.497 62.1398 113.625 62.0771 113.757C61.9702 113.989 61.8832 114.229 61.8171 114.475C61.8171 114.599 61.7181 114.71 61.6933 114.834C61.5934 115.211 61.5312 115.597 61.5076 115.986C61.5076 116.109 61.5076 116.246 61.5076 116.369C61.5076 118.011 62.1598 119.586 63.3207 120.747C64.4817 121.908 66.0562 122.56 67.6981 122.56C67.966 122.58 68.2349 122.58 68.5028 122.56C68.8863 122.506 69.2636 122.415 69.6295 122.288L69.9762 122.151C70.2114 122.052 70.4466 121.953 70.6819 121.829L71.0533 121.594C71.2539 121.469 71.4443 121.328 71.6228 121.173C71.7469 121.085 71.8629 120.985 71.9695 120.876L72.18 120.69L74.0742 122.869C74.2011 123.009 74.298 123.174 74.359 123.352C74.359 123.352 74.359 123.476 74.359 123.55C74.4092 123.678 74.4425 123.811 74.4581 123.947Z" fill="#FFA950"/>
<path d="M103.764 24.763L102.043 26.8306L98.9847 30.5449L97.6228 29.1954L94.1933 25.7535C94.478 24.9953 94.605 24.1871 94.5667 23.3781C94.5284 22.5692 94.3255 21.7766 93.9704 21.0487C90.7266 15.2792 81.7133 8.19728 74.0742 5.34967L74.8171 3.12109L81.9609 4.95347C82.6739 5.14073 83.3291 5.50238 83.8675 6.00586L103.764 24.763Z" fill="#FFA950"/>
<path d="M55.8978 18.0768V27.7215C53.6569 28.9596 53.6569 30.433 53.6569 32.5749V41.5015C53.6009 42.8953 53.2651 44.2635 52.6696 45.5248C52.074 46.7861 51.2308 47.9147 50.1902 48.8435C48.6978 50.2306 46.7304 50.9927 44.693 50.973H39.2578L40.335 13.0625H49.794C50.2026 13.0625 50.6111 13.0625 51.0321 13.1615C51.9442 13.2197 52.8236 13.5231 53.5776 14.0395C54.3316 14.556 54.9321 15.2664 55.3159 16.0958C55.6082 16.7232 55.8044 17.391 55.8978 18.0768Z" fill="#FFA950"/>
<path d="M89.1429 94.0967C88.7718 93.9398 88.3536 93.9365 87.98 94.0873C87.6064 94.2381 87.3078 94.5309 87.1496 94.9014C86.1962 96.9814 84.6734 100.015 83.2743 102.701C82.3581 104.472 81.5534 106.044 81.1077 106.998C81.0606 107.091 81.0385 107.196 81.0437 107.3C81.0489 107.405 81.0811 107.506 81.1372 107.595C81.1933 107.683 81.2714 107.756 81.3639 107.805C81.4563 107.855 81.56 107.879 81.6648 107.877C81.7386 107.888 81.8138 107.888 81.8876 107.877C84.2772 106.96 86.84 102.157 88.7838 98.3062C89.18 97.5386 89.5515 96.8329 89.8734 96.251C89.9767 96.0634 90.039 95.856 90.056 95.6426C90.0731 95.4291 90.0446 95.2145 89.9724 95.0129C89.9087 94.8092 89.8016 94.6218 89.6584 94.4636C89.5151 94.3054 89.3393 94.1802 89.1429 94.0967ZM88.7838 95.6195C88.4619 96.2014 88.0905 96.8576 87.6819 97.6995C86.5264 100.045 85.2109 102.307 83.7448 104.472C83.9553 104.088 84.1534 103.68 84.3762 103.234C85.7505 100.547 87.3105 97.4891 88.2762 95.3843C88.2977 95.3285 88.3348 95.2801 88.3831 95.245C88.4314 95.2098 88.4889 95.1894 88.5486 95.1862H88.66C88.695 95.2006 88.7264 95.2225 88.7521 95.2503C88.7778 95.2781 88.797 95.3111 88.8086 95.3472C88.8248 95.3922 88.8299 95.4405 88.8234 95.4879C88.817 95.5353 88.7991 95.5805 88.7715 95.6195H88.7838Z" fill="#333333"/>
<path d="M93.8446 81.2095C93.3324 81.0681 92.7851 81.1344 92.3215 81.394C91.858 81.6536 91.5155 82.0856 91.3684 82.5961C90.5017 85.6542 89.8455 87.6847 88.7931 90.6066C88.6518 90.995 88.664 91.4228 88.8274 91.8024C88.9908 92.1821 89.2929 92.4851 89.6722 92.6495C89.876 92.7359 90.0946 92.7821 90.316 92.7857C90.624 92.7851 90.9254 92.6961 91.1844 92.5293C91.4433 92.3625 91.649 92.1249 91.7769 91.8447C93.0576 89.2355 94.2023 86.5618 95.2065 83.8342C95.2979 83.5729 95.3363 83.2959 95.3193 83.0195C95.3023 82.7431 95.2302 82.4729 95.1074 82.2247C94.9785 81.9774 94.7997 81.7595 94.5824 81.5848C94.365 81.41 94.1138 81.2822 93.8446 81.2095ZM94.0179 83.4133C92.9408 86.3476 92.0246 88.3657 90.6379 91.3247C90.6178 91.3697 90.5891 91.4102 90.5532 91.4439C90.5174 91.4776 90.4752 91.5039 90.4291 91.5211C90.383 91.5384 90.334 91.5464 90.2848 91.5445C90.2356 91.5427 90.1873 91.5311 90.1427 91.5104C90.0526 91.472 89.9806 91.4006 89.9415 91.3108C89.9024 91.221 89.899 91.1197 89.9322 91.0276C90.9846 88.1057 91.6655 85.9885 92.5446 82.9304C92.5724 82.8314 92.6195 82.7388 92.6833 82.6581C92.747 82.5773 92.8261 82.51 92.916 82.4599C93.0298 82.3969 93.1574 82.3629 93.2874 82.3609C93.3571 82.3491 93.4282 82.3491 93.4979 82.3609C93.6027 82.3871 93.7003 82.4363 93.7838 82.5048C93.8673 82.5733 93.9346 82.6595 93.9808 82.7571C94.0351 82.8569 94.0667 82.9675 94.0731 83.081C94.0795 83.1945 94.0607 83.308 94.0179 83.4133Z" fill="#333333"/>
<path d="M97.8097 66.8581C97.5055 66.7972 97.1922 66.7973 96.888 66.8585C96.5838 66.9198 96.2948 67.0409 96.0379 67.2149C95.7809 67.3889 95.5612 67.6122 95.3914 67.8719C95.2216 68.1316 95.1051 68.4225 95.0488 68.7276C94.5288 71.501 93.8107 74.3857 93.0802 77.3076C92.9416 77.8409 93.0151 78.4071 93.2852 78.8874C93.5553 79.3676 94.0011 79.7244 94.5288 79.8829C94.7191 79.9306 94.9145 79.9556 95.1107 79.9572C95.5531 79.9574 95.9846 79.819 96.3443 79.5614C96.7041 79.3038 96.9741 78.9399 97.1164 78.521C98.1069 75.5496 98.9488 72.5657 99.5926 69.6562C99.7278 69.0484 99.6165 68.4117 99.2831 67.8857C98.9453 67.3637 98.4163 66.9948 97.8097 66.8581ZM98.404 69.3343C97.7478 72.2067 96.9183 75.141 95.9278 78.0877C95.8543 78.2979 95.7027 78.4717 95.5045 78.5731C95.3062 78.6746 95.0765 78.6958 94.8631 78.6324C94.7549 78.6024 94.6537 78.5513 94.5653 78.4822C94.4769 78.413 94.403 78.3271 94.3478 78.2294C94.2927 78.1316 94.2573 78.024 94.2437 77.9126C94.2301 77.8012 94.2387 77.6882 94.2688 77.58C95.0612 74.6334 95.7297 71.7115 96.2497 68.9134C96.2768 68.7685 96.3323 68.6305 96.413 68.5072C96.4938 68.3839 96.5982 68.2779 96.7202 68.1953C96.895 68.0748 97.1022 68.0101 97.3145 68.0096H97.5497C97.8377 68.0751 98.09 68.2477 98.2554 68.4924C98.3253 68.6199 98.369 68.76 98.3839 68.9046C98.3988 69.0492 98.3846 69.1953 98.3421 69.3343H98.404Z" fill="#333333"/>
<path d="M99.1462 49.9954C98.5446 50.0843 97.9929 50.3802 97.586 50.8322C97.1792 51.2842 96.9429 51.864 96.9177 52.4716C96.7196 56.2726 96.4596 59.2688 96.0758 61.9059C96.0045 62.5082 96.1567 63.1157 96.5036 63.6132C96.8505 64.1107 97.3679 64.4636 97.9577 64.605C98.1158 64.6438 98.2778 64.6645 98.4405 64.6669C98.9225 64.6659 99.393 64.5191 99.79 64.2459C100.054 64.0729 100.279 63.8472 100.452 63.583C100.624 63.3188 100.741 63.0218 100.793 62.7107C101.381 59.3876 101.794 56.036 102.031 52.6697C102.06 52.3042 102.007 51.9369 101.876 51.5943C101.745 51.2518 101.54 50.9425 101.276 50.6888C100.995 50.4211 100.658 50.2198 100.29 50.0998C99.9213 49.9798 99.5305 49.9441 99.1462 49.9954ZM100.743 52.5954C100.53 55.9152 100.142 59.2214 99.5796 62.5002C99.5554 62.6475 99.4997 62.7879 99.4164 62.9118C99.3331 63.0358 99.224 63.1403 99.0967 63.2183C98.9689 63.3089 98.8238 63.3721 98.6704 63.4041C98.517 63.4361 98.3587 63.436 98.2053 63.404C97.922 63.3263 97.6755 63.1504 97.5099 62.9077C97.3443 62.665 97.2705 62.3714 97.3015 62.0792C97.6853 59.405 97.9577 56.3716 98.1558 52.5335C98.1597 52.216 98.2744 51.9098 98.4801 51.6679C98.6858 51.426 98.9696 51.2636 99.2824 51.2088H99.4434C99.6134 51.2044 99.7825 51.2352 99.9402 51.2991C100.098 51.363 100.241 51.4587 100.36 51.5802C100.495 51.7078 100.599 51.8642 100.666 52.0378C100.732 52.2115 100.759 52.3978 100.743 52.5831V52.5954Z" fill="#333333"/>
</svg>
