<svg width="130" height="130" viewBox="0 0 130 130" fill="none" xmlns="http://www.w3.org/2000/svg">
<g clip-path="url(#clip0_3826_28100)">
<path d="M69.5177 2.40287e-06C61.0402 0.00655567 52.9117 3.37627 46.9161 9.36959C40.9204 15.3629 37.5476 23.4902 37.5377 31.9676V59.4286C37.1105 59.5803 36.6965 59.7666 36.2996 59.9857C35.601 60.347 34.985 60.8493 34.4906 61.461C33.9962 62.0726 33.6341 62.7802 33.4272 63.539L22.4949 102.143C20.3901 108.915 20.5139 112.592 22.9406 113.422L28.4749 114.784C28.9374 114.892 29.4111 114.946 29.8863 114.945C30.6814 114.931 31.4651 114.754 32.1891 114.425C32.1891 114.697 32.1891 114.957 32.1891 115.23C32.1891 118.819 33.6149 122.261 36.1527 124.798C38.6905 127.336 42.1325 128.762 45.7215 128.762C49.3105 128.762 52.7526 127.336 55.2904 124.798C57.8282 122.261 59.2539 118.819 59.2539 115.23V103.344C60.376 103.04 61.381 102.406 62.1387 101.524L94.7625 62.1276V66.5229C94.7657 67.7138 95.2403 68.8551 96.0824 69.6972C96.9246 70.5393 98.0658 71.0139 99.2568 71.0171H99.5663C99.8208 71.0238 100.074 70.9793 100.311 70.8865C100.548 70.7936 100.764 70.6542 100.947 70.4765C101.129 70.2988 101.274 70.0864 101.373 69.8518C101.472 69.6171 101.523 69.3651 101.522 69.1105V31.9676C101.516 23.4849 98.1407 15.352 92.139 9.35722C86.1373 3.36248 78.0005 -0.00328294 69.5177 2.40287e-06ZM32.5482 112.79C32.0092 113.202 31.3837 113.487 30.7189 113.622C30.054 113.757 29.3672 113.739 28.7101 113.57L23.2872 112.233C22.5691 111.986 21.1825 110.55 23.6834 102.49L34.6653 63.8733C34.8274 63.2881 35.1076 62.7423 35.4888 62.2696C35.87 61.7968 36.344 61.4072 36.8815 61.1248C37.3569 60.8614 37.8592 60.6497 38.3796 60.4933C38.5669 60.4379 38.757 60.3924 38.9491 60.3571H39.1472H39.5558C39.6917 60.345 39.8285 60.345 39.9644 60.3571H40.1253C40.3117 60.409 40.4876 60.4928 40.6453 60.6048C40.9626 60.9728 41.1922 61.4081 41.3166 61.8778C41.441 62.3475 41.457 62.8394 41.3634 63.3162V80.2905L35.7549 83.7943C35.3069 84.0761 34.9357 84.4644 34.6743 84.9245C34.4129 85.3847 34.2695 85.9024 34.2568 86.4314C34.2447 86.6936 34.2697 86.9562 34.331 87.2114C34.3735 87.4318 34.4486 87.6446 34.5539 87.8428C31.151 92.3877 28.6657 97.5518 27.2368 103.047C27.0522 103.475 26.9848 103.945 27.0414 104.409C27.0979 104.872 27.2764 105.312 27.5587 105.684C27.7392 105.89 27.9619 106.056 28.2118 106.169C28.4617 106.282 28.7329 106.341 29.0072 106.34C29.1308 106.352 29.2552 106.352 29.3787 106.34C29.8373 106.219 30.255 105.977 30.5882 105.639C30.9214 105.302 31.1579 104.881 31.273 104.421C32.3566 99.4202 34.4413 94.6907 37.4015 90.5171L41.2768 93.2781V94.5162L33.8482 111.082C33.5637 111.751 33.1168 112.338 32.5482 112.79ZM35.272 88.8705C35.3611 88.9595 35.4562 89.0422 35.5568 89.1181L36.0768 89.5019L36.4358 89.7495C33.3989 94.0279 31.2555 98.8746 30.1339 104C30.0833 104.243 29.9696 104.468 29.8045 104.652C29.6393 104.837 29.4284 104.975 29.193 105.052C29.0755 105.079 28.953 105.072 28.8392 105.033C28.7253 104.994 28.6249 104.923 28.5491 104.83C28.4184 104.62 28.343 104.38 28.33 104.133C28.317 103.887 28.3668 103.64 28.4749 103.418C29.8037 98.1839 32.1098 93.248 35.272 88.8705ZM57.9787 115.23C57.9787 118.49 56.6834 121.617 54.3778 123.923C52.0721 126.229 48.945 127.524 45.6844 127.524C42.4237 127.524 39.2966 126.229 36.991 123.923C34.6854 121.617 33.3901 118.49 33.3901 115.23C33.3898 114.691 33.427 114.153 33.5015 113.62L33.712 113.434L33.9225 113.236C34.0215 113.137 34.1082 113.026 34.1949 112.927L34.3806 112.716C34.4796 112.592 34.5539 112.469 34.6406 112.345C34.7272 112.221 34.7396 112.209 34.7768 112.134C34.8962 111.939 35.0037 111.736 35.0987 111.528L42.5272 94.8381L42.5891 94.12L54.3511 102.502C54.6089 102.686 54.8823 102.848 55.1682 102.985L55.4653 103.109C55.6466 103.193 55.8326 103.268 56.0225 103.331L56.3939 103.418L56.9139 103.517H57.3101H57.6568H57.8177C57.8795 103.511 57.9417 103.511 58.0034 103.517L57.9787 115.23ZM61.1853 100.694C60.4447 101.584 59.3956 102.161 58.2478 102.31C57.1001 102.459 55.9383 102.17 54.9949 101.499L37.6615 89.1181L35.7177 87.521C35.4558 87.0779 35.3778 86.5499 35.5004 86.05C35.6231 85.5501 35.9366 85.1182 36.3739 84.8467L41.3263 81.7514L42.4653 81.0457H42.5644L51.0577 75.7343L53.2368 74.2857L65.3082 80.179L68.0939 77.0343H68.3291C68.504 77.0356 68.6772 76.9999 68.8372 76.9295C68.9972 76.8591 69.1406 76.7555 69.2577 76.6257L87.9034 55.8133C88.0277 55.6688 88.117 55.4975 88.1642 55.3128C88.2115 55.1281 88.2154 54.935 88.1758 54.7486C88.7418 54.3381 89.3951 54.0641 90.0845 53.9481C90.774 53.8322 91.481 53.8773 92.1501 54.08C92.5897 54.2049 93.0073 54.397 93.3882 54.6495L95.4311 56.0362C95.6578 56.1912 95.8505 56.3908 95.9974 56.6228C96.1443 56.8549 96.2423 57.1145 96.2853 57.3857C96.3223 57.6566 96.3018 57.9323 96.2249 58.1947C96.1481 58.4571 96.0168 58.7004 95.8396 58.9086L61.1853 100.694ZM67.2149 76.2048L65.011 78.681L53.8682 73.2086V31.9676C53.9996 26.6253 56.2141 21.546 60.039 17.814C63.8639 14.082 68.9962 11.993 74.3401 11.993C79.684 11.993 84.8163 14.082 88.6412 17.814C92.4661 21.546 94.6806 26.6253 94.812 31.9676V54.1048L94.0939 53.6219C93.6102 53.2994 93.0799 53.0531 92.5215 52.8914C91.6542 52.6334 90.7383 52.583 89.8479 52.7443C88.9575 52.9056 88.1175 53.2741 87.3958 53.82C87.1671 53.7437 86.921 53.7359 86.6879 53.7975C86.4547 53.859 86.2447 53.9874 86.0834 54.1667L67.512 75.0162C67.3636 75.1715 67.2582 75.3628 67.2061 75.5712C67.154 75.7795 67.157 75.9979 67.2149 76.2048ZM100.284 69.1105C100.284 69.2878 100.214 69.4578 100.089 69.5832C99.9632 69.7086 99.7931 69.7791 99.6158 69.7791H99.3063C98.4427 69.7791 97.6145 69.436 97.0038 68.8253C96.3932 68.2147 96.0501 67.3865 96.0501 66.5229V60.6667L96.8177 59.7257C97.1029 59.3855 97.314 58.9896 97.4377 58.5633C97.5613 58.1369 97.5947 57.6895 97.5358 57.2495C97.4694 56.8063 97.312 56.3817 97.0733 56.0024C96.8346 55.6231 96.52 55.2973 96.1491 55.0457L96.0501 54.9714V31.9676C95.9147 26.2995 93.568 20.9091 89.5113 16.9482C85.4547 12.9873 80.0098 10.7699 74.3401 10.7699C68.6704 10.7699 63.2255 12.9873 59.1689 16.9482C55.1122 20.9091 52.7655 26.2995 52.6301 31.9676V73.2581L42.6139 79.5229V63.3657C42.7282 62.6925 42.6751 62.0016 42.4591 61.3538C42.2432 60.706 41.8712 60.1214 41.3758 59.6514C41.2837 59.5756 41.1841 59.5092 41.0787 59.4533H40.992L40.7072 59.3295H40.5958C40.2872 59.1849 39.9566 59.0928 39.6177 59.0571H39.4815C39.2919 59.0454 39.1017 59.0454 38.912 59.0571H38.813V31.9676C38.813 27.9322 39.6078 23.9362 41.1521 20.2079C42.6964 16.4797 44.9599 13.0921 47.8134 10.2386C50.6669 7.38507 54.0545 5.12155 57.7828 3.57724C61.5111 2.03294 65.507 1.2381 69.5425 1.2381C73.5779 1.2381 77.5739 2.03294 81.3022 3.57724C85.0304 5.12155 88.418 7.38507 91.2715 10.2386C94.125 13.0921 96.3886 16.4797 97.9329 20.2079C99.4772 23.9362 100.272 27.9322 100.272 31.9676L100.284 69.1105Z" fill="#333333"/>
<path d="M100.284 31.9678V69.1107C100.284 69.288 100.213 69.458 100.088 69.5834C99.9627 69.7088 99.7927 69.7792 99.6154 69.7792H99.3058C98.4422 69.7792 97.614 69.4362 97.0034 68.8255C96.3927 68.2149 96.0496 67.3866 96.0496 66.523V60.6669L96.8173 59.7259C97.1024 59.3857 97.3136 58.9898 97.4372 58.5635C97.5609 58.1371 97.5943 57.6897 97.5354 57.2497C97.469 56.8065 97.3115 56.3819 97.0728 56.0026C96.8342 55.6233 96.5195 55.2975 96.1487 55.0459L96.0496 54.9716V31.9678C95.9143 26.2997 93.5676 20.9093 89.5109 16.9484C85.4542 12.9875 80.0093 10.7701 74.3396 10.7701C68.6699 10.7701 63.2251 12.9875 59.1684 16.9484C55.1117 20.9093 52.765 26.2997 52.6296 31.9678V73.2583L42.6134 79.523V63.3659C42.7278 62.6927 42.6746 62.0018 42.4587 61.354C42.2428 60.7062 41.8707 60.1216 41.3754 59.6516C41.2832 59.5757 41.1837 59.5094 41.0782 59.4535H40.9915L40.7068 59.3297H40.5954C40.2868 59.1851 39.9562 59.093 39.6173 59.0573H39.4811C39.2914 59.0456 39.1012 59.0456 38.9115 59.0573H38.8125V31.9678C38.8125 27.9323 39.6073 23.9364 41.1516 20.2081C42.696 16.4798 44.9595 13.0923 47.813 10.2388C50.6665 7.38525 54.0541 5.12173 57.7823 3.57743C61.5106 2.03312 65.5066 1.23828 69.542 1.23828C73.5775 1.23828 77.5734 2.03312 81.3017 3.57743C85.03 5.12173 88.4176 7.38525 91.2711 10.2388C94.1246 13.0923 96.3881 16.4798 97.9324 20.2081C99.4767 23.9364 100.272 27.9323 100.272 31.9678H100.284Z" fill="#FFA950"/>
<path d="M57.7948 103.565H57.6339H57.2872H56.891L56.371 103.466L55.9996 103.379C55.8097 103.316 55.6237 103.242 55.4424 103.157L55.1453 103.033C54.8594 102.896 54.586 102.734 54.3281 102.55L42.5662 94.0938L42.5043 94.8118L35.0758 111.501C34.9808 111.71 34.8733 111.912 34.7539 112.108C34.7539 112.182 34.6548 112.244 34.6177 112.319C34.5805 112.393 34.4567 112.566 34.3577 112.69L34.172 112.9C34.0853 112.999 33.9986 113.111 33.8996 113.21L33.6891 113.408L33.4786 113.594C33.4041 114.127 33.3669 114.665 33.3672 115.203C33.3672 118.464 34.6625 121.591 36.9681 123.897C39.2737 126.202 42.4008 127.498 45.6615 127.498C48.9221 127.498 52.0492 126.202 54.3548 123.897C56.6605 121.591 57.9558 118.464 57.9558 115.203V103.565C57.9022 103.561 57.8484 103.561 57.7948 103.565ZM45.6862 123.461C43.5048 123.458 41.4138 122.589 39.8724 121.046C38.331 119.502 37.4653 117.41 37.4653 115.228C37.4629 114.851 37.4918 114.474 37.552 114.101C37.8378 112.148 38.817 110.363 40.3105 109.072C41.8041 107.781 43.7122 107.071 45.6862 107.071C47.6603 107.071 49.5684 107.781 51.0619 109.072C52.5555 110.363 53.5346 112.148 53.8205 114.101C53.8863 114.511 53.9153 114.925 53.9072 115.339C53.8779 117.502 52.9993 119.565 51.4611 121.085C49.9228 122.605 47.8485 123.458 45.6862 123.461Z" fill="#FFA950"/>
<path d="M53.8202 114.042C53.5343 112.089 52.5552 110.304 51.0616 109.013C49.5681 107.722 47.66 107.012 45.6859 107.012C43.7119 107.012 41.8038 107.722 40.3102 109.013C38.8167 110.304 37.8375 112.089 37.5517 114.042C37.4915 114.415 37.4626 114.791 37.465 115.169C37.465 116.248 37.6776 117.317 38.0908 118.315C38.5039 119.312 39.1095 120.218 39.8728 120.982C40.6362 121.745 41.5425 122.351 42.5399 122.764C43.5373 123.177 44.6063 123.39 45.6859 123.39C46.7655 123.39 47.8345 123.177 48.832 122.764C49.8294 122.351 50.7356 121.745 51.499 120.982C52.2624 120.218 52.868 119.312 53.2811 118.315C53.6943 117.317 53.9069 116.248 53.9069 115.169C53.9087 114.791 53.8797 114.415 53.8202 114.042ZM45.6859 122.226C43.8328 122.223 42.0567 121.484 40.7476 120.173C39.4384 118.861 38.7031 117.084 38.7031 115.231C38.7032 114.916 38.7281 114.601 38.7774 114.29C39.0018 112.617 39.8259 111.082 41.0965 109.97C42.367 108.859 43.9978 108.246 45.6859 108.246C47.3741 108.246 49.0048 108.859 50.2754 109.97C51.546 111.082 52.37 112.617 52.5945 114.29C52.6462 114.617 52.671 114.949 52.6688 115.28C52.6557 117.125 51.9147 118.889 50.6069 120.19C49.2991 121.491 47.5305 122.223 45.6859 122.226Z" fill="#333333"/>
<path d="M38.5897 64.4567C38.8345 64.4567 39.0739 64.384 39.2775 64.248C39.4811 64.112 39.6398 63.9186 39.7335 63.6924C39.8272 63.4661 39.8517 63.2172 39.804 62.977C39.7562 62.7369 39.6383 62.5162 39.4651 62.3431C39.292 62.1699 39.0714 62.052 38.8312 62.0043C38.591 61.9565 38.3421 61.981 38.1159 62.0747C37.8896 62.1684 37.6963 62.3271 37.5602 62.5307C37.4242 62.7343 37.3516 62.9737 37.3516 63.2186C37.3516 63.5469 37.482 63.8618 37.7142 64.094C37.9464 64.3262 38.2613 64.4567 38.5897 64.4567Z" fill="#333333"/>
<path d="M38.1561 85.2422C37.9112 85.2422 37.6718 85.3148 37.4682 85.4508C37.2646 85.5869 37.1059 85.7803 37.0122 86.0065C36.9185 86.2327 36.894 86.4817 36.9418 86.7218C36.9895 86.962 37.1074 87.1826 37.2806 87.3557C37.4538 87.5289 37.6744 87.6468 37.9145 87.6946C38.1547 87.7424 38.4036 87.7178 38.6299 87.6241C38.8561 87.5304 39.0495 87.3717 39.1855 87.1681C39.3215 86.9645 39.3942 86.7252 39.3942 86.4803C39.3942 86.1519 39.2637 85.837 39.0315 85.6048C38.7993 85.3726 38.4844 85.2422 38.1561 85.2422Z" fill="#333333"/>
<path d="M57.7192 98.1422C57.4773 98.1543 57.2443 98.2371 57.049 98.3803C56.8537 98.5235 56.7047 98.7208 56.6204 98.9478C56.5361 99.1748 56.5202 99.4216 56.5748 99.6575C56.6293 99.8935 56.7518 100.108 56.9272 100.275C57.1026 100.442 57.3231 100.554 57.5614 100.597C57.7997 100.64 58.0454 100.612 58.2681 100.517C58.4907 100.422 58.6805 100.263 58.814 100.061C58.9475 99.8592 59.0189 99.6224 59.0192 99.3803C59.0194 99.2123 58.9854 99.0461 58.9194 98.8917C58.8533 98.7373 58.7565 98.598 58.6349 98.4822C58.5133 98.3664 58.3694 98.2765 58.212 98.218C58.0546 98.1596 57.8869 98.1338 57.7192 98.1422Z" fill="#333333"/>
</g>
<defs>
<clipPath id="clip0_3826_28100">
<rect width="130" height="130" fill="white"/>
</clipPath>
</defs>
</svg>
