<svg width="144" height="143" viewBox="0 0 144 143" fill="none" xmlns="http://www.w3.org/2000/svg">
<path d="M138.134 43.5743C135.873 28.5933 131.46 17.4666 117.31 11.5423C98.2436 3.58877 71.0055 3.1802 52.7832 20.2176C48.6975 24.0446 45.3609 31.6849 42.1195 39.08C39.4774 45.1269 36.74 51.3371 33.6485 55.4229C23.9889 58.5861 14.7366 62.8785 6.08352 68.2111C5.9547 68.2876 5.85467 68.4043 5.79892 68.5433C5.74318 68.6824 5.73482 68.8359 5.77515 68.9801C5.81547 69.1244 5.90224 69.2513 6.022 69.3413C6.14176 69.4312 6.28784 69.4792 6.43762 69.4777H6.58743C7.86762 69.1781 9.13419 68.9057 10.4144 68.6606C12.0464 86.3874 15.5384 103.893 20.833 120.89C20.9124 121.194 21.0622 121.477 21.2703 121.713C21.4784 121.95 21.7391 122.134 22.0314 122.252C22.2742 122.348 22.5328 122.399 22.7941 122.401C23.1584 122.4 23.5158 122.301 23.8291 122.115C28.9227 119.078 34.343 118.506 39.4366 118.356C40.0424 118.333 40.6312 118.15 41.1426 117.824C41.6539 117.499 42.0696 117.043 42.3468 116.504C42.624 115.964 42.7528 115.361 42.72 114.756C42.6873 114.151 42.4941 113.565 42.1604 113.059C38.5241 107.42 30.5978 91.9083 34.8061 68.9738C42.4184 70.4067 50.1334 71.2264 57.8768 71.4252C58.9874 71.4648 60.0979 71.3409 61.1726 71.0575L62.6843 70.717L68.2136 78.4799L67.4373 88.6533C67.4259 88.819 67.4742 88.9833 67.5735 89.1164L70.202 92.5348C70.1446 92.6644 70.1079 92.8023 70.093 92.9433C70.0845 93.2868 70.206 93.6208 70.4333 93.8784C70.6606 94.136 70.9769 94.2982 71.3188 94.3325H71.3869L70.7604 103.376C70.6641 104.777 70.8449 106.184 71.2926 107.515C71.7402 108.846 72.4458 110.077 73.3691 111.135C74.2924 112.194 75.4153 113.06 76.6736 113.685C77.9318 114.309 79.3008 114.68 80.7023 114.775L84.0253 115.006L83.9164 116.954L82.5545 116.872C82.4648 116.865 82.3746 116.877 82.29 116.907C82.2054 116.938 82.1284 116.986 82.0642 117.049C81.9271 117.171 81.8438 117.342 81.8327 117.526L81.3288 126.95C81.3232 127.039 81.3355 127.128 81.3649 127.212C81.3943 127.296 81.4401 127.373 81.4997 127.439C81.5594 127.505 81.6316 127.558 81.7122 127.596C81.7927 127.634 81.88 127.655 81.9689 127.658H83.3308L83.2627 129.374C83.262 129.722 83.3943 130.056 83.6322 130.31C83.8702 130.563 84.196 130.715 84.5429 130.736H84.6246C84.9721 130.737 85.3066 130.605 85.5598 130.367C85.813 130.129 85.9656 129.803 85.9865 129.456L86.0818 127.849H87.4437C87.6084 127.851 87.768 127.793 87.8931 127.686C88.028 127.562 88.1107 127.391 88.1247 127.209L88.6286 117.784C88.6254 117.626 88.5684 117.474 88.4668 117.353C88.3653 117.231 88.2254 117.148 88.0702 117.117H86.7083L86.8172 115.21L89.541 115.401H90.3037C93.0085 115.387 95.6084 114.353 97.583 112.504C99.5577 110.656 100.762 108.13 100.954 105.432L101.567 96.4026H101.703C102.062 96.4289 102.417 96.3118 102.69 96.077C102.963 95.8422 103.132 95.5087 103.16 95.1496C103.174 95.032 103.174 94.9131 103.16 94.7955L106.211 92.0717C106.28 92.0123 106.336 91.9393 106.376 91.8573C106.416 91.7754 106.438 91.6861 106.442 91.595L106.728 83.0695L115.444 77.4176C116.245 77.765 117.088 78.0076 117.95 78.1394L118.413 78.2348C120.527 78.6935 122.68 78.9444 124.842 78.9838C131.46 78.9838 132.809 75.6471 133.653 71.6431C134.116 69.4505 134.756 67.2714 135.437 64.9698C137.221 58.9093 139.237 52.0862 138.134 43.5743ZM33.6076 67.966C29.0997 91.7585 37.2711 107.897 41.03 113.726C41.2361 114.036 41.355 114.395 41.3742 114.767C41.3934 115.138 41.3121 115.508 41.139 115.837C40.9706 116.159 40.7187 116.431 40.4097 116.622C40.1006 116.814 39.7457 116.919 39.3821 116.926C34.1115 117.09 28.4869 117.676 23.1346 120.876C23.0416 120.923 22.939 120.947 22.835 120.947C22.7309 120.947 22.6283 120.923 22.5353 120.876C22.4395 120.84 22.3536 120.782 22.2848 120.706C22.2161 120.63 22.1666 120.539 22.1404 120.44C16.8616 103.497 13.3787 86.046 11.749 68.3746L13.5876 68.0886L15.113 67.8162L17.2648 67.4757L18.7084 67.2442C19.5391 67.1216 20.3563 67.0127 21.187 66.9173L22.2085 66.7811C23.3661 66.645 24.5101 66.5224 25.6269 66.427C28.5005 66.1683 31.3196 66.0457 34.0298 66.0321C33.88 66.6313 33.7302 67.2987 33.6076 67.966ZM25.5179 64.997C20.6022 65.4469 15.7147 66.1653 10.8774 67.1489L10.428 67.2442C17.9858 62.8978 25.9785 59.3556 34.275 56.6758L36.9034 55.8587V56.4988C36.6938 56.5436 36.4886 56.6074 36.2906 56.6894L36.1135 56.7711L35.7458 56.9754L35.5551 57.1116L35.2691 57.3568C35.2068 57.4123 35.1476 57.4714 35.0921 57.5338L34.847 57.8198L34.7108 58.0241C34.6438 58.1333 34.5847 58.2471 34.5337 58.3646C34.4894 58.4329 34.4528 58.506 34.4248 58.5825C34.3715 58.7146 34.3305 58.8514 34.3022 58.991C34.3022 58.991 34.3022 59.1136 34.3022 59.1953C34.2587 59.406 34.2359 59.6204 34.2341 59.8354C34.2366 60.055 34.2594 60.2738 34.3022 60.4891C34.3022 60.4891 34.3022 60.6117 34.3022 60.6798C34.3305 60.8195 34.3715 60.9562 34.4248 61.0884C34.4589 61.156 34.5 61.2199 34.5473 61.279C34.5983 61.3966 34.6574 61.5103 34.7244 61.6195L34.8606 61.8238L35.1057 62.1098L35.2828 62.2869L35.5688 62.532L35.7594 62.6682C35.882 62.7499 36.0046 62.8044 36.1271 62.8725L36.3042 62.9542C36.5023 63.0362 36.7074 63.1001 36.917 63.1449V64.5885C33.1127 64.5115 29.307 64.6479 25.5179 64.997ZM37.5844 61.1973H37.7342L39.2459 61.0339C39.0565 61.2981 38.8071 61.5135 38.5183 61.6627C38.2295 61.8118 37.9094 61.8904 37.5844 61.8919C37.0426 61.8919 36.523 61.6767 36.1399 61.2936C35.7568 60.9105 35.5415 60.3909 35.5415 59.849C35.5415 59.3073 35.7568 58.7876 36.1399 58.4045C36.523 58.0214 37.0426 57.8062 37.5844 57.8062C38.0856 57.8104 38.5687 57.994 38.9463 58.3237L37.4482 58.5008C37.087 58.5206 36.7485 58.6832 36.5071 58.9526C36.2658 59.2221 36.1413 59.5764 36.1612 59.9376C36.1811 60.2988 36.3436 60.6373 36.6131 60.8786C36.8825 61.12 37.2368 61.2444 37.598 61.2246L37.5844 61.1973ZM62.4119 69.3688L60.8593 69.7365C59.9079 69.9803 58.9264 70.0858 57.9449 70.0497C50.2699 69.849 42.6233 69.0338 35.0785 67.6119C35.1874 67.0808 35.2964 66.5496 35.419 66.0185C36.1408 66.0185 36.8626 66.0185 37.5571 66.0185C37.7434 66.0223 37.924 65.954 38.061 65.8278C38.1914 65.6979 38.2649 65.5216 38.2653 65.3375V63.1721C38.4711 63.1293 38.6719 63.0654 38.8646 62.9814H39.028L39.3957 62.7771L39.5728 62.6546C39.6832 62.5758 39.7878 62.4893 39.886 62.3958C39.9393 62.3493 39.9893 62.2993 40.0358 62.246C40.1422 62.1423 40.238 62.0282 40.3218 61.9055L40.4171 61.783C40.5285 61.615 40.6242 61.4372 40.7031 61.2518C40.7086 61.2066 40.7086 61.1609 40.7031 61.1156C40.741 61.0224 40.7729 60.9269 40.7985 60.8296C40.8209 60.6605 40.8985 60.5035 41.0191 60.3829C41.1397 60.2623 41.2967 60.1847 41.4658 60.1623L67.9004 57.1933C68.0683 57.1731 68.238 57.2124 68.3799 57.3045C68.5218 57.3966 68.6268 57.5356 68.6767 57.6972L68.7584 57.8334L68.8537 57.9832C68.9946 58.1963 69.159 58.3927 69.344 58.5689H69.4257C69.5958 58.7157 69.7781 58.8478 69.9705 58.9638L70.1339 59.0455C70.3651 59.1703 70.6126 59.262 70.8693 59.3179C70.8693 59.386 70.8693 59.4541 70.8693 59.5086C70.8693 59.563 70.9374 59.781 70.9783 59.9171L71.0736 60.1214C71.1246 60.2389 71.1837 60.3527 71.2507 60.4619L71.3732 60.6662C71.455 60.7615 71.523 60.8705 71.6048 60.9522L71.7682 61.1292C71.8524 61.218 71.9435 61.2999 72.0406 61.3744L72.2312 61.5242L72.5581 61.7149L72.7624 61.8238L73.1573 61.96H73.3344C73.5408 62.006 73.7501 62.0379 73.9609 62.0553L70.2701 67.503C68.309 67.8162 66.4295 68.1839 64.5637 68.5925C63.9917 68.9466 63.5014 69.0419 62.4119 69.3143V69.3688ZM104.304 50.3838H104.944C105.212 50.3977 105.474 50.4645 105.716 50.5805C105.958 50.6964 106.175 50.8591 106.353 51.0592C106.532 51.2593 106.669 51.4928 106.757 51.7462C106.844 51.9996 106.881 52.2679 106.864 52.5356L106.415 60.639C106.372 61.1637 106.128 61.6516 105.734 62.0009C105.329 62.3572 104.802 62.5427 104.263 62.5184H103.582L100.178 54.7828C100.124 54.6553 100.034 54.5464 99.9188 54.4695C99.8183 54.3966 99.7013 54.3498 99.5783 54.3333L80.5933 53.3119H80.4844C80.3946 53.2932 80.3018 53.2932 80.212 53.3119C80.127 53.3598 80.0528 53.4247 79.9941 53.5026L75.0231 60.816H74.1651C73.974 60.8028 73.7859 60.7615 73.6068 60.6934H73.4978C73.3337 60.626 73.1782 60.5391 73.0348 60.4347C72.9075 60.3256 72.7933 60.2022 72.6943 60.067C72.601 59.9116 72.5234 59.7474 72.4628 59.5767H72.6534C72.7964 59.544 72.9374 59.503 73.0756 59.4541L73.2935 59.3451C73.4067 59.2943 73.516 59.2352 73.6204 59.1681L73.8383 59.0183L74.0426 58.5552L74.2332 58.3646C74.3176 58.2802 74.395 58.1891 74.4648 58.0922L74.6146 57.8743C74.6827 57.7653 74.7371 57.6564 74.7916 57.5474C74.8335 57.473 74.8699 57.3956 74.9006 57.3159C74.9495 57.1869 74.9905 57.055 75.0231 56.921C75.0231 56.8529 75.0231 56.7848 75.0231 56.7167C75.0432 56.4992 75.0432 56.2804 75.0231 56.063C75.0372 55.8544 75.0372 55.6451 75.0231 55.4365C75.0231 55.4365 75.0231 55.3139 75.0231 55.2458C74.9947 55.115 74.9537 54.9873 74.9006 54.8645L74.8189 54.6466C74.8189 54.5376 74.7099 54.4287 74.6418 54.3197L74.5192 54.1291C74.4531 54.0253 74.3754 53.9294 74.2877 53.8431C74.2453 53.7781 74.195 53.7186 74.1379 53.666L73.8655 53.4209L73.6885 53.2847L73.2935 53.1076H73.1165C72.9722 53.039 72.8217 52.9843 72.6671 52.9442H72.5445L72.6671 50.7651C72.7101 50.2404 72.954 49.7525 73.348 49.4032C73.5448 49.221 73.7768 49.081 74.0298 48.992C74.2828 48.903 74.5513 48.8668 74.8189 48.8857H75.2547C75.4345 48.8933 75.6102 48.8308 75.7448 48.7114C75.8795 48.592 75.9625 48.425 75.9765 48.2456L76.1263 45.6171C76.1414 44.9728 76.2881 44.3384 76.5574 43.7529C76.8268 43.1674 77.2131 42.6431 77.6925 42.2124C78.634 41.3765 79.8673 40.9459 81.1245 41.0139L99.3195 42.0353C99.944 42.0684 100.556 42.2244 101.12 42.4943C101.684 42.7643 102.189 43.1429 102.607 43.6085C103.024 44.0741 103.346 44.6175 103.553 45.2076C103.76 45.7976 103.849 46.4228 103.814 47.0471L103.664 49.6756C103.657 49.854 103.719 50.0282 103.839 50.1607C103.959 50.2931 104.126 50.3733 104.304 50.3838ZM80.0213 62.641C80.1108 62.6459 80.2002 62.6327 80.2845 62.6023C80.3687 62.5719 80.446 62.5248 80.5116 62.4639C80.6456 62.3452 80.7285 62.1793 80.7431 62.0009L81.1517 54.7828L98.8565 55.7361L98.4479 62.927C98.4424 63.0164 98.4546 63.1061 98.4838 63.1908C98.513 63.2756 98.5586 63.3537 98.6181 63.4208C98.6775 63.4878 98.7497 63.5425 98.8303 63.5816C98.911 63.6207 98.9985 63.6436 99.088 63.6488L102.711 63.8939L105.135 69.4505C98.8664 67.1389 92.216 66.039 85.537 66.2091H84.5156C79.8851 66.4951 75.9356 66.8901 72.2585 67.4212L75.6905 62.355L80.0213 62.641ZM76.5621 61.0748L79.6945 56.4715L79.4221 61.2382L76.5621 61.0748ZM99.8098 62.3277L100.055 57.956L102.043 62.4775L99.8098 62.3277ZM73.7157 56.1174C73.716 56.6512 73.5087 57.1643 73.1377 57.548C72.7666 57.9318 72.2609 58.1562 71.7273 58.1739H71.5639C71.1064 58.1477 70.6705 57.9705 70.3246 57.67L71.8227 57.493C72.0015 57.4733 72.1747 57.4186 72.3324 57.332C72.4902 57.2453 72.6292 57.1285 72.7418 56.9881C72.8544 56.8478 72.9382 56.6866 72.9884 56.5138C73.0387 56.3411 73.0544 56.1601 73.0348 55.9812C73.0151 55.8024 72.9604 55.6292 72.8738 55.4715C72.7871 55.3138 72.6703 55.1747 72.5299 55.0621C72.3896 54.9496 72.2284 54.8657 72.0556 54.8155C71.8829 54.7652 71.7019 54.7495 71.5231 54.7691L69.9569 54.9326C70.1355 54.6693 70.3746 54.4528 70.6543 54.3011C70.9339 54.1494 71.2458 54.0671 71.5639 54.061H71.741C72.2732 54.0787 72.7775 54.3036 73.1464 54.6877C73.5153 55.0719 73.7196 55.5849 73.7157 56.1174ZM65.5443 70.0089C66.77 69.7365 68.0093 69.505 69.2759 69.287L68.949 69.7773C68.8805 69.8738 68.8382 69.9864 68.8265 70.1042L68.5132 74.1899L65.5443 70.0089ZM71.5094 91.6087C71.4278 91.6021 71.3459 91.6021 71.2643 91.6087L68.7856 88.3946L69.4257 80.1006L71.7682 83.3964C71.8694 83.5184 71.9888 83.6241 72.1223 83.7096L71.5775 91.595L71.5094 91.6087ZM87.3075 118.479L86.8853 126.555H85.9456C85.36 126.555 84.5837 126.446 83.644 126.433H82.786L83.2218 118.37H84.107L86.4087 118.493L87.3075 118.479ZM100.927 85.7933L99.5647 105.391C99.3917 107.863 98.2457 110.165 96.3778 111.792C95.453 112.608 94.3736 113.23 93.2039 113.62C92.0341 114.011 90.7978 114.163 89.5683 114.066L86.5721 113.862L84.2841 113.699L80.8521 113.399C78.3894 113.235 76.0926 112.1 74.466 110.243C72.8395 108.387 72.0161 105.961 72.1768 103.498L73.5387 83.9003C73.6476 83.0968 73.7838 81.5442 73.7838 81.5442C74.1654 79.5011 75.2144 77.6425 76.7664 76.26C78.4567 74.7743 80.6309 73.9559 82.8813 73.9584H83.535L92.3738 74.5712C94.6483 74.7218 96.7884 75.7024 98.3876 77.3268C99.9869 78.9511 100.934 81.1062 101.049 83.3828C101.049 83.3828 101.036 84.8945 100.981 85.7933H100.927ZM105.012 91.241L102.234 93.8013C102.136 93.7661 102.036 93.7387 101.934 93.7196H101.798L102.343 85.8206L102.479 85.7525L105.366 83.9275L105.012 91.241ZM105.366 80.6181L102.37 82.6065C102.06 80.1424 100.902 77.863 99.0961 76.1585C97.2898 74.4541 94.947 73.4308 92.4691 73.2638L83.644 72.6509C81.2609 72.4893 78.8925 73.1313 76.9174 74.4744C74.9422 75.8175 73.4745 77.7841 72.7488 80.0597L69.7934 75.974L70.2156 70.4583L71.1826 69.0964C75.2683 68.4699 79.4902 68.0205 84.5701 67.7345C93.0548 67.6255 99.9869 68.824 105.748 71.3435L105.366 80.6181ZM106.728 79.7056L106.987 71.8066C109.128 72.8576 111.147 74.1409 113.007 75.6335L106.728 79.7056ZM134.13 64.534C133.449 66.8765 132.768 69.0828 132.318 71.3435C131.501 75.2386 130.657 79.2698 118.699 76.8729L118.223 76.7775C117.502 76.7096 116.795 76.5352 116.125 76.26C115.492 75.8594 114.895 75.4037 114.341 74.8981C112.104 73.0159 109.627 71.4404 106.973 70.2131L104.25 63.9348H104.427C105.299 63.9395 106.139 63.6081 106.773 63.0096C107.407 62.4111 107.786 61.5914 107.831 60.7207L108.281 52.5492V52.3722C108.265 51.5117 107.926 50.6888 107.33 50.0677C106.734 49.4467 105.926 49.0732 105.067 49.0219L105.176 47.0744C105.261 45.4538 104.702 43.8652 103.62 42.6556C102.538 41.4461 101.021 40.7139 99.4012 40.619L81.2062 39.5975C79.5847 39.5083 77.9941 40.0664 76.7837 41.1491C75.5733 42.2318 74.8421 43.7506 74.7508 45.372L74.6418 47.3331C73.8234 47.3464 73.0365 47.6506 72.4219 48.1911C72.091 48.494 71.8232 48.8593 71.6339 49.2659C71.4446 49.6726 71.3375 50.1127 71.3188 50.5609L71.1962 52.7671C70.5591 52.8714 69.9647 53.1547 69.4824 53.5839C69.0001 54.0131 68.6498 54.5706 68.4724 55.1913C68.4724 55.7089 68.1455 55.8178 67.8187 55.8587L41.3569 58.7323C41.1933 58.7221 41.035 58.6705 40.8968 58.5824C40.7586 58.4943 40.6451 58.3724 40.567 58.2284L40.4716 58.065L40.3627 57.9015C40.0579 57.4667 39.6572 57.1079 39.1914 56.8529L39.0008 56.7575C38.781 56.6605 38.5532 56.583 38.3198 56.526H38.2517V54.9598C38.2528 54.8539 38.2287 54.7493 38.1813 54.6545C38.1339 54.5598 38.0647 54.4777 37.9793 54.415C37.8964 54.3537 37.8005 54.312 37.6991 54.2931C37.5976 54.2743 37.4932 54.2787 37.3937 54.3061L35.7867 54.7691C38.726 49.9374 41.2631 44.8722 43.3725 39.6248C46.5593 32.3522 49.8415 24.8481 53.7093 21.2118C71.4141 4.59658 98.1891 5.00515 116.793 12.7952C130.412 18.488 134.498 28.8657 136.786 43.7241C137.848 51.9772 135.968 58.3646 134.13 64.534Z" fill="#333333"/>
<path d="M34.2494 59.1999C34.2059 59.4106 34.1831 59.625 34.1813 59.84C34.1838 60.0596 34.2066 60.2784 34.2494 60.4938C34.2494 60.4938 34.2494 60.6163 34.2494 60.6844C34.2777 60.8241 34.3187 60.9608 34.372 61.093C34.4232 61.1634 34.4826 61.2274 34.549 61.2837C34.6 61.4012 34.6591 61.5149 34.7261 61.6241L34.8623 61.8284L35.1074 62.1144L35.2844 62.2915L35.5704 62.5366L35.7611 62.6728C35.8837 62.7545 36.0063 62.809 36.1288 62.8771L36.3059 62.9588C36.5039 63.0409 36.7091 63.1047 36.9187 63.1495V64.5931C33.1194 64.5076 29.3183 64.6349 25.5332 64.9744C20.6124 65.4328 15.7204 66.1603 10.8791 67.1535L10.4297 67.2488C17.9875 62.9024 25.9802 59.3602 34.2766 56.6804L36.9051 55.8633V56.5034C36.6955 56.5482 36.4903 56.612 36.2923 56.694L36.1152 56.7758L35.7475 56.98L35.5568 57.1162L35.2708 57.3614C35.2085 57.4169 35.1493 57.476 35.0938 57.5384L34.8486 57.8244L34.7125 58.0287C34.6455 58.1379 34.5863 58.2517 34.5354 58.3692C34.4911 58.4375 34.4545 58.5106 34.4264 58.5871C34.3732 58.7192 34.3321 58.856 34.3039 58.9957C34.3039 58.9957 34.263 59.1182 34.2494 59.1999Z" fill="#FFA950"/>
<path d="M79.6949 56.4297L79.4225 61.1964L76.5625 61.0329L79.6949 56.4297Z" fill="#FFA950"/>
<path d="M102.042 62.4356L99.8086 62.2858L100.054 57.9141L102.042 62.4356Z" fill="#FFA950"/>
<path d="M104.944 50.3826H104.304C104.214 50.3774 104.127 50.3546 104.046 50.3154C103.966 50.2763 103.894 50.2217 103.834 50.1546C103.775 50.0875 103.729 50.0094 103.7 49.9247C103.671 49.8399 103.658 49.7503 103.664 49.6608L103.814 47.0323C103.849 46.4079 103.76 45.7828 103.553 45.1927C103.346 44.6026 103.024 44.0592 102.607 43.5937C102.189 43.1281 101.684 42.7495 101.12 42.4795C100.556 42.2096 99.9439 42.0536 99.3194 42.0205L81.1243 40.9718C79.8672 40.9038 78.6339 41.3345 77.6923 42.1703C77.2234 42.5873 76.8422 43.0934 76.5709 43.6593C76.2997 44.2252 76.1439 44.8394 76.1125 45.4661L75.9627 48.0946C75.9488 48.274 75.8657 48.441 75.7311 48.5604C75.5964 48.6798 75.4207 48.7423 75.2409 48.7347H74.8051C74.5376 48.7158 74.269 48.752 74.016 48.841C73.763 48.93 73.531 49.07 73.3342 49.2522C72.9402 49.6015 72.6963 50.0894 72.6533 50.6141L72.5307 52.7932H72.6533C72.8079 52.8333 72.9584 52.888 73.1027 52.9566L73.2798 53.0519L73.6202 53.2562L73.7973 53.3924L74.0697 53.6376C74.1267 53.6902 74.177 53.7496 74.2195 53.8146C74.3072 53.9009 74.3848 53.9969 74.451 54.1006L74.5736 54.2913C74.6417 54.4002 74.6961 54.5092 74.7506 54.6181L74.8323 54.836C74.8854 54.9589 74.9265 55.0866 74.9549 55.2174C74.9549 55.2174 74.9549 55.3536 74.9549 55.408C74.969 55.6166 74.969 55.8259 74.9549 56.0345C74.975 56.2519 74.975 56.4708 74.9549 56.6882C74.9549 56.7563 74.9549 56.8244 74.9549 56.8925C74.9222 57.0266 74.8813 57.1585 74.8323 57.2875C74.8017 57.3672 74.7652 57.4445 74.7234 57.519C74.7234 57.6279 74.6144 57.7369 74.5463 57.8458L74.3965 58.0637C74.3268 58.1606 74.2494 58.2517 74.165 58.3361L74.0424 58.554L73.7701 58.7856L73.5521 58.9354C73.4478 59.0024 73.3385 59.0616 73.2253 59.1124L73.0074 59.2214C72.8691 59.2703 72.7282 59.3112 72.5852 59.3439H72.3945C72.4552 59.5147 72.5328 59.6789 72.6261 59.8342C72.725 59.9695 72.8393 60.0929 72.9665 60.2019C73.11 60.3064 73.2654 60.3933 73.4296 60.4607H73.5385C73.7176 60.5288 73.9058 60.5701 74.0969 60.5833H74.9549L79.9259 53.2698C79.9846 53.192 80.0588 53.127 80.1438 53.0792C80.2336 53.0604 80.3263 53.0604 80.4161 53.0792H80.5251L99.51 54.1006C99.6879 54.167 99.834 54.2984 99.9186 54.4683C100.029 54.5472 100.114 54.6559 100.164 54.7816L103.569 62.5172H104.249C104.788 62.5415 105.316 62.356 105.72 61.9996C106.114 61.6504 106.358 61.1625 106.401 60.6377L106.851 52.5344C106.867 52.2678 106.831 52.0006 106.744 51.748C106.657 51.4954 106.521 51.2625 106.344 51.0626C106.167 50.8627 105.952 50.6997 105.712 50.583C105.472 50.4663 105.211 50.3982 104.944 50.3826ZM89.3366 52.4663C88.6632 52.4663 88.005 52.2666 87.445 51.8925C86.8851 51.5184 86.4487 50.9866 86.191 50.3645C85.9333 49.7424 85.8659 49.0578 85.9973 48.3973C86.1287 47.7369 86.4529 47.1302 86.9291 46.654C87.4053 46.1779 88.0119 45.8536 88.6724 45.7222C89.3328 45.5908 90.0174 45.6583 90.6396 45.916C91.2617 46.1737 91.7935 46.6101 92.1676 47.17C92.5417 47.7299 92.7414 48.3882 92.7414 49.0616C92.7378 49.9634 92.3779 50.8274 91.7402 51.4651C91.1025 52.1029 90.2385 52.4627 89.3366 52.4663Z" fill="#FFA950"/>
<path d="M101.062 83.4359C101.062 83.4359 101.062 84.8931 100.98 85.7375L99.6184 105.335C99.4455 107.807 98.2994 110.109 96.4315 111.736C95.5067 112.552 94.4274 113.174 93.2576 113.565C92.0879 113.955 90.8515 114.107 89.622 114.011L86.6258 113.806L84.3378 113.643L80.8514 113.398C78.3887 113.233 76.0919 112.098 74.4653 110.242C72.8387 108.386 72.0154 105.96 72.176 103.497L73.5379 83.8989C73.6469 83.0954 73.7831 81.5428 73.7831 81.5428C74.1646 79.4997 75.2137 77.6411 76.7656 76.2587C78.456 74.7729 80.6301 73.9546 82.8806 73.957H83.5343L92.3731 74.5699C94.6476 74.7205 96.7876 75.7011 98.3869 77.3254C99.9861 78.9498 100.933 81.1048 101.048 83.3814L101.062 83.4359Z" fill="#FFA950"/>
<path d="M89.3384 45.6523C88.665 45.6523 88.0067 45.852 87.4468 46.2261C86.8869 46.6003 86.4505 47.132 86.1928 47.7542C85.9351 48.3763 85.8676 49.0609 85.999 49.7213C86.1304 50.3818 86.4547 50.9885 86.9308 51.4646C87.407 51.9408 88.0137 52.2651 88.6741 52.3964C89.3346 52.5278 90.0192 52.4604 90.6413 52.2027C91.2634 51.945 91.7952 51.5086 92.1693 50.9487C92.5434 50.3888 92.7431 49.7305 92.7431 49.0571C92.7395 48.1552 92.3797 47.2913 91.7419 46.6535C91.1042 46.0158 90.2403 45.6559 89.3384 45.6523ZM89.3384 51.1C88.9343 51.1 88.5394 50.9802 88.2034 50.7557C87.8675 50.5312 87.6056 50.2122 87.451 49.8389C87.2964 49.4656 87.2559 49.0548 87.3348 48.6586C87.4136 48.2623 87.6081 47.8983 87.8938 47.6126C88.1795 47.3269 88.5435 47.1323 88.9398 47.0535C89.3361 46.9747 89.7468 47.0151 90.1201 47.1698C90.4934 47.3244 90.8125 47.5862 91.0369 47.9222C91.2614 48.2581 91.3812 48.6531 91.3812 49.0571C91.3776 49.5978 91.1613 50.1153 90.7789 50.4977C90.3966 50.88 89.8791 51.0964 89.3384 51.1Z" fill="#333333"/>
</svg>
