<svg width="130" height="130" viewBox="0 0 130 130" fill="none" xmlns="http://www.w3.org/2000/svg">
<path d="M44.4747 7.88673C43.456 7.88673 42.4602 8.1888 41.6132 8.75475C40.7663 9.32069 40.1061 10.1251 39.7163 11.0662C39.3264 12.0073 39.2245 13.0429 39.4232 14.042C39.6219 15.0411 40.1125 15.9588 40.8328 16.6791C41.5531 17.3995 42.4708 17.89 43.4699 18.0887C44.469 18.2875 45.5046 18.1855 46.4457 17.7956C47.3868 17.4058 48.1912 16.7457 48.7572 15.8987C49.3231 15.0517 49.6252 14.0559 49.6252 13.0372C49.6268 12.3604 49.4947 11.6899 49.2364 11.0643C48.9782 10.4387 48.5989 9.87022 48.1203 9.39163C47.6417 8.91304 47.0733 8.53372 46.4476 8.27546C45.822 8.01721 45.1515 7.8851 44.4747 7.88673ZM44.4747 16.9372C43.7004 16.9372 42.9435 16.7074 42.2998 16.277C41.6562 15.8465 41.1547 15.2348 40.859 14.5192C40.5632 13.8035 40.4865 13.0163 40.6384 12.257C40.7904 11.4977 41.1642 10.8006 41.7126 10.254C42.261 9.70732 42.9593 9.33568 43.719 9.18612C44.4788 9.03656 45.2658 9.11581 45.9805 9.41383C46.6952 9.71184 47.3053 10.2152 47.7337 10.8602C48.1622 11.5053 48.3895 12.2629 48.3871 13.0372C48.3871 13.5504 48.2858 14.0586 48.089 14.5325C47.8923 15.0065 47.6039 15.437 47.2404 15.7993C46.877 16.1616 46.4456 16.4486 45.971 16.6439C45.4964 16.8392 44.9879 16.9388 44.4747 16.9372Z" fill="#333333"/>
<path d="M56.9529 20.2812C56.6246 20.2812 56.3097 20.4117 56.0775 20.6439C55.8453 20.8761 55.7148 21.191 55.7148 21.5193V73.1974C55.7148 73.5258 55.8453 73.8407 56.0775 74.0729C56.3097 74.3051 56.6246 74.4355 56.9529 74.4355C57.2813 74.4355 57.5962 74.3051 57.8284 74.0729C58.0606 73.8407 58.191 73.5258 58.191 73.1974V21.5193C58.191 21.191 58.0606 20.8761 57.8284 20.6439C57.5962 20.4117 57.2813 20.2812 56.9529 20.2812Z" fill="#333333"/>
<path d="M105.623 21.6293C105.517 21.5799 105.4 21.5607 105.284 21.5738C105.168 21.5869 105.058 21.6318 104.966 21.7035L101.698 24.3407V23.994C101.727 23.3872 101.557 22.7874 101.215 22.2854L97.8969 17.3331C97.3049 16.4247 96.4369 15.7303 95.4207 15.3521C92.536 14.2874 84.2779 11.2788 74.9798 8.4064L76.2179 4.12259C76.2798 3.97188 76.2798 3.80283 76.2179 3.65211C76.1326 3.50765 75.9953 3.40132 75.8341 3.35497L65.496 0.643542C65.3829 0.611881 65.263 0.613747 65.1509 0.648912C65.0388 0.684077 64.9393 0.751028 64.8645 0.841637C63.1436 2.97116 61.5093 4.11021 60.0236 4.3083C53.1026 2.6864 47.8655 2.00545 44.4855 2.29021C39.2855 2.71116 33.7265 5.76926 33.7265 13.0864C33.7097 14.9269 34.1681 16.7406 35.0573 18.3521C35.9466 19.9636 37.2366 21.3184 38.8026 22.2854C44.6093 25.9997 44.9931 31.3731 44.9931 39.1607V69.1597C40.5112 73.5302 34.6674 79.4112 32.055 82.9521C29.9503 85.7626 28.935 92.3369 28.7369 94.4169C28.215 101.391 26.8812 108.28 24.7626 114.944C23.4626 118.906 21.1226 124.849 20.4169 126.657C20.3076 126.917 20.2597 127.198 20.2768 127.479C20.294 127.761 20.3759 128.034 20.516 128.279C20.6414 128.511 20.818 128.712 21.0325 128.867C21.247 129.021 21.4937 129.125 21.7541 129.17C22.4958 129.319 23.251 129.389 24.0074 129.381H24.6512C26.8014 129.239 28.8515 128.42 30.5074 127.041C33.355 124.725 38.3817 119.971 39.6198 114.016C40.1081 111.669 40.3694 109.281 40.3998 106.884V106.724C40.4094 105.282 40.5503 103.844 40.8207 102.427C41.5265 99.5674 45.4388 95.4074 51.3941 91.1731C50.2303 97.2026 48.5588 106.389 48.596 110.5C48.6681 112.35 48.9887 114.182 49.5493 115.947L49.6236 116.207C50.4655 119.154 53.2636 121.556 57.0522 122.645C58.344 123.019 59.6817 123.211 61.0265 123.215C63.3987 123.313 65.7244 122.537 67.5636 121.036C68.8017 119.798 70.8693 115.65 71.1045 115.18C71.1539 115.074 71.1731 114.957 71.16 114.841C71.1469 114.725 71.102 114.615 71.0303 114.524L66.4988 108.865C66.429 108.773 66.334 108.702 66.2252 108.662C66.1164 108.621 65.9983 108.613 65.8849 108.638C65.7715 108.663 65.6676 108.719 65.5855 108.801C65.5034 108.883 65.4465 108.987 65.4217 109.101L64.5922 112.394C64.3745 113.332 63.8984 114.189 63.2179 114.87C62.7577 115.376 62.1179 115.683 61.435 115.725C61.051 115.671 60.6815 115.541 60.3479 115.343C60.0142 115.146 59.7231 114.884 59.4912 114.573C58.8409 113.784 58.3604 112.87 58.0798 111.886C56.4455 105.411 57.0769 102.762 58.5998 100.57C59.7547 99.1761 61.2283 98.0805 62.896 97.3759C64.0795 96.8146 65.3267 96.3989 66.6103 96.1378L65.9541 105.151C65.9464 105.309 65.9995 105.464 66.1026 105.584L71.6741 112.307C71.7329 112.378 71.8068 112.435 71.8904 112.473C71.9739 112.512 72.0649 112.531 72.1569 112.53H72.2807C72.3927 112.507 72.4959 112.453 72.579 112.374C72.662 112.295 72.7216 112.195 72.7512 112.084C74.8931 103.987 79.6846 97.6483 83.1512 95.7293C83.7001 95.6947 84.2362 95.5496 84.7277 95.3028C85.2191 95.0561 85.6557 94.7126 86.0112 94.2931L99.6303 77.7397C100.203 77.0402 100.521 76.1674 100.534 75.2635L101.091 48.9664L104.199 46.1931C104.618 45.8404 104.958 45.4035 105.197 44.9107C105.436 44.418 105.568 43.8804 105.585 43.3331L105.969 22.2854C105.992 22.1531 105.971 22.0169 105.908 21.8982C105.845 21.7794 105.745 21.6848 105.623 21.6293ZM65.6198 1.94354L74.856 4.41973L73.9274 7.76259L65.0998 5.57116L62.2398 4.86545C63.5284 4.0963 64.6724 3.10739 65.6198 1.94354ZM39.6198 102.13C39.3267 103.627 39.1734 105.149 39.1617 106.674V106.823C39.1355 109.153 38.8826 111.475 38.4065 113.756C37.2922 119.34 32.5007 123.859 29.7398 126.063C28.2816 127.282 26.4736 128.006 24.5769 128.13H24.0569C23.3934 128.128 22.7311 128.074 22.076 127.969C21.9861 127.951 21.9011 127.914 21.8265 127.86C21.7519 127.807 21.6892 127.739 21.6426 127.66C21.5906 127.565 21.5634 127.458 21.5634 127.35C21.5634 127.242 21.5906 127.136 21.6426 127.041C22.3236 125.295 24.676 119.315 25.9884 115.328C28.1375 108.554 29.492 101.553 30.0246 94.4664C30.2474 91.9902 31.2626 86.0226 33.095 83.6207C36.8276 79.1268 40.8343 74.8679 45.0922 70.8683V72.6016C45.0927 73.7394 45.4007 74.8559 45.9836 75.8331L50.8741 83.9797C51.1021 84.3525 51.3676 84.701 51.6665 85.0197C51.7531 85.1188 51.8769 85.2055 51.976 85.3045C52.075 85.4035 52.2855 85.614 52.4588 85.7502L51.7407 89.4645C48.2865 91.7797 40.7341 97.4007 39.6198 102.13ZM62.3884 96.2493C60.5357 97.0482 58.9043 98.2845 57.6341 99.8521C55.5912 102.762 55.4055 106.043 56.9284 112.171C57.2507 113.359 57.8297 114.462 58.6245 115.403C58.963 115.837 59.387 116.198 59.8705 116.462C60.3539 116.726 60.8864 116.888 61.435 116.938C61.9438 116.927 62.4448 116.811 62.9069 116.598C63.3691 116.385 63.7826 116.079 64.1217 115.7C64.9552 114.866 65.5385 113.815 65.8055 112.666L66.3255 110.586L69.8293 114.969C68.9984 116.791 67.9598 118.511 66.7341 120.095C64.716 121.94 61.0512 122.46 57.3988 121.432C53.9817 120.454 51.5055 118.374 50.7874 115.848L50.7626 115.613C50.2232 113.955 49.9149 112.23 49.8465 110.487C49.8465 105.659 52.2236 93.3893 53.2636 88.2016C53.3998 87.5083 53.5236 86.9635 53.5979 86.5055C53.8339 86.6184 54.0781 86.7136 54.3284 86.7902L76.6141 93.9836H75.9455H75.2893H74.856H74.2369H73.7169H73.1103H72.5407H71.9588H71.3398L70.7703 94.0454H70.1512L69.5569 94.1197L68.9874 94.194L68.3684 94.2807L67.935 94.355L67.2293 94.4788C65.5296 94.8418 63.8881 95.4375 62.3512 96.2493H62.3884ZM71.9341 110.624L67.2788 105.003L67.935 95.915H68.1455L69.2226 95.7416H69.5074L70.8941 95.5807H71.0303L72.2684 95.4693H72.6522L73.6179 95.395H74.0265H75.0046H75.9703H76.2055C78.5331 95.3331 80.2293 95.395 80.5141 95.395L81.356 95.655C77.6417 98.255 73.8531 104.322 71.9341 110.624ZM99.3703 75.2512C99.3552 75.8728 99.1378 76.4727 98.7512 76.9597L85.1322 93.5007C84.8768 93.8062 84.5591 94.0537 84.2004 94.2267C83.8417 94.3996 83.4503 94.494 83.0522 94.5035L80.9226 94.0083L80.6998 93.934L54.6998 85.5521C54.2601 85.416 53.8429 85.2157 53.4617 84.9578C52.8271 84.5549 52.2968 84.0077 51.9141 83.3607L47.0484 75.214C46.5789 74.428 46.3308 73.5296 46.3303 72.614V39.0988C46.3303 31.1502 45.8474 25.2074 39.5207 21.1835C38.1413 20.3303 37.0031 19.1384 36.2143 17.7211C35.4254 16.3039 35.0123 14.7084 35.0141 13.0864C34.9646 4.95211 42.3188 3.71402 44.5722 3.51592C47.8407 3.25592 52.9912 3.92449 59.8379 5.53402L64.7903 6.77211C77.4684 10.1645 91.1245 15.1169 94.9998 16.5407C95.7735 16.834 96.4359 17.3622 96.8941 18.0512L100.212 23.0035C100.397 23.2865 100.492 23.6189 100.485 23.9569V25.3559L77.456 43.9274C76.6772 44.6291 76.0544 45.4865 75.6279 46.4441C75.2014 47.4017 74.9806 48.4381 74.9798 49.4864V64.3435C74.9797 64.7018 75.065 65.0549 75.2286 65.3736C75.3923 65.6922 75.6295 65.9673 75.9207 66.1759C76.093 66.2951 76.2804 66.3909 76.4779 66.4607H76.6512L77.0969 66.535H77.2826C77.4933 66.5393 77.7029 66.5058 77.9017 66.4359C78.2484 66.3245 78.6074 66.1883 78.9665 66.0397L79.3503 65.8664L80.0807 65.5445L80.5512 65.2969L81.2322 64.9378L81.7645 64.6407L82.4207 64.2569L83.0026 63.8978C83.2131 63.7493 83.436 63.6131 83.6588 63.4769L84.2779 63.0559L84.9465 62.5978L85.5903 62.1521L86.2836 61.6445L86.9398 61.1493L87.6579 60.6045L88.3512 60.0721L89.0817 59.4902L89.7998 58.9083L90.5674 58.2893L91.2979 57.6826L92.1026 57.014L92.8455 56.3826L93.6874 55.6521L94.4179 55.0331L95.3465 54.2283C95.5817 54.0178 95.8169 53.8074 96.0645 53.6093L97.0798 52.7054L97.7112 52.1483L98.9493 51.0464L99.3703 50.675L99.9398 50.1674L99.3703 75.2512ZM104.323 43.2959C104.316 43.6856 104.227 44.0694 104.061 44.4217C103.894 44.774 103.654 45.0867 103.357 45.3388L100.15 48.2854C90.6293 56.754 82.9531 63.4026 77.4807 65.2102C77.3339 65.2586 77.1776 65.2715 77.0248 65.2478C76.872 65.2242 76.727 65.1646 76.6017 65.074C76.472 64.9779 76.3664 64.8529 76.2933 64.7089C76.2202 64.565 76.1817 64.4059 76.1807 64.2445V49.3874C76.176 48.5182 76.3544 47.6578 76.7042 46.8621C77.0541 46.0664 77.5675 45.3533 78.2112 44.7693L101.661 25.9997L104.719 23.5235L104.323 43.2959Z" fill="#333333"/>
<path d="M74.7926 4.4215L73.864 7.76436L65.0983 5.57293L62.2383 4.86722C63.5269 4.09807 64.6709 3.10916 65.6183 1.94531L74.7926 4.4215Z" fill="#FFA950"/>
<path d="M104.718 23.5234L104.346 43.333C104.34 43.7226 104.251 44.1064 104.084 44.4587C103.918 44.811 103.678 45.1237 103.381 45.3758L100.149 48.2853C90.6284 56.7539 82.9522 63.4025 77.4798 65.2101C77.3329 65.2585 77.1767 65.2714 77.0239 65.2477C76.8711 65.224 76.7261 65.1645 76.6007 65.0739C76.471 64.9778 76.3654 64.8528 76.2923 64.7088C76.2193 64.5649 76.1807 64.4058 76.1798 64.2444V49.3872C76.1751 48.5181 76.3534 47.6577 76.7033 46.862C77.0531 46.0663 77.5666 45.3532 78.2103 44.7692L101.66 25.9996L104.718 23.5234Z" fill="#FFA950"/>
<path d="M52.4085 85.7615L51.6904 89.4758C48.2856 91.7786 40.7332 97.3996 39.6189 102.129C39.3259 103.626 39.1725 105.147 39.1608 106.673V106.821C39.1347 109.152 38.8817 111.474 38.4056 113.755C37.2913 119.339 32.4999 123.858 29.7389 126.061C28.2807 127.281 26.4727 128.005 24.5761 128.129H24.0561C23.3926 128.127 22.7303 128.073 22.0751 127.968C21.9853 127.95 21.9003 127.913 21.8256 127.859C21.751 127.806 21.6884 127.738 21.6418 127.659C21.5898 127.564 21.5625 127.457 21.5625 127.349C21.5625 127.241 21.5898 127.134 21.6418 127.04C22.3227 125.294 24.6751 119.314 25.9875 115.327C28.1366 108.553 29.4911 101.552 30.0237 94.4653C30.2465 91.9891 31.2618 86.0215 33.0942 83.6196C36.8267 79.1257 40.8334 74.8668 45.0913 70.8672V72.6005C45.0919 73.7383 45.3999 74.8548 45.9827 75.8319L50.8732 83.9786C51.1012 84.3514 51.3667 84.6998 51.6656 85.0186C51.7523 85.1177 51.8761 85.2043 51.9751 85.3034C52.0742 85.4024 52.2351 85.6253 52.4085 85.7615Z" fill="#FFA950"/>
</svg>
