<svg width="163" height="163" viewBox="0 0 163 163" fill="none" xmlns="http://www.w3.org/2000/svg">
<path d="M126.067 108.673H128.054C129.907 108.673 131.684 107.937 132.994 106.627C134.304 105.317 135.04 103.54 135.04 101.687C135.04 99.8345 134.304 98.0577 132.994 96.7476C131.684 95.4376 129.907 94.7016 128.054 94.7016H124.949V89.2682C124.95 89.1481 124.918 89.0301 124.856 88.9267V88.8491C124.796 88.752 124.716 88.6676 124.623 88.6007C124.542 88.5536 124.453 88.522 124.36 88.5076C120.168 87.7469 115.884 86.7689 111.754 85.8219C103.092 83.8349 94.1968 81.8168 85.3793 81.5995V74.2101C86.7848 73.4949 87.9642 72.4037 88.7864 71.058C89.6086 69.7123 90.0413 68.1649 90.0364 66.5879V60.9528C90.0364 60.7469 89.9547 60.5495 89.8091 60.4039C89.6635 60.2584 89.4661 60.1766 89.2602 60.1766H85.8295L94.9264 41.0978C97.9504 40.0641 100.842 38.6782 103.542 36.9685C109.31 33.3495 114.079 28.3436 117.414 22.4077C120.749 16.4718 122.545 9.79505 122.636 2.98689C122.636 2.78508 122.636 2.56774 122.636 2.35041C122.636 2.14455 122.555 1.94712 122.409 1.80156C122.264 1.656 122.066 1.57422 121.86 1.57422H97.0221C96.8163 1.57422 96.6189 1.656 96.4733 1.80156C96.3277 1.94712 96.2459 2.14455 96.2459 2.35041C96.3097 4.30366 95.9801 6.2498 95.2766 8.0731C94.5731 9.89639 93.5102 11.5596 92.1511 12.9639C90.7919 14.3681 89.1642 15.4848 87.3649 16.2473C85.5655 17.0099 83.6312 17.4029 81.6769 17.4029C79.7226 17.4029 77.7882 17.0099 75.9888 16.2473C74.1895 15.4848 72.5618 14.3681 71.2027 12.9639C69.8435 11.5596 68.7806 9.89639 68.0771 8.0731C67.3736 6.2498 67.044 4.30366 67.1078 2.35041C67.1078 2.14455 67.026 1.94712 66.8804 1.80156C66.7349 1.656 66.5374 1.57422 66.3316 1.57422H41.4935C41.2876 1.57422 41.0902 1.656 40.9446 1.80156C40.7991 1.94712 40.7173 2.14455 40.7173 2.35041C40.7173 2.58327 40.7173 2.8006 40.7173 3.00241C40.8199 9.69758 42.5652 16.2651 45.7998 22.128C49.0344 27.9908 53.6593 32.9697 59.2682 36.627L59.3769 36.7046C62.08 38.465 64.9825 39.898 68.0237 40.9736L77.1672 60.1766H73.7985C73.5927 60.1766 73.3952 60.2584 73.2497 60.4039C73.1041 60.5495 73.0223 60.7469 73.0223 60.9528V66.5879C73.0323 68.1536 73.4719 69.6865 74.2931 71.0196C75.1143 72.3527 76.2856 73.4348 77.6795 74.148V81.5995C68.862 81.8168 59.9668 83.8349 51.289 85.8219C47.1597 86.7689 42.8751 87.7469 38.6837 88.5076C38.5907 88.522 38.5012 88.5536 38.4198 88.6007C38.3268 88.6676 38.2477 88.752 38.1869 88.8491V88.9267C38.1257 89.0301 38.0935 89.1481 38.0938 89.2682V114.106C38.093 114.231 38.1251 114.355 38.1869 114.463V114.557C38.2186 114.602 38.255 114.643 38.2956 114.681H38.3732C38.445 114.695 38.5187 114.695 38.5905 114.681H38.7923C44.7069 113.998 50.6215 113.485 56.4895 113.128L47.9669 144.952C45.0413 145.671 42.1552 146.541 39.3201 147.56C39.1701 147.614 39.0405 147.714 38.9488 147.844C38.8571 147.975 38.8079 148.13 38.8079 148.29V160.709C38.8105 160.84 38.848 160.969 38.9165 161.081C38.9944 161.18 39.089 161.264 39.196 161.33H39.2891H39.4443C44.978 162.079 50.5496 162.514 56.1324 162.634C62.9319 162.634 69.0948 161.563 72.6808 157.977C72.7554 157.907 72.8146 157.823 72.8547 157.73C72.8948 157.636 72.9149 157.535 72.9137 157.433V139.721H90.0364V157.573C90.0347 157.699 90.0652 157.824 90.1249 157.935C90.1847 158.047 90.2717 158.141 90.378 158.209C95.0351 161.314 101.245 162.867 109.705 162.867C115.047 162.794 120.376 162.322 125.648 161.454C125.83 161.428 125.997 161.336 126.117 161.196C126.237 161.056 126.302 160.878 126.3 160.693V148.274C126.299 148.123 126.254 147.976 126.172 147.849C126.089 147.723 125.972 147.622 125.834 147.56C121.517 145.832 116.983 144.703 112.36 144.207L103.853 113.051C110.652 113.47 117.42 114.075 124.034 114.883H124.189C124.313 114.876 124.434 114.844 124.546 114.789C124.546 114.789 124.546 114.712 124.655 114.665V114.572C124.716 114.463 124.748 114.34 124.748 114.215V109.775L131.951 116.668C132.02 116.742 132.105 116.801 132.198 116.842C132.291 116.882 132.392 116.903 132.494 116.903C132.596 116.903 132.697 116.882 132.79 116.842C132.884 116.801 132.968 116.742 133.037 116.668C133.112 116.598 133.171 116.514 133.211 116.42C133.252 116.327 133.273 116.226 133.273 116.124C133.273 116.023 133.252 115.922 133.211 115.828C133.171 115.735 133.112 115.651 133.037 115.581L126.067 108.673ZM111.382 87.3278C114.828 88.1195 118.383 88.8801 121.907 89.6097L112.36 94.7016H96.4633L85.3793 86.7223V83.1363C94.026 83.3537 102.844 85.3873 111.382 87.3278ZM81.5604 75.126C82.3266 75.1274 83.0893 75.0229 83.8269 74.8156V87.1104C83.8269 87.728 83.5816 88.3203 83.1449 88.757C82.7082 89.1937 82.1159 89.439 81.4983 89.439C80.8808 89.439 80.2885 89.1937 79.8518 88.757C79.4151 88.3203 79.1698 87.728 79.1698 87.1104V74.7845C79.947 75.0086 80.7516 75.1236 81.5604 75.126ZM79.1698 73.1235V64.8337H83.8269V73.17C82.3267 73.739 80.67 73.739 79.1698 73.17V73.1235ZM82.2745 90.9293C82.9406 90.8277 83.5667 90.5474 84.0861 90.1182C84.6054 89.689 84.9987 89.127 85.224 88.492L93.8087 94.7016H82.2745V90.9293ZM88.484 66.5879C88.4929 67.7423 88.2136 68.8807 87.6715 69.8999C87.1293 70.9192 86.3415 71.787 85.3793 72.4249V64.8337H88.484V66.5879ZM84.6652 58.9968C84.5261 58.8215 84.3701 58.6603 84.1995 58.5156C83.9894 58.3478 83.7662 58.1973 83.532 58.0654L83.3146 57.9722C83.1388 57.8914 82.9572 57.8239 82.7713 57.7704C82.7713 57.7704 82.7713 57.7704 82.6471 57.7704L103.542 13.1705L104.97 10.1589C105.136 9.84666 105.413 9.60806 105.747 9.49022C106.08 9.37238 106.446 9.38386 106.771 9.52241C107.089 9.678 107.333 9.95067 107.454 10.2831C107.585 10.6175 107.585 10.9888 107.454 11.3232V11.4318L106.709 12.9842L84.6652 58.9968ZM80.9084 59.1831C81.1047 59.167 81.302 59.167 81.4983 59.1831C82.1199 59.1686 82.7259 59.378 83.206 59.773C83.351 59.9045 83.4765 60.0561 83.5785 60.2232H79.4181C79.4932 60.114 79.5819 60.0149 79.6821 59.9282L79.7752 59.8351C79.9054 59.7208 80.0519 59.6266 80.2099 59.5557H80.2875L80.7221 59.4004L80.9084 59.1831ZM75.0249 42.7589C77.2211 43.1208 79.4433 43.3025 81.6691 43.3022C83.7487 43.2981 85.8248 43.132 87.8786 42.8055L81.4983 56.5285L75.0249 42.7589ZM108.913 9.77079C108.779 9.40614 108.572 9.07243 108.305 8.78967C108.038 8.50691 107.717 8.28093 107.361 8.12527C107.191 8.03348 107.008 7.97052 106.818 7.93898C106.595 7.87653 106.366 7.84519 106.135 7.84584C106 7.83084 105.865 7.83084 105.731 7.84584C105.22 7.91974 104.737 8.12874 104.334 8.45127L104.179 8.57546L104.008 8.88593C103.89 9.02021 103.786 9.16581 103.697 9.3206V9.41374C103.71 8.59031 104.049 7.80551 104.64 7.23199C105.231 6.65846 106.025 6.3432 106.849 6.35555C107.672 6.3679 108.457 6.70686 109.03 7.29785C109.604 7.88884 109.919 8.68345 109.907 9.50689C109.903 10.3214 109.58 11.1019 109.007 11.6802V11.5405C109.014 11.4268 109.014 11.3127 109.007 11.199C109.014 11.1267 109.014 11.0539 109.007 10.9816C109.007 10.9816 109.007 10.9816 109.007 10.8575V10.6246C109.014 10.3371 108.983 10.0499 108.913 9.77079ZM102.719 35.7111C100.576 37.0608 98.31 38.2043 95.951 39.1263L107.206 15.3438H107.718H108.106C108.549 15.3933 108.995 15.4193 109.441 15.4215C109.96 15.4232 110.479 15.392 110.994 15.3283H111.444L112.499 15.1265L112.965 15.0023C113.345 14.9069 113.718 14.7877 114.083 14.6453L114.362 14.5521C114.803 14.3873 115.233 14.1955 115.651 13.9777C115.754 13.9301 115.853 13.8729 115.946 13.807L116.908 13.2171L117.265 12.9532C117.56 12.7358 117.84 12.503 118.119 12.2701L118.398 12.0373C118.755 11.6957 119.097 11.3542 119.423 10.9816C119.733 10.6246 120.013 10.252 120.292 9.86393C120.292 9.86393 120.292 9.86393 120.292 9.75527C119.306 15.0576 117.236 20.0993 114.212 24.5654C111.188 29.0314 107.276 32.8257 102.719 35.7111ZM121.084 3.11108V3.62336C121.084 3.80965 121.084 3.98041 121.084 4.15117C121.084 4.32193 121.084 4.53927 120.96 4.74108C120.836 4.94289 120.96 5.0826 120.851 5.25336C120.743 5.42412 120.743 5.62593 120.696 5.81222C120.649 5.9985 120.587 6.15374 120.525 6.3245L120.323 6.83679C120.323 6.99203 120.184 7.16279 120.106 7.33355L119.718 7.76822L119.532 8.29603L119.237 8.74622L118.942 9.19641L118.6 9.61555L118.259 10.0347C118.143 10.1715 118.018 10.3012 117.886 10.4228L117.436 10.873C117.309 10.9951 117.174 11.1091 117.032 11.2145C116.9 11.3417 116.76 11.4609 116.613 11.5716L116.179 11.882L115.744 12.1925C115.589 12.3012 115.418 12.3788 115.263 12.4719L114.875 12.6737C114.704 12.7669 114.517 12.829 114.347 12.9066L113.881 13.1239L113.322 13.3257L112.841 13.4965L112.204 13.6517L111.77 13.7604L111.025 13.8691H110.652C110.269 13.8927 109.886 13.8927 109.503 13.8691C109.056 13.9318 108.605 13.9681 108.153 13.9777C109.06 13.6858 109.856 13.1225 110.433 12.3639C111.01 11.6053 111.34 10.6879 111.379 9.73556C111.419 8.78325 111.164 7.84186 110.652 7.03849C110.139 6.23512 109.392 5.60845 108.511 5.24308C107.631 4.87772 106.66 4.79125 105.729 4.99535C104.798 5.19945 103.952 5.6843 103.305 6.38443C102.658 7.08456 102.242 7.96626 102.112 8.91051C101.983 9.85476 102.146 10.8161 102.58 11.6647L102.3 11.4784L101.881 11.1214L101.245 10.5315L100.903 10.1589L100.329 9.46031C100.227 9.34278 100.134 9.21829 100.049 9.08774C99.8189 8.78265 99.6113 8.46095 99.4283 8.12527L99.3197 7.9545C99.092 7.55601 98.8948 7.14086 98.7298 6.7126C98.7298 6.60393 98.7298 6.46422 98.6056 6.35555C98.4814 6.24689 98.3882 5.7346 98.2951 5.42412C98.202 5.11365 98.2175 5.09812 98.1864 4.92736C98.1554 4.7566 98.0622 4.35298 98.0157 4.07355C97.9691 3.79412 98.0157 3.7165 98.0157 3.53022C98.0157 3.34393 98.0157 3.25079 98.0157 3.11108H121.084ZM66.2384 7.00755C67.2451 10.3157 69.2882 13.2127 72.0665 15.2714C74.8448 17.3301 78.2112 18.4414 81.6691 18.4414C85.127 18.4414 88.4934 17.3301 91.2717 15.2714C94.05 13.2127 96.0931 10.3157 97.0998 7.00755V7.1007C97.3121 7.66733 97.5664 8.21736 97.8604 8.74622C97.8604 8.83936 97.9846 8.91698 98.0312 9.01012C98.2796 9.42927 98.559 9.84841 98.854 10.252L99.2576 10.7333C99.5215 11.0437 99.7854 11.3387 100.065 11.6181L100.577 12.0994C100.868 12.3645 101.174 12.6133 101.493 12.8445L101.803 13.1084L88.6859 41.0513C83.8933 41.9362 78.9792 41.9362 74.1866 41.0513L68.7843 29.5792L72.0288 28.0268C72.1209 27.9824 72.2029 27.9195 72.2697 27.8421C72.3365 27.7646 72.3866 27.6743 72.4169 27.5766C72.4589 27.4839 72.4807 27.3834 72.4807 27.2816C72.4807 27.1799 72.4589 27.0793 72.4169 26.9867L71.0508 24.2079C71.0061 24.1161 70.9437 24.0339 70.8672 23.9662C70.7907 23.8985 70.7015 23.8466 70.6049 23.8134C70.5083 23.7803 70.406 23.7665 70.3041 23.7729C70.2021 23.7794 70.1024 23.8058 70.0107 23.8509L66.906 25.4033V25.2946L61.2087 13.3257L61.5347 13.0618C61.8739 12.8257 62.2003 12.5717 62.5127 12.3012L63.025 11.8355C63.3412 11.5301 63.6418 11.2088 63.9254 10.873L64.3135 10.4228C64.7052 9.93358 65.0581 9.41454 65.3691 8.87041V8.77727C65.6581 8.27792 65.9122 7.75922 66.1298 7.22489C66.1602 7.14971 66.1966 7.07705 66.2384 7.00755ZM56.2721 12.7358V12.6272L55.7288 11.525C55.6283 11.3214 55.5702 11.0996 55.558 10.873C55.5562 10.6037 55.6331 10.3398 55.7793 10.1136C55.9255 9.88745 56.1345 9.70895 56.3808 9.60003C56.551 9.52042 56.7363 9.47808 56.9241 9.47584C57.1952 9.4749 57.4608 9.55198 57.6893 9.69787C57.9178 9.84375 58.0994 10.0523 58.2126 10.2986L58.787 11.6492L59.144 12.4409L59.408 13.155L65.3536 25.8379L63.0405 26.9712L62.7145 26.2726L56.9707 14.2106L56.2721 12.7358ZM54.0212 11.1835C53.6852 10.8083 53.4456 10.357 53.323 9.86854C53.2003 9.38009 53.1983 8.86914 53.3172 8.37975C53.436 7.89036 53.6721 7.43722 54.0051 7.05942C54.3381 6.68162 54.758 6.3905 55.2286 6.21116C55.6992 6.03182 56.2064 5.96965 56.7064 6.03001C57.2063 6.09037 57.6841 6.27144 58.0985 6.55762C58.5129 6.8438 58.8515 7.22649 59.085 7.67268C59.3186 8.11888 59.44 8.61518 59.439 9.11879V9.3206L59.2993 9.13431L58.9888 8.85489L58.818 8.69965C58.7461 8.62431 58.6621 8.56137 58.5697 8.51336L58.3679 8.38917L58.0884 8.24946L57.8711 8.15631H57.5761H57.3588H57.0173C56.9502 8.14862 56.8825 8.14862 56.8155 8.15631H56.4274H56.2566C56.0707 8.19647 55.8888 8.25363 55.7133 8.32708C55.2237 8.55559 54.8059 8.91353 54.5049 9.36222C54.204 9.81092 54.0313 10.3333 54.0057 10.873C53.9997 10.9974 54.0049 11.1221 54.0212 11.2456V11.1835ZM70.0107 25.4809L70.6938 26.8625L67.4648 28.4149L64.8879 29.6878L60.9448 31.6283L60.2618 30.2312L70.0107 25.4809ZM42.6888 5.29993C42.6112 5.0205 42.5491 4.74108 42.487 4.46165C42.4249 4.18222 42.487 4.22879 42.487 4.12012C42.487 4.01146 42.487 3.62336 42.487 3.3905V3.00241H65.7727C65.7727 3.14212 65.7727 3.29736 65.7727 3.43708C65.7727 3.57679 65.7727 3.82517 65.7727 4.01146C65.7255 4.30935 65.6634 4.60468 65.5864 4.89631C65.5593 5.06376 65.523 5.22959 65.4778 5.39308C65.3855 5.71921 65.2767 6.04045 65.1518 6.35555C65.112 6.4822 65.0654 6.60658 65.0121 6.72812C64.8417 7.15672 64.6394 7.57187 64.4066 7.97003L64.2514 8.23393C64.0651 8.54441 63.8633 8.85489 63.646 9.14984L63.32 9.53793C63.1362 9.77644 62.9393 10.0045 62.73 10.221C62.6059 10.3452 62.4661 10.4694 62.342 10.6091L61.6744 11.1835L61.2398 11.5405L60.5412 11.8355L60.3549 11.4163C60.732 10.7309 60.9346 9.96315 60.9448 9.18089C60.9492 8.32051 60.7152 7.47573 60.2688 6.74025C59.8223 6.00477 59.1808 5.40735 58.4155 5.01426C57.6501 4.62117 56.7909 4.44777 55.933 4.51331C55.0751 4.57884 54.2521 4.88075 53.5554 5.38553C52.8587 5.89032 52.3154 6.57825 51.9858 7.37301C51.6562 8.16777 51.5533 9.0383 51.6883 9.88801C51.8234 10.7377 52.1912 11.5334 52.751 12.1868C53.3107 12.8402 54.0406 13.3258 54.8595 13.5896L55.0147 13.9156C54.6266 13.9156 54.223 13.9156 53.8349 13.9156H53.7107C51.4181 13.867 49.1901 13.1468 47.3027 11.8444C45.4153 10.542 43.9515 8.71457 43.0924 6.58841V6.49527C42.9726 6.19046 42.869 5.87956 42.782 5.56384C42.7463 5.51499 42.7151 5.46303 42.6888 5.4086V5.29993ZM60.2928 35.4627C60.259 35.4186 60.2168 35.3817 60.1686 35.354C55.7223 32.4617 51.9066 28.7003 48.9507 24.2959C45.9949 19.8915 43.96 14.935 42.9682 9.72422L43.0614 9.84841C43.3702 10.2897 43.7019 10.7146 44.0549 11.1214C44.0949 11.1536 44.1314 11.19 44.1636 11.23C44.5261 11.6526 44.9149 12.0519 45.3279 12.4254H45.421C47.2916 13.9928 49.5585 15.0134 51.972 15.3749C52.6038 15.4734 53.2421 15.5253 53.8815 15.5301C54.4528 15.5268 55.0233 15.4853 55.5891 15.4059H55.884L61.038 26.2726L61.8297 27.9026L58.9422 29.3153C58.8504 29.36 58.7682 29.4224 58.7005 29.4989C58.6329 29.5754 58.5809 29.6645 58.5478 29.7612C58.5146 29.8578 58.5008 29.96 58.5072 30.062C58.5137 30.164 58.5402 30.2637 58.5852 30.3554L59.9513 33.1496C59.9957 33.2418 60.0586 33.3238 60.136 33.3905C60.2135 33.4573 60.3038 33.5074 60.4015 33.5377C60.4836 33.5526 60.5677 33.5526 60.6499 33.5377C60.7618 33.5284 60.8717 33.5022 60.9759 33.4601L63.8167 32.063L67.0922 38.9556C64.7185 38.0132 62.4414 36.8434 60.2928 35.4627ZM69.2811 40.0267C69.2645 39.9802 69.238 39.9378 69.2035 39.9025L69.0482 39.5455L65.1983 31.3799L65.5088 31.2247L67.4959 30.2622L72.9602 42.0603L80.3185 57.7394C80.3185 57.7394 80.3185 57.7394 80.2099 57.7394C79.8634 57.8329 79.5335 57.9795 79.2319 58.174H79.1077C78.8284 58.3533 78.5773 58.573 78.3625 58.826L69.2811 40.0267ZM74.5747 61.76H88.5461V63.3124H74.5126L74.5747 61.76ZM74.5747 66.619V64.8337H77.6795V72.3473C76.7206 71.7198 75.9304 70.8665 75.3782 69.8623C74.8261 68.8581 74.5288 67.7338 74.5126 66.5879L74.5747 66.619ZM77.7726 88.492C77.9994 89.1261 78.3931 89.6873 78.9122 90.1162C79.4314 90.5452 80.0567 90.8261 80.7221 90.9293V94.7016H69.0793L77.7726 88.492ZM61.8918 100.135V96.2539H71.4079V100.135H61.8918ZM71.4079 103.24V107.121H61.8918V103.24H71.4079ZM51.615 87.3278C60.1531 85.3873 68.9706 83.3537 77.6174 83.1363V86.7223L66.4092 94.7016H50.637L41.0899 89.6097C44.6138 88.9112 48.1221 88.1195 51.615 87.3278ZM39.584 90.5567L50.0781 96.1608C50.1932 96.2208 50.3209 96.2527 50.4507 96.2539H60.3394V107.121H50.4507C50.3209 107.122 50.1932 107.154 50.0781 107.214L39.584 112.818V90.5567ZM42.6888 112.927L50.637 108.673H77.6174V110.877C66.2074 111.002 54.4714 111.778 42.6578 112.927H42.6888ZM58.2126 113.175L59.5787 113.082L51.32 144.238L49.6745 144.58L58.2126 113.175ZM40.3602 148.833C50.9164 145.138 60.1221 143.943 68.3962 145.201C58.1637 147.738 48.6002 152.456 40.3602 159.032V148.833ZM71.4079 157.247C65.6485 162.649 52.6085 161.438 41.509 160.15C50.2449 153.218 60.4857 148.432 71.4079 146.179V157.247ZM71.4079 124.864V144.207C65.3518 142.928 59.1061 142.828 53.0121 143.912L61.2398 113.004C66.7507 112.694 72.2306 112.492 77.6174 112.43V115.721C76.3289 116.761 71.4079 120.968 71.4079 124.864ZM72.9602 138.168C72.9602 135.904 73.8598 133.732 75.461 132.131C77.0622 130.53 79.2339 129.63 81.4983 129.63C83.7628 129.63 85.9345 130.53 87.5357 132.131C89.1369 133.732 90.0364 135.904 90.0364 138.168H72.9602ZM90.0364 133.511C89.133 132.061 87.875 130.865 86.3812 130.035C84.8874 129.206 83.2069 128.771 81.4983 128.771C79.7897 128.771 78.1093 129.206 76.6155 130.035C75.1217 130.865 73.8637 132.061 72.9602 133.511V124.818C72.9602 122.412 75.6924 119.447 77.6174 117.708V123.421C77.6174 124.45 78.0263 125.437 78.7541 126.165C79.4819 126.893 80.469 127.302 81.4983 127.302C82.5276 127.302 83.5148 126.893 84.2426 126.165C84.9704 125.437 85.3793 124.45 85.3793 123.421V117.754C87.3042 119.478 90.0364 122.412 90.0364 124.864V133.511ZM79.1698 123.421V104.792C79.1698 104.174 79.4151 103.582 79.8518 103.145C80.2885 102.709 80.8808 102.463 81.4983 102.463C82.1134 102.471 82.701 102.719 83.136 103.154C83.5709 103.589 83.8189 104.177 83.8269 104.792V123.421C83.8269 124.038 83.5816 124.63 83.1449 125.067C82.7082 125.504 82.1159 125.749 81.4983 125.749C80.8808 125.749 80.2885 125.504 79.8518 125.067C79.4151 124.63 79.1698 124.038 79.1698 123.421ZM85.3793 115.659V112.414C90.0364 112.414 94.6936 112.601 99.2265 112.833L107.454 143.741C102.162 143.371 96.845 143.548 91.5888 144.269V124.864C91.5888 120.968 86.6678 116.761 85.3793 115.721V115.659ZM91.5888 157.092V146.147C103.433 148.849 112.453 153.428 123.304 160.243C108.417 162.292 98.0157 161.283 91.5888 157.154V157.092ZM124.748 148.74V159.25C114.471 152.745 105.855 148.228 95.1127 145.278C106.771 144.378 118.383 146.147 124.748 148.802V148.74ZM110.683 144.021L109.131 143.865L100.903 112.911H102.254L110.683 144.021ZM85.3793 110.846V108.673H112.36L120.292 112.911C108.697 111.637 97.0442 110.948 85.3793 110.846ZM123.413 112.818L112.919 107.214C112.803 107.154 112.676 107.122 112.546 107.121H85.3793V104.792C85.3752 103.764 84.965 102.779 84.2381 102.052C83.5111 101.325 82.5264 100.915 81.4983 100.911C80.469 100.911 79.4819 101.32 78.7541 102.048C78.0263 102.776 77.6174 103.763 77.6174 104.792V107.121H72.9602V96.2539H112.546C112.676 96.2527 112.803 96.2208 112.919 96.1608L123.413 90.5567V112.818ZM124.965 96.2539H128.07C129.511 96.2539 130.893 96.8264 131.912 97.8453C132.931 98.8643 133.503 100.246 133.503 101.687C133.503 103.128 132.931 104.51 131.912 105.529C130.893 106.548 129.511 107.121 128.07 107.121H124.965V96.2539Z" fill="#333333"/>
<path d="M67.0462 38.954C64.6885 38.0089 62.4271 36.8392 60.2933 35.4611C60.2595 35.417 60.2173 35.3801 60.1691 35.3525C55.7228 32.4601 51.9071 28.6987 48.9512 24.2943C45.9954 19.8899 43.9605 14.9334 42.9688 9.72266L43.0619 9.84685C43.3708 10.2881 43.7024 10.713 44.0554 11.1198C44.0954 11.152 44.1319 11.1884 44.1641 11.2285C44.5266 11.6511 44.9154 12.0503 45.3284 12.4238H45.4215C47.2921 13.9912 49.559 15.0119 51.9726 15.3733C52.6044 15.4719 53.2426 15.5238 53.882 15.5286C54.4533 15.5253 55.0238 15.4838 55.5896 15.4044H55.8846L61.0385 26.271L61.8302 27.901L58.9428 29.3137C58.8509 29.3584 58.7688 29.4208 58.7011 29.4973C58.6334 29.5739 58.5814 29.663 58.5483 29.7596C58.5151 29.8562 58.5013 29.9585 58.5077 30.0604C58.5142 30.1624 58.5407 30.2621 58.5857 30.3538L59.9518 33.1481C59.9962 33.2402 60.0591 33.3222 60.1365 33.389C60.214 33.4557 60.3043 33.5058 60.402 33.5362C60.4841 33.551 60.5682 33.551 60.6504 33.5362C60.7623 33.5268 60.8722 33.5007 60.9764 33.4586L63.8172 32.0614L67.0462 38.954Z" fill="#FFA950"/>
<path d="M120.384 9.72266C119.39 15.0383 117.308 20.0909 114.267 24.563C111.227 29.0352 107.295 32.8302 102.718 35.7095C100.574 37.0592 98.3082 38.2027 95.9492 39.1248L107.204 15.3423H107.716H108.104C108.548 15.3918 108.993 15.4177 109.439 15.4199C109.958 15.4216 110.477 15.3905 110.992 15.3268H111.442L112.498 15.1249L112.963 15.0008C113.343 14.9053 113.716 14.7861 114.081 14.6437L114.36 14.5506C114.801 14.3857 115.232 14.1939 115.649 13.9762C115.752 13.9285 115.851 13.8714 115.944 13.8054L116.906 13.2155L117.263 12.9516C117.558 12.7343 117.838 12.5014 118.117 12.2686L118.397 12.0357C118.754 11.6942 119.095 11.3527 119.421 10.9801C119.732 10.623 120.011 10.2505 120.291 9.86237C120.322 9.78475 120.368 9.7537 120.384 9.72266Z" fill="#FFA950"/>
<path d="M101.848 13.1246L88.7307 41.0675C83.9382 41.9524 79.0241 41.9524 74.2315 41.0675L68.8292 29.5954L72.0737 28.043C72.1658 27.9986 72.2478 27.9357 72.3146 27.8583C72.3813 27.7808 72.4315 27.6904 72.4618 27.5928C72.5038 27.5001 72.5256 27.3996 72.5256 27.2978C72.5256 27.1961 72.5038 27.0955 72.4618 27.0029L71.0957 24.2241C71.051 24.1323 70.9886 24.0501 70.9121 23.9824C70.8355 23.9147 70.7464 23.8628 70.6498 23.8296C70.5532 23.7965 70.4509 23.7827 70.349 23.7891C70.247 23.7955 70.1473 23.822 70.0556 23.8671L66.9508 25.4195V25.3108L61.207 13.3264L61.533 13.0625C61.8722 12.8263 62.1986 12.5724 62.511 12.3018L63.0233 11.8361C63.3395 11.5308 63.6401 11.2095 63.9237 10.8736L64.3118 10.4235C64.7035 9.93424 65.0565 9.41521 65.3674 8.87107V8.77793C65.6564 8.27858 65.9105 7.75989 66.1281 7.22555C66.1255 7.17384 66.1255 7.12203 66.1281 7.07031C67.1347 10.3785 69.1779 13.2755 71.9562 15.3342C74.7345 17.3929 78.1008 18.5041 81.5587 18.5041C85.0167 18.5041 88.383 17.3929 91.1613 15.3342C93.9396 13.2755 95.9828 10.3785 96.9894 7.07031V7.16346C97.2018 7.73009 97.456 8.28012 97.7501 8.80898C97.7501 8.90212 97.8743 8.97974 97.9208 9.07288C98.1692 9.49203 98.4487 9.91117 98.7436 10.3148L99.1472 10.796C99.4111 11.1065 99.675 11.4015 99.9545 11.6809L100.467 12.1621C100.758 12.4272 101.064 12.676 101.383 12.9073L101.848 13.1246Z" fill="#FFA950"/>
<path d="M121.906 89.6062L112.359 94.6981H96.4629L85.3789 86.7188V83.1328C94.0257 83.3501 102.843 85.3682 111.381 87.3242C114.874 88.116 118.383 88.9077 121.906 89.6062Z" fill="#FFA950"/>
<path d="M93.8076 94.7017H82.2734V90.9294C82.9395 90.8278 83.5656 90.5475 84.085 90.1184C84.6044 89.6892 84.9977 89.1272 85.223 88.4922L93.8076 94.7017Z" fill="#FFA950"/>
<path d="M80.721 90.9294V94.7017H69.0781L77.7715 88.4922C77.9982 89.1263 78.392 89.6874 78.9111 90.1164C79.4302 90.5454 80.0555 90.8262 80.721 90.9294Z" fill="#FFA950"/>
<path d="M77.6174 83.1328V86.7188L66.4092 94.6981H50.637L41.0898 89.6062C44.6137 88.9077 48.1687 88.0539 51.615 87.3242C60.1531 85.3838 68.9706 83.3501 77.6174 83.1328Z" fill="#FFA950"/>
<path d="M77.6159 108.672V110.876C66.2059 111 54.4699 111.715 42.6562 112.925L50.6355 108.672H77.6159Z" fill="#FFA950"/>
<path d="M120.292 112.91C108.696 111.636 97.0439 110.947 85.3789 110.845V108.672H112.359L120.292 112.91Z" fill="#FFA950"/>
<path d="M71.4067 146.113V157.244C65.6473 162.646 52.6073 161.435 41.5078 160.147C50.2377 153.192 60.479 148.385 71.4067 146.113Z" fill="#FFA950"/>
<path d="M123.305 160.24C108.418 162.289 98.0167 161.28 91.5898 157.135V146.145C103.435 148.846 112.454 153.425 123.305 160.24Z" fill="#FFA950"/>
</svg>
