<svg width="79" height="53" viewBox="0 0 79 53" fill="none" xmlns="http://www.w3.org/2000/svg">
<path fill-rule="evenodd" clip-rule="evenodd" d="M60.4182 50.862C60.4123 50.862 60.4071 50.862 60.4005 50.862C60.0558 50.862 59.7196 50.7247 59.4708 50.4802C59.1711 50.1884 59.0412 49.7849 59.0412 49.3682C59.0412 48.5079 59.6406 47.8757 60.4952 47.8757C61.3505 47.8757 61.9244 48.5164 61.9244 49.3682C61.9244 49.8315 61.7252 50.1936 61.4791 50.5683L60.4932 52.0647H59.6216L60.4182 50.862ZM63.7113 50.8502C63.7055 50.8502 63.7002 50.8502 63.6957 50.8502C63.3516 50.8502 63.0173 50.7135 62.7699 50.471C62.4715 50.1772 62.3409 49.777 62.3409 49.3616C62.3409 48.504 62.939 47.875 63.789 47.875C64.6411 47.875 65.2117 48.5132 65.2117 49.3616C65.2117 49.8236 65.0132 50.1831 64.7684 50.5551L63.789 52.0457H62.9181L63.7113 50.8502ZM65.7392 49.4385C65.7392 48.5289 66.178 47.875 67.1318 47.875C68.0857 47.875 68.5238 48.5289 68.5238 49.4385V50.4802C68.5238 51.3911 68.0838 52.0457 67.1318 52.0457C66.1793 52.0457 65.7392 51.3911 65.7392 50.4802V49.4385ZM57.6577 49.1073L57.0532 49.9879L56.4806 49.5437L57.6408 47.875H58.402V52.0647H57.6571V49.1073H57.6577ZM42.5185 47.875H43.2608V52.0674H42.5185V47.875ZM46.7649 50.6268V47.875H47.5085V52.0647H46.8511L44.8728 49.1276V52.0647H44.1298V47.875H44.9185L46.7649 50.6268ZM51.2992 49.1638C51.0544 48.7793 50.6718 48.5776 50.2226 48.5776C49.8224 48.5776 49.4515 48.7359 49.1943 49.0521C48.9893 49.3051 48.8835 49.6245 48.8835 49.9492C48.8835 50.7345 49.4711 51.3418 50.2461 51.3418C50.6809 51.3418 51.0811 51.1118 51.3123 50.7411L51.3671 50.6524H52.2048L52.0605 50.9258C51.6942 51.6218 51.0276 52.045 50.2461 52.045C49.0637 52.045 48.1542 51.1558 48.1542 49.9492C48.1542 48.7695 49.0565 47.875 50.2174 47.875C51.0021 47.875 51.7001 48.2522 52.0494 48.9817L52.1767 49.2486H51.3534L51.2992 49.1638ZM53.361 48.5933V49.5969H54.9939V50.3172H53.361V51.3464H55.0507V52.0647H52.6174V47.875H55.0507V48.5933H53.361ZM40.123 50.7569C40.1478 51.1124 40.3182 51.3425 40.6884 51.3425C40.8797 51.3425 41.0579 51.2721 41.1644 51.1032C41.2244 51.0073 41.2532 50.8962 41.2532 50.7838C41.2532 50.5249 41.1141 50.3829 40.8862 50.2922C40.8014 50.2607 40.7165 50.2364 40.6303 50.2094C40.5284 50.1798 40.4272 50.1516 40.3267 50.1154C39.8174 49.936 39.506 49.633 39.506 49.058C39.506 48.7813 39.6066 48.4987 39.7822 48.2864C40.0179 47.9986 40.3554 47.8757 40.7171 47.8757C41.0566 47.8757 41.3713 47.99 41.5992 48.2516C41.7898 48.4698 41.8878 48.7583 41.893 49.0501L41.8956 49.2387H41.1715L41.1657 49.06C41.1604 48.9528 41.1298 48.8339 41.0658 48.7458C40.9718 48.6183 40.8249 48.5782 40.674 48.5782C40.5278 48.5782 40.3998 48.6249 40.3176 48.7524C40.2595 48.8431 40.2353 48.9561 40.2353 49.0639C40.2353 49.1388 40.2477 49.219 40.2941 49.2827C40.3907 49.4116 40.6662 49.4871 40.8151 49.5279C41.0716 49.6022 41.3184 49.6791 41.5359 49.8427C41.8466 50.0754 41.9811 50.404 41.9811 50.7891C41.9811 51.0986 41.8688 51.4049 41.6658 51.6349C41.4151 51.9201 41.0684 52.0463 40.6988 52.0463C39.9735 52.0463 39.395 51.5186 39.395 50.7694V50.5847H40.1106L40.123 50.7569ZM61.186 49.3938C61.186 48.962 60.9333 48.5861 60.4808 48.5861C60.046 48.5861 59.7796 48.9357 59.7796 49.3583C59.7796 49.7947 60.0408 50.1536 60.4926 50.1536C60.6153 50.1536 60.7374 50.1194 60.8445 50.0569C61.0763 49.9163 61.186 49.6626 61.186 49.3938ZM64.4759 49.3872C64.4759 48.9587 64.2258 48.5841 63.7747 48.5841C63.3431 48.5841 63.0787 48.9311 63.0787 49.3498C63.0787 49.7829 63.3366 50.1404 63.7858 50.1404C63.9085 50.1404 64.03 50.1082 64.1344 50.0445C64.3649 49.9051 64.4759 49.6528 64.4759 49.3872ZM66.4698 50.3961C66.4698 50.8686 66.5697 51.3418 67.1325 51.3418C67.6953 51.3418 67.7945 50.8679 67.7945 50.3961V49.5233C67.7945 49.0521 67.6953 48.5782 67.1325 48.5782C66.5697 48.5782 66.4698 49.0527 66.4698 49.5233V50.3961Z" fill="#1D1E20"/>
<path fill-rule="evenodd" clip-rule="evenodd" d="M43.448 14.3055C46.6955 5.765 65.8709 -2.38247 78.2439 1.18357C78.2086 5.8925 74.4604 11.2514 69.5448 14.3232C75.8262 21.8122 78.2818 29.2183 78.2439 36.2202C69.9757 26.0768 60.0778 18.141 43.448 14.3055ZM73.8904 27.4635C73.6724 23.5426 71.3578 19.1314 67.3661 14.3232C70.8022 11.1982 73.31 8.52398 74.051 5.33321C66.1719 4.04639 55.9404 7.29433 49.9626 12.1334C55.3437 13.3381 69.4129 20.0167 73.8904 27.4635Z" fill="#1D1E20"/>
<path fill-rule="evenodd" clip-rule="evenodd" d="M78.0563 40.4826C73.2099 36.2666 65.0703 24.4906 43.4393 27.4645C42.3868 20.5125 41.194 16.9334 37.3021 15.1589C36.5532 14.8171 35.7038 14.5424 34.7375 14.3242C44.465 14.3242 65.6866 23.0113 78.1817 40.5102C78.228 40.5759 78.2463 40.6095 78.1954 40.595C78.1543 40.5812 78.0896 40.5128 78.0563 40.4826Z" fill="#1D1E20"/>
<path fill-rule="evenodd" clip-rule="evenodd" d="M65.9971 38.9998C65.9527 36.6713 65.4245 33.4641 62.4376 33.4641C59.4519 33.4641 58.9211 36.6713 58.878 38.9998C58.9211 41.3276 59.4519 44.5368 62.4376 44.5368C65.4245 44.5368 65.9527 41.329 65.9971 38.9998ZM67.7005 42.6394C67.1638 43.6772 66.4091 44.5315 65.4219 45.1526C63.4913 46.3717 61.3818 46.3717 59.4525 45.1526C58.4647 44.5315 57.7126 43.6772 57.1739 42.6394C56.0901 40.5508 56.0901 37.4507 57.1739 35.3615C57.7126 34.3231 58.4654 33.4693 59.4525 32.847C61.3818 31.6291 63.4913 31.6291 65.4219 32.847C66.4098 33.4693 67.1638 34.3231 67.7005 35.3615C68.8131 37.5079 68.8131 40.4936 67.7005 42.6394Z" fill="#1D1E20"/>
<path fill-rule="evenodd" clip-rule="evenodd" d="M52.5034 44.6402H53.0936V45.7298H46.6039V44.6402H47.1849H47.1908C47.2254 44.6388 47.2587 44.6362 47.2907 44.6329C47.6851 44.6007 48.035 44.4647 48.3053 44.1676C48.5893 43.8554 48.714 43.4821 48.714 43.0609V33.7679C48.714 33.6318 48.6846 33.505 48.588 33.4189C48.4679 33.3177 48.2204 33.3006 48.0735 33.3006C47.2261 33.3006 46.611 33.645 46.1175 34.3429C45.5436 35.1592 45.2805 36.4329 45.1447 37.4029L45.1166 37.5856H44.0693L44.3749 32.2109H55.3259L55.6314 37.5856H54.5816L54.5574 37.4029C54.4196 36.4322 54.1578 35.1592 53.5833 34.3429C53.091 33.645 52.4753 33.3006 51.6259 33.3006C51.4803 33.3006 51.2309 33.317 51.1199 33.4123C51.0168 33.505 50.9861 33.6318 50.9861 33.7679V43.0615C50.9861 43.4861 51.1121 43.8561 51.3967 44.1683C51.667 44.4653 52.0163 44.6014 52.4113 44.6336C52.4401 44.6362 52.4714 44.6388 52.5034 44.6402Z" fill="#1D1E20"/>
<path fill-rule="evenodd" clip-rule="evenodd" d="M17.1625 44.6261H17.1651C17.199 44.6247 17.2317 44.6221 17.2643 44.6182C17.6587 44.5866 18.008 44.4512 18.2783 44.1542C18.5636 43.8394 18.6883 43.4667 18.6883 43.0441V37.1345H18.6876V34.8467C18.6876 34.4241 18.5623 34.0489 18.277 33.7374C18.0067 33.4403 17.6567 33.3043 17.263 33.2707C17.2304 33.2694 17.1971 33.2668 17.1651 33.2655L17.1148 33.2628H16.8608V32.1719H27.5768V37.0228H26.5015L26.4708 36.8453C26.1796 35.1122 25.9889 33.418 23.9402 33.418H22.4868C22.0611 33.437 21.6772 33.5691 21.3847 33.8905C21.1046 34.1974 20.9747 34.5648 20.9747 34.9828V37.9323H22.1232C22.5384 37.9323 22.9001 37.8022 23.2063 37.5196C23.5243 37.2252 23.6555 36.8374 23.6731 36.4129L23.6764 36.1907H24.7576V41.3012H23.6731V41.0922C23.6725 41.06 23.6705 41.0278 23.6672 40.9963C23.6346 40.5993 23.5001 40.2477 23.2056 39.9736C22.8949 39.6884 22.5253 39.5609 22.1055 39.5609H20.9741V42.9061C20.9741 43.3248 21.104 43.6902 21.3841 43.9991C21.6766 44.3191 22.0605 44.4512 22.479 44.471H22.4914H23.5941C26.019 44.471 26.143 42.8398 26.4094 40.5927L26.4329 40.4054H27.5755V45.7177H16.8608V44.6267L17.1625 44.6261Z" fill="#1D1E20"/>
<path fill-rule="evenodd" clip-rule="evenodd" d="M8.00482 45.7038H7.00394L2.48331 34.1763C2.38276 33.9298 2.22411 33.6176 2.008 33.4592C1.80365 33.3127 1.52486 33.2733 1.28003 33.2733H0.648682V32.1836H6.54952V33.2733H5.38672C5.22089 33.2733 4.84809 33.2838 4.7051 33.3784C4.62741 33.4303 4.58954 33.4921 4.58954 33.5854C4.58954 33.7123 4.67703 33.9239 4.7273 34.0402L4.72991 34.0468L4.80304 34.2328L8.01135 42.4631L11.219 34.2328L11.2928 34.0468L11.2961 34.0402C11.347 33.9239 11.4332 33.7123 11.4332 33.5854C11.4332 33.4914 11.3953 33.4316 11.3183 33.3784C11.1746 33.2831 10.8025 33.2759 10.6366 33.2759H9.47383V32.1849H15.374V33.2759H14.742C14.4978 33.2759 14.2191 33.3147 14.014 33.4592C13.7986 33.6176 13.6406 33.9298 13.5387 34.1776L9.01811 45.7038H8.00482Z" fill="#1D1E20"/>
<path fill-rule="evenodd" clip-rule="evenodd" d="M41.4019 45.7189H40.4774H40.2202C39.9805 45.7189 39.8421 45.6394 39.7005 45.4494L39.3479 44.9716L32.6433 35.935V43.0644C32.6433 43.4831 32.7733 43.8472 33.054 44.156C33.3445 44.4761 33.7278 44.6075 34.1522 44.6266L34.3715 44.6279V45.7189H29.3031V44.6266C29.4174 44.6266 29.5251 44.6279 29.6381 44.6168C30.5371 44.4919 30.7271 44.0772 30.7271 43.2714L30.7278 34.5384C30.7278 34.1697 30.6964 33.9173 30.5365 33.7261C30.355 33.5256 30.1382 33.3988 29.894 33.3285C29.8006 33.3055 29.7047 33.291 29.6054 33.2825C29.5734 33.2798 29.5428 33.2798 29.5108 33.2765H29.3025V32.1836H32.2953C32.5343 32.1836 32.6727 32.2638 32.815 32.4537L39.4883 41.4562L39.487 34.6442C39.487 33.8385 39.2983 33.4238 38.3999 33.2976C38.2856 33.2871 38.1779 33.2897 38.0643 33.2897V32.1954H43.1314V33.2857L42.912 33.2897C42.4903 33.3087 42.1064 33.4389 41.8145 33.7596C41.5338 34.0678 41.4045 34.4339 41.4045 34.8506C41.4058 38.4692 41.4019 42.0977 41.4019 45.7189Z" fill="#1D1E20"/>
</svg>
