<svg width="136.000000" height="31.000000" viewBox="0 0 136 31" fill="none" xmlns="http://www.w3.org/2000/svg" xmlns:xlink="http://www.w3.org/1999/xlink">
	<desc>
			Created with Pixso.
	</desc>
	<defs>
		<filter id="filter_14_53886_dd" x="0.115234" y="7.226562" width="28.157227" height="28.156250" filterUnits="userSpaceOnUse" color-interpolation-filters="sRGB">
			<feFlood flood-opacity="0" result="BackgroundImageFix"/>
			<feBlend mode="normal" in="SourceGraphic" in2="BackgroundImageFix" result="shape"/>
			<feGaussianBlur stdDeviation="0.514184" result="effect_layerBlur_1"/>
		</filter>
		<filter id="filter_14_53887_dd" x="7.204102" y="-0.523438" width="21.198242" height="21.191406" filterUnits="userSpaceOnUse" color-interpolation-filters="sRGB">
			<feFlood flood-opacity="0" result="BackgroundImageFix"/>
			<feBlend mode="normal" in="SourceGraphic" in2="BackgroundImageFix" result="shape"/>
			<feGaussianBlur stdDeviation="0.38713" result="effect_layerBlur_1"/>
		</filter>
		<clipPath id="clip14_53896">
			<rect id="лейбл" rx="14.825353" width="29.650705" height="29.650715" transform="translate(0.452148 0.859375)" fill="white" fill-opacity="0"/>
		</clipPath>
		<clipPath id="clip14_53897">
			<rect id="logo2" width="136.000000" height="31.000000" fill="white" fill-opacity="0"/>
		</clipPath>
		<linearGradient id="paint_linear_14_53873_0" x1="85.946915" y1="34.633305" x2="85.946915" y2="-1.682846" gradientUnits="userSpaceOnUse">
			<stop stop-color="#000000"/>
			<stop offset="1.000000" stop-color="#474945" stop-opacity="0.517647"/>
		</linearGradient>
		<linearGradient id="paint_linear_14_53874_0" x1="85.947090" y1="34.630211" x2="85.947090" y2="-1.685936" gradientUnits="userSpaceOnUse">
			<stop stop-color="#000000"/>
			<stop offset="1.000000" stop-color="#474945" stop-opacity="0.517647"/>
		</linearGradient>
		<linearGradient id="paint_linear_14_53875_0" x1="85.947319" y1="34.632080" x2="85.947319" y2="-1.684048" gradientUnits="userSpaceOnUse">
			<stop stop-color="#000000"/>
			<stop offset="1.000000" stop-color="#474945" stop-opacity="0.517647"/>
		</linearGradient>
		<linearGradient id="paint_linear_14_53876_0" x1="85.946144" y1="34.631157" x2="85.946144" y2="-1.684971" gradientUnits="userSpaceOnUse">
			<stop stop-color="#000000"/>
			<stop offset="1.000000" stop-color="#474945" stop-opacity="0.517647"/>
		</linearGradient>
		<linearGradient id="paint_linear_14_53877_0" x1="85.946922" y1="34.632080" x2="85.946922" y2="-1.684048" gradientUnits="userSpaceOnUse">
			<stop stop-color="#000000"/>
			<stop offset="1.000000" stop-color="#474945" stop-opacity="0.517647"/>
		</linearGradient>
		<linearGradient id="paint_linear_14_53878_0" x1="85.947327" y1="34.630226" x2="85.947327" y2="-1.685940" gradientUnits="userSpaceOnUse">
			<stop stop-color="#000000"/>
			<stop offset="1.000000" stop-color="#474945" stop-opacity="0.517647"/>
		</linearGradient>
		<linearGradient id="paint_linear_14_53879_0" x1="85.946945" y1="34.632271" x2="85.946945" y2="-1.683857" gradientUnits="userSpaceOnUse">
			<stop stop-color="#000000"/>
			<stop offset="1.000000" stop-color="#474945" stop-opacity="0.517647"/>
		</linearGradient>
		<linearGradient id="paint_linear_14_53880_0" x1="85.947533" y1="34.632084" x2="85.947533" y2="-1.684055" gradientUnits="userSpaceOnUse">
			<stop stop-color="#000000"/>
			<stop offset="1.000000" stop-color="#474945" stop-opacity="0.517647"/>
		</linearGradient>
		<linearGradient id="paint_linear_14_53881_0" x1="85.947006" y1="34.632080" x2="85.947006" y2="-1.684055" gradientUnits="userSpaceOnUse">
			<stop stop-color="#000000"/>
			<stop offset="1.000000" stop-color="#474945" stop-opacity="0.517647"/>
		</linearGradient>
		<radialGradient id="paint_radial_14_53886_0" cx="0.000000" cy="0.000000" r="1.000000" gradientUnits="userSpaceOnUse" gradientTransform="translate(14.9608 18.7502) rotate(114.21) scale(11.687 26.8138)">
			<stop stop-color="#FFFFFF"/>
			<stop offset="1.000000" stop-color="#FFFFFF" stop-opacity="0.000000"/>
		</radialGradient>
		<radialGradient id="paint_radial_14_53887_0" cx="0.000000" cy="0.000000" r="1.000000" gradientUnits="userSpaceOnUse" gradientTransform="translate(17.2256 11.9956) rotate(-65.7904) scale(10.0131 20.1882)">
			<stop stop-color="#FFFFFF"/>
			<stop offset="1.000000" stop-color="#FFFFFF" stop-opacity="0.000000"/>
		</radialGradient>
	</defs>
	<rect id="logo2" width="136.000000" height="31.000000" fill="#FFFFFF" fill-opacity="0"/>
	<g clip-path="url(#clip14_53897)">
		<mask id="mask14_53882" mask-type="alpha" maskUnits="userSpaceOnUse" x="34.787109" y="4.554688" width="101.153320" height="20.378906">
			<path id="path397" d="M41.3828 24.5898C40.8486 23.2031 40.333 21.8125 39.834 20.4258C39.3535 19.0195 38.8457 17.543 38.3115 15.9961C37.707 14.2578 37.1016 12.4492 36.4961 10.5664C35.9082 8.66797 35.3389 6.83203 34.7871 5.05859L36.5225 5.05859C36.8789 6.21875 37.2256 7.37891 37.5645 8.53906C37.9199 9.69922 38.2764 10.8594 38.6328 12.0156C39.0059 13.1758 39.3447 14.2305 39.6475 15.1797C39.9678 16.1133 40.2617 17 40.5283 17.8438C40.8135 18.668 41.0977 19.4766 41.3828 20.2656C41.668 21.0391 41.9707 21.8594 42.291 22.7188C42.6465 21.7188 43.0029 20.6875 43.3594 19.6367C43.7148 18.582 44.0713 17.5273 44.4268 16.4727C44.9971 14.6953 45.584 12.8516 46.1895 10.9375C46.8125 9.01953 47.4355 7.0625 48.0586 5.05859L49.7412 5.05859C49.332 6.41016 48.8691 7.87109 48.3525 9.43359C47.8359 11 47.3203 12.5547 46.8037 14.0977C46.1455 16.0664 45.5039 17.9375 44.8809 19.7148C44.2578 21.4883 43.6885 23.1133 43.1719 24.5898L41.3828 24.5898Z" fill="url(#paint_linear_14_53873_0)" fill-opacity="1.000000" fill-rule="nonzero"/>
			<path id="path399" d="M51.4727 4.55469L53.0215 4.55469L53.0215 15.8086C53.4482 15.4414 53.9023 15.0469 54.3838 14.625C54.8643 14.1836 55.3359 13.7461 55.7988 13.3047C56.2793 12.8477 56.7246 12.4102 57.1338 11.9883C57.5615 11.5469 57.9346 11.125 58.2549 10.7227L60.0176 10.7227C59.1807 11.7773 58.2734 12.7891 57.2939 13.7539C56.333 14.7031 55.3896 15.5742 54.4639 16.3633C55.6211 17.5938 56.7773 18.875 57.9346 20.2109C59.1094 21.5469 60.2578 23.0039 61.3799 24.5859L59.5908 24.5859C58.5049 23.25 57.4277 21.9688 56.3594 20.7383C55.3086 19.5078 54.1963 18.2773 53.0215 17.0469L53.0215 24.5859L51.4727 24.5859L51.4727 4.55469Z" fill="url(#paint_linear_14_53874_0)" fill-opacity="1.000000" fill-rule="nonzero"/>
			<path id="path401" d="M70.4609 24.5898C70.3896 24.3945 70.3369 24.1953 70.3008 23.9844C70.2656 23.7734 70.2295 23.457 70.1943 23.0352C69.4639 23.7734 68.707 24.2734 67.9238 24.5352C67.1592 24.8008 66.4736 24.9336 65.8682 24.9336C64.7822 24.9336 63.874 24.5703 63.1445 23.8516C62.4854 23.1992 62.1562 22.2617 62.1562 21.0312C62.1562 20.2383 62.29 19.5547 62.5566 18.9766C62.8242 18.3945 63.1797 17.9102 63.625 17.5234C64.0703 17.1211 64.5771 16.8125 65.1475 16.6016C65.7344 16.375 66.3398 16.207 66.9629 16.1016L70.1943 15.5742C70.1943 14.4141 69.9268 13.4844 69.3926 12.7812C68.877 12.0586 68.0137 11.6992 66.8027 11.6992C66.2148 11.6992 65.5918 11.7969 64.9336 11.9883C64.2744 12.1641 63.6514 12.4297 63.0645 12.7812L62.8242 11.3555C63.3398 11.0742 63.9277 10.8398 64.5859 10.6445C65.2451 10.4531 66.0195 10.3555 66.9092 10.3555C68.4053 10.3555 69.5801 10.7695 70.4346 11.5938C71.3066 12.4219 71.7432 13.7031 71.7432 15.4414L71.7432 22.4258C71.7432 22.7422 71.7695 23.1133 71.8232 23.5352C71.876 23.9375 71.9473 24.2891 72.0361 24.5898L70.4609 24.5898ZM70.1943 16.8398C69.5889 16.9258 69.0547 17.0078 68.5918 17.0781C68.1465 17.1484 67.7461 17.2266 67.3906 17.3125C67.0518 17.3828 66.7402 17.4648 66.4551 17.5508C66.1885 17.6211 65.9395 17.7109 65.708 17.8164C64.373 18.4141 63.7051 19.4844 63.7051 21.0312C63.7051 21.7695 63.9102 22.375 64.3193 22.8477C64.7285 23.3242 65.3516 23.5625 66.1885 23.5625C66.6162 23.5625 67.0254 23.5 67.417 23.375C67.8262 23.2344 68.2002 23.0586 68.5381 22.8477C68.877 22.6367 69.1885 22.4102 69.4727 22.1641C69.7578 21.9023 69.998 21.6445 70.1943 21.3984L70.1943 16.8398Z" fill="url(#paint_linear_14_53875_0)" fill-opacity="1.000000" fill-rule="nonzero"/>
			<path id="path403" d="M74.9863 10.7227L76.5615 10.7227L76.5615 12.9922C77.2744 12.0938 78.0039 11.4609 78.752 11.0938C79.499 10.7227 80.1934 10.5391 80.834 10.5391C80.9414 10.5391 81.0566 10.5391 81.1816 10.5391C81.3242 10.5391 81.4395 10.5469 81.5283 10.5664L81.3418 12.0938C81.2529 12.0781 81.1553 12.0664 81.0479 12.0664C80.9414 12.0664 80.834 12.0664 80.7275 12.0664C79.7842 12.0664 78.9834 12.3672 78.3242 12.9648C77.6836 13.5625 77.0869 14.3438 76.5352 15.3086L76.5352 24.5898L74.9863 24.5898L74.9863 10.7227Z" fill="url(#paint_linear_14_53876_0)" fill-opacity="1.000000" fill-rule="nonzero"/>
			<path id="path405" d="M90.2988 24.5898C90.2275 24.3945 90.1748 24.1953 90.1387 23.9844C90.1035 23.7734 90.0674 23.457 90.0322 23.0352C89.3018 23.7734 88.5449 24.2734 87.7617 24.5352C86.9971 24.8008 86.3115 24.9336 85.7061 24.9336C84.6201 24.9336 83.7119 24.5703 82.9824 23.8516C82.3232 23.1992 81.9941 22.2617 81.9941 21.0312C81.9941 20.2383 82.1279 19.5547 82.3945 18.9766C82.6621 18.3945 83.0176 17.9102 83.4629 17.5234C83.9082 17.1211 84.415 16.8125 84.9854 16.6016C85.5723 16.375 86.1777 16.207 86.8008 16.1016L90.0322 15.5742C90.0322 14.4141 89.7646 13.4844 89.2305 12.7812C88.7148 12.0586 87.8516 11.6992 86.6406 11.6992C86.0527 11.6992 85.4297 11.7969 84.7715 11.9883C84.1123 12.1641 83.4893 12.4297 82.9023 12.7812L82.6621 11.3555C83.1777 11.0742 83.7656 10.8398 84.4238 10.6445C85.083 10.4531 85.8574 10.3555 86.7471 10.3555C88.2432 10.3555 89.418 10.7695 90.2725 11.5938C91.1445 12.4219 91.5811 13.7031 91.5811 15.4414L91.5811 22.4258C91.5811 22.7422 91.6074 23.1133 91.6611 23.5352C91.7139 23.9375 91.7852 24.2891 91.874 24.5898L90.2988 24.5898ZM90.0322 16.8398C89.4268 16.9258 88.8926 17.0078 88.4297 17.0781C87.9844 17.1484 87.584 17.2266 87.2285 17.3125C86.8896 17.3828 86.5781 17.4648 86.293 17.5508C86.0264 17.6211 85.7773 17.7109 85.5459 17.8164C84.2109 18.4141 83.543 19.4844 83.543 21.0312C83.543 21.7695 83.748 22.375 84.1572 22.8477C84.5664 23.3242 85.1895 23.5625 86.0264 23.5625C86.4541 23.5625 86.8633 23.5 87.2549 23.375C87.6641 23.2344 88.0381 23.0586 88.376 22.8477C88.7148 22.6367 89.0264 22.4102 89.3105 22.1641C89.5957 21.9023 89.8359 21.6445 90.0322 21.3984L90.0322 16.8398Z" fill="url(#paint_linear_14_53877_0)" fill-opacity="1.000000" fill-rule="nonzero"/>
			<path id="path407" d="M94.8525 4.55469L96.4014 4.55469L96.4014 12.1719C97.0781 11.5586 97.7539 11.1016 98.4307 10.8008C99.1074 10.5039 99.7305 10.3555 100.3 10.3555C101.866 10.3555 103.095 10.9258 103.985 12.0664C104.875 13.1914 105.32 14.9648 105.32 17.3906C105.32 19.8867 104.875 21.7656 103.985 23.0312C103.113 24.2812 101.911 24.9023 100.38 24.9023C99.5254 24.9023 98.7695 24.7461 98.1104 24.4297C97.4697 24.0938 96.8818 23.6367 96.3477 23.0586L96.3477 24.5859L94.8525 24.5859L94.8525 4.55469ZM96.4014 21.082C96.5791 21.3281 96.793 21.6016 97.042 21.8984C97.3096 22.1797 97.6025 22.4453 97.9238 22.6875C98.2617 22.918 98.6182 23.1094 98.9912 23.2695C99.3828 23.4258 99.793 23.5078 100.22 23.5078C101.323 23.5078 102.178 23.0156 102.783 22.0312C103.389 21.0469 103.691 19.4727 103.691 17.3125C103.691 15.3984 103.371 14 102.73 13.1211C102.089 12.2266 101.271 11.7773 100.273 11.7773C99.8457 11.7773 99.4365 11.8555 99.0449 12.0156C98.6709 12.1562 98.3154 12.332 97.9766 12.543C97.6562 12.7539 97.3623 12.9805 97.0957 13.2266C96.8281 13.4727 96.5977 13.6992 96.4014 13.9102L96.4014 21.082Z" fill="url(#paint_linear_14_53878_0)" fill-opacity="1.000000" fill-rule="nonzero"/>
			<path id="path409" d="M108.937 7.48438C108.634 7.48438 108.376 7.35156 108.162 7.08594C107.966 6.82422 107.868 6.51562 107.868 6.16406C107.868 5.8125 107.966 5.52344 108.162 5.29297C108.376 5.04688 108.634 4.92578 108.937 4.92578C109.274 4.92578 109.542 5.04688 109.737 5.29297C109.934 5.52344 110.031 5.8125 110.031 6.16406C110.031 6.51562 109.934 6.82422 109.737 7.08594C109.542 7.35156 109.274 7.48438 108.937 7.48438ZM108.162 10.7266L109.684 10.7266L109.684 24.5898L108.162 24.5898L108.162 10.7266Z" fill="url(#paint_linear_14_53879_0)" fill-opacity="1.000000" fill-rule="nonzero"/>
			<path id="path411" d="M113.074 10.7227L114.623 10.7227L114.623 12.832C115.335 11.9023 116.074 11.2617 116.84 10.9102C117.623 10.5391 118.415 10.3555 119.216 10.3555C120.551 10.3555 121.539 10.75 122.18 11.543C122.821 12.332 123.142 13.4141 123.142 14.7852L123.142 24.5898L121.593 24.5898L121.593 15.0195C121.593 13.8594 121.361 13.0273 120.898 12.5156C120.436 11.9883 119.804 11.7266 119.002 11.7266C118.521 11.7266 118.067 11.8125 117.641 11.9883C117.231 12.1641 116.84 12.4023 116.466 12.7031C116.092 12.9844 115.744 13.3086 115.424 13.6758C115.121 14.0469 114.854 14.4336 114.623 14.8359L114.623 24.5898L113.074 24.5898L113.074 10.7227Z" fill="url(#paint_linear_14_53880_0)" fill-opacity="1.000000" fill-rule="nonzero"/>
			<path id="path413" d="M127.503 17.9219C127.503 19.8164 127.903 21.2227 128.704 22.1367C129.523 23.0508 130.601 23.5078 131.936 23.5078C132.559 23.5078 133.217 23.4023 133.911 23.1914C134.605 22.9805 135.211 22.7266 135.728 22.4258L135.94 23.957C135.514 24.2031 134.936 24.4141 134.205 24.5898C133.493 24.7812 132.719 24.8789 131.882 24.8789C130.867 24.8789 129.986 24.7031 129.238 24.3516C128.49 24 127.867 23.5 127.369 22.8477C126.871 22.1992 126.497 21.4102 126.247 20.4766C126.017 19.5469 125.9 18.5078 125.9 17.3672C125.9 15.1172 126.346 13.3867 127.235 12.1758C128.126 10.9609 129.443 10.3555 131.188 10.3555C132.024 10.3555 132.736 10.5039 133.324 10.8047C133.93 11.0859 134.428 11.4883 134.819 12.0156C135.211 12.543 135.496 13.1836 135.674 13.9414C135.852 14.6953 135.94 15.5391 135.94 16.4688C135.94 16.5742 135.94 16.7422 135.94 16.9727C135.94 17.1992 135.932 17.3945 135.914 17.5508L127.503 17.5508L127.503 17.9219ZM134.312 16.2344C134.276 14.582 134 13.4023 133.484 12.7031C132.968 11.9805 132.176 11.6211 131.107 11.6211C130.093 11.6211 129.265 12.0156 128.624 12.8086C127.983 13.5977 127.627 14.7383 127.556 16.2344L134.312 16.2344Z" fill="url(#paint_linear_14_53881_0)" fill-opacity="1.000000" fill-rule="nonzero"/>
		</mask>
		<g mask="url(#mask14_53882)">
			<rect id="Rectangle 3322" x="32.712891" y="1.457031" width="107.187408" height="29.390095" fill="#FFFFFF" fill-opacity="1.000000"/>
		</g>
		<g clip-path="url(#clip14_53896)">
			<path id="path5412-8" d="M29.6592 12.0977C31.6396 20.043 26.8057 28.0859 18.8633 30.0664C10.9209 32.0469 2.87598 27.2148 0.895508 19.2695C-1.08398 11.3281 3.74902 3.28516 11.6914 1.30469C19.6348 -0.675781 27.6787 4.15625 29.6592 12.0977Z" fill="#347EA4" fill-opacity="1.000000" fill-rule="nonzero"/>
			<g opacity="0.500000" filter="url(#filter_14_53886_dd)">
				<path id="path5414-7" d="M2.0332 24.3359C0.358398 17.6211 4.44531 10.8203 11.1621 9.14453C17.8779 7.46875 24.6797 11.5547 26.3545 18.2734C28.0293 24.9883 23.9424 31.793 17.2256 33.4648C10.5098 35.1406 3.70703 31.0547 2.0332 24.3359Z" fill="url(#paint_radial_14_53886_0)" fill-opacity="1.000000" fill-rule="nonzero"/>
			</g>
			<g opacity="0.500000" filter="url(#filter_14_53887_dd)">
				<path id="path5416-9" d="M26.959 7.78906C28.2197 12.8477 25.1426 17.9688 20.0859 19.2266C15.0293 20.4883 9.9082 17.4102 8.64746 12.3555C7.38672 7.29688 10.4639 2.17578 15.5205 0.917969C20.5771 -0.34375 25.6982 2.73438 26.959 7.78906Z" fill="url(#paint_radial_14_53887_0)" fill-opacity="1.000000" fill-rule="nonzero"/>
			</g>
			<g opacity="0.200000">
				<path id="path5418-2" d="M24.4326 13.4062C25.6934 18.4609 22.6162 23.582 17.5596 24.8438C12.5029 26.1055 7.38184 23.0273 6.12109 17.9727C4.86035 12.9141 7.9375 7.79297 12.9941 6.53125C18.0508 5.27344 23.1719 8.34766 24.4326 13.4062Z" fill="#FFFFFF" fill-opacity="1.000000" fill-rule="nonzero"/>
			</g>
			<g opacity="0.200000">
				<path id="path5564-0" d="M24.4326 13.4062C25.6934 18.4609 22.6162 23.582 17.5596 24.8438C12.5029 26.1055 7.38184 23.0273 6.12109 17.9727C4.86035 12.9141 7.9375 7.79297 12.9941 6.53125C18.0508 5.27344 23.1719 8.34766 24.4326 13.4062Z" fill="#FFFFFF" fill-opacity="1.000000" fill-rule="nonzero"/>
			</g>
			<g opacity="0.330000">
				<path id="path5568-2" d="M26.6602 4.25781C27.7021 8.44141 24.749 20.0312 20.5693 21.0742C16.3887 22.1172 12.5635 12.2148 11.5215 8.03516C10.4795 3.85156 13.0234 -0.378906 17.2031 -1.42188C21.3838 -2.46484 25.6172 0.078125 26.6602 4.25781Z" fill="#FFFFFF" fill-opacity="1.000000" fill-rule="nonzero"/>
			</g>
			<g opacity="0.330000">
				<path id="path5580-3" d="M31.459 7.68359C32.501 11.8672 29.957 16.0977 25.7764 17.1406C21.5967 18.1836 9.59473 20.9531 8.55176 16.7734C7.50977 12.5938 17.8223 3.04688 22.002 2.00391C26.1826 0.960938 30.416 3.50391 31.459 7.68359Z" fill="#FFFFFF" fill-opacity="1.000000" fill-rule="nonzero"/>
			</g>
			<g opacity="0.330000">
				<path id="path5582-7" d="M21.875 4.32422C22.917 8.50781 20.373 23.7773 16.1924 24.8203C12.0127 25.8633 7.77832 12.2812 6.73633 8.10156C5.69434 3.91797 8.23828 -0.3125 12.418 -1.35547C16.5986 -2.39844 20.832 0.144531 21.875 4.32422Z" fill="#FFFFFF" fill-opacity="1.000000" fill-rule="nonzero"/>
			</g>
			<g opacity="0.330000">
				<path id="path5584-5" d="M33.1084 13.1836C34.1514 17.3672 31.6074 21.5977 27.4268 22.6406C23.2461 23.6836 10.0176 21.1406 8.97559 16.9609C7.93359 12.7773 19.4717 8.54688 23.6523 7.50391C27.833 6.46094 32.0664 9.00391 33.1084 13.1836Z" fill="#FFFFFF" fill-opacity="1.000000" fill-rule="nonzero"/>
			</g>
			<g opacity="0.330000">
				<path id="path5624-9" d="M24.4326 13.4062C25.6934 18.4609 22.6162 23.582 17.5596 24.8438C12.5029 26.1055 7.38184 23.0273 6.12109 17.9727C4.86035 12.9141 7.9375 7.79297 12.9941 6.53125C18.0508 5.27344 23.1719 8.34766 24.4326 13.4062Z" fill="#EEEEEC" fill-opacity="1.000000" fill-rule="nonzero"/>
			</g>
			<path id="path3463-2" d="M24.4326 13.4062C25.6934 18.4609 22.6162 23.582 17.5596 24.8438C12.5029 26.1055 7.38184 23.0273 6.12109 17.9727C4.86035 12.9141 7.9375 7.79297 12.9941 6.53125C18.0508 5.27344 23.1719 8.34766 24.4326 13.4062Z" fill="#2452CC" fill-opacity="1.000000" fill-rule="evenodd"/>
		</g>
	</g>
</svg>
