<svg width="181" height="123" viewBox="0 0 181 123" fill="none" xmlns="http://www.w3.org/2000/svg">
<path fill-rule="evenodd" clip-rule="evenodd" d="M137.897 117.798C137.883 117.798 137.871 117.798 137.856 117.798C137.07 117.798 136.302 117.484 135.734 116.926C135.05 116.26 134.754 115.339 134.754 114.388C134.754 112.425 136.122 110.982 138.072 110.982C140.024 110.982 141.334 112.444 141.334 114.388C141.334 115.446 140.88 116.272 140.318 117.127L138.068 120.543H136.079L137.897 117.798ZM145.413 117.771C145.399 117.771 145.387 117.771 145.377 117.771C144.592 117.771 143.829 117.459 143.264 116.905C142.583 116.235 142.285 115.321 142.285 114.373C142.285 112.416 143.65 110.98 145.59 110.98C147.535 110.98 148.837 112.437 148.837 114.373C148.837 115.428 148.384 116.248 147.825 117.097L145.59 120.499H143.602L145.413 117.771ZM150.041 114.549C150.041 112.473 151.043 110.98 153.22 110.98C155.397 110.98 156.397 112.473 156.397 114.549V116.926C156.397 119.005 155.392 120.499 153.22 120.499C151.046 120.499 150.041 119.005 150.041 116.926V114.549ZM131.596 113.793L130.216 115.803L128.91 114.789L131.557 110.98H133.295V120.543H131.595V113.793H131.596ZM97.0429 110.98H98.7372V120.549H97.0429V110.98ZM106.735 117.261V110.98H108.432V120.543H106.931L102.416 113.839V120.543H100.721V110.98H102.521L106.735 117.261ZM117.084 113.922C116.525 113.044 115.652 112.584 114.627 112.584C113.713 112.584 112.867 112.945 112.28 113.667C111.812 114.244 111.57 114.973 111.57 115.714C111.57 117.507 112.911 118.893 114.68 118.893C115.673 118.893 116.586 118.368 117.114 117.522L117.239 117.319H119.151L118.821 117.943C117.985 119.532 116.464 120.498 114.68 120.498C111.982 120.498 109.906 118.468 109.906 115.714C109.906 113.022 111.965 110.98 114.615 110.98C116.406 110.98 117.999 111.841 118.796 113.506L119.087 114.115H117.207L117.084 113.922ZM121.79 112.62V114.91H125.516V116.554H121.79V118.903H125.646V120.543H120.092V110.98H125.646V112.62H121.79ZM91.5756 117.558C91.6322 118.369 92.0211 118.894 92.866 118.894C93.3026 118.894 93.7094 118.734 93.9523 118.348C94.0894 118.129 94.155 117.876 94.155 117.619C94.155 117.028 93.8376 116.704 93.3175 116.497C93.1238 116.425 92.9301 116.37 92.7334 116.308C92.5009 116.241 92.27 116.176 92.0405 116.094C90.8782 115.684 90.1674 114.993 90.1674 113.68C90.1674 113.049 90.3969 112.404 90.7977 111.919C91.3357 111.262 92.1061 110.982 92.9316 110.982C93.7065 110.982 94.4247 111.243 94.9448 111.84C95.3799 112.338 95.6034 112.996 95.6153 113.662L95.6213 114.093H93.9687L93.9553 113.685C93.9434 113.44 93.8734 113.169 93.7273 112.968C93.5128 112.677 93.1775 112.585 92.8332 112.585C92.4995 112.585 92.2074 112.692 92.0196 112.983C91.887 113.19 91.8319 113.448 91.8319 113.694C91.8319 113.865 91.8602 114.048 91.966 114.193C92.1865 114.487 92.8154 114.66 93.1551 114.753C93.7407 114.922 94.304 115.098 94.8002 115.471C95.5095 116.002 95.8165 116.752 95.8165 117.631C95.8165 118.338 95.5602 119.037 95.0968 119.562C94.5246 120.213 93.7333 120.501 92.8899 120.501C91.2343 120.501 89.9141 119.296 89.9141 117.586V117.165H91.5473L91.5756 117.558ZM139.649 114.447C139.649 113.461 139.072 112.603 138.04 112.603C137.047 112.603 136.439 113.401 136.439 114.366C136.439 115.362 137.035 116.181 138.066 116.181C138.347 116.181 138.625 116.103 138.87 115.96C139.399 115.639 139.649 115.06 139.649 114.447ZM147.158 114.432C147.158 113.454 146.587 112.599 145.557 112.599C144.572 112.599 143.969 113.391 143.969 114.346C143.969 115.335 144.557 116.151 145.583 116.151C145.863 116.151 146.14 116.077 146.378 115.932C146.904 115.614 147.158 115.038 147.158 114.432ZM151.709 116.734C151.709 117.813 151.937 118.893 153.221 118.893C154.506 118.893 154.732 117.811 154.732 116.734V114.742C154.732 113.667 154.506 112.585 153.221 112.585C151.937 112.585 151.709 113.668 151.709 114.742V116.734Z" fill="#1D1E20"/>
<path fill-rule="evenodd" clip-rule="evenodd" d="M99.1641 34.3596C106.576 14.8671 150.341 -3.72844 178.581 4.41056C178.501 15.1581 169.946 27.3891 158.726 34.4001C173.063 51.4926 178.667 68.3961 178.581 84.3771C159.71 61.2261 137.119 43.1136 99.1641 34.3596ZM168.645 64.3911C168.147 55.4421 162.865 45.3741 153.754 34.4001C161.596 27.2676 167.32 21.1641 169.011 13.8816C151.028 10.9446 127.676 18.3576 114.033 29.4021C126.314 32.1516 158.425 47.3946 168.645 64.3911Z" fill="#1D1E20"/>
<path fill-rule="evenodd" clip-rule="evenodd" d="M178.153 94.1014C167.091 84.4789 148.514 57.6019 99.144 64.3894C96.7419 48.5224 94.0194 40.3534 85.1367 36.3034C83.4275 35.5234 81.4889 34.8964 79.2834 34.3984C101.485 34.3984 149.921 54.2254 178.439 94.1644C178.545 94.3144 178.586 94.3909 178.47 94.3579C178.376 94.3264 178.229 94.1704 178.153 94.1014Z" fill="#1D1E20"/>
<path fill-rule="evenodd" clip-rule="evenodd" d="M150.63 90.7214C150.528 85.4069 149.323 78.0869 142.505 78.0869C135.691 78.0869 134.48 85.4069 134.381 90.7214C134.48 96.0344 135.691 103.359 142.505 103.359C149.323 103.359 150.528 96.0374 150.63 90.7214ZM154.517 99.0284C153.293 101.397 151.57 103.347 149.317 104.764C144.911 107.547 140.096 107.547 135.693 104.764C133.438 103.347 131.721 101.397 130.492 99.0284C128.018 94.2614 128.018 87.1859 130.492 82.4174C131.721 80.0474 133.439 78.0989 135.693 76.6784C140.096 73.8989 144.911 73.8989 149.317 76.6784C151.571 78.0989 153.293 80.0474 154.517 82.4174C157.057 87.3164 157.057 94.1309 154.517 99.0284Z" fill="#1D1E20"/>
<path fill-rule="evenodd" clip-rule="evenodd" d="M119.832 103.587H121.179V106.074H106.367V103.587H107.693H107.706C107.785 103.584 107.861 103.578 107.934 103.57C108.834 103.497 109.633 103.186 110.25 102.508C110.898 101.796 111.183 100.944 111.183 99.9823V78.7722C111.183 78.4617 111.116 78.1723 110.895 77.9758C110.621 77.7448 110.056 77.7058 109.721 77.7058C107.787 77.7058 106.383 78.4917 105.257 80.0847C103.947 81.9477 103.346 84.8548 103.036 87.0688L102.972 87.4858H100.582L101.279 75.2188H126.274L126.971 87.4858H124.575L124.52 87.0688C124.205 84.8533 123.608 81.9477 122.296 80.0847C121.173 78.4917 119.768 77.7058 117.829 77.7058C117.497 77.7058 116.927 77.7432 116.674 77.9607C116.439 78.1722 116.369 78.4617 116.369 78.7722V99.9837C116.369 100.953 116.656 101.797 117.306 102.51C117.923 103.188 118.72 103.498 119.622 103.572C119.687 103.578 119.759 103.584 119.832 103.587Z" fill="#1D1E20"/>
<path fill-rule="evenodd" clip-rule="evenodd" d="M39.1709 103.566H39.1768C39.2543 103.563 39.3288 103.557 39.4033 103.548C40.3034 103.476 41.1006 103.167 41.7175 102.489C42.3687 101.77 42.6533 100.92 42.6533 99.9551V86.4671H42.6518V81.2456C42.6518 80.2811 42.3657 79.4246 41.7145 78.7136C41.0976 78.0356 40.2989 77.7251 39.4003 77.6486C39.3258 77.6456 39.2498 77.6396 39.1768 77.6366L39.0621 77.6306H38.4824V75.1406H62.9401V86.2121H60.4858L60.4158 85.8071C59.7512 81.8516 59.3161 77.9846 54.64 77.9846H51.323C50.3514 78.0281 49.4752 78.3296 48.8076 79.0631C48.1683 79.7636 47.8718 80.6021 47.8718 81.5561V88.2881H50.4929C51.4407 88.2881 52.2662 87.9911 52.9651 87.3461C53.6908 86.6741 53.9903 85.7891 54.0305 84.8201L54.038 84.3131H56.5056V95.9771H54.0305V95.5001C54.029 95.4266 54.0246 95.3531 54.0171 95.2811C53.9426 94.3751 53.6356 93.5726 52.9636 92.9471C52.2543 92.2961 51.4109 92.0051 50.4527 92.0051H47.8703V99.6401C47.8703 100.596 48.1668 101.43 48.8061 102.135C49.4737 102.865 50.3499 103.167 51.3051 103.212H51.3334H53.8502C59.3846 103.212 59.6677 99.4886 60.2757 94.3601L60.3293 93.9326H62.9371V106.057H38.4824V103.567L39.1709 103.566Z" fill="#1D1E20"/>
<path fill-rule="evenodd" clip-rule="evenodd" d="M18.2699 106.022H15.9855L5.66776 79.7121C5.43828 79.1496 5.07617 78.4371 4.58294 78.0756C4.11652 77.7411 3.48024 77.6511 2.92143 77.6511H1.48047V75.1641H14.9483V77.6511H12.2944C11.9159 77.6511 11.065 77.6751 10.7387 77.8911C10.5614 78.0096 10.4749 78.1506 10.4749 78.3636C10.4749 78.6531 10.6746 79.1361 10.7894 79.4016L10.7953 79.4166L10.9622 79.8411L18.2848 98.6256L25.6058 79.8411L25.7742 79.4166L25.7817 79.4016C25.8979 79.1361 26.0946 78.6531 26.0946 78.3636C26.0946 78.1491 26.0082 78.0126 25.8323 77.8911C25.5045 77.6736 24.6551 77.6571 24.2766 77.6571H21.6227V75.1671H35.0891V77.6571H33.6466C33.0893 77.6571 32.453 77.7456 31.9851 78.0756C31.4934 78.4371 31.1327 79.1496 30.9003 79.7151L20.5826 106.022H18.2699Z" fill="#1D1E20"/>
<path fill-rule="evenodd" clip-rule="evenodd" d="M94.4942 106.057H92.3841H91.797C91.2501 106.057 90.9342 105.875 90.6109 105.442L89.8062 104.351L74.5039 83.7261V99.9981C74.5039 100.954 74.8005 101.785 75.4412 102.49C76.1044 103.22 76.9791 103.52 77.9477 103.564L78.4483 103.567V106.057H66.8804V103.564C67.1412 103.564 67.387 103.567 67.6448 103.541C69.6968 103.256 70.1304 102.31 70.1304 100.471L70.1319 80.5386C70.1319 79.6971 70.0604 79.1211 69.6953 78.6846C69.281 78.2271 68.7863 77.9376 68.229 77.7771C68.0159 77.7246 67.7968 77.6916 67.5703 77.6721C67.4973 77.6661 67.4273 77.6661 67.3543 77.6586H66.8789V75.1641H73.7097C74.2551 75.1641 74.571 75.3471 74.8958 75.7806L90.1266 96.3276L90.1236 80.7801C90.1236 78.9411 89.6929 77.9946 87.6425 77.7066C87.3817 77.6826 87.1358 77.6886 86.8766 77.6886V75.1911H98.4415V77.6796L97.9408 77.6886C96.9782 77.7321 96.102 78.0291 95.4359 78.7611C94.7952 79.4646 94.5001 80.3001 94.5001 81.2511C94.5031 89.5101 94.4942 97.7916 94.4942 106.057Z" fill="#1D1E20"/>
</svg>
