<svg width="20.000000" height="20.000000" viewBox="0 0 20 20" fill="none" xmlns="http://www.w3.org/2000/svg" xmlns:xlink="http://www.w3.org/1999/xlink">
	<desc>
			Created with Pixso.
	</desc>
	<defs/>
	<rect id="vuesax" width="20.000000" height="20.000000" fill="#FFFFFF" fill-opacity="0"/>
	<path id="Vector" d="M18.0996 16.1797C17.958 16.4844 17.7744 16.7656 17.5322 17.0312C17.124 17.4844 16.6748 17.8047 16.166 18.0156C15.666 18.2188 15.124 18.3281 14.541 18.3281C13.6914 18.3281 12.7822 18.1328 11.8242 17.7188C10.8662 17.3125 9.90723 16.7656 8.95801 16.0703C7.99902 15.375 7.09082 14.5938 6.22461 13.7422C5.36621 12.875 4.59082 11.9609 3.89941 11.0156C3.21582 10.0625 2.66602 9.11719 2.26562 8.17188C1.86621 7.21875 1.66602 6.3125 1.66602 5.44531C1.66602 4.88281 1.76562 4.33594 1.96582 3.83594C2.16602 3.32812 2.48242 2.86719 2.9248 2.44531C3.45801 1.92188 4.04102 1.66406 4.65723 1.66406C4.89062 1.66406 5.12402 1.71094 5.33301 1.8125C5.5498 1.91406 5.74121 2.0625 5.89062 2.28125L7.82422 5.00781C7.97461 5.21094 8.08301 5.40625 8.15723 5.58594C8.23242 5.76562 8.27441 5.9375 8.27441 6.09375C8.27441 6.29688 8.21582 6.5 8.09961 6.6875C7.99121 6.88281 7.83301 7.07812 7.63281 7.28125L6.99902 7.9375C6.90723 8.03125 6.86621 8.14062 6.86621 8.27344C6.86621 8.33594 6.87402 8.39844 6.89062 8.46094C6.93262 8.57812 6.98535 8.6875 7.04785 8.78906C7.20312 9.03906 7.43164 9.34375 7.73242 9.69531C8.10742 10.1328 8.50781 10.5703 8.94141 11.0156C9.39062 11.4531 9.82422 11.8672 10.2656 12.2422C10.6992 12.6094 11.0576 12.8594 11.3408 13.0078C11.3828 13.0234 11.4326 13.0469 11.4912 13.0703C11.5576 13.0938 11.624 13.1094 11.6992 13.1094C11.8408 13.1094 11.9492 13.0547 12.041 12.9609L12.6748 12.3359C12.8828 12.1328 13.083 11.9688 13.2744 11.875C13.4658 11.7578 13.6572 11.6953 13.8662 11.6953C14.0244 11.6953 14.1914 11.7344 14.374 11.8047C14.5576 11.8828 14.749 11.9922 14.958 12.1328L17.7158 14.0859C17.9326 14.2422 18.083 14.4141 18.1748 14.625C18.2578 14.8281 18.3076 15.0391 18.3076 15.2734C18.3076 15.5703 18.2412 15.8828 18.0996 16.1797Z" stroke="#0234C7" stroke-opacity="1.000000" stroke-width="1.500000"/>
	<path id="Vector" d="M15.417 7.5C15.417 7 15.0254 6.23438 14.4414 5.60938C13.9082 5.03906 13.2002 4.58594 12.5 4.58594" stroke="#0234C7" stroke-opacity="1.000000" stroke-width="1.500000" stroke-linejoin="round" stroke-linecap="round"/>
	<path id="Vector" d="M18.333 7.5C18.333 4.27344 15.7246 1.66406 12.5 1.66406" stroke="#0234C7" stroke-opacity="1.000000" stroke-width="1.500000" stroke-linejoin="round" stroke-linecap="round"/>
	<g opacity="0.000000"/>
</svg>
