<svg width="137" height="31" viewBox="0 0 137 31" fill="none" xmlns="http://www.w3.org/2000/svg">
<g clip-path="url(#clip0_1999_47995)">
<path d="M41.4252 24.3646C40.8857 22.9475 40.3642 21.5303 39.8607 20.1131C39.3752 18.678 38.8627 17.1712 38.3232 15.5926C37.7118 13.8167 37.1004 11.969 36.489 10.0496C35.8956 8.11219 35.3202 6.23759 34.7627 4.42578H36.516C36.8756 5.60973 37.2263 6.79369 37.568 7.97764C37.9276 9.16159 38.2872 10.3455 38.6469 11.5295C39.0245 12.7134 39.3662 13.7898 39.6719 14.7585C39.9956 15.7092 40.2923 16.6151 40.5621 17.4761C40.8498 18.3193 41.1375 19.1445 41.4252 19.9517C41.7129 20.741 42.0186 21.5751 42.3423 22.4541C42.702 21.4316 43.0616 20.3822 43.4213 19.3059C43.7809 18.2296 44.1406 17.1533 44.5002 16.077C45.0756 14.2651 45.669 12.3816 46.2805 10.4263C46.9098 8.47095 47.5392 6.47079 48.1686 4.42578H49.8679C49.4543 5.80706 48.9868 7.29598 48.4653 8.89252C47.9438 10.4891 47.4223 12.0766 46.9009 13.6552C46.2355 15.6643 45.5881 17.5748 44.9587 19.3866C44.3294 21.1984 43.7539 22.8578 43.2324 24.3646H41.4252Z" fill="url(#paint0_linear_1999_47995)"/>
<path d="M51.6172 3.91406H53.1817V15.4038C53.6132 15.0271 54.0718 14.6234 54.5573 14.1929C55.0428 13.7444 55.5194 13.296 55.9869 12.8475C56.4724 12.3811 56.922 11.9327 57.3356 11.5021C57.7672 11.0537 58.1448 10.6231 58.4685 10.2105H60.2488C59.4036 11.2869 58.4865 12.3183 57.4974 13.3049C56.5264 14.2736 55.5733 15.1616 54.6383 15.9689C55.8071 17.2246 56.976 18.5341 58.1448 19.8974C59.3316 21.2608 60.4915 22.7497 61.6244 24.3641H59.8172C58.7202 23.0008 57.6323 21.6913 56.5534 20.4356C55.4924 19.1799 54.3685 17.9242 53.1817 16.6685V24.3641H51.6172V3.91406Z" fill="url(#paint1_linear_1999_47995)"/>
<path d="M70.797 24.3623C70.7251 24.165 70.6711 23.9587 70.6352 23.7435C70.5992 23.5282 70.5632 23.2053 70.5273 22.7748C69.79 23.5282 69.0257 24.0395 68.2345 24.3085C67.4613 24.5776 66.769 24.7121 66.1576 24.7121C65.0606 24.7121 64.1435 24.3444 63.4063 23.6089C62.7409 22.9452 62.4082 21.9855 62.4082 20.7298C62.4082 19.9225 62.5431 19.2229 62.8128 18.6309C63.0825 18.039 63.4422 17.5457 63.8917 17.151C64.3413 16.7384 64.8538 16.4245 65.4293 16.2092C66.0227 15.976 66.6341 15.8056 67.2635 15.698L70.5273 15.1598C70.5273 13.9759 70.2575 13.0251 69.7181 12.3076C69.1966 11.5721 68.3244 11.2043 67.1016 11.2043C66.5082 11.2043 65.8788 11.303 65.2135 11.5003C64.5481 11.6797 63.9187 11.9488 63.3253 12.3076L63.0826 10.8545C63.604 10.5675 64.1975 10.3253 64.8628 10.128C65.5282 9.93069 66.3104 9.83203 67.2095 9.83203C68.72 9.83203 69.9069 10.2536 70.77 11.0967C71.6512 11.9398 72.0917 13.2493 72.0917 15.0253V22.1559C72.0917 22.4788 72.1187 22.8555 72.1727 23.286C72.2266 23.6986 72.2985 24.0574 72.3884 24.3623H70.797ZM70.5273 16.4514C69.9159 16.5411 69.3764 16.6218 68.9089 16.6936C68.4593 16.7653 68.0547 16.846 67.695 16.9357C67.3534 17.0075 67.0387 17.0882 66.751 17.1779C66.4812 17.2497 66.2295 17.3394 65.9957 17.447C64.647 18.0569 63.9727 19.1512 63.9727 20.7298C63.9727 21.4832 64.1795 22.1021 64.5931 22.5864C65.0067 23.0708 65.636 23.313 66.4812 23.313C66.9128 23.313 67.3264 23.2502 67.722 23.1246C68.1356 22.9811 68.5133 22.8017 68.8549 22.5864C69.1966 22.3712 69.5113 22.138 69.799 21.8868C70.0867 21.6177 70.3295 21.3576 70.5273 21.1065V16.4514Z" fill="url(#paint2_linear_1999_47995)"/>
<path d="M75.3691 10.2118H76.9606V12.5259C77.6799 11.611 78.4172 10.9652 79.1724 10.5885C79.9277 10.2118 80.629 10.0234 81.2764 10.0234C81.3843 10.0234 81.5012 10.0234 81.627 10.0234C81.7709 10.0234 81.8878 10.0324 81.9777 10.0503L81.7889 11.611C81.699 11.5931 81.6001 11.5841 81.4922 11.5841C81.3843 11.5841 81.2764 11.5841 81.1685 11.5841C80.2154 11.5841 79.4062 11.8891 78.7409 12.499C78.0935 13.1089 77.4911 13.9072 76.9336 14.8938V24.3654H75.3691V10.2118Z" fill="url(#paint3_linear_1999_47995)"/>
<path d="M90.8361 24.3623C90.7641 24.165 90.7102 23.9587 90.6742 23.7435C90.6383 23.5282 90.6023 23.2053 90.5664 22.7748C89.8291 23.5282 89.0648 24.0395 88.2736 24.3085C87.5003 24.5776 86.808 24.7121 86.1966 24.7121C85.0997 24.7121 84.1826 24.3444 83.4453 23.6089C82.78 22.9452 82.4473 21.9855 82.4473 20.7298C82.4473 19.9225 82.5821 19.2229 82.8519 18.6309C83.1216 18.039 83.4812 17.5457 83.9308 17.151C84.3804 16.7384 84.8929 16.4245 85.4683 16.2092C86.0617 15.976 86.6731 15.8056 87.3025 15.698L90.5664 15.1598C90.5664 13.9759 90.2966 13.0251 89.7571 12.3076C89.2356 11.5721 88.3635 11.2043 87.1407 11.2043C86.5473 11.2043 85.9179 11.303 85.2525 11.5003C84.5872 11.6797 83.9578 11.9488 83.3644 12.3076L83.1216 10.8545C83.6431 10.5675 84.2365 10.3253 84.9019 10.128C85.5672 9.93069 86.3495 9.83203 87.2486 9.83203C88.7591 9.83203 89.9459 10.2536 90.8091 11.0967C91.6902 11.9398 92.1308 13.2493 92.1308 15.0253V22.1559C92.1308 22.4788 92.1578 22.8555 92.2117 23.286C92.2657 23.6986 92.3376 24.0574 92.4275 24.3623H90.8361ZM90.5664 16.4514C89.9549 16.5411 89.4154 16.6218 88.9479 16.6936C88.4983 16.7653 88.0938 16.846 87.7341 16.9357C87.3924 17.0075 87.0778 17.0882 86.79 17.1779C86.5203 17.2497 86.2685 17.3394 86.0348 17.447C84.6861 18.0569 84.0117 19.1512 84.0117 20.7298C84.0117 21.4832 84.2186 22.1021 84.6321 22.5864C85.0457 23.0708 85.6751 23.313 86.5203 23.313C86.9519 23.313 87.3654 23.2502 87.7611 23.1246C88.1747 22.9811 88.5523 22.8017 88.894 22.5864C89.2357 22.3712 89.5503 22.138 89.8381 21.8868C90.1258 21.6177 90.3685 21.3576 90.5664 21.1065V16.4514Z" fill="url(#paint4_linear_1999_47995)"/>
<path d="M95.4355 3.91406H97V11.6905C97.6834 11.0626 98.3667 10.5962 99.05 10.2913C99.7334 9.9863 100.363 9.83383 100.938 9.83383C102.521 9.83383 103.761 10.4168 104.661 11.5828C105.56 12.7309 106.009 14.5427 106.009 17.0183C106.009 19.5656 105.56 21.485 104.661 22.7766C103.779 24.0502 102.566 24.6871 101.019 24.6871C100.156 24.6871 99.3917 24.5256 98.7263 24.2027C98.079 23.8619 97.4856 23.3955 96.9461 22.8035V24.3641H95.4355V3.91406ZM97 20.7854C97.1798 21.0365 97.3956 21.3146 97.6474 21.6195C97.9171 21.9066 98.2138 22.1756 98.5375 22.4268C98.8792 22.66 99.2388 22.8573 99.6165 23.0187C100.012 23.1802 100.426 23.2609 100.857 23.2609C101.972 23.2609 102.835 22.7586 103.447 21.7541C104.058 20.7495 104.364 19.144 104.364 16.9375C104.364 14.9822 104.04 13.5561 103.393 12.6592C102.745 11.7443 101.918 11.2869 100.911 11.2869C100.48 11.2869 100.066 11.3676 99.6704 11.529C99.2928 11.6725 98.9331 11.8519 98.5915 12.0672C98.2678 12.2825 97.9711 12.5156 97.7013 12.7668C97.4316 13.0179 97.1978 13.2512 97 13.4664V20.7854Z" fill="url(#paint5_linear_1999_47995)"/>
<path d="M109.662 6.89913C109.356 6.89913 109.096 6.7646 108.88 6.49552C108.682 6.22644 108.583 5.9125 108.583 5.55373C108.583 5.19495 108.682 4.89897 108.88 4.66577C109.096 4.41462 109.356 4.28906 109.662 4.28906C110.004 4.28906 110.273 4.41462 110.471 4.66577C110.669 4.89897 110.768 5.19495 110.768 5.55373C110.768 5.9125 110.669 6.22644 110.471 6.49552C110.273 6.7646 110.004 6.89913 109.662 6.89913ZM108.88 10.2088H110.417V24.3624H108.88V10.2088Z" fill="url(#paint6_linear_1999_47995)"/>
<path d="M113.842 10.2087H115.406V12.3614C116.126 11.4106 116.872 10.7559 117.645 10.3971C118.436 10.0204 119.237 9.83203 120.046 9.83203C121.394 9.83203 122.392 10.2356 123.04 11.0429C123.687 11.8501 124.011 12.9534 124.011 14.3526V24.3623H122.446V14.5948C122.446 13.4108 122.213 12.5587 121.745 12.0385C121.278 11.5003 120.639 11.2312 119.83 11.2312C119.344 11.2312 118.886 11.3209 118.454 11.5003C118.041 11.6797 117.645 11.9219 117.267 12.2268C116.89 12.5138 116.539 12.8457 116.215 13.2224C115.91 13.5992 115.64 13.9938 115.406 14.4064V24.3623H113.842V10.2087Z" fill="url(#paint7_linear_1999_47995)"/>
<path d="M128.415 17.5546C128.415 19.492 128.82 20.9271 129.629 21.8599C130.456 22.7927 131.544 23.2591 132.893 23.2591C133.522 23.2591 134.188 23.1515 134.889 22.9362C135.59 22.721 136.202 22.4609 136.723 22.1559L136.939 23.7166C136.507 23.9677 135.923 24.183 135.186 24.3623C134.466 24.5597 133.684 24.6583 132.839 24.6583C131.814 24.6583 130.924 24.4789 130.169 24.1202C129.413 23.7614 128.784 23.2502 128.28 22.5864C127.777 21.9227 127.399 21.1154 127.148 20.1647C126.914 19.2139 126.797 18.1556 126.797 16.9896C126.797 14.6934 127.246 12.9264 128.146 11.6887C129.045 10.4509 130.375 9.83203 132.138 9.83203C132.983 9.83203 133.702 9.9845 134.296 10.2895C134.907 10.5765 135.41 10.9891 135.806 11.5272C136.202 12.0654 136.489 12.7201 136.669 13.4915C136.849 14.2629 136.939 15.1239 136.939 16.0747C136.939 16.1823 136.939 16.3527 136.939 16.5859C136.939 16.8191 136.93 17.0165 136.912 17.1779H128.415L128.415 17.5546ZM135.294 15.8325C135.258 14.1463 134.979 12.9444 134.457 12.2268C133.936 11.4913 133.136 11.1236 132.057 11.1236C131.032 11.1236 130.196 11.5272 129.548 12.3345C128.901 13.1417 128.541 14.3077 128.469 15.8325H135.294Z" fill="url(#paint8_linear_1999_47995)"/>
<g clip-path="url(#clip1_1999_47995)">
<path d="M29.5825 11.4627C31.5828 19.4858 26.7005 27.6114 18.6774 29.6118C10.6544 31.6122 2.52872 26.7298 0.528335 18.7067C-1.47203 10.6836 3.41032 2.558 11.4334 0.557654C19.4564 -1.44278 27.5821 3.43964 29.5825 11.4627Z" fill="#347EA4"/>
<g opacity="0.5" filter="url(#filter0_f_1999_47995)">
<path d="M0.834187 26.2087C-0.857319 19.4245 3.27116 12.5535 10.0554 10.862C16.8396 9.17051 23.7106 13.299 25.4021 20.0832C27.0936 26.8675 22.9651 33.7384 16.1809 35.4299C9.39665 37.1214 2.52569 32.993 0.834187 26.2087Z" fill="url(#paint9_radial_1999_47995)"/>
</g>
<g opacity="0.5" filter="url(#filter1_f_1999_47995)">
<path d="M26.8559 7.10548C28.1295 12.2134 25.0211 17.3865 19.9133 18.6601C14.8054 19.9336 9.63222 16.8253 8.35868 11.7174C7.08514 6.6095 10.1935 1.43634 15.3014 0.162804C20.4092 -1.11074 25.5824 1.99761 26.8559 7.10548Z" fill="url(#paint10_radial_1999_47995)"/>
</g>
<path opacity="0.2" d="M24.3037 12.7749C25.5772 17.8826 22.4689 23.0555 17.3612 24.3292C12.2534 25.6026 7.08042 22.4945 5.80687 17.3867C4.53336 12.2789 7.64156 7.10566 12.7494 5.83229C17.8571 4.55868 23.0302 7.66695 24.3037 12.7749Z" fill="white"/>
<path opacity="0.2" d="M24.3037 12.7749C25.5772 17.8826 22.4689 23.0555 17.3612 24.3292C12.2534 25.6026 7.08042 22.4945 5.80687 17.3867C4.53336 12.2789 7.64156 7.10566 12.7494 5.83229C17.8571 4.55868 23.0302 7.66695 24.3037 12.7749Z" fill="white"/>
<path opacity="0.33" d="M26.5526 3.5418C27.6054 7.76431 24.6228 19.4748 20.4002 20.5277C16.1776 21.5805 12.3142 11.577 11.2613 7.35433C10.2085 3.13177 12.778 -1.14496 17.0007 -2.19763C21.2232 -3.25054 25.4998 -0.680929 26.5526 3.5418Z" fill="white"/>
<path opacity="0.33" d="M31.4011 7.00275C32.4539 11.2253 29.8843 15.5017 25.6617 16.5546C21.4391 17.6074 9.31561 20.407 8.26276 16.1843C7.20997 11.9617 17.6265 2.31597 21.8492 1.2633C26.0717 0.210396 30.3483 2.78002 31.4011 7.00275Z" fill="white"/>
<path opacity="0.33" d="M21.7197 3.61213C22.7724 7.83463 20.2028 23.2621 15.9803 24.3151C11.7577 25.3679 7.48114 11.6473 6.4283 7.42466C5.3755 3.20209 7.94507 -1.07465 12.1677 -2.12732C16.3903 -3.18023 20.6668 -0.610602 21.7197 3.61213Z" fill="white"/>
<path opacity="0.33" d="M33.0673 12.5574C34.1201 16.7799 31.5505 21.0564 27.3279 22.1093C23.1053 23.1621 9.74281 20.5926 8.68997 16.37C7.63717 12.1474 19.2927 7.87066 23.5154 6.81799C27.7379 5.76508 32.0145 8.3347 33.0673 12.5574Z" fill="white"/>
<path opacity="0.33" d="M24.3037 12.7749C25.5772 17.8826 22.4689 23.0555 17.3612 24.3292C12.2534 25.6026 7.08042 22.4945 5.80687 17.3867C4.53336 12.2789 7.64156 7.10566 12.7494 5.83229C17.8571 4.55868 23.0302 7.66695 24.3037 12.7749Z" fill="#EEEEEC"/>
<path d="M24.3037 12.7749C25.5772 17.8826 22.4689 23.0555 17.3612 24.3292C12.2534 25.6026 7.08042 22.4945 5.80687 17.3867C4.53336 12.2789 7.64156 7.10566 12.7494 5.83229C17.8571 4.55868 23.0302 7.66695 24.3037 12.7749Z" fill="white"/>
</g>
</g>
<defs>
<filter id="filter0_f_1999_47995" x="-1.10308" y="8.92622" width="28.4425" height="28.4405" filterUnits="userSpaceOnUse" color-interpolation-filters="sRGB">
<feFlood flood-opacity="0" result="BackgroundImageFix"/>
<feBlend mode="normal" in="SourceGraphic" in2="BackgroundImageFix" result="shape"/>
<feGaussianBlur stdDeviation="0.779078" result="effect1_foregroundBlur_1999_47995"/>
</filter>
<filter id="filter1_f_1999_47995" x="6.9001" y="-1.29423" width="21.4146" height="21.4127" filterUnits="userSpaceOnUse" color-interpolation-filters="sRGB">
<feFlood flood-opacity="0" result="BackgroundImageFix"/>
<feBlend mode="normal" in="SourceGraphic" in2="BackgroundImageFix" result="shape"/>
<feGaussianBlur stdDeviation="0.58657" result="effect1_foregroundBlur_1999_47995"/>
</filter>
<linearGradient id="paint0_linear_1999_47995" x1="86.4401" y1="34.6169" x2="86.4401" y2="-2.45617" gradientUnits="userSpaceOnUse">
<stop/>
<stop offset="1" stop-color="#474945" stop-opacity="0.516432"/>
</linearGradient>
<linearGradient id="paint1_linear_1999_47995" x1="86.4404" y1="34.6164" x2="86.4404" y2="-2.45663" gradientUnits="userSpaceOnUse">
<stop/>
<stop offset="1" stop-color="#474945" stop-opacity="0.516432"/>
</linearGradient>
<linearGradient id="paint2_linear_1999_47995" x1="86.44" y1="34.6146" x2="86.44" y2="-2.45841" gradientUnits="userSpaceOnUse">
<stop/>
<stop offset="1" stop-color="#474945" stop-opacity="0.516432"/>
</linearGradient>
<linearGradient id="paint3_linear_1999_47995" x1="86.4398" y1="34.6177" x2="86.4398" y2="-2.45536" gradientUnits="userSpaceOnUse">
<stop/>
<stop offset="1" stop-color="#474945" stop-opacity="0.516432"/>
</linearGradient>
<linearGradient id="paint4_linear_1999_47995" x1="86.44" y1="34.6146" x2="86.44" y2="-2.45841" gradientUnits="userSpaceOnUse">
<stop/>
<stop offset="1" stop-color="#474945" stop-opacity="0.516432"/>
</linearGradient>
<linearGradient id="paint5_linear_1999_47995" x1="86.4402" y1="34.6164" x2="86.4402" y2="-2.45663" gradientUnits="userSpaceOnUse">
<stop/>
<stop offset="1" stop-color="#474945" stop-opacity="0.516432"/>
</linearGradient>
<linearGradient id="paint6_linear_1999_47995" x1="86.44" y1="34.6147" x2="86.44" y2="-2.45833" gradientUnits="userSpaceOnUse">
<stop/>
<stop offset="1" stop-color="#474945" stop-opacity="0.516432"/>
</linearGradient>
<linearGradient id="paint7_linear_1999_47995" x1="86.4407" y1="34.6146" x2="86.4407" y2="-2.45842" gradientUnits="userSpaceOnUse">
<stop/>
<stop offset="1" stop-color="#474945" stop-opacity="0.516432"/>
</linearGradient>
<linearGradient id="paint8_linear_1999_47995" x1="86.4393" y1="34.6146" x2="86.4393" y2="-2.45842" gradientUnits="userSpaceOnUse">
<stop/>
<stop offset="1" stop-color="#474945" stop-opacity="0.516432"/>
</linearGradient>
<radialGradient id="paint9_radial_1999_47995" cx="0" cy="0" r="1" gradientUnits="userSpaceOnUse" gradientTransform="translate(13.893 20.5656) rotate(114.21) scale(11.8052 27.0851)">
<stop stop-color="white"/>
<stop offset="1" stop-color="white" stop-opacity="0"/>
</radialGradient>
<radialGradient id="paint10_radial_1999_47995" cx="0" cy="0" r="1" gradientUnits="userSpaceOnUse" gradientTransform="translate(17.0239 11.3542) rotate(-65.7904) scale(10.1144 20.3924)">
<stop stop-color="white"/>
<stop offset="1" stop-color="white" stop-opacity="0"/>
</radialGradient>
<clipPath id="clip0_1999_47995">
<rect width="137" height="31" fill="white"/>
</clipPath>
<clipPath id="clip1_1999_47995">
<rect x="0.0800781" y="0.109375" width="29.9507" height="29.9507" rx="14.9753" fill="white"/>
</clipPath>
</defs>
</svg>
