<svg width="20.000000" height="20.000000" viewBox="0 0 20 20" fill="none" xmlns="http://www.w3.org/2000/svg" xmlns:xlink="http://www.w3.org/1999/xlink">
	<desc>
			Created with Pixso.
	</desc>
	<defs/>
	<path d="M18.0996 16.1836C17.958 16.4844 17.7744 16.7695 17.5322 17.0352C17.124 17.4844 16.6748 17.8086 16.166 18.0195C15.666 18.2266 15.124 18.3359 14.541 18.3359C13.6914 18.3359 12.7822 18.1328 11.8242 17.7266C10.8662 17.3164 9.90723 16.7695 8.95801 16.0781C7.99902 15.375 7.09082 14.6016 6.22461 13.7422C5.36621 12.875 4.59082 11.9688 3.89941 11.0195C3.21582 10.0664 2.66602 9.11719 2.26562 8.17578C1.86621 7.22656 1.66602 6.31641 1.66602 5.45312C1.66602 4.88281 1.76562 4.34375 1.96582 3.84375C2.16602 3.33594 2.48242 2.86719 2.9248 2.45312C3.45801 1.92578 4.04102 1.66797 4.65723 1.66797C4.89062 1.66797 5.12402 1.71875 5.33301 1.81641C5.5498 1.91797 5.74121 2.06641 5.89062 2.28516L7.82422 5.00781C7.97461 5.21875 8.08301 5.41016 8.15723 5.59375C8.23242 5.76953 8.27441 5.94141 8.27441 6.10156C8.27441 6.30078 8.21582 6.5 8.09961 6.69141C7.99121 6.88281 7.83301 7.08594 7.63281 7.28516L6.99902 7.94141C6.90723 8.03516 6.86621 8.14453 6.86621 8.27734C6.86621 8.34375 6.87402 8.40234 6.89062 8.46875C6.93262 8.57812 6.98535 8.6875 7.04785 8.78906C7.20312 9.03906 7.43164 9.34375 7.73242 9.70312C8.10742 10.1328 8.50781 10.5781 8.94141 11.0195C9.39062 11.4609 9.82422 11.8672 10.2656 12.2422C10.6992 12.6094 11.0576 12.8594 11.3408 13.0078C11.3828 13.0273 11.4326 13.0508 11.4912 13.0781C11.5576 13.1016 11.624 13.1094 11.6992 13.1094C11.8408 13.1094 11.9492 13.0586 12.041 12.9688L12.6748 12.3438C12.8828 12.1328 13.083 11.9766 13.2744 11.875C13.4658 11.7578 13.6572 11.7031 13.8662 11.7031C14.0244 11.7031 14.1914 11.7344 14.374 11.8086C14.5576 11.8828 14.749 11.9922 14.958 12.1328L17.7158 14.0938C17.9326 14.2422 18.083 14.418 18.1748 14.625C18.2578 14.8359 18.3076 15.043 18.3076 15.2773C18.3076 15.5781 18.2412 15.8828 18.0996 16.1836Z" stroke="#42494F" stroke-opacity="1.000000" stroke-width="1.500000"/>
	<path d="M15.417 7.50391C15.417 7.00391 15.0254 6.23438 14.4414 5.60938C13.9082 5.03516 13.2002 4.58594 12.5 4.58594" stroke="#42494F" stroke-opacity="1.000000" stroke-width="1.500000" stroke-linejoin="round" stroke-linecap="round"/>
	<path d="M18.333 7.5C18.333 4.27734 15.7246 1.66797 12.5 1.66797" stroke="#42494F" stroke-opacity="1.000000" stroke-width="1.500000" stroke-linejoin="round" stroke-linecap="round"/>
	<g opacity="0.000000"/>
</svg>
